<?xml version="1.0" encoding="UTF-8" standalone="no"?>
<!-- Created with Inkscape (http://www.inkscape.org/) -->

<svg
   width="185.87099mm"
   height="162.78456mm"
   viewBox="0 0 185.87099 162.78456"
   version="1.1"
   id="svg1"
   xml:space="preserve"
   sodipodi:docname="N.3.svg"
   inkscape:version="1.4.2 (ebf0e940, 2025-05-08)"
   xmlns:inkscape="http://www.inkscape.org/namespaces/inkscape"
   xmlns:sodipodi="http://sodipodi.sourceforge.net/DTD/sodipodi-0.dtd"
   xmlns="http://www.w3.org/2000/svg"
   xmlns:svg="http://www.w3.org/2000/svg"><sodipodi:namedview
     id="namedview1"
     pagecolor="#ffffff"
     bordercolor="#666666"
     borderopacity="1.0"
     inkscape:showpageshadow="2"
     inkscape:pageopacity="0.0"
     inkscape:pagecheckerboard="0"
     inkscape:deskcolor="#d1d1d1"
     inkscape:document-units="mm"
     showgrid="false"
     inkscape:zoom="0.94803661"
     inkscape:cx="345.9782"
     inkscape:cy="303.25833"
     inkscape:window-width="1512"
     inkscape:window-height="922"
     inkscape:window-x="0"
     inkscape:window-y="32"
     inkscape:window-maximized="1"
     inkscape:current-layer="svg1" /><defs
     id="defs1" /><path
     style="opacity:0.6;fill:#ff0000;stroke-width:0.529167;stroke-linecap:round"
     id="path7"
     d="m 77.228681,38.836393 c 0.341704,-1.154234 1.10141,-2.078154 1.779029,-3.050542 1.337794,-1.833155 2.986241,-3.393657 4.734491,-4.826707 1.240015,-0.891008 2.435053,-1.8367 3.756742,-2.608498 0.376081,-0.219609 1.520428,-0.850114 1.143696,-0.631624 -6.616089,3.837109 -13.241335,7.658407 -19.862001,11.487611 1.528016,-0.825535 3.11898,-1.549025 4.774626,-2.081425 1.607047,-0.516768 3.27915,-0.814858 4.93486,-1.121259 2.783956,-0.43375 5.60406,-0.611687 8.418695,-0.682781 1.868151,0.03567 3.771569,-0.171222 5.609987,0.268206 0.26375,0.06305 0.515837,0.167536 0.773758,0.251306 1.365774,0.553985 2.487588,1.118074 3.64922,2.034683 1.132597,0.922943 2.203762,1.917824 3.194756,2.990818 0.8356,0.942914 1.62315,1.943963 2.23058,3.051625 0.31651,0.577162 0.59741,1.173178 0.90316,1.756108 0.80032,1.631347 1.33353,3.364111 1.78528,5.116976 0.36848,1.476885 0.71238,2.954954 1.0131,4.447056 0.071,0.937127 0.23332,1.874146 0.27507,2.813457 0.0493,1.108691 -0.0501,2.224648 -0.15508,3.326093 -0.25106,1.339974 -0.50877,2.705155 -0.96097,3.99611 -0.42566,1.215173 -1.06359,2.349977 -1.67802,3.475586 -0.83234,1.426569 -1.73522,2.823749 -2.79114,4.096199 -0.815887,0.809218 -1.65922,1.594692 -2.62315,2.227485 -0.619678,0.406799 -1.266267,0.771186 -1.892774,1.167387 -7.952112,4.445484 0.498086,-0.27172 19.125614,-11.07726 0.39815,-0.230963 -0.80468,0.447307 -1.2113,0.663006 -1.29391,0.686369 -2.60555,1.278101 -3.96475,1.821389 -1.92578,0.65051 -3.91423,1.126572 -5.92469,1.424426 -1.48835,0.187418 -2.97065,0.164502 -4.460666,0.04117 C 98.66713,69.091063 97.612818,68.68365 96.626893,68.116926 96.284313,68.007319 96.030827,67.736357 95.729998,67.56133 95.414165,67.377571 95.044595,67.24892 94.69602,67.14546 94.150708,66.992862 93.706549,66.638199 93.156332,66.516615 92.845201,66.33583 92.86782,66.30144 92.625578,65.957055 c 0.07764,0.122121 -0.2076,-0.311798 -0.154762,-0.234479 0.189986,0.278027 1.351806,1.932959 1.16165,2.056067 -24.081621,15.590369 -24.646493,22.834483 -23.882077,13.574492 0.351406,-0.292748 -0.315635,0.306171 0.07665,-0.349916 0.0763,-0.127612 0.294613,0.04519 0.443209,0.05019 0.06405,0.0021 0.122385,-0.0508 0.186375,-0.04722 0.09191,0.0051 0.177636,0.04836 0.266456,0.07253 0.09991,0.03743 0.195898,0.08772 0.29972,0.112274 0.422797,0.1 0.910842,0.08686 1.336937,0.146044 0.288036,0.04001 0.573945,0.09408 0.86092,0.141116 0.455549,0.06035 0.911098,0.120706 1.366647,0.181057 6.015342,0.816419 11.740711,2.962706 17.41307,5.032891 5.185336,2.186252 10.359347,4.534159 15.114727,7.57002 2.23411,1.426268 3.70554,2.628868 5.78031,4.228343 2.3288,1.937896 4.51567,4.060666 6.41153,6.428546 0.15743,0.19662 1.23131,1.65781 1.43617,1.93585 1.15875,1.35847 1.96355,2.61998 2.59152,4.29084 0.65315,1.65393 0.75061,3.41819 0.69148,5.17354 -0.12839,0.8604 -0.18999,1.76234 -0.4109,2.6082 -0.14263,0.54612 -0.34837,0.94103 -0.58051,1.45972 -0.47289,0.84061 -0.98245,1.6529 -1.49632,2.46788 -0.19529,0.30972 -0.36241,0.63725 -0.56857,0.93984 -0.47434,0.69619 -1.07721,1.38506 -1.61359,2.02857 -1.02245,1.10187 -2.15153,2.08514 -3.42207,2.89165 -0.4437,0.28165 -1.81987,1.05223 -1.36579,0.78763 19.71518,-11.48833 26.01349,-14.73942 17.90825,-10.51794 -2.57556,1.13104 -5.35111,1.83404 -8.14246,2.17951 -0.54658,0.0677 -1.0976,0.0928 -1.64639,0.13924 -1.36918,0.13423 -2.74195,-0.007 -4.11198,0.0107 -0.48239,0.006 -0.96384,0.0455 -1.44604,0.0604 -0.98456,0.0302 -1.96966,0.0394 -2.95447,0.0598 -2.89421,0.12681 -5.79247,0.30497 -8.69011,0.16101 -2.42066,-0.12027 -3.00763,-0.24947 -5.41206,-0.57009 -3.765604,-0.59752 -7.52074,-1.33692 -11.04641,-2.83012 -2.13069,-0.9024 -2.433921,-1.15322 -4.37039,-2.27273 -1.504715,-1.093 -3.118279,-2.03379 -4.632082,-3.11267 -1.062998,-0.75759 -2.038662,-1.63665 -3.066391,-2.44041 -0.259519,-0.22046 -0.525097,-0.43398 -0.77856,-0.66138 -0.655066,-0.58769 -0.555824,-0.60227 -1.262108,-1.11358 -0.815943,-0.59071 -1.72407,-1.07451 -2.594692,-1.57633 -1.48178,-0.83849 -2.977975,-1.66357 -4.365635,-2.65477 -0.864484,-0.61749 -1.243899,-0.9565 -2.057713,-1.63128 -0.746183,-0.61406 -1.280808,-1.00507 -1.925695,-1.72356 -0.496123,-0.55276 -0.737357,-1.00598 -1.15507,-1.600983 -0.295244,-0.420555 -0.606627,-0.829599 -0.903206,-1.249212 -0.477658,-0.883158 -0.948333,-1.76575 -1.369264,-2.676615 -0.604414,-1.068602 -0.845851,-2.104334 -0.880895,-3.321976 0.0063,-0.705477 0.06491,-1.420431 0.282524,-2.094838 0.05641,-0.13828 0.07457,-0.260501 0.229762,-0.174665 0,0 -24.921467,12.497049 -24.921467,12.497049 v 0 c 0.101537,0.0884 0.189299,0.0942 0.232979,0.23599 0.284578,0.65448 0.433917,1.36063 0.669468,2.03321 0.422042,1.31432 0.677886,2.6648 1.100478,3.9775 0.53412,1.17814 1.270014,2.23082 2.253504,3.08325 1.663195,1.52961 3.640431,2.66131 5.242835,4.26675 2.006135,1.61388 4.003646,3.2386 6.047034,4.80486 0.737118,0.58467 1.429424,1.26089 2.21025,1.78724 0.619037,0.41729 1.048818,0.58504 1.72897,0.91403 0.355621,0.17201 0.710131,0.34631 1.065199,0.51947 0.401595,0.20086 0.79438,0.4204 1.204791,0.60257 0.990981,0.43986 2.040477,0.74052 3.010098,1.23247 1.961428,0.8749 3.890087,1.83208 5.957036,2.45044 5.303927,1.95333 10.553718,4.1431 16.093132,5.35528 4.038137,0.83086 8.055044,1.87708 12.165645,2.27296 3.299936,0.0648 -0.403042,-0.003 2.862913,0.042 0.460275,0.006 0.920544,0.0361 1.380729,0.025 1.610951,-0.0389 3.211801,-0.28629 4.820691,-0.35895 1.72637,-0.13641 3.48284,-0.17996 5.19656,-0.44174 1.67104,-0.25526 3.33191,-0.66039 4.94826,-1.1483 9.5533,-3.37929 1.9975,-0.60008 23.76007,-13.38312 0.48458,-0.28464 0.91653,-0.65189 1.35329,-1.00554 1.27402,-1.03161 2.40733,-2.22442 3.47329,-3.46553 1.684,-2.02569 3.41639,-4.0837 4.37157,-6.57262 0.70654,-1.81296 1.28531,-3.31761 0.74147,-5.26255 -0.31764,-1.95338 -0.55706,-3.92942 -1.19218,-5.813092 -0.1295,-0.322496 -0.24084,-0.652894 -0.38852,-0.967484 -0.57609,-1.227232 -1.43704,-2.482209 -2.45354,-3.386018 -0.29119,-0.2589 -0.62362,-0.467302 -0.93543,-0.700953 -3.98649,-2.282266 -8.37654,-3.741515 -12.45264,-5.850913 -0.59586,-0.295649 -6.59117,-3.26716 -7.03208,-3.499168 -4.89006,-2.573083 -9.59798,-5.485196 -14.40948,-8.198286 -3.81884,-2.351191 -2.17841,-1.329307 -5.76571,-3.581562 -2.35584,-1.479089 -4.736362,-2.955694 -6.779509,-4.862647 -1.202182,-1.119545 -0.200375,-0.221356 -1.201542,-1.04698 -0.357479,-0.294799 -0.721897,-0.667205 -1.2046,-0.7244 -0.655992,-0.256056 0.279072,0.13118 -0.504442,-0.288835 -0.04766,-0.02556 -0.108931,-0.01228 -0.158776,-0.03323 -0.257482,-0.108299 -0.345684,-0.399589 -0.594434,-0.5149 -7.435885,-5.727454 -1.353214,-1.111507 -24.154656,13.606134 -0.189627,0.122399 0.951775,1.881413 1.14619,2.144922 0.02318,0.0314 0.08407,-0.09432 0.110297,-0.03923 0.03669,-0.0078 0.07487,-0.06682 0.103968,-0.04314 0.191543,0.155943 0.309912,0.389392 0.500812,0.546124 0.07029,0.05771 0.163377,0.08016 0.24263,0.124769 0.09493,0.05343 0.186402,0.112771 0.279604,0.169156 0.181433,0.14355 0.375484,0.320876 0.59612,0.408895 0.0835,0.03331 0.178276,0.02739 0.264435,0.05307 0.360008,0.107289 0.657839,0.340617 1.031748,0.403411 0.687977,0.326445 1.447458,0.43481 2.141151,0.763005 1.339464,0.383111 2.624847,0.926229 3.971094,1.289127 1.740503,0.402838 3.539294,0.448474 5.312423,0.23808 0.628682,-0.05767 1.481982,-0.124836 2.103353,-0.22741 1.720474,-0.284009 3.380679,-0.84968 5.034693,-1.383088 0.245848,-0.08194 2.437013,-0.809162 2.716281,-0.914138 0.683916,-0.257085 1.85824,-0.76036 2.497349,-1.124998 21.445231,-12.235344 15.326121,-8.364852 23.725361,-13.711208 1.9119,-1.288433 3.76657,-2.750193 5.10326,-4.65365 0.86804,-1.351545 1.53654,-2.791219 1.89275,-4.365421 0.68253,-2.578473 1.30286,-5.17411 1.86901,-7.780423 0.20054,-1.052004 0.35841,-1.741172 0.46073,-2.798352 0.14126,-1.459563 0.0812,-2.932758 -0.0537,-4.389572 -0.11819,-1.723613 -0.38212,-3.449527 -1.01626,-5.066708 -0.77611,-1.724805 -1.61116,-3.420284 -2.42596,-5.126884 -0.89888,-1.895631 -1.98091,-3.697583 -3.07661,-5.485066 -0.95706,-1.350693 -1.97941,-2.641923 -3.29785,-3.66461 -1.14206,-0.851263 -0.18797,-0.161214 -1.35506,-0.947907 -1.02425,-0.690415 -2.02685,-1.408587 -3.27195,-1.642801 -0.53545,-0.127493 -1.77387,-0.432646 -2.30114,-0.514735 -1.71979,-0.267749 -3.45324,-0.279931 -5.18599,-0.163157 -3.10549,0.139466 -6.19906,0.376518 -9.264232,0.925267 -3.302895,0.468101 -6.6327,1.066074 -9.755201,2.270113 -7.49183,4.277175 -14.993437,8.537274 -22.475494,12.831525 -1.899341,1.090107 -3.651644,2.433161 -5.255077,3.91986 -1.703906,1.696564 -3.342683,3.462358 -4.754687,5.413933 -0.654233,0.874181 -1.243362,1.785223 -1.882563,2.669479 -0.517486,0.715875 -0.690944,0.824249 -1.112259,1.615898 -0.0887,0.166664 -0.135958,0.352266 -0.203938,0.528402 z" /><rect
     style="opacity:0.6;fill:none;stroke:none;stroke-width:0.529165;stroke-linecap:round"
     id="rect1"
     width="185.871"
     height="162.78499"
     x="-7.6293945e-06"
     y="-0.00021362305" /></svg>
