<?xml version="1.0" encoding="UTF-8" standalone="no"?>
<!-- Created with Inkscape (http://www.inkscape.org/) -->

<svg
   width="185.87099mm"
   height="162.78456mm"
   viewBox="0 0 185.87099 162.78456"
   version="1.1"
   id="svg1"
   xml:space="preserve"
   sodipodi:docname="N.4.svg"
   inkscape:version="1.4.2 (ebf0e940, 2025-05-08)"
   xmlns:inkscape="http://www.inkscape.org/namespaces/inkscape"
   xmlns:sodipodi="http://sodipodi.sourceforge.net/DTD/sodipodi-0.dtd"
   xmlns="http://www.w3.org/2000/svg"
   xmlns:svg="http://www.w3.org/2000/svg"><sodipodi:namedview
     id="namedview1"
     pagecolor="#ffffff"
     bordercolor="#666666"
     borderopacity="1.0"
     inkscape:showpageshadow="2"
     inkscape:pageopacity="0.0"
     inkscape:pagecheckerboard="0"
     inkscape:deskcolor="#d1d1d1"
     inkscape:document-units="mm"
     showgrid="false"
     inkscape:zoom="0.94803661"
     inkscape:cx="345.9782"
     inkscape:cy="303.25833"
     inkscape:window-width="1512"
     inkscape:window-height="922"
     inkscape:window-x="0"
     inkscape:window-y="32"
     inkscape:window-maximized="1"
     inkscape:current-layer="svg1" /><defs
     id="defs1" /><path
     style="opacity:0.6;fill:#ff0000;stroke-width:0.529167;stroke-linecap:round"
     id="path8"
     d="m 33.189246,31.519264 c 0.882234,0.968992 0.87627,2.331067 1.219798,3.520046 0.133072,0.460582 0.323598,0.902584 0.485399,1.353876 0.939972,1.94782 0.97709,4.106444 1.3354,6.190816 0.147206,0.856326 0.395761,1.693531 0.534558,2.55126 0.290187,1.793264 0.410171,3.823851 0.550805,5.630685 0.06551,0.938687 0.114601,1.878664 0.19654,2.816059 0.289661,3.313808 0.334661,2.432343 0.541967,5.786173 0.103579,1.675691 0.17195,4.157233 0.133475,5.841743 -0.02085,0.912326 -0.09411,1.822699 -0.141169,2.734048 -0.194625,3.289453 -0.613182,6.585757 -1.570331,9.746231 -0.172802,0.535803 -0.306049,1.098897 -0.536575,1.614644 -0.06317,0.130371 -0.0093,0.321437 0.02177,0.462245 0.08887,0.41628 0.177007,0.833642 0.196334,1.26787 0.06696,0.672831 0.07006,1.364515 -0.02919,2.034408 0.06236,0.178607 -0.183843,0.919443 -0.145931,1.061839 0.04696,0.176369 0.140751,0.336796 0.211125,0.505193 4.756771,8.852826 0.384474,1.297437 25.156241,-11.714536 0.149752,-0.07866 -0.186965,-0.31425 -0.160694,-0.481356 0.01516,-0.09641 0.286943,0.160581 0.203234,0.210759 C 36.914878,87.323648 31.636988,92.042484 38.803881,85.714 c 0.333621,-0.184851 0.6521,-0.400169 1.000866,-0.554559 1.604793,-0.71039 2.772037,-0.97981 4.549629,-1.40241 1.533065,-0.364466 3.063037,-0.749872 4.613416,-1.031719 4.27247,-0.776703 7.070539,-0.955858 11.433614,-1.384266 7.140373,-0.427154 5.299397,-0.402227 12.436244,-0.489783 5.654614,-0.06937 6.685508,-0.176334 12.100293,0.360873 1.566299,0.155395 3.119244,0.424794 4.68104,0.620331 1.465924,0.183534 2.934578,0.344565 4.401865,0.516846 7.465202,0.676386 14.973572,0.696401 22.434252,1.429086 1.15413,0.113342 2.30341,0.27156 3.4551,0.407341 2.69986,0.485503 5.92178,0.712087 8.28532,2.290885 0.0613,0.0568 0.13881,0.100081 0.18402,0.170399 0.0957,0.148773 -0.11884,0.322818 -0.0118,0.24516 7.39211,-5.364204 31.16361,-16.296557 22.03027,-16.291959 -0.18667,-0.03799 -0.37452,-0.0236 -0.56139,-0.05059 -0.0725,-0.02008 -0.14765,0.0011 -0.22255,7.93e-4 0,0 -22.43441,16.303009 -22.43441,16.303009 v 0 c 0.0768,-2.65e-4 0.14753,0.01918 0.22311,2.3e-4 0.21249,-0.02297 0.42529,-0.0173 0.6378,-0.04829 9.31821,0.272357 15.18648,-10.816163 22.74232,-16.276243 0.0541,-0.03913 -0.10923,0.07846 -0.17007,0.106061 -0.12354,0.05605 -0.25108,0.10386 -0.38072,0.143822 -0.20822,0.06419 -0.42108,0.112168 -0.63163,0.168249 -4.5894,1.066498 -9.28331,1.626706 -13.98392,1.896306 -4.08994,0.17745 -4.62491,0.253264 -8.79733,0.213399 -6.27499,-0.05995 -12.52569,-0.663844 -18.79911,-0.777155 -1.74161,0.01929 -3.48362,0.01593 -5.22483,0.05785 -4.957714,0.119393 -7.071494,0.368171 -12.09423,0.257514 -2.017577,-0.04445 -4.029562,-0.232878 -6.045784,-0.319164 -16.445974,-0.703816 4.252015,0.332382 -11.172783,-0.465524 -2.667997,-0.259795 -5.545645,-0.434248 -8.182369,-1.046189 -0.790136,-0.18338 -1.53243,-0.533755 -2.308677,-0.769094 -1.015794,-0.307961 -2.064118,-0.533542 -3.083939,-0.829799 -9.277818,-2.202529 -0.753766,-0.278455 -24.038922,13.707872 -0.129098,0.07754 0.05018,0.389453 -0.09074,0.442579 -0.132855,0.05009 -0.436872,-0.225626 -0.310912,-0.29115 8.162782,-4.246327 16.343116,-8.468929 24.671168,-12.381196 0.216125,-0.101528 0.199379,0.433957 0.299069,0.650934 0.2379,0.498853 0.149093,0.351395 0.108664,0.185322 -0.06314,-0.259366 -0.0659,-0.533051 -0.110265,-0.795756 -0.114723,-0.657222 -0.08425,-1.342464 -0.02917,-2.004285 0.02119,-0.494503 0.111366,-0.976561 0.198128,-1.457947 0.03055,-0.156093 0.09349,-0.374091 0.02756,-0.518249 -0.05859,-0.107752 -0.0907,-0.234448 -0.150297,-0.338918 -0.15181,-0.266147 -0.388511,-0.490004 -0.477673,-0.7947 -1.357961,-2.345502 -1.888707,-5.070314 -2.310117,-7.715496 -0.102515,-0.841481 -0.22466,-1.680803 -0.307546,-2.524445 -0.130194,-1.325198 -0.329287,-4.457833 -0.396669,-5.759514 -0.102933,-1.9885 -0.130723,-3.980722 -0.252857,-5.968137 -0.05773,-0.939358 -0.153538,-1.875989 -0.230306,-2.813984 -0.182227,-2.104176 -0.359961,-3.590287 -0.343615,-5.711971 0.0075,-0.970819 0.127132,-1.938258 0.144693,-2.908945 0.01476,-0.815718 -0.05495,-1.631268 -0.0478,-2.447086 0.02122,-2.422695 0.0752,-2.285725 0.389495,-4.629574 0.08101,-0.567599 0.181822,-1.132721 0.24302,-1.702796 0.04307,-0.401203 0.0334,-0.80664 0.06952,-1.208529 0.09989,-1.111428 0.325308,-2.193509 0.830741,-3.196249 z" /><path
     style="opacity:0.6;fill:#ff0000;stroke-width:0.529167;stroke-linecap:round"
     id="path9"
     d="m 96.820753,32.077435 c 0.303006,0.34998 0.408043,0.802232 0.596305,1.211852 0.153823,0.33469 0.381873,0.637471 0.494736,0.9881 0.251648,0.781804 0.349547,2.186397 0.430075,2.96617 0.292688,1.665657 0.389959,2.012672 0.537491,3.747804 0.05806,0.682916 0.04766,1.370896 0.115927,2.052868 0.250248,2.500143 0.38562,2.009846 0.707014,4.628996 0.111141,0.905735 0.157414,1.818254 0.236122,2.727381 0.03092,0.950954 0.05967,1.901981 0.09276,2.852861 0.0339,0.97468 0.0373,1.951125 0.10828,2.923808 0.0763,1.04513 0.21683,2.084596 0.33327,3.12602 0.20988,1.87729 0.66763,5.578763 0.83322,7.390942 0.13013,1.424003 0.21368,2.851878 0.32052,4.277815 0.37341,6.316289 0.52934,12.645072 0.4068,18.971561 -0.0302,1.558872 -0.1301,3.116379 -0.13533,4.675534 -0.005,1.53384 0.0695,3.06691 0.10421,4.600364 0.002,4.303319 -0.1414,8.603639 -0.26926,12.904219 -0.0373,1.25544 -0.035,2.51236 -0.10035,3.76666 -0.0929,1.78283 -0.38755,4.55315 -0.56856,6.37266 -0.45355,4.01096 -0.55649,8.05021 -0.93677,12.06657 -0.213303,1.89635 -0.593448,3.76536 -1.029013,5.62028 -0.143415,0.42145 -0.25446,0.84707 -0.376375,1.27257 -0.03104,0.25658 0.05712,0.42145 0.153506,0.65823 0.166682,0.73474 0.216807,1.47243 0.187166,2.22297 -0.03846,0.59228 -0.108611,1.18836 -0.283435,1.75754 -0.03448,0.0976 -0.04169,0.17752 -0.130056,0.23254 8.257297,-4.23723 16.514597,-8.47445 24.771897,-12.71168 0,0 -24.689685,12.58003 -24.689685,12.58003 v 0 c 8.257295,-4.17738 16.514595,-8.35476 24.771895,-12.53213 -0.0929,0.0368 -0.0822,-0.0237 -0.13006,-0.10003 -0.20494,-0.4584 -0.24042,-0.97512 -0.28345,-1.46872 -0.0335,-0.81275 0.0394,-1.61331 0.18709,-2.41362 0.079,-0.27454 0.18162,-0.51915 0.15434,-0.80396 -0.0372,-0.0929 -0.0439,-0.19867 -0.0801,-0.28873 -0.0822,-0.20448 -0.2556,-0.37957 -0.28784,-0.60804 -0.09,-0.30022 -0.2032,-0.5933 -0.28849,-0.89489 -0.34206,-1.20957 -0.53265,-2.46724 -0.76016,-3.70027 -0.45348,-3.63798 -0.69437,-7.31119 -1.55658,-10.8878 -0.31667,-1.43299 -0.92494,-4.09973 -1.14617,-5.48583 -0.18389,-1.15221 -0.29806,-2.3145 -0.43892,-3.47276 -0.49101,-4.037428 -0.94034,-8.083401 -1.10713,-12.149838 -0.0149,-1.539544 10e-4,-3.079708 -0.0448,-4.618636 -0.24646,-8.228705 -0.24786,-0.714406 -0.36766,-9.204991 -0.0528,-3.744296 0.0123,-6.039276 0.15903,-9.783667 0.0626,-1.596171 0.15021,-3.191259 0.22532,-4.786887 0.10424,-1.534123 0.18832,-3.069749 0.31273,-4.602369 0.13289,-1.637125 0.63373,-6.482746 0.7948,-8.230057 0.10612,-1.151232 0.23349,-2.301277 0.29553,-3.455723 0.054,-1.004089 0.0411,-2.010685 0.0523,-3.016163 0.0108,-0.973169 0.009,-1.946436 0.0135,-2.919656 0.0432,-0.977217 0.0627,-1.955763 0.12949,-2.931652 0.15248,-2.229064 0.36789,-3.076969 0.40893,-5.245251 0.0635,-3.352538 -0.22615,-0.79571 0.007,-4.165597 0.0469,-0.677981 0.1455,-1.351388 0.21825,-2.027081 0.0734,-1.255068 0.0652,-2.084711 0.36331,-3.3146 0.12345,-0.509297 0.3382,-0.992141 0.49474,-1.492259 0.19043,-0.608401 0.31785,-1.240718 0.5963,-1.819518 z" /><rect
     style="opacity:0.6;fill:none;stroke:none;stroke-width:0.529165;stroke-linecap:round"
     id="rect1"
     width="185.871"
     height="162.78499"
     x="-7.6293945e-06"
     y="-0.00021362305" /></svg>
