<?xml version="1.0" encoding="UTF-8" standalone="no"?>
<!-- Created with Inkscape (http://www.inkscape.org/) -->

<svg
   width="290mm"
   height="191.99998mm"
   viewBox="0 0 290 191.99998"
   version="1.1"
   id="svg1"
   xml:space="preserve"
   sodipodi:docname="F.1 Film.svg"
   inkscape:version="1.4.2 (ebf0e940, 2025-05-08)"
   xmlns:inkscape="http://www.inkscape.org/namespaces/inkscape"
   xmlns:sodipodi="http://sodipodi.sourceforge.net/DTD/sodipodi-0.dtd"
   xmlns="http://www.w3.org/2000/svg"
   xmlns:svg="http://www.w3.org/2000/svg"><sodipodi:namedview
     id="namedview1"
     pagecolor="#ffffff"
     bordercolor="#666666"
     borderopacity="1.0"
     inkscape:showpageshadow="2"
     inkscape:pageopacity="0.0"
     inkscape:pagecheckerboard="0"
     inkscape:deskcolor="#d1d1d1"
     inkscape:document-units="mm"
     inkscape:zoom="0.4390108"
     inkscape:cx="584.26809"
     inkscape:cy="440.76364"
     inkscape:current-layer="svg1" /><defs
     id="defs1" /><path
     id="rect1"
     style="opacity:1;fill:#000000;stroke:none;stroke-width:0.529165;stroke-linecap:round"
     d="M 0,2.3706055e-6 V 191.99998 h 9.578945 v -5.0338 c 0,-4.68098 3.760914,-8.44958 8.432345,-8.44958 4.671431,0 8.431827,3.7686 8.431827,8.44958 v 5.0338 h 9.118032 v -10.05934 c 0,-4.68098 3.760398,-8.44958 8.431829,-8.44958 H 246.0065 c 4.67144,0 8.43235,3.7686 8.43235,8.44958 v 10.05934 h 9.11804 v -5.0338 c 0,-4.68098 3.76039,-8.44958 8.43183,-8.44958 4.67142,0 8.43233,3.7686 8.43233,8.44958 v 5.0338 H 290 V 2.3706055e-6 h -9.57895 V 5.0338168 c 0,4.6809783 -3.76091,8.4495792 -8.43233,8.4495792 -4.67144,0 -8.43183,-3.7686009 -8.43183,-8.4495792 V 2.3706055e-6 h -9.11804 V 10.059347 c 0,4.680977 -3.76091,8.449579 -8.43235,8.449579 H 43.992978 c -4.671431,0 -8.431829,-3.768602 -8.431829,-8.449579 V 2.3706055e-6 H 26.443117 V 5.0338168 c 0,4.6809783 -3.760397,8.4495792 -8.431827,8.4495792 -4.67143,0 -8.432345,-3.7686009 -8.432345,-8.4495792 V 2.3706055e-6 Z M 18.01129,24.988887 c 4.671431,0 8.431827,3.768602 8.431827,8.44958 v 10.426965 c 0,4.680978 -3.760397,8.449061 -8.431827,8.449061 -4.67143,0 -8.432345,-3.768083 -8.432345,-8.449061 V 33.438467 c 0,-4.680978 3.760915,-8.44958 8.432345,-8.44958 z m 253.97743,0 c 4.67142,0 8.43233,3.768602 8.43233,8.44958 v 10.426965 c 0,4.680978 -3.76091,8.449061 -8.43233,8.449061 -4.67144,0 -8.43183,-3.768083 -8.43183,-8.449061 V 33.438467 c 0,-4.680978 3.76039,-8.44958 8.43183,-8.44958 z M 43.992978,27.685463 H 246.0065 c 4.67144,0 8.43235,3.7686 8.43235,8.44958 V 155.86494 c 0,4.68098 -3.76091,8.44958 -8.43235,8.44958 H 43.992978 c -4.671431,0 -8.431829,-3.7686 -8.431829,-8.44958 V 36.135043 c 0,-4.68098 3.760398,-8.44958 8.431829,-8.44958 z M 18.01129,64.539175 c 4.671431,0 8.431827,3.768601 8.431827,8.44958 v 10.426964 c 0,4.680979 -3.760397,8.44958 -8.431827,8.44958 -4.67143,0 -8.432345,-3.768601 -8.432345,-8.44958 V 72.988755 c 0,-4.680979 3.760915,-8.44958 8.432345,-8.44958 z m 253.97743,0 c 4.67142,0 8.43233,3.768601 8.43233,8.44958 v 10.426964 c 0,4.680979 -3.76091,8.44958 -8.43233,8.44958 -4.67144,0 -8.43183,-3.768601 -8.43183,-8.44958 V 72.988755 c 0,-4.680979 3.76039,-8.44958 8.43183,-8.44958 z M 18.01129,103.01094 c 4.671431,0 8.431827,3.76861 8.431827,8.44957 v 10.42696 c 0,4.68099 -3.760397,8.44958 -8.431827,8.44958 -4.67143,0 -8.432345,-3.76859 -8.432345,-8.44957 v -10.42697 c 0,-4.68097 3.760915,-8.44957 8.432345,-8.44957 z m 253.97743,0 c 4.67142,0 8.43233,3.76861 8.43233,8.44957 v 10.42696 c 0,4.68099 -3.76091,8.44958 -8.43233,8.44958 -4.67144,0 -8.43183,-3.76859 -8.43183,-8.44957 v -10.42697 c 0,-4.68097 3.76039,-8.44957 8.43183,-8.44957 z m -253.97743,38.8316 c 4.67143,0 8.431827,3.7686 8.431827,8.44958 v 10.42697 c 0,4.68097 -3.760397,8.44907 -8.431827,8.44907 -4.671431,0 -8.432345,-3.7681 -8.432345,-8.44907 v -10.42697 c 0,-4.68098 3.760914,-8.44958 8.432345,-8.44958 z m 253.97743,0 c 4.67142,0 8.43233,3.7686 8.43233,8.44958 v 10.42697 c 0,4.68097 -3.76091,8.44907 -8.43233,8.44907 -4.67144,0 -8.43183,-3.7681 -8.43183,-8.44907 v -10.42697 c 0,-4.68098 3.76039,-8.44958 8.43183,-8.44958 z" /></svg>
