<?xml version="1.0" encoding="UTF-8" standalone="no"?>
<!-- Created with Inkscape (http://www.inkscape.org/) -->

<svg
   width="185.87099mm"
   height="162.78456mm"
   viewBox="0 0 185.87099 162.78456"
   version="1.1"
   id="svg1"
   xml:space="preserve"
   sodipodi:docname="L.3.svg"
   inkscape:version="1.4.2 (ebf0e940, 2025-05-08)"
   xmlns:inkscape="http://www.inkscape.org/namespaces/inkscape"
   xmlns:sodipodi="http://sodipodi.sourceforge.net/DTD/sodipodi-0.dtd"
   xmlns="http://www.w3.org/2000/svg"
   xmlns:svg="http://www.w3.org/2000/svg"><sodipodi:namedview
     id="namedview1"
     pagecolor="#ffffff"
     bordercolor="#666666"
     borderopacity="1.0"
     inkscape:showpageshadow="2"
     inkscape:pageopacity="0.0"
     inkscape:pagecheckerboard="0"
     inkscape:deskcolor="#d1d1d1"
     inkscape:document-units="mm"
     showgrid="false"
     inkscape:zoom="0.94803661"
     inkscape:cx="341.75895"
     inkscape:cy="313.80645"
     inkscape:window-width="1512"
     inkscape:window-height="922"
     inkscape:window-x="0"
     inkscape:window-y="32"
     inkscape:window-maximized="1"
     inkscape:current-layer="svg1" /><defs
     id="defs1" /><rect
     style="opacity:0.6;fill:none;stroke:none;stroke-width:0.529165;stroke-linecap:round"
     id="rect1"
     width="185.871"
     height="162.78499"
     x="-7.6293945e-06"
     y="-0.00021362305" /><path
     id="path4"
     style="opacity:0.6;fill:#ff0000;stroke-width:0.529167;stroke-linecap:round"
     d="m 128.32359,1.1069747 c -0.042,0.14917 -0.0843,0.298046 -0.12557,0.447518 -2.79673,9.8745173 -6.00347,19.6314893 -9.29091,29.3532493 -0.22187,-0.0025 -0.43787,-0.0046 -0.64802,-0.0072 -10.47275,-0.129452 -20.939497,-0.42399 -31.408936,-0.696598 -3.006867,-0.0783 -6.014062,-0.142707 -9.021155,-0.211873 0.427832,-3.908895 0.972914,-7.804189 1.665532,-11.67629 0.08913,-0.549416 0.324682,-1.987603 0.417545,-2.610177 0.04453,-0.298552 0.09811,-0.596407 0.12454,-0.897103 0.01984,-0.225732 0.23134,-0.743477 0.01395,-0.679545 -3.626903,1.066606 -3.370843,0.519212 -3.836975,2.135787 -0.484687,1.955077 -0.919388,3.921708 -1.39423,5.879228 -0.625838,2.579998 -1.274268,5.15429 -1.950269,7.721492 -11.722464,-0.303891 0.647307,0.03432 -15.645556,-0.485758 -10.758903,-0.343456 -21.529041,-0.574056 -32.261597,-1.46296 -0.259276,-0.02196 -0.518399,-0.04335 -0.77773,-0.06511 0.07562,-0.740873 0.154594,-1.481796 0.237711,-2.222087 0.137382,-1.467444 0.288691,-2.931488 0.322978,-4.405416 l -3.71967,1.895492 c 0.08592,1.388687 0.104703,2.779306 0.09715,4.170288 -6.2e-4,0.101836 -9.44e-4,0.203572 -0.0016,0.305408 -4.479648,-0.376812 -8.959626,-0.781464 -13.4069295,-1.437122 -0.15535,-0.02523 -0.31006,-0.05152 -0.46561,-0.07545 -0.0789,-0.01213 -0.17009,-0.07573 -0.23719,-0.03256 -0.0405,0.02607 -0.0806,0.05201 -0.12041,0.07751 -0.52705,-0.120807 -0.52622,0.04081 -1.45521,0.908472 -2.23918,1.360601 -2.64459,1.433713 -1.75906,1.488798 -0.009,0.0071 -0.0182,0.01453 -0.0274,0.0217 -0.006,0.0046 -0.01,0.0087 -0.0114,0.01137 v 5.16e-4 l -5.2e-4,5.17e-4 v 5.17e-4 5.17e-4 5.16e-4 l 5.2e-4,5.17e-4 v 5.17e-4 h 5.2e-4 v 5.17e-4 h 5.1e-4 v 5.16e-4 h 5.2e-4 l 5.2e-4,5.17e-4 c 0.015,0.0053 0.0892,-0.015 0.15864,-0.03101 0.24504,0.01375 0.56668,0.02959 0.95705,0.06666 5.4680495,0.482244 10.9097285,1.212841 16.3493895,1.944067 -0.04381,9.256099 -0.03429,18.512298 0.02635,27.768331 0.04008,2.519864 0.06932,5.039908 0.09509,7.560262 -0.331257,0.01223 -0.662493,0.02451 -0.993738,0.03721 -6.74479,0.20436 -13.4878815,0.4562 -20.23230153076,0.667124 v 1.490865 C 6.0449685,67.861297 12.090016,67.660776 18.134412,67.444013 c 1.035554,-0.03613 2.071186,-0.07094 3.106787,-0.104903 0.01107,1.133113 0.02173,2.266137 0.03256,3.399276 C 16.87285,70.478027 12.471687,70.221423 8.0709485,69.964789 5.3798285,69.738534 2.6894285,69.502604 1.1846924e-4,69.254755 v 0.486792 C 2.6676885,69.826547 5.3350485,69.917852 8.0022185,70.014399 c 4.4237595,0.257972 8.8481275,0.515459 13.2720535,0.777213 0.06027,6.30695 0.127017,12.61418 0.311609,18.918226 0.117843,4.02449 0.313768,8.046064 0.475423,12.069052 0.04964,1.23542 0.09516,2.36812 0.137976,3.42408 -2.80654,0.27764 -5.611237,0.57471 -8.41344,0.89607 -1.705618,0.20413 -3.413952,0.3839 -5.1164815,0.61237 -1.52455,0.20459 -3.04237,0.45794 -4.56355,0.68626 -1.36835,0.20539 -2.73705,0.40875 -4.10569003076,0.61237 v 1.26297 C 3.9346485,108.6862 7.8737685,108.1289 11.812318,107.57285 c 3.473705,-0.45649 6.951095,-0.87997 10.431404,-1.27796 0.109598,2.69322 0.201063,4.90005 0.294038,7.1174 -7.512949,-0.0992 -15.0257815,-0.17657 -22.53764153076,-0.25011 v 0.0868 C 7.5137985,113.29838 15.0269,113.36483 22.539827,113.46137 c 0.130862,3.12032 0.265438,6.26864 0.45837,10.8288 0.179874,3.60017 0.343251,7.20129 0.513664,10.80244 -2.332415,-0.0476 -4.663827,-0.11718 -6.991821,-0.23358 -0.646339,-0.0323 -1.643463,-0.11617 -2.389002,-0.17725 l -3.36827,2.44688 c 4.26969,-0.26349 8.546874,-0.37384 12.825058,-0.44235 0.297409,6.19537 0.624672,12.38958 1.09709,18.57406 0.265248,3.00393 -0.288205,2.82235 3.969267,-0.0124 0.117861,-0.0785 -0.02341,-0.28231 -0.02997,-0.42375 -0.0087,-0.18645 -0.01023,-0.37307 -0.0155,-0.55965 -0.08508,-2.07536 0.611753,-4.12264 1.267623,-6.06165 0.849738,-2.51217 1.439933,-3.89486 2.442228,-6.41976 0.550177,-1.30817 1.090364,-2.6204 1.650545,-3.92431 0.18816,-0.43797 0.378843,-0.87509 0.570508,-1.31155 12.147173,-0.14827 24.291676,-0.54403 36.439636,-0.61701 7.246379,-0.0435 22.392257,0.0941 29.442647,0.14624 15.11919,0.13615 14.0666,0.11553 25.78964,0.25683 -0.18232,4.96111 -0.39199,9.92236 -0.36535,14.88643 0.12982,0.30635 -0.05,0.67124 0.0403,0.98857 0.3905,1.37288 2.6037,-1.20856 3.7667,-2.03605 0.0833,-0.0593 -0.009,-0.20469 -0.01,-0.30696 -0.002,-0.11977 -2e-5,-0.23936 0,-0.35915 -0.0938,-1.7314 0.13195,-3.44196 0.39947,-5.14801 0.5087,-2.66421 1.07839,-5.31592 1.68878,-7.95868 3.84307,0.0427 7.68597,0.0714 11.5285,0.14831 8.60509,0.1722 10.55355,0.3062 18.61178,0.67334 l 1.13223,-0.81959 c -6.48426,0.0568 -13.20908,0.13621 -19.67528,0.0972 -3.86431,-0.0233 -7.72894,-0.0676 -11.59309,-0.11938 1.00184,-4.33603 2.11357,-8.6477 3.24683,-12.94959 0.35085,-1.27956 0.70596,-2.55759 1.06452,-3.83491 8.18755,1.31705 16.31608,3.1352 24.09776,5.82962 1.32448,0.4586 2.61081,1.02189 3.91605,1.53272 1.50343,0.72131 4.55689,1.91072 5.46064,3.58273 0.0683,0.12635 0.10271,0.26841 0.15399,0.40256 0.0842,0.41848 0.15258,0.83558 0.11627,1.264 0.008,-0.004 0.0163,-0.008 0.0243,-0.0119 -0.001,0.012 -0.002,0.0241 -0.004,0.0362 -0.002,0.0202 -0.0223,0.0645 -0.0191,0.0754 l 5.2e-4,5.1e-4 v 5.2e-4 h 5.2e-4 v 5.2e-4 h 5.1e-4 5.2e-4 l 5.2e-4,5.1e-4 h 5.1e-4 5.2e-4 c 3.3e-4,-1.2e-4 9.1e-4,-4.9e-4 0.001,-5.1e-4 4.2e-4,-1.2e-4 0.002,-3.6e-4 0.002,-5.2e-4 2.8e-4,-1e-4 7.7e-4,-3.8e-4 10e-4,-5.2e-4 0.80697,-0.42075 1.60585,-0.85702 2.4045,-1.29346 0.43876,-0.21802 0.87683,-0.43746 1.3131,-0.66042 2.1e-4,-1.1e-4 0.001,-8.3e-4 0.002,-10e-4 l 5.1e-4,-5.1e-4 5.2e-4,-5.2e-4 v -5.2e-4 -5.1e-4 l 5.2e-4,-5.2e-4 v -5.2e-4 -5.1e-4 l -5.2e-4,-5.2e-4 v -5.2e-4 c -9e-5,-2.5e-4 -3.9e-4,-10e-4 -5.2e-4,-0.002 -0.005,-0.008 -0.0242,-0.0199 -0.0279,-0.0305 v -5.1e-4 l -5.2e-4,-5.2e-4 -5.1e-4,-5.2e-4 v -5.1e-4 c 0.0108,-0.006 0.0218,-0.0118 0.0326,-0.0176 -0.002,-0.44814 -0.11343,-0.87618 -0.23719,-1.30432 -0.0248,-0.0498 -0.0505,-0.0989 -0.077,-0.14727 -0.0559,-0.36643 -0.10989,-0.73279 -0.17673,-1.09658 -1.20517,-8.1241 -2.04522,-16.30026 -2.87889,-24.46879 -0.35971,-3.759476 -0.71553,-7.51995 -1.05781,-11.281504 4.22082,-0.574015 8.44603,-1.123168 12.65555,-1.774568 0.34542,-0.05547 0.69073,-0.110811 1.03612,-0.166398 0.0355,-0.0057 1.32997,-0.187237 1.35909,-0.20929 0.0773,-0.05853 0.15353,-0.115299 0.22841,-0.171049 0.20445,-0.03623 0.29748,-0.143523 0.54105,-0.394808 0.34999,-0.249793 0.66812,-0.466289 0.95395,-0.654224 v -1.351912 c -0.13996,-0.0044 -0.27973,-0.01011 -0.41958,-0.01809 -1.29065,-0.07356 -2.9673,-0.251121 -4.20388,-0.38499 -4.26239,-0.461433 -8.50536,-1.071386 -12.75167,-1.65933 -0.64333,-7.499259 -1.21115,-15.00466 -1.62988,-22.519556 5.42712,-0.222699 10.85484,-0.619449 16.28893,-0.639754 1.3134,-0.02028 1.46451,0.01773 2.71612,-1.422652 v -1.18029 c -0.0756,-0.001 -0.14351,-0.0049 -0.19793,-0.01344 -0.61933,-0.09689 -1.24208,-0.17409 -1.85983,-0.280603 -1.5376,-0.265118 -4.75516,-0.913846 -6.11694,-1.18339 -3.72603,-0.7914 -7.45234,-1.581308 -11.17865,-2.371432 -0.0185,-0.437973 -0.0364,-0.875568 -0.0537,-1.313615 -0.18799,-5.327369 -0.34084,-8.430875 -0.36638,-13.686503 -0.0143,-2.947818 0.032,-5.89535 0.12247,-8.841837 6.55094,0.03425 13.10091,0.109493 19.651,0.205155 v -0.845426 c -6.40177,0.07936 -12.80339,0.135313 -19.20607,0.136426 -0.14497,2.3e-5 -0.28801,-5e-6 -0.42891,0 0.0849,-2.621258 0.20398,-5.241698 0.34623,-7.859986 0.11715,-1.608958 0.19882,-3.219501 0.3328,-4.827095 0.0169,-0.02602 0.0291,-0.04765 0.0289,-0.05684 v -5.17e-4 l -5.2e-4,-5.17e-4 v -5.17e-4 -5.16e-4 l -5.1e-4,-5.17e-4 -5.2e-4,-5.17e-4 -5.1e-4,-5.17e-4 -5.2e-4,-5.16e-4 h -5.2e-4 -5.1e-4 -5.2e-4 -5.2e-4 c -0.003,-1.64e-4 -0.008,7.98e-4 -0.015,0.0041 -0.071,0.03409 -0.14221,0.06871 -0.21291,0.103352 -1.17841,0.559947 -2.37517,1.08276 -3.52743,1.694471 -0.0536,0.02847 0.0163,0.121218 0.0145,0.181901 -0.005,0.182195 -0.0196,0.364228 -0.0367,0.545703 -0.16319,1.734692 -0.46398,3.453115 -0.75706,5.169193 -0.31742,1.684874 -0.65167,3.366279 -1.00098,5.044137 -5.17694,-0.01436 -7.02932,-0.05858 -14.72054,-0.141077 -3.11004,-0.03336 -6.22012,-0.06225 -9.33018,-0.09353 -2.17417,-0.0095 -4.96769,-0.02046 -7.85741,-0.03411 0.38511,-7.657033 0.82512,-15.310817 1.38648,-22.9572574 0.21117,-2.3070739 0.38098,-4.6339499 0.79597,-6.9168529 z m -0.36018,7.0212769 c 0.003,0.4550476 0.007,0.9094432 0.006,1.3627088 0.009,1.2704556 0.0127,2.5407346 0.0274,3.8111376 0.0681,5.891426 0.17354,11.781335 0.22014,17.672823 -3.2368,-0.01626 -6.49725,-0.03639 -9.05991,-0.06408 2.88937,-7.610875 5.72569,-15.247281 8.8067,-22.7825914 z M 75.821887,24.74326 c -0.104638,1.730022 -0.195875,3.46055 -0.276469,5.191932 -0.530465,-0.01385 -1.027257,-0.02666 -1.492416,-0.03876 0.585153,-1.719315 1.172813,-3.437655 1.768885,-5.153174 z m -51.778235,4.527889 c 10.712817,0.280413 21.423876,0.65694 32.138606,0.86093 3.295116,0.06273 6.590813,0.08983 9.886219,0.134875 2.219618,0.04498 4.43889,0.0899 6.658508,0.134876 -0.662519,2.500812 -1.351307,4.99496 -2.070675,7.480163 -15.054806,-2.538457 -30.063401,-5.34223 -45.077868,-8.107515 -0.518188,-0.09823 -1.036399,-0.195817 -1.554944,-0.292489 0.0067,-0.07034 0.0134,-0.140508 0.02015,-0.21084 z m 139.533088,0.849044 c 0.0159,0.377865 0.032,0.7559 0.0475,1.133781 -0.1282,-1.41e-4 -0.25437,-3.51e-4 -0.37879,-5.17e-4 0.11074,-0.377673 0.22083,-0.755495 0.33125,-1.133264 z m -89.703572,0.304891 c 0.5494,0.01113 1.099078,0.02246 1.648478,0.03359 -0.123604,2.726748 -0.22173,5.454971 -0.305407,8.18348 -1.308486,-0.215564 -2.616564,-0.433359 -3.924309,-0.653191 0.869787,-2.517955 1.723538,-5.041731 2.581238,-7.563879 z m 3.900021,0.0832 c 13.65936,0.309035 27.319521,0.591207 40.979931,0.855762 -0.44676,1.320038 -0.89486,2.639419 -1.34359,3.958415 -1.16564,3.213614 -2.33265,6.426713 -3.50469,9.637654 -2.09507,-0.373071 -4.19237,-0.733327 -6.29264,-1.07797 -3.44765,-0.565742 -6.90672,-1.061284 -10.356996,-1.610755 -6.423092,-1.022901 -13.750264,-2.254011 -20.172413,-3.323311 -0.01369,-0.0022 -0.02765,-0.0045 -0.04134,-0.0067 0.191913,-2.815183 0.432104,-5.627503 0.731739,-8.433077 z m -53.881983,0.407727 c 0.01705,0.0023 0.03411,0.005 0.05116,0.0072 6.399749,0.911683 7.87525,1.097576 14.518493,2.15284 10.692517,1.698485 21.355252,3.577794 32.032671,5.367631 -0.30432,1.044062 -0.614118,2.086597 -0.929659,3.127458 -1.045718,3.358621 -2.036343,6.734943 -3.137277,10.075871 -1.274104,3.866431 -2.631945,7.704795 -3.987353,11.543481 -0.26737,0.757226 -0.53542,1.514612 -0.804602,2.271179 -3.174059,-0.0315 -6.347932,-0.06671 -9.5219,-0.09922 -9.981066,-0.02555 -19.96122,0.119426 -29.936157,0.47439 0.07083,-2.728042 0.154575,-5.455464 0.24753,-8.181929 0.344063,-8.919592 0.673387,-17.846859 1.467094,-26.738937 z m 95.091354,0.452169 c 3.07948,0.05959 6.15921,0.118305 9.23871,0.176217 0.006,0.854942 0.0112,1.710205 0.0145,2.565218 0.0232,6.031752 0.0136,9.407491 -0.0119,13.576949 -4.74075,-0.950895 -9.4887,-1.865743 -14.24874,-2.714046 1.08963,-2.998973 2.2118,-6.10415 3.51089,-9.685714 0.50168,-1.304887 0.99984,-2.611432 1.49655,-3.918624 z m 10.4836,0.199988 c 2.31539,0.04338 4.63094,0.08612 6.94635,0.128674 3.13022,0.01683 6.26037,0.04523 9.39064,0.05064 15.53231,0.02681 5.61583,-0.056 15.49931,-0.0124 -1.5263,7.267457 -3.33712,14.471004 -5.32474,21.627103 -0.92585,-0.197149 -1.85184,-0.394157 -2.77761,-0.591695 -2.77547,-0.592222 -5.54509,-1.211582 -8.32611,-1.777152 -3.16743,-0.644152 -6.3455,-1.234817 -9.51828,-1.852084 -2.21326,-0.457806 -4.4278,-0.910892 -6.64352,-1.356506 0.24053,-5.405974 0.48408,-10.811978 0.75396,-16.216581 z m 33.63516,0.175183 c 0.17625,8.4e-4 0.3574,0.0017 0.54311,0.0026 0.22251,5.429427 0.42406,10.860161 0.73071,16.285311 0.13372,2.365621 0.31112,4.728303 0.46664,7.09259 0.003,0.04121 0.006,0.08281 0.01,0.124023 -2.7766,-0.58892 -5.55303,-1.178453 -8.32921,-1.769401 2.25521,-7.226041 4.44635,-14.471758 6.57893,-21.735107 z m -92.002143,6.801652 c 1.366102,0.228539 2.732268,0.455709 4.098975,0.680579 -0.09233,3.084373 -0.167042,6.169218 -0.240812,9.253181 -0.127481,5.694313 -0.06904,11.390816 0.148828,17.081645 -4.47,-0.01627 -8.939637,-0.05388 -13.409517,-0.09819 0.256954,-0.722003 0.528999,-1.489019 0.819071,-2.307353 2.577288,-7.270896 5.076551,-14.568806 7.619173,-21.851896 0.32439,-0.918157 0.645456,-1.837882 0.964282,-2.757971 z m 5.903516,0.975134 c 3.352907,0.542214 18.87467,3.05268 19.639111,3.182235 3.372306,0.571532 6.737016,1.188373 10.104816,1.785937 2.29467,0.407155 4.58957,0.813696 6.88381,1.224215 -2.37582,6.503398 -4.77491,12.997451 -7.23211,19.470646 -6.40551,0.180601 -9.240698,0.262085 -17.613917,0.343648 -4.067178,0.03962 -8.134182,0.04855 -12.201323,0.03824 -0.206803,-5.966497 -0.236717,-11.937644 0.0041,-17.909501 0.11838,-2.397771 0.206184,-4.796768 0.355018,-7.192843 0.01951,-0.314103 0.03979,-0.628537 0.06046,-0.942578 z m 36.699057,6.204789 c 4.84581,0.867279 9.68822,1.753864 14.51746,2.708362 -0.0142,2.216972 -0.0322,4.702073 -0.0522,7.936467 -0.0588,2.657995 -0.1184,5.316234 -0.17828,7.97419 -5.57752,0.285632 -11.15778,0.522429 -16.74058,0.70435 -1.8271,0.04974 -3.39177,0.094 -4.78679,0.133325 0.65254,-1.709862 1.30106,-3.421145 1.94562,-5.134054 2.05418,-5.458971 3.65159,-9.804883 5.29477,-14.32264 z m 14.97789,2.79983 c 1.94902,0.387053 3.89549,0.785472 5.83944,1.198376 6.10482,1.368798 11.31542,2.512567 17.36587,3.957898 1.25108,0.298858 2.50076,0.604011 3.7486,0.914156 -0.76382,2.720615 -1.55278,5.434701 -2.36006,8.142655 -8.38687,0.628603 -16.77961,1.169355 -25.17882,1.60042 0.0754,-2.684401 0.15445,-5.368599 0.23823,-8.052739 0.11672,-2.586839 0.23174,-5.173677 0.34674,-7.760766 z m 27.45466,6.195487 c 2.95934,0.738914 5.91104,1.505032 8.85992,2.283582 0.12879,1.589219 0.25748,3.178458 0.38603,4.767667 -3.92476,0.331387 -7.85108,0.6461 -11.77861,0.941545 0.85311,-2.661587 1.69732,-5.325736 2.53266,-7.992794 z m 10.46396,2.708362 c 1.47218,0.390709 2.94383,0.783823 4.41575,1.177189 1.38809,0.37096 2.77674,0.739645 4.16512,1.109493 2.03699,0.538299 2.58089,0.680127 3.30884,0.874882 -3.37802,0.309556 -6.76189,0.568235 -10.13168,0.927075 -0.5157,0.04465 -1.03144,0.08873 -1.54719,0.132809 -0.0758,-1.406831 -0.14625,-2.813913 -0.21084,-4.221448 z m -1.13792,5.335075 c 0.6,7.423366 1.19435,14.846938 1.76269,22.272542 -2.44715,-0.335363 -4.89533,-0.663838 -7.34116,-1.008724 -5.96694,-0.8414 -8.51025,-1.245037 -12.51138,-1.791105 1.52492,-4.809421 3.05848,-9.615775 4.58422,-14.423926 0.48048,-1.476871 0.95813,-2.95471 1.43299,-4.433321 4.02435,-0.20169 8.04869,-0.407388 12.07264,-0.615466 z m -12.38322,0.630969 c -0.4532,1.514081 -0.91202,3.026596 -1.37563,4.537191 -2.43049,7.700252 -3.14986,10.071426 -4.53667,14.276648 -1.70479,-0.231848 -3.68263,-0.490601 -6.29626,-0.819589 -4.38565,-0.552022 -8.77452,-1.078059 -13.1656,-1.5875 0.11494,-5.074097 0.24239,-10.147907 0.38447,-15.221293 8.33108,-0.36828 16.66086,-0.768466 24.98969,-1.185457 z m -25.09407,1.190108 c -0.11425,5.069873 -0.22906,10.139492 -0.34055,15.209408 -8.57211,-0.994206 -17.15243,-1.924496 -25.73021,-2.858224 1.50005,-3.827573 2.98583,-7.660657 4.45244,-11.501107 1.51774,-0.04878 3.0354,-0.09839 4.55321,-0.14521 5.68903,-0.217388 11.37742,-0.453619 17.06511,-0.704867 z m -21.68085,0.851628 c -1.00292,2.640197 -2.01581,5.276827 -3.04064,7.909078 -0.46521,1.194873 -0.92922,2.390479 -1.39475,3.585311 -0.3532,-0.03845 -0.70617,-0.07677 -1.05937,-0.115239 -7.922371,-0.836115 -15.852808,-1.57574 -23.789244,-2.243791 -0.171006,-2.820268 -0.31312,-5.641932 -0.415995,-8.464599 7.634265,-0.124421 15.26813,-0.260449 22.900927,-0.465088 2.266482,-0.06076 4.532942,-0.132852 6.799072,-0.205672 z m -31.173294,0.694531 c 0.07141,1.778548 0.157889,3.55639 0.259415,5.333525 0.02413,0.422434 0.09908,1.534042 0.199471,2.987931 -5.551556,-0.461316 -11.105682,-0.888474 -16.662032,-1.289844 0.692117,-1.896667 1.452755,-4.003814 2.452047,-6.806303 4.583482,-0.08028 9.167501,-0.15138 13.751099,-0.225309 z m -13.813628,0.226342 c -0.810092,2.269912 -1.628252,4.536595 -2.455664,6.800101 -12.258741,-0.885072 -24.527176,-1.645223 -36.79672,-2.372465 0.02323,-1.158527 0.04887,-2.316892 0.077,-3.47524 9.43613,-0.304116 18.873772,-0.525071 28.312484,-0.738456 3.62073,-0.0812 7.241849,-0.150451 10.862902,-0.21394 z m -39.253934,4.480863 c 12.263495,0.726982 24.525955,1.487024 36.778633,2.371948 -3.667786,10.031857 -7.511502,19.997772 -11.585856,29.872101 -8.312869,0.6352 -16.625105,1.28902 -24.920959,2.10788 -0.04427,-1.07099 -0.08729,-2.22287 -0.130225,-3.48351 C 21.852706,91.422725 21.855769,81.127278 22.061344,70.838121 Z m 36.845296,2.377116 c 5.564027,0.402056 11.126072,0.829683 16.685286,1.291911 0.299051,4.328854 0.818508,11.622861 0.901754,12.909806 0.156258,2.415643 0.285205,4.832685 0.427881,7.24917 0.109036,2.011524 0.222026,4.022931 0.334863,6.034286 -6.022433,0.51377 -12.047172,1.00368 -18.073832,1.46709 -3.72282,0.29179 -7.446803,0.57267 -11.170894,0.85679 0.511651,-1.37999 1.021336,-2.76052 1.526522,-4.142905 1.342802,-3.674409 2.650684,-7.361424 3.991487,-11.03655 2.66661,-7.309132 3.859783,-10.472912 5.376933,-14.629598 z m 18.114657,1.411283 c 7.912353,0.666422 15.819046,1.404049 23.717413,2.23759 0.37528,0.04087 0.74429,0.08103 1.10743,0.120406 -1.19235,3.059902 -2.395377,6.116044 -3.657143,9.147762 -2.255769,5.420077 -3.939546,9.164242 -5.828585,13.229703 -4.386309,0.402696 -8.77349,0.793859 -13.161987,1.172029 -0.226598,-2.232921 -0.450678,-4.466045 -0.673861,-6.69936 -0.573688,-6.392505 -1.113665,-12.796947 -1.503267,-19.20813 z m 24.870323,2.363164 c 10.19438,1.105123 15.76804,1.646402 25.74623,3.005501 -0.11661,5.306835 -0.22923,10.613835 -0.3328,15.920992 -0.40593,0.04288 -0.81205,0.08559 -1.21801,0.128158 -11.02402,1.152388 -22.05413,2.243034 -33.091525,3.259246 2.997385,-7.42513 5.974045,-14.858729 8.896105,-22.313897 z m 25.80669,3.013769 c 0.35515,0.0484 0.7159,0.09777 1.08262,0.148312 3.80742,0.524711 7.60463,1.123231 11.40137,1.720308 2.24603,0.353212 4.49097,0.714011 6.73447,1.085722 -0.63129,1.904825 -1.41048,4.223413 -2.52542,7.520471 -0.41383,1.223743 -0.83101,2.445852 -1.25109,3.667476 -5.24942,0.623847 -10.50393,1.207025 -15.76131,1.762684 0.0941,-5.301827 0.19962,-10.603604 0.31936,-15.904973 z m 19.43189,2.989482 c 6.23361,1.034765 12.45444,2.15366 18.64382,3.423047 0.52608,0.103635 1.05218,0.207924 1.5782,0.312125 0.10502,1.382103 0.20863,2.76425 0.31161,4.146517 -7.98948,1.199837 -15.99882,2.253813 -24.02024,3.211174 1.15114,-3.70099 2.31592,-7.397965 3.48661,-11.092863 z m 21.51961,3.992521 c 3.52948,0.699445 7.06005,1.394802 10.60608,2.001428 -3.3271,0.580478 -6.66387,1.107418 -9.99733,1.646411 -0.0937,0.01431 -0.18737,0.02862 -0.28112,0.04289 -0.11086,-1.230127 -0.22018,-2.460308 -0.32763,-3.690731 z m -0.88883,5.193998 c 0.29349,3.966297 0.57772,7.933506 0.84956,11.901626 0.45604,7.36738 0.96747,14.73625 1.17047,22.11596 -1.02007,-0.4207 -2.08649,-0.73516 -2.99827,-1.05885 -9.95627,-3.11114 -20.32817,-4.57456 -30.65187,-5.84254 2.31166,-8.2205 4.77589,-16.3969 7.3086,-24.552528 7.88085,-0.752825 15.75709,-1.552679 23.62026,-2.466516 0.23368,-0.03242 0.46752,-0.06499 0.70125,-0.09715 z m -24.84396,2.613794 c -2.79321,8.103772 -5.69244,16.171502 -8.39225,24.306552 -2.89049,-0.35121 -5.22176,-0.62499 -7.25486,-0.85163 -0.0609,-3.01252 -0.097,-6.04956 -0.0847,-9.602 0.014,-4.06395 0.11249,-8.12711 0.18397,-12.190491 0.001,-0.07423 0.002,-0.148499 0.004,-0.222725 5.18164,-0.472768 10.36391,-0.946212 15.54427,-1.439706 z m -15.61817,1.446423 c -0.002,0.08472 -0.004,0.169526 -0.005,0.254249 -0.0789,4.07132 -0.12825,8.14347 -0.22996,12.21426 -0.079,3.16234 -0.17799,6.32412 -0.28267,9.48573 -1.4698,-0.16219 -3.31851,-0.28627 -4.59093,-0.41186 1.52648,0.1628 3.05546,0.33121 4.58731,0.51676 -0.11424,3.44668 -0.23484,6.89305 -0.34158,10.33994 -0.0432,2.55445 -0.12945,5.10863 -0.22324,7.66258 -8.57386,-0.12582 -17.14775,-0.26219 -25.72246,-0.2744 -5.087003,-0.0376 -10.174011,-0.0879 -15.261086,-0.11317 -4.727202,-0.0235 -9.454481,0.008 -14.181563,-0.0331 -11.979646,-0.10381 -23.955752,-0.47896 -35.934758,-0.62942 0.950114,-2.1349 1.918232,-4.26205 2.826185,-6.41512 0.819827,-1.94408 1.591718,-3.90817 2.378666,-5.86579 2.160174,-5.37368 2.550551,-6.35922 3.616833,-9.14052 0.436509,0.01 0.872975,0.0195 1.309481,0.0294 10.745643,0.24514 21.858864,0.54605 32.75769,0.98754 0.09711,2.11791 0.184629,4.23611 0.257866,6.35517 0.156731,2.40386 0.0087,4.81677 0.09095,7.22074 0.015,0.18963 0.03232,0.332 0.05064,0.46974 l -5.17e-4,5.2e-4 c -4.47e-4,8.4e-4 -7.9e-4,0.002 -10e-4,0.003 v 5.2e-4 5.2e-4 5.1e-4 h 5.17e-4 v 5.2e-4 h 5.16e-4 5.17e-4 5.17e-4 c 0.168171,1.2547 0.578038,0.43493 3.096969,-1.15032 0.772853,-0.1907 0.805068,-0.0927 0.671276,-0.40928 0.03477,-0.0205 0.06999,-0.0413 0.10542,-0.062 0.08969,-0.0524 0.0016,-0.20797 0.0083,-0.31161 0.0081,-0.12296 0.02457,-0.2453 0.03669,-0.36793 0.06487,-0.71331 0.03889,-0.74531 0.301273,-1.57975 1.048787,-3.33538 2.455978,-6.57505 3.817339,-9.7963 0.0838,0.004 0.167387,0.008 0.251147,0.0124 6.204058,0.30187 12.401677,0.72522 18.602482,1.08779 3.89971,0.33339 7.80125,0.64601 11.69955,0.99425 -3.01707,-0.27519 -5.80515,-0.54526 -11.6303,-1.04334 -6.300259,-0.41944 -12.603572,-0.77762 -18.908927,-1.08469 0.160176,-0.37908 0.319787,-0.75765 0.478007,-1.13637 1.001715,-2.39769 2.005436,-4.79451 3.008085,-7.19181 0.998668,-2.46405 1.996145,-4.92885 2.991549,-7.394379 10.894236,-1.037489 21.791176,-2.049431 32.686896,-3.07115 0.56049,-0.05114 1.12104,-0.10234 1.68155,-0.15348 z m -5.10873,21.542379 c -0.2055,-0.0219 -0.41217,-0.0482 -0.61754,-0.0698 -1.00503,-0.1055 -2.0142,-0.17034 -3.021,-0.25735 1.0923,0.0965 2.64226,0.22878 3.63854,0.32711 z M 92.284448,99.525794 c -1.115438,2.398676 -2.305746,4.917936 -3.729489,7.964896 -1.313616,2.68633 -2.510082,5.14064 -3.72587,7.61865 -1.373144,-0.065 -2.746303,-0.12775 -4.119646,-0.1881 -0.516439,-4.70628 -1.006228,-9.41541 -1.484663,-14.12575 4.176776,-0.40889 8.35325,-0.820473 12.531018,-1.219056 0.176155,-0.0168 0.352493,-0.0339 0.52865,-0.0506 z m -15.012004,1.460386 c 0.258355,4.60545 0.515541,9.2111 0.727087,13.81879 -11.342406,-0.47418 -22.690768,-0.799 -34.041849,-1.0356 0.485852,-1.26751 1.112766,-2.91014 2.106331,-5.49682 0.561747,-1.51844 1.126481,-3.03587 1.689819,-4.55373 3.547634,-0.32701 7.095622,-0.64762 10.643278,-0.97048 3.467779,-0.31582 6.936694,-0.6209 10.4035,-0.94723 2.824402,-0.26585 5.648359,-0.53938 8.471834,-0.81493 z m -30.311845,2.80603 c -0.696761,1.68329 -1.400482,3.36375 -2.110982,5.04155 -0.662737,1.57412 -1.355736,3.22966 -2.06344,4.91184 -6.667124,-0.13544 -13.334973,-0.2412 -20.002914,-0.32969 -0.153943,-2.22585 -0.283664,-4.42996 -0.403592,-7.13652 8.182197,-0.9341 16.380047,-1.72898 24.580928,-2.48718 z m -24.174235,9.67227 c 6.65859,0.0862 13.316997,0.19606 19.975008,0.33952 -1.421657,3.37888 -2.900645,6.86449 -4.30568,10.02109 -1.701979,3.82372 -3.491036,7.6083 -5.259627,11.40189 -2.807391,-0.0392 -5.61835,-0.0619 -8.428427,-0.11059 -0.432797,-3.70886 -0.799115,-7.42579 -1.179256,-11.13162 -0.337588,-4.42928 -0.592576,-7.49854 -0.802018,-10.52029 z M 80.713578,114.96 c 1.370815,0.0588 2.737701,0.11983 4.098974,0.18345 -0.852332,1.73712 -1.714541,3.48652 -2.633948,5.33663 -0.147778,0.29737 -0.390429,0.77541 -0.679028,1.34565 -0.06677,-0.7256 -0.14779,-1.44938 -0.260966,-2.16938 -0.178316,-1.56516 -0.353159,-3.13053 -0.525032,-4.69635 z m 46.558402,3.39927 c 2.38921,0.29362 4.7821,0.61846 7.17165,0.98392 -0.56615,1.70876 -1.12321,3.42038 -1.66863,5.13612 -1.18153,3.94594 -2.33465,7.90099 -3.44785,11.86698 -0.47,-0.007 -0.94025,-0.0134 -1.41025,-0.0202 -0.15078,-2.44761 -0.20607,-4.0711 -0.40256,-8.23619 -0.0905,-3.57698 -0.17935,-6.64437 -0.24236,-9.73068 z m 0.64699,17.99477 c 0.44973,0.005 0.91604,0.0112 1.40095,0.0171 -0.37848,1.3486 -0.75213,2.69863 -1.12087,4.04988 -0.002,-0.0289 -0.004,-0.0579 -0.006,-0.0868 -0.12296,-1.67415 -0.20764,-2.90717 -0.27388,-3.98012 z m -95.347157,0.21498 c -0.99426,2.1419 -1.978186,4.28851 -2.93212,6.4487 -1.009778,2.32243 -1.794118,4.06619 -2.700094,6.35155 -0.844702,-4.20149 -1.466795,-8.44514 -1.986959,-12.7031 2.344955,-0.0334 4.690338,-0.0578 7.034196,-0.0915 0.195029,-0.002 0.38995,-0.004 0.584977,-0.006 z m 96.910887,13.46946 c 0.0606,-0.004 0.0991,0.24183 0.0346,0.21652 -0.0677,-0.0265 -0.0941,-0.0968 -0.10232,-0.18552 0.0196,-0.01 0.0388,-0.019 0.0584,-0.0284 0.003,-0.001 0.006,-0.002 0.009,-0.003 z" /></svg>
