<?xml version="1.0" encoding="UTF-8" standalone="no"?>
<!-- Created with Inkscape (http://www.inkscape.org/) -->

<svg
   width="185.871mm"
   height="162.785mm"
   viewBox="0 0 185.87101 162.785"
   version="1.1"
   id="svg1"
   xml:space="preserve"
   sodipodi:docname="N.1.svg"
   inkscape:version="1.4.2 (ebf0e940, 2025-05-08)"
   xmlns:inkscape="http://www.inkscape.org/namespaces/inkscape"
   xmlns:sodipodi="http://sodipodi.sourceforge.net/DTD/sodipodi-0.dtd"
   xmlns="http://www.w3.org/2000/svg"
   xmlns:svg="http://www.w3.org/2000/svg"><sodipodi:namedview
     id="namedview1"
     pagecolor="#ffffff"
     bordercolor="#666666"
     borderopacity="1.0"
     inkscape:showpageshadow="2"
     inkscape:pageopacity="0.0"
     inkscape:pagecheckerboard="0"
     inkscape:deskcolor="#d1d1d1"
     inkscape:document-units="mm"
     showgrid="false"
     inkscape:zoom="0.94803661"
     inkscape:cx="345.9782"
     inkscape:cy="303.25833"
     inkscape:window-width="1512"
     inkscape:window-height="922"
     inkscape:window-x="0"
     inkscape:window-y="32"
     inkscape:window-maximized="1"
     inkscape:current-layer="svg1"
     showguides="true" /><defs
     id="defs1" /><path
     style="opacity:0.6;fill:#ff0000;stroke-width:0.529167;stroke-linecap:round"
     id="path5"
     d="m 79.725053,50.551984 c 0.270542,-1.237586 1.072645,-2.342668 1.739448,-3.392358 1.219716,-1.920083 0.971814,-1.514898 2.358914,-3.453952 2.238293,-3.234217 3.914187,-6.808526 6.008732,-10.130785 0.431549,-0.684501 0.89475,-1.348531 1.342123,-2.022798 1.066641,-1.660128 2.269749,-3.227477 3.370469,-4.863999 0.678976,-1.009485 1.320276,-2.026467 2.041324,-3.007518 0.200326,-0.257398 0.57346,-0.809803 0.899231,-0.997549 0.111525,-0.06427 0.488259,-0.145616 0.377926,-0.07932 -6.14222,3.69062 -21.741956,20.894356 -24.585475,12.079474 0.481602,0.708875 0.558646,1.629738 0.71269,2.450121 0.326771,1.740258 0.189555,0.901153 0.435655,2.81777 0.05137,0.585425 0.09652,1.171427 0.154114,1.756273 0.06478,0.657743 0.108096,1.318752 0.212968,1.971304 0.34843,2.168049 0.723117,3.040931 1.168345,5.292704 0.650031,3.287586 0.692766,4.346808 1.079823,7.775297 0.433308,4.718241 0.573296,9.455674 0.797962,14.186374 0.08001,1.68479 0.187507,3.368331 0.251867,5.05379 0.06587,1.725118 0.057,3.452828 0.138806,5.177263 0.085,1.791835 0.241019,3.579599 0.361529,5.369396 0.462627,6.689672 -0.794753,13.292751 -1.339368,19.929439 -0.214281,2.6112 -0.313354,5.03274 -0.442235,7.64491 -0.285846,5.24108 -1.128173,10.41987 -1.965757,15.59383 -0.270954,1.07488 -0.324006,2.22068 -0.683881,3.27588 -0.0026,0.008 -0.28356,0.8673 -0.610616,0.66694 -0.294495,-0.18041 -0.449059,-0.52483 -0.673587,-0.78724 7.733628,-4.33232 15.467256,-8.66465 23.200883,-12.99697 -0.337073,0.11112 -0.663445,0.26252 -1.011221,0.33335 -0.761085,0.15499 -3.353948,0.38149 -3.961421,0.43817 -0.415756,0.0388 -5.164688,0.46954 -5.46087,0.49643 -0.907193,0.0645 -1.814418,0.12844 -2.721579,0.19335 -0.878247,0.0628 -1.755523,0.14074 -2.634641,0.18992 -2.317337,0.12962 -4.641318,0.1078 -6.961185,0.14283 -1.499735,0.0208 -3.003341,0.23101 -4.504153,0.18297 -0.245089,-0.0912 -0.159469,-0.005 -0.235365,-0.27774 -7.484216,5.36947 -15.080983,10.58543 -22.452647,16.10841 -0.434655,0.32565 0.752591,0.43019 1.119182,0.42165 2.313273,-0.27797 4.613719,-0.68408 6.917801,-1.03735 8.370557,-1.2433 16.825624,-1.64461 25.274484,-1.87671 4.729144,0.004 4.712375,-0.0378 9.354132,0.12423 3.40451,0.1188 4.449794,0.12046 7.666926,0.57787 1.900598,0.27024 2.834934,0.51479 4.624984,0.92078 1.17883,0.46414 2.96518,0.59695 3.95602,1.49014 0.0273,0.0376 0.11347,0.14686 0.0818,0.11285 -0.57415,-0.6167 -0.97572,-1.34939 -1.38862,-2.07651 0,0 24.97353,-12.26784 24.97353,-12.26784 v 0 c -0.26754,-0.52601 -0.96358,-2.04632 -1.5559,-2.24587 -0.0849,-0.0286 -0.14205,0.10932 -0.21308,0.16399 -2.39913,1.12575 -5.31261,1.34182 -7.87797,1.79104 -3.78376,0.47737 -7.568,0.93862 -11.38164,1.108 -4.70855,0.20912 -9.431439,0.10172 -14.141555,0.058 -6.733277,-0.19966 -13.520075,-0.40162 -20.121742,-1.86952 -1.343308,-0.35115 -2.678744,-0.77195 -4.042799,-1.01591 -0.611976,-0.0472 0.128112,0.23406 -0.05387,0.36724 -7.45004,5.45257 -15.049204,10.69839 -22.573805,16.04759 0.287914,-0.42857 0.08772,-0.24798 0.652118,-0.47848 2.09336,-0.61312 4.184526,-1.25415 6.3216,-1.6974 4.586351,-0.98426 9.194233,-1.98039 13.91182,-1.98442 1.790753,0.0738 3.603326,0.0955 5.316784,0.70293 0.292618,0.10374 0.571362,0.24825 0.835999,0.41058 0.205004,0.12576 0.350885,0.55846 0.564935,0.4488 8.114768,-4.15715 16.025148,-8.70174 24.037721,-13.05261 -0.104592,-0.34609 -0.186042,-0.70004 -0.313777,-1.03827 -0.118309,-0.31326 -0.32539,-0.5856 -0.475049,-0.88515 -0.383828,-0.76827 -0.672338,-1.57236 -0.926999,-2.39265 -1.199822,-4.38579 -1.815407,-8.8967 -2.125906,-13.42914 -0.132191,-2.43605 -0.234093,-4.7552 -0.464947,-7.186585 -0.654185,-6.889962 -0.199176,-0.79297 -1.042117,-8.065746 -0.610116,-5.264 -0.452051,-4.884577 -0.496687,-10.407865 0.08475,-1.896697 0.20972,-3.792021 0.254244,-5.690089 0.04107,-1.750991 -0.01299,-3.503015 0.0024,-5.254421 0.0154,-1.744216 0.06681,-3.487949 0.09007,-5.23208 0.06567,-4.923187 -0.0024,-9.853769 0.382151,-14.767158 0.138361,-1.530416 0.234563,-3.065232 0.415083,-4.591248 0.59054,-4.992034 1.960293,-9.851961 2.371281,-14.868348 0.09657,-0.588155 0.178247,-1.178949 0.289708,-1.764464 0.336137,-1.765745 0.829273,-3.499221 1.194604,-5.258327 -0.110484,-0.633895 -0.428871,-2.958559 -1.297953,-2.533339 -8.21431,4.019059 -15.731159,9.329602 -23.59674,13.994405 0.162243,0.341799 0.198705,0.589862 0.09217,0.972798 -0.197644,0.823961 -0.487185,1.582947 -0.79066,2.374236 -0.525997,1.371516 -1.039085,2.749921 -1.718447,4.056293 -2.174288,4.195 -4.710898,8.194487 -7.532553,11.985164 -0.446177,0.588421 -0.869249,1.195097 -1.338527,1.765261 -2.019141,2.453214 -4.335393,4.641696 -6.794312,6.645523 z" /><rect
     style="opacity:0.6;fill:none;stroke:none;stroke-width:0.529165;stroke-linecap:round"
     id="rect1"
     width="185.871"
     height="162.78499"
     x="0"
     y="7.6293945e-06" /></svg>
