<?xml version="1.0" encoding="UTF-8" standalone="no"?>
<!-- Created with Inkscape (http://www.inkscape.org/) -->

<svg
   width="185.87099mm"
   height="162.78456mm"
   viewBox="0 0 185.87099 162.78456"
   version="1.1"
   id="svg1"
   xml:space="preserve"
   sodipodi:docname="N.5.svg"
   inkscape:version="1.4.2 (ebf0e940, 2025-05-08)"
   xmlns:inkscape="http://www.inkscape.org/namespaces/inkscape"
   xmlns:sodipodi="http://sodipodi.sourceforge.net/DTD/sodipodi-0.dtd"
   xmlns="http://www.w3.org/2000/svg"
   xmlns:svg="http://www.w3.org/2000/svg"><sodipodi:namedview
     id="namedview1"
     pagecolor="#ffffff"
     bordercolor="#666666"
     borderopacity="1.0"
     inkscape:showpageshadow="2"
     inkscape:pageopacity="0.0"
     inkscape:pagecheckerboard="0"
     inkscape:deskcolor="#d1d1d1"
     inkscape:document-units="mm"
     showgrid="false"
     inkscape:zoom="0.94803661"
     inkscape:cx="345.9782"
     inkscape:cy="303.25833"
     inkscape:window-width="1512"
     inkscape:window-height="922"
     inkscape:window-x="0"
     inkscape:window-y="32"
     inkscape:window-maximized="1"
     inkscape:current-layer="svg1" /><defs
     id="defs1" /><path
     style="opacity:0.6;fill:#ff0000;stroke-width:0.529167;stroke-linecap:round"
     id="path10"
     d="m 66.154253,35.443075 c 0.336725,0.945026 0.53358,1.947694 0.756264,2.926676 0.243216,1.295966 0.590603,2.575105 0.745697,3.887279 0.06887,0.582729 0.08011,1.170879 0.129254,1.755603 0.112302,1.336318 0.245031,2.67085 0.361339,4.006824 0.148682,2.377932 0.360968,4.769876 0.318995,7.155505 -0.01437,0.81639 -0.09864,1.630058 -0.143487,2.445343 -0.212529,3.86349 -0.01455,0.86415 -0.282617,4.638728 -0.384021,3.665045 -0.769067,7.327947 -1.090099,10.999186 -0.176408,1.701549 -0.21962,3.425577 -0.527084,5.111838 -0.01037,0.05682 -0.32801,1.480894 -0.362395,1.635286 -0.172776,0.719407 -0.265443,1.458793 -0.470871,2.169938 -0.0084,0.231685 -0.11357,0.424283 -0.04638,0.64857 -0.314082,-0.415277 -0.235924,-0.19499 -0.183026,0.109183 0.05379,0.309295 0.05391,0.627264 0.09753,0.93867 0.152363,0.71287 0.007,1.42788 -0.03083,2.142422 -0.08012,0.402105 -0.13476,0.799996 -0.09988,1.202933 0.239144,1.000604 0.08479,1.983893 -0.325906,2.915854 -0.0108,0.0375 -0.335108,0.642749 -0.370604,0.640998 -0.0826,-0.0041 -0.273368,-0.109215 -0.199829,-0.147045 24.750902,-12.732623 20.176304,-20.535908 24.891039,-12.398073 0.524785,0.85888 0.250388,0.505362 0.31188,0.224454 0.0168,-0.07677 0.162573,-0.04005 0.213582,-0.09983 0.04887,-0.05727 0.06291,-0.136806 0.09436,-0.205208 0.202132,-0.212085 0.361543,-0.559068 0.619496,-0.713298 0.102171,-0.06109 0.232616,-0.05436 0.343556,-0.09753 0.816377,-0.317709 -0.130225,-0.07508 0.884473,-0.288581 -7.282222,4.185078 -14.568154,8.363706 -21.846667,12.555236 -0.276637,0.159308 0.5543,-0.317702 0.840825,-0.458452 1.331105,-0.653894 2.750116,-1.080659 4.160771,-1.521034 3.689102,-1.066202 7.536471,-1.556888 11.36972,-1.68761 0.888537,-0.0303 1.778066,-0.01162 2.667101,-0.01744 2.44866,0.03901 4.873167,0.350739 7.265545,0.859742 0.736944,0.156792 1.477743,0.303877 2.200341,0.517245 1.541863,0.455279 1.988234,0.744225 3.368314,1.42795 1.40757,0.818193 2.91883,1.552697 4.11279,2.684905 0.45179,0.428421 0.68121,0.75897 1.05422,1.240261 0.12447,0.172474 0.26119,0.33674 0.37341,0.517421 1.13215,1.822755 -0.57631,-0.764569 0.45466,0.855734 0.39132,0.615019 0.81588,1.197637 1.19612,1.822305 1.60748,2.506607 2.52977,5.350807 3.33292,8.194777 0.55941,1.53449 0.55326,3.13301 0.57943,4.73678 0.0102,0.62495 0.0582,2.00577 0.0358,2.64637 -0.0137,0.38974 -0.0603,0.77763 -0.0905,1.16645 -0.32263,2.26898 -1.5836,4.20749 -2.64787,6.18643 -1.69808,3.12227 -4.23906,5.62107 -6.90066,7.92328 -1.22111,0.90623 -1.59065,1.23339 -2.88936,1.99409 -0.471061,0.27592 -1.916071,1.04682 -1.444806,0.77124 6.560596,-3.81178 13.121186,-7.62357 19.681776,-11.43535 -0.41817,0.19692 -0.82766,0.41344 -1.2545,0.59077 -0.42856,0.17805 -0.87265,0.31615 -1.30897,0.47422 -2.45391,0.75939 -5.01722,1.07383 -7.56458,1.33118 -3.84395,0.35005 -7.69663,0.503 -11.554942,0.41995 -1.64189,-0.17891 -3.293192,-0.0414 -4.937598,-0.12175 -0.845921,-0.0413 -1.688357,-0.13896 -2.53024,-0.23128 -1.270304,-0.13931 -3.551885,-0.44208 -4.816054,-0.72328 -0.648208,-0.14419 -1.277982,-0.3614 -1.916972,-0.5421 -1.565648,-0.5525 -3.179392,-0.97067 -4.700215,-1.64692 -1.12631,-0.50082 -2.200687,-1.14986 -3.275608,-1.75012 -1.235067,-0.76172 -2.47728,-1.61397 -3.350077,-2.79875 -0.283154,-0.38437 -0.617958,-1.06299 -0.840573,-1.4894 -0.537901,-1.33233 -0.825553,-2.70916 -0.87889,-4.14026 -0.04623,-1.13222 0.18616,-2.2387 0.398938,-3.34136 0.02011,-0.38073 0.264618,-0.7691 0.254315,-1.14744 0.03223,-0.17696 5e-6,-0.34308 0.03697,-0.5206 0.0048,-0.0182 0.0095,-0.0363 0.01429,-0.0544 0,0 -24.776022,12.62299 -24.776022,12.62299 v 0 c 0.0047,0.0127 0.0095,0.0253 0.01426,0.038 0.04181,0.15282 -5.29e-4,0.29455 0.03204,0.44722 -0.01746,0.30004 0.212341,0.62298 0.225075,0.92783 0.21998,1.04661 0.488535,2.08651 0.595667,3.15548 0.293987,1.80006 0.613421,3.56109 1.788616,5.02941 0.214222,0.2865 0.411117,0.5868 0.642662,0.85949 1.380744,1.62608 3.102022,2.95904 4.865312,4.13753 0.413046,0.211 0.814686,0.446 1.239136,0.633 1.245002,0.5485 1.671283,0.59917 3.006534,0.96917 1.914898,0.53063 3.823052,1.11482 5.818315,1.26428 0.801981,0.09 1.60587,0.16433 2.405943,0.26991 1.670638,0.22047 3.332496,0.50391 5.002385,0.72999 0.824407,0.11161 1.653405,0.19071 2.475,0.32142 0.749733,0.11928 1.484865,0.32423 2.236874,0.4282 0.71097,0.0983 1.430565,0.1185 2.145848,0.17774 3.439041,0.35025 6.879463,0.70694 10.338932,0.77172 0.528548,0.009 2.046536,0.044 2.59206,0.0182 1.844458,-0.0872 3.659608,-0.5213 5.451004,-0.93464 9.757165,-2.42951 13.506445,-6.76866 25.289685,-13.59423 0.5473,-0.31703 1.94392,-1.46799 2.38655,-1.8626 0.40857,-0.36425 0.79202,-0.75573 1.18803,-1.13359 2.67039,-2.82478 5.24177,-5.75125 7.52667,-8.90069 0.61554,-0.94524 1.05871,-1.51306 1.47371,-2.5452 0.62078,-1.54394 0.67726,-3.25761 0.8191,-4.88957 -0.005,-0.47016 0.0204,-0.94171 -0.0162,-1.410476 -0.1973,-2.52948 -1.31734,-4.866391 -1.56844,-7.387148 -0.42354,-1.69027 -0.3904,-1.598343 -0.84898,-3.269195 -0.52302,-1.905605 -1.13012,-3.798842 -1.31464,-5.777695 -0.19137,-1.194575 -0.31836,-2.473476 -1.15028,-3.426381 -0.22102,-0.253164 -1.01087,-0.888809 -1.2454,-1.083238 -0.96696,-0.636016 -1.94511,-1.292598 -2.97636,-1.821133 -1.46757,-0.752162 -3.03846,-1.299157 -4.63883,-1.685565 -3.60857,-0.836022 -0.5223,-0.116075 -4.36089,-1.026718 -0.79834,-0.189394 -1.58957,-0.412615 -2.39585,-0.564708 -2.57302,-0.485368 -5.20072,-0.614233 -7.80211,-0.854321 -3.95615,-0.245862 -7.918766,-0.392301 -11.877755,-0.570794 -0.357363,0.02675 -0.716148,0.03863 -1.072087,0.08024 -9.48587,1.108715 -23.511629,12.663447 -26.802976,14.034942 -0.296082,0.256799 -0.885357,0.733697 -1.144945,1.07234 -0.120864,0.157673 -0.194749,0.346406 -0.297254,0.516586 -0.22012,0.365447 -0.46319,0.717669 -0.665837,1.09388 -0.256167,0.376724 -0.202203,0.227922 -0.314913,0.662596 -0.02585,0.09972 -0.01931,0.210423 -0.06712,0.301675 -0.08144,0.155443 -0.241987,-0.07423 -0.169656,0.240064 0.05098,0.221507 0.156919,0.426652 0.235379,0.639977 2.767669,9.136212 0.07983,0.593249 24.932536,-12.131413 0.08376,-0.04289 -0.117705,-0.147177 -0.16982,-0.225536 -0.09562,-0.143796 -0.118017,-0.33329 -0.176437,-0.490521 -0.214135,-0.989436 0.02735,-2.046844 0.37179,-2.979748 0.16025,-0.531882 0.213193,-1.039667 0.05846,-1.573904 -0.02986,-0.645667 -0.155202,-1.293854 0.07268,-1.9231 0.01426,-0.03943 0.153734,-0.432186 0.18551,-0.494871 0.252926,-0.498943 0.482261,-0.08537 0.185925,-0.958741 0.05043,-0.223507 -0.01548,-0.381845 -0.04857,-0.607582 -0.22506,-0.533881 -0.295712,-1.122741 -0.474557,-1.672516 -0.0476,-0.167187 -0.330546,-1.155541 -0.352769,-1.260001 -0.31972,-1.503034 -0.28997,-3.062369 -0.411181,-4.586602 -0.156506,-3.424026 -0.234336,-6.85206 -0.346125,-10.277745 -0.194548,-6.213438 0.05086,2.056178 -0.09661,-4.464939 -0.01786,-0.789644 -0.07351,-1.578454 -0.07672,-2.368293 -0.01013,-2.495286 0.153601,-4.992532 0.318995,-7.480575 0.116639,-1.458659 0.248401,-2.916098 0.361339,-4.37505 0.04867,-0.628697 0.0631,-1.260218 0.129254,-1.887318 0.164701,-1.561303 0.505762,-3.097444 0.745696,-4.647182 0.228167,-1.235607 0.436399,-2.482483 0.756264,-3.697345 z" /><path
     style="opacity:0.6;fill:#ff0000;stroke-width:0.529167;stroke-linecap:round"
     id="path11"
     d="m 62.084239,37.419255 c 5.749052,-1.602021 11.659629,-2.586324 17.576961,-3.31597 2.374927,-0.292847 4.758124,-0.514171 7.137189,-0.771253 8.915569,-0.600498 5.521965,-0.523878 14.053881,-0.534225 5.47987,-0.0066 6.72111,-0.07938 11.95987,0.353565 3.01621,0.249269 5.20538,0.593939 8.15152,1.007192 3.35414,0.434033 6.43647,1.191895 9.42767,2.752175 0.23907,0.195979 0.52946,0.310192 0.7659,0.508584 0.0306,0.02566 0.10512,0.118798 0.085,0.08431 -0.11366,-0.195091 -0.26661,-0.364461 -0.39952,-0.546984 -0.49874,-0.723429 -0.16912,-0.221419 -0.90817,-1.556017 0,0 25.40092,-11.289702 25.40092,-11.289702 v 0 c -0.69713,-1.460252 -0.35823,-0.898091 -0.91146,-1.745614 -0.15892,-0.19321 -0.48604,-0.641503 -0.7367,-0.750872 -0.0868,-0.03788 -0.18752,0.02689 -0.28146,0.039 -0.62154,0.08012 -1.24637,0.128647 -1.86798,0.208736 -5.29229,0.531406 -10.57368,1.170725 -15.87415,1.618886 -5.85393,0.578914 -11.70663,1.249946 -17.58643,1.514071 -2.24145,0.100688 -4.48606,0.110995 -6.72928,0.15776 -8.57285,0.178719 -4.82916,0.225731 -13.053004,-0.196498 C 94.748275,24.54222 92.462709,24.41653 89.095281,23.556313 87.68815,23.196858 85.400456,22.479082 84.423633,21.188711 Z" /><rect
     style="opacity:0.6;fill:none;stroke:none;stroke-width:0.529165;stroke-linecap:round"
     id="rect1"
     width="185.871"
     height="162.78499"
     x="-7.6293945e-06"
     y="-0.00021362305" /></svg>
