<?xml version="1.0" encoding="UTF-8" standalone="no"?>
<!-- Created with Inkscape (http://www.inkscape.org/) -->

<svg
   width="903.27899"
   height="531.94702"
   viewBox="0 0 238.99257 140.74432"
   version="1.1"
   id="svg1"
   xml:space="preserve"
   sodipodi:docname="PX.2 Made with.svg"
   inkscape:version="1.4.2 (ebf0e940, 2025-05-08)"
   xmlns:inkscape="http://www.inkscape.org/namespaces/inkscape"
   xmlns:sodipodi="http://sodipodi.sourceforge.net/DTD/sodipodi-0.dtd"
   xmlns="http://www.w3.org/2000/svg"
   xmlns:svg="http://www.w3.org/2000/svg"><sodipodi:namedview
     id="namedview1"
     pagecolor="#ffffff"
     bordercolor="#666666"
     borderopacity="1.0"
     inkscape:showpageshadow="2"
     inkscape:pageopacity="0.0"
     inkscape:pagecheckerboard="0"
     inkscape:deskcolor="#d1d1d1"
     inkscape:document-units="mm"
     inkscape:zoom="0.73731409"
     inkscape:cx="452.99555"
     inkscape:cy="163.43103"
     inkscape:current-layer="svg1" /><defs
     id="defs1" /><g
     id="layer1"
     transform="matrix(0.70424156,0,0,0.70424156,-541.75447,162.68533)"
     style="fill:#ffffff;stroke-width:1.41997"><path
       style="opacity:0.6;fill:#ffffff;stroke-width:1.41997"
       d="m 885.36118,-40.567148 c -1.11866,-0.590807 -2.116,-1.819864 -2.56586,-3.162028 -0.21583,-0.643941 -0.30236,-3.850072 -0.28564,-10.583332 0.0234,-9.401874 -0.18959,-13.144813 -1.06028,-18.635857 -0.14015,-0.883856 -0.43522,-3.241798 -0.65571,-5.23987 -0.57376,-5.199273 -1.73385,-10.590017 -2.6675,-12.395512 -0.45737,-0.884448 -1.93409,-2.624754 -2.22721,-2.624754 -0.1094,0 -0.27229,0.785728 -0.36196,1.746063 -0.12646,1.35414 -0.7585,3.239725 -2.81583,8.40052 -1.45902,3.659952 -2.98414,7.152731 -3.38914,7.761731 -1.17233,1.762831 -5.33802,6.394381 -6.88355,7.653358 -1.59832,1.301982 -4.04664,2.525484 -6.00725,3.002004 -0.7276,0.176842 -2.76655,0.482519 -4.531,0.679282 -2.76302,0.308118 -3.46045,0.304205 -5.02709,-0.0282 -1.00044,-0.212274 -3.81043,-0.740662 -6.24441,-1.174196 -7.99329,-1.423741 -10.30393,-2.698262 -15.01891,-8.284245 -1.74045,-2.061963 -3.5187,-4.409489 -3.95167,-5.216725 -1.17719,-2.194775 -2.18425,-6.291453 -2.20832,-8.983339 -0.0178,-1.98691 0.0915,-2.532523 0.93808,-4.682579 1.36424,-3.464883 1.66859,-3.978395 3.47381,-5.861033 1.77503,-1.85116 3.26474,-2.72948 5.3966,-3.18182 3.26945,-0.6937 6.13973,-0.21145 9.66447,1.623791 2.06465,1.075006 2.30435,1.301752 5.78995,5.477014 1.99988,2.39557 3.82977,4.836351 4.06642,5.423958 0.23666,0.587608 0.49079,1.961346 0.56474,3.052752 0.12333,1.820163 0.0514,2.207997 -0.86939,4.686663 -0.55212,1.486259 -1.19037,2.784078 -1.41835,2.884044 -0.22798,0.09996 -2.32336,0.236742 -4.65639,0.303948 l -4.24189,0.122194 -0.94823,-1.049582 c -0.84778,-0.938387 -0.9308,-1.158766 -0.78368,-2.080195 0.13414,-0.840088 0.33547,-1.115297 1.08908,-1.488694 1.6964,-0.840534 2.62068,-4.052784 1.75486,-6.098855 -0.27065,-0.639583 -3.13055,-4.260119 -5.34405,-6.765364 -0.16079,-0.181982 -1.1691,0.674615 -1.94839,1.655223 -0.43503,0.547408 -1.28363,2.255372 -1.88578,3.795475 -1.23968,3.170701 -1.25391,3.927349 -0.14583,7.753061 0.71958,2.484388 1.45313,3.736257 3.86784,6.600832 3.37696,4.006102 4.84596,5.360138 7.14315,6.584135 2.08304,1.109889 2.22049,1.145019 3.79081,0.968861 2.35295,-0.263952 4.95072,-1.038417 6.81358,-2.031309 1.19841,-0.638751 2.39329,-1.68517 4.5693,-4.001603 1.62059,-1.72517 3.32119,-3.695675 3.77911,-4.378899 0.45792,-0.683225 1.94416,-4.040195 3.30276,-7.459935 2.42287,-6.09862 2.47198,-6.26611 2.56401,-8.744838 0.10852,-2.922988 -0.33364,-5.851887 -1.68659,-11.172047 -1.00073,-3.93515 -1.60657,-5.48312 -2.14598,-5.48312 -0.18837,0 -1.32718,0.19904 -2.53068,0.4423 -1.90542,0.38514 -2.59738,0.40156 -5.35475,0.12704 -5.30794,-0.52845 -9.22418,-1.53453 -15.52612,-3.98864 -3.96969,-1.54588 -5.61922,-2.69685 -8.04904,-5.61625 -3.51019,-4.21747 -4.51794,-6.11614 -5.83731,-10.99792 -0.58781,-2.17493 -0.70197,-3.15897 -0.71473,-6.16028 -0.0211,-4.96242 0.47644,-7.24498 2.91237,-13.36145 4.05141,-10.17289 5.75134,-12.54958 12.6058,-17.6242 2.33406,-1.72799 3.24102,-2.08726 5.26917,-2.08726 2.22325,0 8.55753,1.75484 11.10592,3.07677 3.49958,1.81534 7.54238,6.41702 10.11588,11.51431 1.67918,3.32594 2.09985,5.08673 1.94712,8.15021 -0.0997,1.99967 -0.24106,2.5225 -1.21964,4.51079 -2.00742,4.07868 -4.01169,7.53203 -4.69568,8.09063 -1.00466,0.82048 -4.11206,1.22832 -8.98051,1.17869 -3.91228,-0.0399 -4.3136,-0.0899 -5.29167,-0.66002 -1.88238,-1.09716 -3.57187,-3.67278 -3.57187,-5.4453 0,-0.80827 1.18604,-4.71106 1.53915,-5.06471 0.0993,-0.0995 2.32376,0.33659 4.94314,0.96911 3.18266,0.76854 4.86555,1.06471 5.07314,0.89281 0.17085,-0.14148 0.82405,-1.29196 1.45157,-2.55662 1.04229,-2.10058 1.13891,-2.46512 1.11746,-4.21645 -0.0214,-1.74869 -0.14475,-2.16651 -1.40435,-4.75724 -1.49532,-3.07556 -2.37875,-4.40996 -4.96993,-7.50697 -2.45732,-2.93701 -2.51685,-2.95364 -4.87562,-1.36174 -2.02559,1.36703 -4.87589,4.18999 -6.24492,6.185 -1.15998,1.69039 -2.42955,4.33174 -4.30718,8.96114 -2.26512,5.5848 -2.66622,7.16012 -2.82935,11.1125 -0.12278,2.97456 -0.0635,3.61142 0.58913,6.33015 0.85807,3.57454 1.83539,5.56127 4.2768,8.69404 3.15869,4.05317 4.42776,4.95443 10.00271,7.10362 1.71326,0.66048 1.96442,0.69112 3.43959,0.41961 6.29135,-1.15793 7.82502,-1.38022 9.49472,-1.37616 5.00835,0.0122 8.98391,1.94296 10.7066,5.19973 0.44581,0.84281 2.57011,9.63391 2.97808,12.324328 0.19308,1.273308 0.41538,2.310847 0.49401,2.305644 0.0786,-0.0052 1.38494,-0.2222 2.90293,-0.482216 l 2.75997,-0.472756 -0.055,-1.700596 c -0.12701,-3.928024 -0.87541,-14.927454 -1.24084,-18.237054 -0.61686,-5.58664 -0.87766,-10.49834 -0.72072,-13.57338 0.13786,-2.70104 0.16791,-2.8164 0.70157,-2.69324 0.59444,0.13719 8.6411,1.44995 8.88757,1.44995 0.0804,0 0.10655,2.05383 0.058,4.56406 -0.0568,2.93674 0.0559,5.83763 0.31611,8.13594 0.22242,1.96453 0.67253,7.48643 1.00023,12.27089 l 0.59584,8.699008 2.58895,-0.178311 2.58896,-0.178312 v 0.938156 0.938155 h 4.36563 4.36562 l -0.0195,-1.389063 c -0.0107,-0.763984 -0.16799,-3.591723 -0.34953,-6.283853 -0.18153,-2.69214 -0.31818,-4.91806 -0.30366,-4.9465 0.0287,-0.0562 7.40927,0.88231 8.80859,1.12015 l 0.8599,0.14616 v 3.16301 c 0,1.73965 0.0444,3.16301 0.0986,3.16301 0.0543,0 0.62878,-0.2345 1.27671,-0.52111 0.95732,-0.42347 1.86842,-0.533 4.86268,-0.58459 4.92289,-0.0848 5.35967,0.11985 8.64242,4.049957 1.32151,1.582118 2.48381,2.876579 2.58289,2.876579 0.0991,0 0.51328,-0.863203 0.92047,-1.918229 1.38827,-3.597027 2.74088,-6.195507 3.4756,-6.676907 0.67912,-0.44498 0.89721,-0.44577 4.57424,-0.0168 7.81619,0.91197 10.04255,1.59939 12.09178,3.7335 2.54971,2.655339 2.97868,4.45868 1.70721,7.177049 -0.46367,0.991308 -1.10343,2.081543 -1.4217,2.422745 -0.86321,0.925416 -3.58604,2.646688 -7.59012,4.798192 -1.96453,1.055597 -3.96348,2.212629 -4.44211,2.571182 -0.85253,0.638657 -0.89515,0.643425 -2.09539,0.234463 -0.67383,-0.229599 -1.24682,-0.388034 -1.2733,-0.352078 -0.3464,0.470374 -0.65587,2.253687 -0.65587,3.779424 0,2.254672 0.95334,5.84251 2.13974,8.052794 0.81158,1.512009 4.64975,6.378841 5.16127,6.544543 0.30534,0.09891 0.76925,-0.744375 2.43864,-4.432943 0.59471,-1.314023 1.42412,-2.650343 1.98011,-3.190321 0.52622,-0.511051 1.32561,-1.672615 1.77643,-2.581254 0.45082,-0.908639 0.97243,-1.710685 1.15912,-1.782324 0.18668,-0.07164 2.45341,0.351265 5.03716,0.939788 2.58375,0.588523 4.74634,1.070042 4.80576,1.070042 0.31054,0 0.0318,0.629398 -0.52546,1.186705 -0.34842,0.348416 -0.84756,1.19402 -1.1092,1.879118 -0.27701,0.725335 -1.03919,1.809525 -1.82473,2.595634 -1.07149,1.072265 -1.60866,1.953967 -2.611,4.28572 -1.42289,3.31008 -2.37209,4.619333 -3.96749,5.47248 -0.92508,0.494688 -1.51738,0.587634 -3.74472,0.587634 -2.97027,0 -4.20902,-0.329921 -7.67292,-2.043559 -3.43393,-1.698811 -5.09598,-3.051858 -7.45023,-6.065106 -3.78958,-4.850354 -5.19092,-8.568193 -5.22105,-13.851751 -0.0175,-3.067198 0.0154,-3.258999 0.96877,-5.648947 0.54279,-1.360671 0.98689,-2.551634 0.98689,-2.646585 0,-0.09495 -0.71373,-0.618784 -1.58607,-1.164074 -1.36614,-0.853966 -1.79721,-0.989838 -3.10885,-0.979912 -0.83754,0.0063 -2.01786,0.10741 -2.62294,0.224606 l -1.10014,0.213084 0.80773,-1.589503 c 0.83205,-1.637375 0.81173,-2.072708 -0.1243,-2.663143 -0.65826,-0.415219 -1.15213,0.180362 -2.02211,2.438543 -1.35987,3.529772 -1.88164,8.223634 -1.8433,16.582532 0.018,3.926806 0.0352,7.734961 0.0382,8.462565 0.009,2.272512 -0.36859,5.01769 -0.63415,4.604706 -0.15738,-0.244758 -0.18729,-0.100753 -0.0877,0.422377 0.1841,0.967223 -0.65904,2.342511 -1.98318,3.23485 -1.93173,1.301788 -5.15045,0.49274 -6.8136,-1.712641 -0.90902,-1.205382 -1.48266,-3.526196 -0.9181,-3.714384 0.3566,-0.118868 0.4089,-1.031344 0.0664,-1.159214 -0.2792,-0.104245 -0.67741,-5.510782 -1.22448,-16.624652 -0.21847,-4.438385 -0.46932,-8.813932 -0.55743,-9.723437 l -0.1602,-1.653646 -2.94574,0.0055 c -1.62016,0.003 -4.55308,0.240851 -6.51761,0.528495 -1.96454,0.287645 -3.73827,0.523292 -3.94164,0.523661 -0.30196,5.49e-4 -0.33717,0.424771 -0.19198,2.313595 0.26074,3.392118 0.67306,14.143817 0.98178,25.600617 0.149,5.529792 0.33678,11.869617 0.41728,14.0885 0.14759,4.067866 0.0236,5.512846 -0.4482,5.221289 -0.35935,-0.222089 -0.32569,1.549888 0.0363,1.911894 0.68305,0.683044 -0.88699,3.390837 -2.42818,4.187819 -1.06302,0.549708 -3.34743,0.472817 -4.53149,-0.152523 z m 57.10724,-53.558951 c 1.53169,-1.339887 2.63011,-3.327077 2.24096,-4.054211 -0.13484,-0.251938 -0.47482,-0.665916 -0.75553,-0.919951 -0.49035,-0.443768 -0.52381,-0.433275 -0.85302,0.267543 -0.416,0.885541 -2.38978,5.67615 -2.38978,5.800265 0,0.299071 0.57273,-0.05735 1.75737,-1.093646 z m 110.69058,44.574112 c -3.1249,-0.400826 -3.9077,-0.972182 -7.7545,-5.660482 -5.0349,-6.136148 -5.2038,-6.356434 -7.2766,-9.490572 -1.0358,-1.566216 -2.602,-3.682632 -3.4803,-4.703148 -0.8783,-1.020516 -1.6015,-1.882192 -1.6069,-1.914835 -0.01,-0.03264 -0.1174,-2.678727 -0.2486,-5.880186 -0.2528,-6.165231 -0.5189,-8.484224 -1.3662,-11.906249 -1.3639,-5.508583 -4.986,-15.410641 -5.5171,-15.082431 -0.4503,0.27828 -1.4147,6.739834 -1.9815,13.276519 -0.3464,3.994123 -0.3684,5.713337 -0.1301,10.149347 0.1578,2.937372 0.2172,5.658039 0.132,6.045927 l -0.1549,0.705252 -3.5721,0.04023 c -1.9646,0.02213 -3.906,0.113579 -4.3142,0.203228 -0.5142,0.112947 -0.9266,0.01359 -1.343,-0.323569 -0.5044,-0.40844 -0.643,-0.888217 -0.8632,-2.988035 -0.1443,-1.375808 -0.1907,-4.019447 -0.103,-5.874755 0.2012,-4.260636 -0.1896,-6.205202 -2.9378,-14.618379 -1.8168,-5.561895 -3.2956,-9.128125 -3.785,-9.128125 -0.3019,0 -0.5294,2.12141 -0.7946,7.408333 -0.369,7.358794 -0.3121,13.466546 0.1745,18.706033 0.5386,5.799893 0.5989,15.523847 0.1037,16.719345 -0.4268,1.03038 -0.9655,1.053779 -4.3081,0.187119 -1.3478,-0.349481 -3.11896,-0.718349 -3.93578,-0.819709 l -1.48511,-0.18429 -0.14372,-2.818312 c -0.45369,-8.897178 -5.55387,-34.144389 -7.77149,-38.470919 l -0.37294,-0.7276 h 4.31393 4.31392 l 0.31771,-2.33276 c 0.59784,-4.38967 1.65103,-6.07594 4.27048,-6.83743 2.3639,-0.6872 5.7965,0.0313 8.5302,1.7855 1.0797,0.69281 4.5191,4.41182 5.8892,6.36792 0.2265,0.32338 0.4539,0.53562 0.5053,0.47164 0.051,-0.064 0.3011,-0.90367 0.5548,-1.86598 0.2537,-0.96231 0.7447,-2.3613 1.0911,-3.10886 l 0.6297,-1.3592 3.121,0.003 c 4.914,0.005 6.9908,0.77099 9.466,3.49154 1.9016,2.09015 3.7086,4.59737 4.5087,6.256 1.0387,2.15312 3.799,10.231563 4.7491,13.898847 1.1828,4.565405 1.4418,6.386925 1.8293,12.862975 l 0.3246,5.423958 1.705,2.116667 c 0.9378,1.164166 2.1644,2.90786 2.7258,3.874873 1.1507,1.98179 3.3101,4.765174 8.0412,10.364457 1.9435,2.300206 3.2411,4.062956 3.2411,4.402957 0,1.030861 -2.5815,1.681649 -5.2916,1.334019 z m -24.474,-60.060683 c -0.09,-0.14552 -0.3648,-0.26276 -0.6109,-0.26053 -0.3856,0.003 -0.3926,0.0395 -0.051,0.26053 0.5182,0.33486 0.8685,0.33486 0.6615,0 z m -48.50971,40.872297 c -0.47205,-0.397206 -1.09998,-1.195959 -1.39539,-1.775007 l -0.5371,-1.052814 -0.57577,0.523866 c -0.97295,0.885238 -1.66828,1.11916 -3.32671,1.11916 -5.76574,0 -12.97119,-6.834984 -15.62577,-14.822377 -0.47537,-1.430341 -2.35491,-11.505534 -2.83704,-15.20783 -0.32848,-2.522425 1.29837,-6.915545 3.08494,-8.330535 1.47319,-1.16679 3.94783,-2.20187 5.5611,-2.32608 1.1729,-0.0903 1.76317,0.0269 3.04271,0.60397 3.56649,1.60858 3.28538,1.54577 3.56981,0.79765 0.29758,-0.7827 1.19385,-0.8851 2.37969,-0.27188 0.42012,0.21725 0.92062,0.33485 1.11223,0.26132 0.19162,-0.0735 0.92259,0.3408 1.62439,0.92073 0.70181,0.57995 1.93924,1.2635 2.74988,1.51903 1.76844,0.55745 2.00881,0.99405 2.73828,4.97371 0.26674,1.45521 0.85163,4.431772 1.29976,6.614584 0.44813,2.182813 1.34809,7.230942 1.9999,11.218066 1.24914,7.640917 1.69182,9.700679 2.38234,11.084853 0.38063,0.762996 0.54066,0.848122 1.59434,0.848122 1.35232,0 1.42718,0.212954 0.76156,2.166445 l -0.40969,1.202376 -2.43458,0.172176 c -1.33902,0.0947 -3.21444,0.242035 -4.16759,0.327418 -1.61353,0.144537 -1.79219,0.105449 -2.59129,-0.566953 z m -8.54428,-12.231149 c 0.15186,-0.982266 0.40331,-5.677828 0.55878,-10.434584 0.24923,-7.625824 0.23271,-8.890504 -0.13976,-10.693714 -0.43954,-2.12794 -1.11092,-4.07506 -1.40365,-4.07078 -0.60206,0.009 -3.04181,1.7514 -3.59796,2.56983 -1.69546,2.4951 -1.81162,4.752614 -0.52792,10.259978 0.37311,1.600729 0.91873,4.160572 1.21249,5.688541 0.29375,1.527969 0.6437,3.194844 0.77765,3.704167 0.29666,1.127957 2.29046,4.7625 2.61256,4.7625 0.12744,0 0.35595,-0.803672 0.50781,-1.785938 z m -51.55746,-40.857088 c -2.69214,-0.2431 -5.08716,-0.45146 -5.32227,-0.46303 -0.33277,-0.0164 -0.46219,-0.41667 -0.5842,-1.80696 -0.4538,-5.17085 -0.7806,-8.03858 -1.39449,-12.23698 -0.37236,-2.54662 -0.79342,-5.52318 -0.93568,-6.61459 -0.4959,-3.80442 -1.31565,-8.59978 -1.50194,-8.78607 -0.10321,-0.10321 -0.96058,-0.0774 -1.90527,0.0574 -1.29548,0.18479 -2.95309,0.11489 -6.7447,-0.28443 -6.2303,-0.65616 -6.2177,-0.65347 -6.2177,-1.32803 0,-1.16196 0.43942,-1.52645 1.64976,-1.36846 0.6206,0.081 1.18789,0.23381 1.26065,0.33955 0.14035,0.20397 2.21592,-0.0495 5.67539,-0.69316 1.15694,-0.21524 2.7828,-0.46235 3.61302,-0.54913 0.83023,-0.0868 1.64975,-0.24445 1.82116,-0.35039 0.23324,-0.14415 0.14288,-1.11729 -0.35913,-3.86752 -0.36893,-2.0212 -0.80816,-4.62741 -0.97605,-5.79158 -0.1679,-1.16417 -0.54019,-3.00963 -0.82731,-4.10104 -0.45184,-1.71759 -1.22815,-4.87335 -1.67597,-6.81302 -0.0922,-0.39938 -0.33172,-0.5946 -0.72771,-0.59315 -1.07131,0.004 -10.22338,-1.94391 -10.09669,-2.14889 0.17108,-0.27682 3.48872,-0.96812 6.19218,-1.29028 3.52157,-0.41964 19.40008,-0.33543 23.85733,0.12653 7.05382,0.73106 10.93585,1.24624 12.33073,1.63639 1.67666,0.46896 5.84788,3.14936 6.6466,4.27106 0.84055,1.18045 1.31318,2.7114 1.51101,4.89454 0.15241,1.68196 0.0995,2.07771 -0.41209,3.08044 -0.32283,0.6328 -0.74929,1.61064 -0.9477,2.17299 -0.51933,1.47193 -2.67382,4.38293 -3.93237,5.31316 -1.6329,1.20691 -6.13775,3.26033 -8.22261,3.74806 -2.81684,0.65897 -9.11843,1.74175 -10.13669,1.74175 h -0.9036 l 0.17709,1.25677 c 0.0974,0.69123 0.39653,2.4474 0.66473,3.90261 0.2682,1.4552 0.56584,3.47927 0.66142,4.49791 0.0956,1.01865 0.5925,4.41193 1.10426,7.54063 0.51175,3.1287 1.04818,6.9387 1.19206,8.46666 0.14388,1.52797 0.32664,3.44167 0.40614,4.25268 0.23777,2.42548 0.61447,2.28915 -4.93936,1.78763 z m 1.32291,-33.29239 c 0,-0.14552 -0.24515,-0.26458 -0.54478,-0.26458 -0.29963,0 -0.4712,0.11906 -0.38126,0.26458 0.0899,0.14552 0.33509,0.26459 0.54478,0.26459 0.2097,0 0.38126,-0.11907 0.38126,-0.26459 z m 1.29749,-2.78198 c 1.7309,-0.43785 5.84739,-2.36872 7.23713,-3.39464 1.06902,-0.78915 2.88667,-3.40757 3.79373,-5.46504 0.62206,-1.41102 0.75592,-2.0779 0.7456,-3.71434 -0.0163,-2.58753 -0.67923,-3.82925 -2.88089,-5.39634 -3.3487,-2.38353 -3.20444,-2.34864 -10.24507,-2.47784 -5.89402,-0.10815 -11.9845,0.19948 -13.83861,0.69901 -0.57431,0.15473 0.51832,0.31805 3.95212,0.59074 l 4.74587,0.37689 0.35466,2.10773 c 0.19506,1.15925 0.65022,3.19265 1.01147,4.51867 0.36125,1.32602 1.0154,4.54473 1.45368,7.15269 0.95491,5.68222 0.96717,5.72664 1.53427,5.56049 0.24292,-0.0712 1.20414,-0.32229 2.13604,-0.55802 z m 87.86705,32.90545 c -1.0914,-0.12747 -2.8178,-0.18149 -3.8364,-0.12005 -1.3595,0.082 -1.6058,0.0531 -0.9261,-0.10856 0.8053,-0.19155 0.7276,-0.21434 -0.5956,-0.17475 -0.837,0.025 -1.5216,-0.0364 -1.5214,-0.13648 2e-4,-0.10009 -0.208,-0.1715 -0.4626,-0.15869 -1.0378,0.0522 -11.2903,-4.03989 -15.4991,-6.18623 -0.55721,-0.28416 -4.30768,-2.90596 -8.33437,-5.82623 -6.31705,-4.5813 -8.09631,-5.93005 -10.6785,-8.09476 -0.40502,-0.33954 -0.54364,-0.18029 -1.48185,1.70229 -0.56926,1.14228 -1.66023,3.56515 -2.42436,5.38416 -1.27542,3.03615 -3.28918,7.58005 -4.51441,10.18646 -0.27363,0.58208 -0.56223,1.35599 -0.64134,1.71979 -0.29239,1.34468 -0.22316,1.3392 -5.84171,0.46232 -2.90785,-0.45382 -5.3189,-0.84485 -5.35788,-0.86894 -0.039,-0.0241 0.10911,-0.38896 0.3291,-0.81079 0.21998,-0.42183 0.40071,-0.94883 0.4016,-1.17112 9e-4,-0.22228 0.16211,-0.639 0.35825,-0.92604 0.37686,-0.55152 3.22992,-6.57132 5.32597,-11.23752 0.68637,-1.52796 2.26488,-4.94814 3.50782,-7.60039 l 2.25988,-4.82228 -1.04081,-1.39543 c -1.46565,-1.96503 -3.03378,-4.51879 -4.19244,-6.82754 -0.54548,-1.08693 -1.23934,-2.3265 -1.54191,-2.7546 -0.30257,-0.4281 -1.59461,-2.90015 -2.87121,-5.49344 -2.52771,-5.13479 -3.64103,-7.015 -5.12907,-8.66208 l -0.96976,-1.0734 h 5.31631 5.3163 l 1.03104,1.30437 c 1.23497,1.56235 3.8105,6.12862 5.45397,9.66959 1.11685,2.4063 3.01332,5.64725 3.32375,5.68007 0.0765,0.008 1.05486,-1.86052 2.17404,-4.15247 2.24544,-4.59841 5.17684,-9.87054 6.09237,-10.95714 l 0.59026,-0.70055 4.63021,0.74254 c 2.54661,0.4084 4.88611,0.78408 5.19887,0.83484 0.52553,0.0853 0.44947,0.27254 -1.0026,2.4684 -0.8642,1.30686 -3.76943,6.74574 -6.45607,12.0864 l -4.88479,9.71029 4.1726,4.10169 c 2.29493,2.25593 4.76388,4.55611 5.48655,5.11151 4.74203,3.64445 16.14249,11.64802 17.46148,12.25864 4.29001,1.98604 8.17701,3.61345 10.44381,4.37259 l 2.5064,0.83936 -1.448,0.17605 c -0.7964,0.0968 -2.341,0.058 -3.4324,-0.0863 -1.0914,-0.14428 -2.282,-0.25794 -2.6459,-0.25259 -1.5842,0.0233 0.5805,0.4945 4.7625,1.03665 2.4011,0.31127 4.7229,0.66501 5.1594,0.78608 0.723,0.2005 0.6875,0.21906 -0.3969,0.20808 -0.6548,-0.007 -2.0835,-0.11636 -3.175,-0.24383 z m -0.9871,-1.72202 c -0.1791,-0.0725 -0.5363,-0.0769 -0.7938,-0.01 -0.2574,0.0671 -0.1108,0.12638 0.3257,0.13177 0.4366,0.005 0.6472,-0.0495 0.4681,-0.12197 z m 3.848,0.78656 c 0.191,-0.0764 0.4192,-0.067 0.5071,0.0209 0.088,0.0879 -0.068,0.15045 -0.3473,0.13896 -0.3082,-0.0127 -0.3709,-0.0754 -0.1598,-0.15985 z m -2.5301,-0.26623 c 0.2546,-0.0666 0.6714,-0.0666 0.926,0 0.2547,0.0665 0.046,0.121 -0.463,0.121 -0.5093,0 -0.7177,-0.0545 -0.463,-0.121 z"
       id="path101" /></g><path
     style="opacity:0.6;fill:#ffffff;stroke-width:0.529167;stroke-linecap:round"
     id="path1"
     d="m 86.673717,18.932825 c 0.465268,1.642458 1.083077,3.234765 1.623873,4.853278 0.425925,1.458312 0.964629,2.879638 1.400356,4.33456 0.733608,2.123544 2.254989,0.219746 5.217437,-0.681781 0.0042,-0.0012 0.100877,-0.330934 0.133565,-0.441482 0.114291,-0.454909 0.331053,-0.89386 0.341054,-1.364939 -0.02264,-0.556825 0.09151,-1.101479 0.219091,-1.639709 0.171639,-0.625796 0.358296,-1.247312 0.538144,-1.870783 0.246155,-1.033174 0.822035,-1.923674 1.350599,-2.827922 0.481354,-0.752563 0.995732,-1.420126 1.795676,-1.841992 1.674168,-0.368444 4.017598,-1.024188 -3.664439,0.844249 -0.09412,0.02289 0.424665,-0.01967 0.973953,0.05971 0.579987,0.08103 1.002415,0.312259 1.332411,0.785235 0.294744,0.699028 0.389043,1.475711 0.474189,2.225053 0.132798,1.225475 0.186832,2.454446 0.357748,3.67579 0.09149,0.822414 0.307055,1.622006 0.383537,2.446336 0.133331,2.316209 2.477839,0.09948 5.007139,-0.772259 0.0837,-0.02887 0.0447,-0.171481 0.0678,-0.257031 0.0311,-0.115228 0.0631,-0.230223 0.0946,-0.345348 0.29411,-0.842865 0.4033,-1.729913 0.56265,-2.604607 0.12639,-0.709532 0.33023,-1.401075 0.52558,-2.093671 0.20744,-0.706078 0.43337,-1.406605 0.67334,-2.10225 0.25574,-0.437234 0.55081,-0.840153 0.84641,-1.248402 0.53124,-0.579426 1.21473,-0.996188 1.92203,-1.324341 1.53057,-0.656518 4.54788,-1.24493 -3.16943,0.606928 -0.15882,0.03811 0.32229,-0.05477 0.48481,-0.0709 0.38029,-0.03776 0.50851,-0.02053 0.88373,-0.0064 0.67787,0.07833 1.3828,0.174367 1.98278,0.516624 0.64675,0.431786 0.83501,1.186527 1.01279,1.898694 0.1394,0.830478 0.20966,1.674851 0.14991,2.515867 -0.0582,0.598424 -0.22317,1.176363 -0.39688,1.749247 -0.18912,0.390953 -0.11843,0.813064 -0.14149,1.232592 -0.0168,0.382733 -0.17065,0.735815 -0.16657,1.116936 0.0264,0.332988 0.0234,0.666097 -0.0356,0.994945 -0.0374,0.186784 -0.094,0.368906 -0.15861,0.547875 0.0672,0.271855 0.0223,0.154671 0.11906,0.357271 0,0 4.82924,-1.302143 4.82924,-1.302143 v 0 c -0.008,0.0068 -0.0164,0.01375 -0.0245,0.02064 0.002,0.03029 0.005,0.06062 0.007,0.09092 0.0512,-0.205261 0.10929,-0.409671 0.12339,-0.62183 0.0348,-0.344884 0.0255,-0.689505 0.0119,-1.035713 0.0526,-0.371888 0.1659,-0.736132 0.16316,-1.115477 0.0166,-0.380565 0.002,-0.754535 0.1472,-1.116502 0.16679,-0.606436 0.29667,-1.222171 0.33524,-1.851664 0.0341,-0.88708 -0.0473,-1.775669 -0.20339,-2.649127 -0.18475,-0.804033 -0.38406,-1.702602 -1.05488,-2.246974 -0.59341,-0.511301 -1.34428,-0.632273 -2.10243,-0.761215 -2.60367,-0.29542 -5.28545,0.465099 -7.64698,1.553054 -0.7337,0.409886 -1.45261,0.873181 -1.96312,1.556106 -0.32815,0.434337 -0.62706,0.900724 -0.82405,1.410092 -0.20248,0.704875 -0.42038,1.405139 -0.63655,2.105916 -0.21644,0.705584 -0.40312,1.420967 -0.51427,2.151578 -0.131711,0.859976 -0.257334,1.722242 -0.586807,2.534811 -0.04269,0.112983 -0.08255,0.227085 -0.128135,0.33892 -0.03132,0.07689 -0.184099,0.243077 -0.102667,0.226911 4.891569,-0.971173 4.442879,-2.759801 4.800779,-0.746941 0.0173,0.09717 -0.0841,-0.473343 -0.0534,-0.291238 -0.15791,-0.808167 -0.38301,-1.600533 -0.50493,-2.415636 -0.15852,-1.219109 -0.22888,-2.443862 -0.31416,-3.669955 -0.0796,-0.835226 -0.16882,-1.685226 -0.45838,-2.477912 -0.39755,-0.596563 -0.71621,-0.98399 -1.46428,-1.141672 -2.273157,-0.603692 -4.758715,0.141947 -6.829344,1.179522 -0.736296,0.556885 -1.285525,1.273483 -1.74443,2.072514 -0.529489,0.941244 -1.047429,1.892997 -1.352488,2.935919 -0.21161,0.629589 -0.425244,1.260314 -0.561682,1.911539 -0.130012,0.566544 -0.235489,1.137848 -0.244205,1.721175 -0.0709,0.421439 -0.224576,0.824157 -0.358285,1.22862 -0.768576,1.68718 -2.698777,0.652154 4.556786,-0.749541 0.0229,-0.0044 -0.01616,0.262149 -0.124798,0.16207 -0.06005,-0.05532 -0.08579,-0.138923 -0.128684,-0.208387 -0.587414,-1.405436 -1.170389,-2.81389 -1.603799,-4.276403 -0.524835,-1.569476 -1.08389,-3.156328 -1.336216,-4.794821 z" /><path
     style="opacity:0.6;fill:#ffffff;stroke-width:0.529167;stroke-linecap:round"
     id="path2"
     d="m 124.72042,17.342959 c -0.66045,-0.04871 -1.3209,0.0099 -1.97251,0.116914 -1.60882,0.560065 -4.57151,0.472978 -6.2423,1.791735 -0.30947,0.391683 -0.69355,0.691629 -0.95002,1.122374 -0.21156,0.398603 -0.37393,0.819307 -0.538,1.238872 -0.0803,0.248285 -0.15923,0.496716 -0.23028,0.747829 -0.13305,0.331516 -0.18673,0.621469 -0.14746,0.97474 0.0433,0.350097 0.22987,0.658294 0.35167,0.98326 0.10636,0.451133 0.3695,0.845228 0.6654,1.194333 0.37781,0.46279 0.86743,0.769861 1.39591,1.031328 0.6595,0.347782 1.38276,0.376341 2.10977,0.382518 1.92446,-0.06393 3.84735,-0.752152 5.6602,-1.169401 0.27995,-0.06444 0.51514,-0.21767 0.74019,-0.385894 0.47733,-0.378215 0.82836,-0.811847 1.14175,-1.333851 0.22664,-0.470542 0.40526,-0.965685 0.56579,-1.462576 -0.005,-0.391911 -0.0333,-0.770208 0.0299,-1.159426 0.17872,-0.717139 0.36153,-1.423534 0.47289,-2.154909 0.0976,-0.697006 0.24686,-1.385023 0.43665,-2.062393 0.11718,-0.336435 0.0642,-0.709082 -0.002,-1.053295 -0.49623,-2.026708 -4.92811,-0.980855 -5.14427,0.998908 0.036,0.574228 0.025,1.146621 0.0603,1.720574 0.0179,0.599607 0.1076,1.194086 0.15644,1.79122 0.0927,0.815527 0.30038,1.611651 0.37309,2.429666 0.10654,0.608407 0.18952,1.223314 0.34671,1.820972 0.11286,0.464604 0.30007,0.900333 0.48575,1.338793 0.25535,0.475514 0.53038,0.946441 0.8418,1.387876 0.19267,0.303248 0.4191,0.582027 0.6368,0.86699 0.0699,0.150154 0.16467,0.278584 0.27852,0.397011 0,0 4.75055,-1.55067 4.75055,-1.55067 v 0 c -0.0988,0.06028 -0.12592,0.09836 -0.18848,-0.03769 -0.15008,-0.37151 -0.53937,-0.583435 -0.70061,-0.960028 -0.3251,-0.377534 -0.54173,-0.836924 -0.80411,-1.25845 -0.16624,-0.425426 -0.3627,-0.836294 -0.48742,-1.277772 -0.16108,-0.566578 -0.21869,-1.161636 -0.36529,-1.732712 -0.0882,-0.810748 -0.28882,-1.604561 -0.34964,-2.418566 -0.0324,-0.599357 -0.12739,-1.194639 -0.14068,-1.795828 -0.0421,-0.535965 -0.0241,-1.077792 -0.0168,-1.613934 0.41697,-1.936241 -5.79136,-0.279443 -4.60885,0.988491 0.0855,0.267949 0.0912,0.536 0.01,0.807761 -0.14804,0.69435 -0.28327,1.391463 -0.38255,2.094749 -0.12203,0.737165 -0.35834,1.437932 -0.5279,2.164139 -0.0577,0.363074 -0.0358,0.721487 -0.0516,1.083534 -0.15421,0.460776 -0.29879,0.929616 -0.56767,1.340053 -0.30066,0.451505 -0.70234,0.814665 -1.16566,1.097117 -0.25207,0.105769 -0.23828,0.107885 -0.50275,0.186689 -0.0807,0.02404 -0.32615,0.08328 -0.24387,0.06552 7.87865,-1.699519 5.55363,-1.17039 3.8767,-0.863077 -0.68148,0.01956 -1.39394,0.09722 -2.03615,-0.177659 -0.48638,-0.206972 -0.98305,-0.424256 -1.30629,-0.862746 -0.29061,-0.26776 -0.52304,-0.590078 -0.61175,-0.981957 -0.0892,-0.300292 -0.25259,-0.570671 -0.3115,-0.879589 -0.0209,-0.272133 0.11943,-0.521467 0.18591,-0.781061 0.0807,-0.240977 0.14967,-0.485672 0.23655,-0.724483 0.12872,-0.387793 0.28519,-0.770138 0.52609,-1.10325 0.28949,-0.340466 0.6086,-0.677024 0.97105,-0.93748 1.66717,-0.874389 4.77168,-1.349434 -3.25675,0.495178 0.60761,-0.168404 1.24647,-0.255116 1.87548,-0.22602 z" /><path
     style="opacity:0.6;fill:#ffffff;stroke-width:0.529167;stroke-linecap:round"
     id="path3"
     d="m 142.11563,17.179052 c -0.70923,-0.196381 -1.40999,-0.422103 -2.11174,-0.643378 -0.67272,-0.253674 -1.36382,-0.398327 -2.07838,-0.453002 -2.83661,3.37e-4 -4.83392,0.250717 -6.20409,2.284336 -0.38141,0.61664 -0.60895,1.307224 -0.85452,1.984539 -0.18793,0.567911 -0.3652,1.139343 -0.54446,1.710044 -0.20105,0.51823 -0.25389,1.058505 -0.18543,1.606715 0.0212,0.716245 0.34794,1.319855 0.74294,1.895619 0.58927,0.752711 1.4398,1.174515 2.29324,1.555022 0.85915,0.419429 1.79287,0.427933 2.72468,0.356054 2.62493,-0.394682 5.51047,-0.619733 7.62807,-2.342701 0.81648,-0.744752 1.11225,-1.795848 1.43069,-2.816082 0.69266,-2.424874 1.43795,-4.834063 2.17387,-7.246007 0.70631,-2.211473 1.43756,-4.410542 2.01337,-6.6602291 0.74797,-3.097415 1.28132,-1.9301891 -4.50118,-0.8604419 -0.20925,0.9508712 -0.51911,1.8775251 -0.80612,2.807204 -0.28804,0.940754 -0.6176,1.868271 -0.91245,2.806706 -0.30598,1.004804 -0.60463,2.011548 -0.91605,3.014786 -0.45597,1.344975 -0.59403,2.764584 -0.83243,4.157262 -0.20236,1.317593 -0.27816,2.645149 -0.3184,3.975655 -0.0619,0.692607 -0.0707,1.374725 -0.0416,2.067539 0.0173,0.391869 0.0817,0.797322 0.19304,1.174533 0.0974,0.345212 0.30361,0.583531 0.6067,0.764224 0.25229,0.138171 0.53317,0.168807 0.75011,0.359007 1.55948,1.60042 -4.17789,1.648399 5.11737,-0.931699 0,0 -4.94634,0.706545 -4.94634,0.706545 v 0 c 1.58628,-0.398724 3.15271,-0.886992 4.75884,-1.19617 0.031,-0.0059 0.14741,0.524068 -0.1371,0.05847 -0.24248,-0.253661 -0.43635,-0.458327 -0.79953,-0.512243 -0.23119,-0.08113 -0.42243,-0.11066 -0.5067,-0.367877 -0.11421,-0.332974 -0.1571,-0.700843 -0.18906,-1.050445 -0.0478,-0.670791 -0.064,-1.337836 -0.0513,-2.011429 0.007,-1.305079 0.086,-2.606635 0.28301,-3.898225 0.21458,-1.379786 0.41693,-2.771448 0.8783,-4.095451 0.32226,-1.010839 0.65717,-2.017206 0.98408,-3.026446 0.29167,-0.928747 0.54772,-1.86866 0.84605,-2.7955006 0.29757,-0.9307122 0.56265,-1.8836221 0.97801,-2.7693053 -5.53637,0.8617652 -4.60332,-0.6602016 -5.15621,2.455372 -0.44302,2.2370189 -1.07614,4.4204119 -1.79427,6.5848469 -0.77724,2.431036 -1.52405,4.87371 -2.40822,7.26875 -0.36624,0.940433 -0.7091,1.908883 -1.54103,2.543217 -0.4368,0.29969 -0.8707,0.551813 -1.36986,0.738486 -0.17307,0.06473 -0.70903,0.205864 -0.52795,0.169053 1.2247,-0.248956 5.94557,-1.281762 3.66186,-0.804791 -0.87239,0.112289 -1.79225,0.209204 -2.62636,-0.132265 -0.79384,-0.313518 -1.60716,-0.646584 -2.19149,-1.29434 -0.3556,-0.513448 -0.66524,-1.011852 -0.64852,-1.66227 -0.0323,-0.491408 0.0219,-0.951469 0.21329,-1.411165 0.173,-0.565139 0.34278,-1.131279 0.53444,-1.690542 0.21604,-0.642892 0.46337,-1.284363 0.86843,-1.834944 0.20514,-0.246545 0.41636,-0.49688 0.68508,-0.678785 0.0729,-0.04936 0.31992,-0.140767 0.2336,-0.123335 -4.13589,0.835284 -5.9541,1.53087 -4.20761,0.877346 0.6976,-0.06154 1.39397,0.06208 2.04965,0.302658 0.68442,0.214878 1.37087,0.424837 2.0469,0.665119 z" /><path
     style="opacity:0.6;fill:#ffffff;stroke-width:0.529167;stroke-linecap:round"
     id="path4"
     d="m 149.28012,24.000988 c 0.62275,0.219081 1.25046,0.35306 1.90709,0.411818 1.48745,0.06513 2.97348,0.156707 4.46086,0.223612 3.37268,0.169773 4.78046,-0.398159 8.52836,-1.245053 0.0475,-0.0309 0.43276,-0.264023 0.47395,-0.350662 0.19867,-0.417812 -0.0626,-0.861964 -0.30252,-1.175319 -0.69869,-0.679692 -1.61159,-1.104984 -2.47486,-1.538842 -1.06723,-0.524469 -2.17625,-0.957224 -3.33318,-1.232726 -0.90714,-0.184297 -1.83351,-0.196318 -2.755,-0.175812 -2.44658,0.359369 -5.15694,0.661995 -7.34533,1.962787 -0.74211,0.519516 -1.11146,1.356133 -1.46781,2.158045 -0.26855,0.563313 -0.3311,1.172942 -0.28298,1.789179 0.0476,0.540446 0.0808,1.079458 0.16658,1.615694 0.173,0.920178 0.62896,1.728297 1.13303,2.503289 0.51795,0.882655 1.28842,1.456232 2.16568,1.941735 0.80754,0.399239 1.6687,0.66847 2.52499,0.939781 0.90288,0.293209 1.80257,0.578997 2.74769,0.691838 0.46616,0.03512 0.93835,-0.0079 1.39474,-0.108648 5.09339,-1.124603 3.54223,-0.303674 5.31664,-1.279489 0.48799,-0.127332 0.84242,-0.545185 1.31177,-0.696685 0.22102,-0.16091 0.43601,-0.247996 0.50659,-0.518097 0,0 -4.9441,0.703444 -4.9441,0.703444 v 0 c -0.16133,-0.04877 -0.33291,0.225825 -0.50329,0.240894 -0.40095,0.274227 -0.83752,0.486256 -1.29099,0.659992 -1.7374,0.477733 -0.113,0.02632 4.17746,-0.909951 0.11259,-0.02457 -0.22196,0.06286 -0.33482,0.08627 -0.22234,0.04613 -0.44427,0.09613 -0.66908,0.128167 -0.12119,0.01727 -0.2443,0.01617 -0.36643,0.02426 -0.9436,0.0077 -1.82994,-0.269595 -2.71564,-0.574559 -0.84083,-0.262257 -1.68656,-0.517875 -2.49843,-0.861901 -0.8498,-0.399913 -1.61619,-0.871735 -2.1126,-1.700697 -0.48748,-0.697495 -0.89001,-1.450255 -1.02625,-2.300794 -0.0633,-0.527077 -0.0837,-1.057526 -0.14587,-1.584665 -0.0318,-0.538434 0.0694,-1.059107 0.29738,-1.549139 0.3253,-0.745352 0.73049,-1.442092 1.4767,-1.833661 0.42494,-0.20699 0.85065,-0.393293 1.30354,-0.532631 0.1476,-0.04541 0.59824,-0.153075 0.44716,-0.121166 -5.86877,1.239313 -5.5592,1.176211 -3.84154,0.84619 0.91221,-0.08148 1.83379,-0.03897 2.74537,0.03746 1.14803,0.236877 2.25072,0.595396 3.30511,1.117858 0.80382,0.396491 1.61776,0.821285 2.32661,1.369783 0.39388,0.423794 0.16662,0.386188 -0.30857,0.555028 1.45407,-0.317245 2.90717,-0.638947 4.3622,-0.951735 0.16204,-0.03484 -0.31946,0.09128 -0.48306,0.117842 -1.00828,0.163692 -2.04033,0.09625 -3.05575,0.129559 -1.44011,-0.06374 -2.87676,-0.173792 -4.31466,-0.270348 -0.61924,-0.01383 -1.21944,-0.07305 -1.79387,-0.321958 z" /><path
     style="opacity:0.6;fill:#ffffff;stroke-width:0.529167;stroke-linecap:round"
     id="path5"
     d="m 156.6221,44.709688 c -0.39878,0.631119 -0.72631,1.300274 -1.07862,1.956509 -0.31447,0.823137 -0.72953,1.600407 -1.07016,2.410228 -0.37362,0.707753 -0.70173,1.42963 -0.86247,2.216436 -0.0547,0.401638 -0.17651,0.837594 -0.0201,1.221466 0.3445,0.528592 0.96193,0.591771 1.53898,0.653842 0.72806,0.0492 1.45847,0.09166 2.17824,-0.04322 2.35872,-0.58638 4.09663,-2.434503 6.18491,-3.547919 -8.65437,4.746492 -1.27826,1.128325 1.26738,-0.863386 0.33525,-0.420111 0.53435,-0.839305 0.62905,-1.367009 0.13372,-0.444086 0.0207,-0.843351 -0.15312,-1.255689 -1.37579,-1.548526 -3.10794,1.249258 -4.71742,2.351867 -0.0825,0.05654 -0.008,0.200741 -0.0272,0.298884 -0.0435,0.220376 -0.12574,0.431371 -0.18271,0.648661 -0.2046,0.682907 -0.473,1.351163 -0.61097,2.052245 -0.0722,0.351759 -0.0788,0.712221 -0.0834,1.069863 -5.3e-4,0.278582 0.003,0.55738 0.01,0.835962 -0.0376,0.472776 0.17713,0.870033 0.45295,1.237649 0.43012,0.490604 0.90645,0.932928 1.39503,1.364249 0.48338,0.424026 1.05238,0.665482 1.67659,0.784105 0.72186,0.09632 1.47434,-0.01103 2.11616,-0.375071 1.53574,-0.871073 3.0524,-1.77537 4.5786,-2.663055 0.64865,-0.406484 1.16567,-0.958396 1.66019,-1.534089 0.27513,-0.522669 0.45042,-1.109894 0.61456,-1.679983 0.2346,-0.488647 0.37454,-1.010568 0.50188,-1.53489 0.0453,-0.335035 0.0615,-0.674107 0.0561,-1.012069 0.006,-0.219093 -7.9e-4,-0.438041 0.003,-0.657102 0.0277,-0.288683 -0.13011,-0.511875 -0.32146,-0.712012 -0.17165,-0.115912 -0.3003,-0.186155 -0.46824,-0.323637 0,0 -4.18687,2.715076 -4.18687,2.715076 v 0 c 0.15993,0.01197 0.29699,0.374389 0.41364,0.260311 0.1535,0.07867 0.12531,0.159575 0.11357,0.330892 0.006,0.214065 0.004,0.428159 0.009,0.642262 -0.0112,0.304432 -0.0121,0.611344 -0.0924,0.908004 -0.11491,0.512986 -0.31018,0.99801 -0.49275,1.489769 -0.17773,0.519857 -0.30399,1.077966 -0.69169,1.488666 -0.48646,0.538174 -1.04166,1.007115 -1.66036,1.388618 1.25715,-0.713832 2.51666,-1.423531 3.77146,-2.141495 0.14168,-0.08106 -0.2848,0.160023 -0.43194,0.230702 -0.45942,0.220696 -0.94171,0.403126 -1.45891,0.33612 -0.55521,-0.05172 -1.08192,-0.176795 -1.52569,-0.538324 -0.46142,-0.414755 -0.9377,-0.811606 -1.32974,-1.295695 -0.23324,-0.292279 -0.29971,-0.599139 -0.27285,-0.968209 0.004,-0.277448 0.002,-0.554963 0.002,-0.832392 0.004,-0.324084 0.0282,-0.647913 0.0971,-0.965353 0.1626,-0.679272 0.36304,-1.347007 0.5942,-2.006346 0.019,-0.05941 0.18599,-0.589498 0.2176,-0.658275 0.0291,-0.06323 0.17727,-0.207164 0.11654,-0.173197 -2.24123,1.253543 -4.10655,4.076356 -4.18686,2.087076 0.15446,0.313064 0.1413,0.602991 0.0381,0.937195 -0.14871,0.421216 -0.40324,0.813214 -0.77898,1.066921 -0.17878,0.127167 -0.36454,0.242253 -0.54494,0.367015 -0.0705,0.04877 -0.28491,0.190393 -0.21033,0.148089 0.16413,-0.0931 11.30319,-6.493846 -0.49144,0.280931 -0.30065,0.192444 -0.59724,0.39024 -0.89588,0.585645 -0.10512,0.06878 -0.42744,0.263934 -0.31799,0.202276 1.17144,-0.659908 5.3674,-3.049888 3.5045,-1.997058 -0.6674,0.263284 -1.35129,0.211078 -2.05882,0.175709 -0.38418,-0.02337 -0.83121,-0.01485 -1.18112,-0.190676 -5.3e-4,-0.324052 0.0257,-0.646527 0.0993,-0.963095 0.19322,-0.73707 0.51306,-1.421856 0.84908,-2.104199 0.382,-0.793971 0.72214,-1.605024 1.11034,-2.395812 0.34951,-0.679415 0.73654,-1.335255 1.12937,-1.990343 z" /><path
     style="opacity:0.6;fill:#ffffff;stroke-width:0.529167;stroke-linecap:round"
     id="path6"
     d="m 174.12955,51.41217 c -0.46616,0.395957 -0.95317,0.773366 -1.43453,1.157993 -0.42415,0.363748 -0.82587,0.751528 -1.28375,1.068591 -0.44591,0.310801 -0.81553,0.693358 -1.13419,1.130261 -0.18025,0.408014 -0.41043,0.77177 -0.53962,1.200242 -0.0717,0.27554 -0.23294,0.456786 -0.33058,0.731342 -0.01,0.06219 -0.005,0.128542 -0.0291,0.186573 -0.0189,0.0449 -0.0705,0.06875 -0.0957,0.110432 -0.13473,0.222888 -0.19094,0.482293 -0.2554,0.730668 -0.21498,0.365461 -0.29763,0.787395 -0.39138,1.196284 -0.0243,0.309507 -0.22164,0.506156 -0.29309,0.819346 -0.0897,0.259464 -0.10254,0.523698 -0.11811,0.794052 -0.0326,-0.0089 -0.0671,-0.04104 -0.0977,-0.02675 -0.065,0.03034 -0.10275,0.279816 -0.17469,0.290105 -0.0381,0.0055 -0.12696,-0.0504 -0.093,-0.06846 1.47385,-0.783239 2.97962,-1.504868 4.46944,-2.257301 0,0 -4.36587,2.385063 -4.36587,2.385063 v 0 c 1.51971,-0.651339 3.03942,-1.302677 4.55914,-1.954015 -0.002,-0.04233 -0.0146,-0.08554 -0.006,-0.126994 0.0226,-0.106506 0.15494,-0.189572 0.17686,-0.294778 0.0125,-0.06005 -0.003,-0.12265 -0.004,-0.183975 0.0177,-0.229008 0.0804,-0.450948 0.15381,-0.668182 0.13468,-0.280969 0.24197,-0.552317 0.27295,-0.865219 0.0921,-0.404839 0.26019,-0.778511 0.40238,-1.166679 0.11436,-0.337936 0.30585,-0.642666 0.41134,-0.983281 0.12173,-0.248112 0.2637,-0.474451 0.3111,-0.754651 0.14972,-0.367136 0.36007,-0.723163 0.59474,-1.040344 0.34353,-0.386783 0.7461,-0.709841 1.16195,-1.01606 0.42109,-0.364349 0.85474,-0.714931 1.27941,-1.075462 0.49041,-0.395576 0.98242,-0.789373 1.44307,-1.21976 z" /><path
     style="opacity:0.6;fill:#ffffff;stroke-width:0.529167;stroke-linecap:round"
     id="path7"
     d="m 174.33852,46.250221 c 0.0328,0.467848 0.003,0.936174 0.002,1.404206 -0.009,0.255985 -0.004,0.511916 -0.0137,0.767881 0.002,0.190543 0.002,0.380965 0.002,0.571485 -0.002,0.112908 -8e-4,0.05911 -0.004,0.161411 0,0 4.45652,-2.270712 4.45652,-2.270712 v 0 c -0.003,-0.09949 -0.002,-0.04698 -0.004,-0.157525 2.4e-4,-0.191146 -2.6e-4,-0.382182 0.002,-0.573352 -0.01,-0.251297 -0.005,-0.50257 -0.0137,-0.753888 -10e-4,-0.468677 -0.0308,-0.937625 0.002,-1.406143 z" /><path
     style="opacity:0.6;fill:#ffffff;stroke-width:0.529167;stroke-linecap:round"
     id="path9"
     d="m 188.98212,49.066065 c -0.13968,0.564108 -0.41702,1.086576 -0.63218,1.625761 -0.32379,0.630556 -0.71732,1.224438 -1.03992,1.855433 -0.35521,0.663712 -0.73541,1.311912 -1.13486,1.950765 -0.41892,0.727215 -0.80483,1.47125 -1.20168,2.210038 -0.34402,0.760649 -0.58655,1.556834 -0.90828,2.327139 -0.37741,0.958289 -0.72337,1.929119 -1.16162,2.861799 -0.25455,0.763524 -0.67182,1.457696 -1.01482,2.181625 -0.10433,0.509778 -0.45977,0.893852 -0.60997,1.382683 -0.0142,0.354939 -0.41247,0.279906 -0.45344,0.594881 -0.30426,0.08358 -0.19871,0.125667 -0.31046,0.291891 -0.0452,0.06731 -0.14161,0.07941 -0.20917,0.124267 -1.30249,0.831461 5.38701,-3.028055 4.01423,-2.318636 -3.70713,1.915763 -3.37085,1.251908 -4.52789,2.718324 -1.08722,1.45637 0.0495,0.135832 4.34367,-2.173491 0.0108,-0.0058 -0.004,-0.31676 -0.004,-0.334632 0.0729,-0.526315 0.28027,-1.067295 0.48653,-1.5625 0.28935,-0.764995 0.66071,-1.494824 0.9969,-2.240108 0.17442,-0.387191 0.39226,-0.777462 0.69857,-1.077145 -0.13736,0.07581 0.47496,-0.405262 0.3397,-0.325763 -1.39598,0.820502 -5.65763,3.137231 -4.17999,2.474984 1.53596,-0.688388 2.90404,-1.702594 4.35606,-2.553891 0.0232,-0.03274 0.0358,-0.07662 0.0696,-0.09821 0.0352,-0.02246 0.085,-0.0068 0.12276,-0.02463 0.2506,-0.118657 0.44472,-0.340915 0.6916,-0.471889 -7.44603,4.323694 -4.28599,2.158016 -2.35831,1.70792 0.55869,-0.116213 1.12908,-0.140761 1.69764,-0.154456 0.51901,-0.0047 1.03811,-0.0033 1.55717,-0.0049 0.58346,-5.29e-4 1.12241,0.240321 1.56197,0.613035 0.34047,0.330896 0.31174,0.724773 0.20803,1.151072 -0.26173,0.537578 -0.68721,0.970471 -1.09661,1.397582 -0.45176,0.466699 -0.92011,0.916808 -1.38108,1.374288 -0.38025,0.37374 -0.75989,0.748168 -1.13551,1.12657 -0.33461,0.288689 -0.6316,0.552849 -0.93256,0.881803 -0.34526,0.458801 -0.71191,0.924147 -1.00427,1.421799 -0.28868,0.656246 -0.62453,1.288579 -0.85589,1.968678 -0.35718,0.834559 -0.45116,1.731679 -0.60962,2.614162 -0.18565,1.072015 -0.3358,2.165938 -0.28682,3.255225 0.0327,0.166539 0.0317,0.343402 0.0981,0.499615 0.48265,1.136454 1.87899,1.546019 2.93668,1.891096 0,0 3.96364,-2.706658 3.96364,-2.706658 v 0 c -0.84858,-0.23267 -2.23187,-0.52283 -2.59556,-1.476817 -0.0521,-0.136583 -0.0483,-0.288332 -0.0724,-0.432496 -0.0243,-1.063173 0.12671,-2.119201 0.33306,-3.160657 0.16333,-0.869146 0.31677,-1.741493 0.68335,-2.554634 0.26268,-0.644369 0.56426,-1.277541 0.91744,-1.877221 0.3361,-0.464204 0.6508,-0.950008 1.06671,-1.34837 0.30064,-0.299294 0.64909,-0.538088 0.92375,-0.865997 0.3765,-0.372012 0.74997,-0.747083 1.12522,-1.120341 0.46305,-0.457557 0.92388,-0.917948 1.36693,-1.394973 0.42933,-0.492858 0.86643,-1.004046 0.99498,-1.664904 0.0565,-0.582372 -0.01,-1.150578 -0.44747,-1.580338 -0.48611,-0.464344 -1.11164,-0.775901 -1.77036,-0.909855 -0.51718,-0.0046 -1.03433,-0.01067 -1.55152,-0.0096 -0.59363,0.0025 -1.18761,0.01934 -1.7764,0.101934 -2.33503,0.381066 -4.07856,1.791944 -6.16897,3.047857 -0.30212,0.222758 -0.6348,0.410867 -0.9061,0.661715 1.39418,-0.80519 5.41217,-3.454831 4.18253,-2.415574 -2.01434,1.702472 -3.50177,1.368515 -4.64105,2.915793 -0.23814,0.367869 -0.43577,0.760931 -0.59103,1.170972 -0.32286,0.751324 -0.69454,1.482042 -0.97475,2.251559 -0.21276,0.571338 -0.48081,1.157295 -0.4719,1.777521 0.14756,2.190911 3.19948,-0.434819 4.70264,-1.674294 1.23081,-0.919514 -5.32472,3.067576 -4.007,2.277626 1.64012,-0.983229 3.27013,-1.413579 4.52519,-2.645034 0.0638,-0.0715 0.0987,-0.167672 0.16986,-0.231876 0.10875,-0.09818 0.27459,-0.124865 0.30288,-0.321963 0.25567,-0.0338 0.29038,-0.478359 0.38538,-0.664372 0.22157,-0.435118 0.41282,-0.87735 0.59086,-1.331865 0.35785,-0.709139 0.66279,-1.443116 0.96424,-2.177722 0.40099,-0.950012 0.75481,-1.918721 1.15224,-2.870228 0.31956,-0.766181 0.57701,-1.559593 0.95368,-2.300998 0.37844,-0.740673 0.78939,-1.462263 1.21223,-2.178492 0.39404,-0.654738 0.78509,-1.310107 1.14481,-1.984583 0.35668,-0.623871 0.71626,-1.249375 1.0209,-1.900152 0.24554,-0.558622 0.48696,-1.122723 0.64338,-1.713951 z" /><path
     style="opacity:0.6;fill:#ffffff;stroke-width:0.529167;stroke-linecap:round"
     id="path10"
     d="m 182.81796,45.311697 c -0.21623,0.572006 -0.44703,1.12806 -0.6955,1.688156 -0.19222,0.360797 -0.43036,0.682854 -0.71204,0.975977 -0.24909,0.476715 -0.47024,0.968951 -0.7284,1.442872 -0.501,0.645279 -0.83942,1.38704 -1.27518,2.073305 -0.49321,0.757536 -0.94958,1.556698 -1.32802,2.380685 -0.36495,0.78609 -0.77992,1.54365 -1.22885,2.28492 -0.41602,0.691449 -0.71049,1.457984 -1.16429,2.124699 -0.33256,0.513459 -0.46853,1.132507 -0.83336,1.623336 -0.33109,0.521086 -0.46302,1.138883 -0.7554,1.674976 -0.19065,0.482756 -0.4894,0.898141 -0.69455,1.372817 -0.31721,0.204692 -0.39741,0.481693 -0.47043,0.832575 -0.0507,0.261898 -0.29843,0.408265 -0.34304,0.675918 -0.3254,1.562822 -4.00405,2.503662 4.39134,-2.061938 0.0457,-0.02484 -0.007,-0.103833 -0.009,-0.155794 -0.004,-0.07963 -0.007,-0.159316 -0.0105,-0.238975 -5.3e-4,-0.0835 -10e-4,-0.166994 -10e-4,-0.250491 0,0 -4.40509,2.248252 -4.40509,2.248252 v 0 c 8e-4,0.0848 0.001,0.169598 0.002,0.254397 -0.004,0.325453 -0.007,0.466804 7e-5,0.463827 1.52842,-0.642403 3.00518,-1.401381 4.50777,-2.102072 -0.0194,-0.09824 0.003,-0.158104 0.0537,-0.246171 0.1827,-0.195157 0.24522,-0.467953 0.31464,-0.718576 0.11882,-0.284856 0.39743,-0.455364 0.48235,-0.761328 0.21967,-0.452705 0.48738,-0.882277 0.66593,-1.355622 0.2233,-0.562012 0.46279,-1.119177 0.78665,-1.632254 0.26341,-0.540076 0.48941,-1.099445 0.80778,-1.610665 0.37997,-0.708607 0.74403,-1.42586 1.14517,-2.123019 0.43206,-0.758039 0.84131,-1.525905 1.20724,-2.318429 0.40929,-0.803137 0.85309,-1.591056 1.35485,-2.340411 0.41727,-0.710352 0.83523,-1.416976 1.28283,-2.108459 0.24446,-0.469909 0.47463,-0.967533 0.82448,-1.368709 0.2534,-0.336733 0.44768,-0.713415 0.61993,-1.097145 0.23308,-0.562323 0.43806,-1.138696 0.7317,-1.673007 z" /><path
     style="opacity:0.6;fill:#ffffff;stroke-width:0.529167;stroke-linecap:round"
     id="path11"
     d="m 175.72762,53.102826 c 0.48303,0.194545 0.91982,0.471201 1.34408,0.768738 0.2124,0.242975 0.53739,0.357286 0.76393,0.575861 0.19771,0.155659 0.35639,0.249039 0.41773,0.49711 0.10351,0.212161 0.28796,0.355748 0.3659,0.578638 0.0427,0.261964 0.2742,0.512823 0.49281,0.650409 0.24549,0.188243 0.46116,0.409951 0.7102,0.593339 0.2007,0.08501 0.28599,0.23736 0.444,0.381135 0.11392,0.06496 0.14901,0.151101 0.17502,0.275865 -0.004,0.07614 -0.012,0.191371 -0.0274,0.242184 0,0 4.48538,-2.259738 4.48538,-2.259738 v 0 c -0.0279,-0.12306 -0.0169,-0.27242 -0.0709,-0.396671 -0.0759,-0.183946 -0.16655,-0.426876 -0.34077,-0.527492 -0.1942,-0.104968 -0.23349,-0.362873 -0.4772,-0.406355 -0.26202,-0.140591 -0.44381,-0.364625 -0.67423,-0.542933 -0.15456,-0.152154 -0.3292,-0.185952 -0.35831,-0.450829 -0.0929,-0.200966 -0.20125,-0.374978 -0.35533,-0.530918 -0.10287,-0.293227 -0.23326,-0.568899 -0.53184,-0.698952 -0.24754,-0.27076 -0.56437,-0.379638 -0.83739,-0.626481 -0.42469,-0.335597 -0.90021,-0.600787 -1.37848,-0.851623 z" /><rect
     style="opacity:0.6;fill:none;stroke-width:0.529165;stroke-linecap:round;stroke:none"
     id="rect1"
     width="238.99257"
     height="140.74431"
     x="-1.2079875e-06"
     y="3.8146973e-06" /></svg>
