<?xml version="1.0" encoding="UTF-8" standalone="no"?>
<!-- Created with Inkscape (http://www.inkscape.org/) -->

<svg
   width="84.533997mm"
   height="84.533997mm"
   viewBox="0 0 84.533997 84.533997"
   version="1.1"
   id="svg1"
   xml:space="preserve"
   sodipodi:docname="PX.3 Icon.svg"
   inkscape:version="1.4.2 (ebf0e940, 2025-05-08)"
   xmlns:inkscape="http://www.inkscape.org/namespaces/inkscape"
   xmlns:sodipodi="http://sodipodi.sourceforge.net/DTD/sodipodi-0.dtd"
   xmlns="http://www.w3.org/2000/svg"
   xmlns:svg="http://www.w3.org/2000/svg"><sodipodi:namedview
     id="namedview1"
     pagecolor="#ffffff"
     bordercolor="#666666"
     borderopacity="1.0"
     inkscape:showpageshadow="2"
     inkscape:pageopacity="0.0"
     inkscape:pagecheckerboard="0"
     inkscape:deskcolor="#d1d1d1"
     inkscape:document-units="mm"
     inkscape:zoom="0.68638815"
     inkscape:cx="160.25918"
     inkscape:cy="159.53073"
     inkscape:current-layer="svg1" /><defs
     id="defs1" /><rect
     style="opacity:0.8;fill:#000000;stroke:none;stroke-width:0.529167;stroke-linecap:round;-inkscape-stroke:none"
     id="rect2"
     width="84.533997"
     height="84.533997"
     x="0"
     y="0" /><path
     style="opacity:0.6;fill:#ffffff;stroke-width:1"
     d="m 18.320248,61.815986 c -1.886547,-0.254417 -3.565143,-0.475191 -3.730194,-0.490613 -0.233614,-0.02185 -0.312268,-0.307469 -0.355054,-1.2894 -0.159122,-3.652059 -0.300223,-5.679802 -0.6021,-8.652643 -0.183101,-1.803233 -0.387153,-3.910462 -0.453432,-4.682742 -0.231069,-2.691997 -0.659284,-6.091211 -0.784581,-6.228046 -0.06941,-0.07581 -0.673428,-0.08421 -1.342249,-0.01863 -0.917172,0.08989 -2.0812362,-0.01064 -4.7364922,-0.409014 -4.363068,-0.654615 -4.354287,-0.652333 -4.333394,-1.126926 0.03599,-0.817509 0.356436,-1.06034 1.20309,-0.911697 0.434121,0.07621 0.828511,0.201291 0.876427,0.277939 0.09243,0.147852 1.560565,0.03381 4.014446,-0.311899 0.820645,-0.1156 1.9721882,-0.2391 2.5589852,-0.274441 0.586806,-0.03536 1.16827,-0.120892 1.292149,-0.190115 0.168563,-0.09419 0.13513,-0.781655 -0.132884,-2.732155 -0.196963,-1.433463 -0.425266,-3.280693 -0.50733,-4.104957 -0.08207,-0.824263 -0.286841,-2.134186 -0.455043,-2.910951 -0.264698,-1.222423 -0.713138,-3.466735 -0.9681292,-4.845279 -0.05249,-0.283843 -0.214969,-0.428611 -0.493617,-0.439856 -0.753854,-0.03038 -7.132555,-1.6843 -7.037072,-1.824593 0.128939,-0.189461 2.48451,-0.573075 4.396535,-0.716002 2.490633,-0.186169 13.6595162,0.364875 16.7811452,0.827945 4.94014,0.732819 7.65543,1.215516 8.62472,1.533212 1.16511,0.381873 4.01679,2.396888 4.544,3.21081 0.55481,0.856551 0.83992,1.948306 0.91149,3.490403 0.0551,1.188081 0.006,1.464877 -0.38534,2.154512 -0.24673,0.435214 -0.57706,1.109974 -0.73407,1.499476 -0.41096,1.019506 -2.01694,3.00084 -2.93122,3.616333 -1.18622,0.798557 -4.41926,2.103736 -5.90119,2.38231 -2.00223,0.37638 -6.469297,0.943006 -7.185702,0.911468 l -0.635741,-0.02799 0.08567,0.889698 c 0.04713,0.489339 0.203181,1.734175 0.34681,2.766309 0.143629,1.032129 0.290338,2.465401 0.326033,3.185037 0.03569,0.719641 0.280212,3.122408 0.543365,5.339489 0.263141,2.217078 0.522543,4.914257 0.57644,5.993725 0.0539,1.079474 0.123215,2.431539 0.154031,3.004595 0.09217,1.713835 0.36142,1.629586 -3.530495,1.104721 z m 1.961897,-23.382225 c 0.0045,-0.102382 -0.164278,-0.19374 -0.375098,-0.203021 -0.210798,-0.0093 -0.335189,0.06918 -0.276428,0.17434 0.05873,0.105165 0.22756,0.196532 0.375087,0.203027 0.14754,0.0065 0.271931,-0.07196 0.276439,-0.174346 z m 0.999033,-1.917104 c 1.231352,-0.254444 4.187326,-1.485429 5.196866,-2.164183 0.77656,-0.522104 2.13651,-2.308022 2.8384,-3.727482 0.48136,-0.973471 0.5962,-1.438514 0.63962,-2.590168 0.0687,-1.820989 -0.35928,-2.715145 -1.85974,-3.885878 -2.2822,-1.780675 -2.18179,-1.75166 -7.131277,-2.060624 -4.143439,-0.258639 -8.437991,-0.230844 -9.757941,0.06318 -0.408853,0.09107 0.354819,0.239822 2.762262,0.538028 l 3.327323,0.412156 0.18425,1.493901 c 0.101328,0.821643 0.358576,2.266359 0.571672,3.210483 0.213097,0.944124 0.573635,3.22894 0.801215,5.077372 0.495846,4.027359 0.503091,4.058992 0.907234,3.959659 0.173103,-0.04257 0.857161,-0.189455 1.520116,-0.326442 z m 60.800576,25.872426 c -0.76392,-0.123486 -1.97687,-0.214963 -2.69542,-0.203281 -0.95903,0.01559 -1.13142,-0.01237 -0.64821,-0.10506 0.57251,-0.109829 0.51855,-0.128265 -0.41362,-0.141394 -0.58966,-0.0083 -1.06942,-0.07274 -1.06617,-0.143138 0.004,-0.07042 -0.14103,-0.127104 -0.32055,-0.125977 -0.73178,0.0046 -7.81829,-3.191994 -10.71295,-4.832431 -0.38323,-0.217182 -2.9407,-2.177937 -5.68328,-4.357239 -4.30253,-3.418876 -5.51256,-4.422911 -7.26225,-6.025891 -0.27443,-0.251432 -0.37689,-0.143683 -1.09529,1.151767 -0.4359,0.786031 -1.27849,2.456876 -1.87245,3.712991 -0.99137,2.096611 -2.5489,5.231148 -3.49165,7.026965 -0.21055,0.401054 -0.43757,0.936606 -0.50449,1.190111 -0.24737,0.937008 -0.19849,0.935297 -4.12432,0.14434 -2.03179,-0.409353 -3.716,-0.759141 -3.74268,-0.777298 -0.0267,-0.01817 0.0888,-0.270279 0.25665,-0.560246 0.16784,-0.28997 0.31132,-0.655148 0.31882,-0.811516 0.008,-0.156359 0.13386,-0.444553 0.28074,-0.640428 0.28223,-0.376355 2.47597,-4.52328 4.0952,-7.741312 0.53022,-1.053753 1.74673,-3.411166 2.70337,-5.238687 l 1.73931,-3.322769 -0.68905,-1.014006 c -0.97031,-1.427911 -1.99449,-3.273204 -2.73816,-4.933435 -0.35012,-0.781615 -0.79991,-1.675219 -0.99952,-1.985784 -0.19962,-0.310566 -1.03208,-2.089819 -1.84991,-3.953894 -1.61937,-3.690922 -2.34442,-5.048246 -3.34033,-6.253154 l -0.64904,-0.785237 3.74034,0.164659 3.74033,0.164659 0.685,0.949636 c 0.82049,1.137458 2.49111,4.429874 3.53772,6.972063 0.71124,1.727568 1.94513,4.066509 2.16253,4.099215 0.0536,0.008 0.79978,-1.276316 1.65818,-2.854177 1.72222,-3.165711 3.94792,-6.784179 4.62572,-7.520311 l 0.43697,-0.474597 3.23463,0.665831 c 1.77905,0.366208 3.41339,0.702982 3.63186,0.748382 0.36711,0.07629 0.3078,0.20567 -0.78183,1.705615 -0.6485,0.892688 -2.86095,4.629285 -4.91658,8.303548 l -3.7375,6.68048 2.80863,3.01502 c 1.54475,1.658263 3.21056,3.353047 3.70181,3.766187 3.22342,2.710963 10.99644,8.695057 11.90551,9.165518 2.95678,1.53017 5.64111,2.795541 7.21242,3.39985 l 1.73741,0.668169 -1.02421,0.07901 c -0.56332,0.04344 -1.64883,-0.0317 -2.41223,-0.167032 -0.76339,-0.135313 -1.59753,-0.252155 -1.85372,-0.259662 -1.1153,-0.03268 0.3931,0.36589 3.31859,0.876853 6.0966,1.064795 1.10441,1.155697 1.09367,0.57707 z m -0.64115,-1.242117 c -0.12376,-0.05655 -0.37494,-0.07072 -0.55818,-0.03158 -0.18317,0.03923 -0.0818,0.08548 0.22507,0.102797 0.30702,0.01702 0.45688,-0.01478 0.33312,-0.07132 z m 0.91111,0.406901 c 0.18119,-0.03897 0.47444,-0.02605 0.6515,0.02868 0.17714,0.05467 0.0286,0.08655 -0.3295,0.07078 -0.35833,-0.01578 -0.50326,-0.06058 -0.322,-0.09947 z"
     id="path101"
     sodipodi:nodetypes="cssscscssssssssssscsssssscsssscssssscccsscsssssssssscsssssssssssssssssssscsssscssssscccsscsscsssscscssccssssscccccccscc"
     inkscape:export-filename="path101.png"
     inkscape:export-xdpi="210.869"
     inkscape:export-ydpi="210.869" /></svg>
