<?xml version="1.0" encoding="UTF-8" standalone="no"?>
<!-- Created with Inkscape (http://www.inkscape.org/) -->

<svg
   width="238.99245mm"
   height="140.74431mm"
   viewBox="0 0 238.99245 140.74431"
   version="1.1"
   id="svg1"
   xml:space="preserve"
   xmlns="http://www.w3.org/2000/svg"
   xmlns:svg="http://www.w3.org/2000/svg"><defs
     id="defs1" /><g
     id="layer1"
     transform="translate(-819.45814,180.79042)"><path
       style="opacity:0.6;fill:#ffffff"
       d="m 885.36118,-40.567148 c -1.11866,-0.590807 -2.116,-1.819864 -2.56586,-3.162028 -0.21583,-0.643941 -0.30236,-3.850072 -0.28564,-10.583332 0.0234,-9.401874 -0.18959,-13.144813 -1.06028,-18.635857 -0.14015,-0.883856 -0.43522,-3.241798 -0.65571,-5.23987 -0.57376,-5.199273 -1.73385,-10.590017 -2.6675,-12.395512 -0.45737,-0.884448 -1.93409,-2.624754 -2.22721,-2.624754 -0.1094,0 -0.27229,0.785728 -0.36196,1.746063 -0.12646,1.35414 -0.7585,3.239725 -2.81583,8.40052 -1.45902,3.659952 -2.98414,7.152731 -3.38914,7.761731 -1.17233,1.762831 -5.33802,6.394381 -6.88355,7.653358 -1.59832,1.301982 -4.04664,2.525484 -6.00725,3.002004 -0.7276,0.176842 -2.76655,0.482519 -4.531,0.679282 -2.76302,0.308118 -3.46045,0.304205 -5.02709,-0.0282 -1.00044,-0.212274 -3.81043,-0.740662 -6.24441,-1.174196 -7.99329,-1.423741 -10.30393,-2.698262 -15.01891,-8.284245 -1.74045,-2.061963 -3.5187,-4.409489 -3.95167,-5.216725 -1.17719,-2.194775 -2.18425,-6.291453 -2.20832,-8.983339 -0.0178,-1.98691 0.0915,-2.532523 0.93808,-4.682579 1.36424,-3.464883 1.66859,-3.978395 3.47381,-5.861033 1.77503,-1.85116 3.26474,-2.72948 5.3966,-3.18182 3.26945,-0.6937 6.13973,-0.21145 9.66447,1.623791 2.06465,1.075006 2.30435,1.301752 5.78995,5.477014 1.99988,2.39557 3.82977,4.836351 4.06642,5.423958 0.23666,0.587608 0.49079,1.961346 0.56474,3.052752 0.12333,1.820163 0.0514,2.207997 -0.86939,4.686663 -0.55212,1.486259 -1.19037,2.784078 -1.41835,2.884044 -0.22798,0.09996 -2.32336,0.236742 -4.65639,0.303948 l -4.24189,0.122194 -0.94823,-1.049582 c -0.84778,-0.938387 -0.9308,-1.158766 -0.78368,-2.080195 0.13414,-0.840088 0.33547,-1.115297 1.08908,-1.488694 1.6964,-0.840534 2.62068,-4.052784 1.75486,-6.098855 -0.27065,-0.639583 -3.13055,-4.260119 -5.34405,-6.765364 -0.16079,-0.181982 -1.1691,0.674615 -1.94839,1.655223 -0.43503,0.547408 -1.28363,2.255372 -1.88578,3.795475 -1.23968,3.170701 -1.25391,3.927349 -0.14583,7.753061 0.71958,2.484388 1.45313,3.736257 3.86784,6.600832 3.37696,4.006102 4.84596,5.360138 7.14315,6.584135 2.08304,1.109889 2.22049,1.145019 3.79081,0.968861 2.35295,-0.263952 4.95072,-1.038417 6.81358,-2.031309 1.19841,-0.638751 2.39329,-1.68517 4.5693,-4.001603 1.62059,-1.72517 3.32119,-3.695675 3.77911,-4.378899 0.45792,-0.683225 1.94416,-4.040195 3.30276,-7.459935 2.42287,-6.09862 2.47198,-6.26611 2.56401,-8.744838 0.10852,-2.922988 -0.33364,-5.851887 -1.68659,-11.172047 -1.00073,-3.93515 -1.60657,-5.48312 -2.14598,-5.48312 -0.18837,0 -1.32718,0.19904 -2.53068,0.4423 -1.90542,0.38514 -2.59738,0.40156 -5.35475,0.12704 -5.30794,-0.52845 -9.22418,-1.53453 -15.52612,-3.98864 -3.96969,-1.54588 -5.61922,-2.69685 -8.04904,-5.61625 -3.51019,-4.21747 -4.51794,-6.11614 -5.83731,-10.99792 -0.58781,-2.17493 -0.70197,-3.15897 -0.71473,-6.16028 -0.0211,-4.96242 0.47644,-7.24498 2.91237,-13.36145 4.05141,-10.17289 5.75134,-12.54958 12.6058,-17.6242 2.33406,-1.72799 3.24102,-2.08726 5.26917,-2.08726 2.22325,0 8.55753,1.75484 11.10592,3.07677 3.49958,1.81534 7.54238,6.41702 10.11588,11.51431 1.67918,3.32594 2.09985,5.08673 1.94712,8.15021 -0.0997,1.99967 -0.24106,2.5225 -1.21964,4.51079 -2.00742,4.07868 -4.01169,7.53203 -4.69568,8.09063 -1.00466,0.82048 -4.11206,1.22832 -8.98051,1.17869 -3.91228,-0.0399 -4.3136,-0.0899 -5.29167,-0.66002 -1.88238,-1.09716 -3.57187,-3.67278 -3.57187,-5.4453 0,-0.80827 1.18604,-4.71106 1.53915,-5.06471 0.0993,-0.0995 2.32376,0.33659 4.94314,0.96911 3.18266,0.76854 4.86555,1.06471 5.07314,0.89281 0.17085,-0.14148 0.82405,-1.29196 1.45157,-2.55662 1.04229,-2.10058 1.13891,-2.46512 1.11746,-4.21645 -0.0214,-1.74869 -0.14475,-2.16651 -1.40435,-4.75724 -1.49532,-3.07556 -2.37875,-4.40996 -4.96993,-7.50697 -2.45732,-2.93701 -2.51685,-2.95364 -4.87562,-1.36174 -2.02559,1.36703 -4.87589,4.18999 -6.24492,6.185 -1.15998,1.69039 -2.42955,4.33174 -4.30718,8.96114 -2.26512,5.5848 -2.66622,7.16012 -2.82935,11.1125 -0.12278,2.97456 -0.0635,3.61142 0.58913,6.33015 0.85807,3.57454 1.83539,5.56127 4.2768,8.69404 3.15869,4.05317 4.42776,4.95443 10.00271,7.10362 1.71326,0.66048 1.96442,0.69112 3.43959,0.41961 6.29135,-1.15793 7.82502,-1.38022 9.49472,-1.37616 5.00835,0.0122 8.98391,1.94296 10.7066,5.19973 0.44581,0.84281 2.57011,9.63391 2.97808,12.324328 0.19308,1.273308 0.41538,2.310847 0.49401,2.305644 0.0786,-0.0052 1.38494,-0.2222 2.90293,-0.482216 l 2.75997,-0.472756 -0.055,-1.700596 c -0.12701,-3.928024 -0.87541,-14.927454 -1.24084,-18.237054 -0.61686,-5.58664 -0.87766,-10.49834 -0.72072,-13.57338 0.13786,-2.70104 0.16791,-2.8164 0.70157,-2.69324 0.59444,0.13719 8.6411,1.44995 8.88757,1.44995 0.0804,0 0.10655,2.05383 0.058,4.56406 -0.0568,2.93674 0.0559,5.83763 0.31611,8.13594 0.22242,1.96453 0.67253,7.48643 1.00023,12.27089 l 0.59584,8.699008 2.58895,-0.178311 2.58896,-0.178312 v 0.938156 0.938155 h 4.36563 4.36562 l -0.0195,-1.389063 c -0.0107,-0.763984 -0.16799,-3.591723 -0.34953,-6.283853 -0.18153,-2.69214 -0.31818,-4.91806 -0.30366,-4.9465 0.0287,-0.0562 7.40927,0.88231 8.80859,1.12015 l 0.8599,0.14616 v 3.16301 c 0,1.73965 0.0444,3.16301 0.0986,3.16301 0.0543,0 0.62878,-0.2345 1.27671,-0.52111 0.95732,-0.42347 1.86842,-0.533 4.86268,-0.58459 4.92289,-0.0848 5.35967,0.11985 8.64242,4.049957 1.32151,1.582118 2.48381,2.876579 2.58289,2.876579 0.0991,0 0.51328,-0.863203 0.92047,-1.918229 1.38827,-3.597027 2.74088,-6.195507 3.4756,-6.676907 0.67912,-0.44498 0.89721,-0.44577 4.57424,-0.0168 7.81619,0.91197 10.04255,1.59939 12.09178,3.7335 2.54971,2.655339 2.97868,4.45868 1.70721,7.177049 -0.46367,0.991308 -1.10343,2.081543 -1.4217,2.422745 -0.86321,0.925416 -3.58604,2.646688 -7.59012,4.798192 -1.96453,1.055597 -3.96348,2.212629 -4.44211,2.571182 -0.85253,0.638657 -0.89515,0.643425 -2.09539,0.234463 -0.67383,-0.229599 -1.24682,-0.388034 -1.2733,-0.352078 -0.3464,0.470374 -0.65587,2.253687 -0.65587,3.779424 0,2.254672 0.95334,5.84251 2.13974,8.052794 0.81158,1.512009 4.64975,6.378841 5.16127,6.544543 0.30534,0.09891 0.76925,-0.744375 2.43864,-4.432943 0.59471,-1.314023 1.42412,-2.650343 1.98011,-3.190321 0.52622,-0.511051 1.32561,-1.672615 1.77643,-2.581254 0.45082,-0.908639 0.97243,-1.710685 1.15912,-1.782324 0.18668,-0.07164 2.45341,0.351265 5.03716,0.939788 2.58375,0.588523 4.74634,1.070042 4.80576,1.070042 0.31054,0 0.0318,0.629398 -0.52546,1.186705 -0.34842,0.348416 -0.84756,1.19402 -1.1092,1.879118 -0.27701,0.725335 -1.03919,1.809525 -1.82473,2.595634 -1.07149,1.072265 -1.60866,1.953967 -2.611,4.28572 -1.42289,3.31008 -2.37209,4.619333 -3.96749,5.47248 -0.92508,0.494688 -1.51738,0.587634 -3.74472,0.587634 -2.97027,0 -4.20902,-0.329921 -7.67292,-2.043559 -3.43393,-1.698811 -5.09598,-3.051858 -7.45023,-6.065106 -3.78958,-4.850354 -5.19092,-8.568193 -5.22105,-13.851751 -0.0175,-3.067198 0.0154,-3.258999 0.96877,-5.648947 0.54279,-1.360671 0.98689,-2.551634 0.98689,-2.646585 0,-0.09495 -0.71373,-0.618784 -1.58607,-1.164074 -1.36614,-0.853966 -1.79721,-0.989838 -3.10885,-0.979912 -0.83754,0.0063 -2.01786,0.10741 -2.62294,0.224606 l -1.10014,0.213084 0.80773,-1.589503 c 0.83205,-1.637375 0.81173,-2.072708 -0.1243,-2.663143 -0.65826,-0.415219 -1.15213,0.180362 -2.02211,2.438543 -1.35987,3.529772 -1.88164,8.223634 -1.8433,16.582532 0.018,3.926806 0.0352,7.734961 0.0382,8.462565 0.009,2.272512 -0.36859,5.01769 -0.63415,4.604706 -0.15738,-0.244758 -0.18729,-0.100753 -0.0877,0.422377 0.1841,0.967223 -0.65904,2.342511 -1.98318,3.23485 -1.93173,1.301788 -5.15045,0.49274 -6.8136,-1.712641 -0.90902,-1.205382 -1.48266,-3.526196 -0.9181,-3.714384 0.3566,-0.118868 0.4089,-1.031344 0.0664,-1.159214 -0.2792,-0.104245 -0.67741,-5.510782 -1.22448,-16.624652 -0.21847,-4.438385 -0.46932,-8.813932 -0.55743,-9.723437 l -0.1602,-1.653646 -2.94574,0.0055 c -1.62016,0.003 -4.55308,0.240851 -6.51761,0.528495 -1.96454,0.287645 -3.73827,0.523292 -3.94164,0.523661 -0.30196,5.49e-4 -0.33717,0.424771 -0.19198,2.313595 0.26074,3.392118 0.67306,14.143817 0.98178,25.600617 0.149,5.529792 0.33678,11.869617 0.41728,14.0885 0.14759,4.067866 0.0236,5.512846 -0.4482,5.221289 -0.35935,-0.222089 -0.32569,1.549888 0.0363,1.911894 0.68305,0.683044 -0.88699,3.390837 -2.42818,4.187819 -1.06302,0.549708 -3.34743,0.472817 -4.53149,-0.152523 z m 57.10724,-53.558951 c 1.53169,-1.339887 2.63011,-3.327077 2.24096,-4.054211 -0.13484,-0.251938 -0.47482,-0.665916 -0.75553,-0.919951 -0.49035,-0.443768 -0.52381,-0.433275 -0.85302,0.267543 -0.416,0.885541 -2.38978,5.67615 -2.38978,5.800265 0,0.299071 0.57273,-0.05735 1.75737,-1.093646 z m 110.69058,44.574112 c -3.1249,-0.400826 -3.9077,-0.972182 -7.7545,-5.660482 -5.0349,-6.136148 -5.2038,-6.356434 -7.2766,-9.490572 -1.0358,-1.566216 -2.602,-3.682632 -3.4803,-4.703148 -0.8783,-1.020516 -1.6015,-1.882192 -1.6069,-1.914835 -0.01,-0.03264 -0.1174,-2.678727 -0.2486,-5.880186 -0.2528,-6.165231 -0.5189,-8.484224 -1.3662,-11.906249 -1.3639,-5.508583 -4.986,-15.410641 -5.5171,-15.082431 -0.4503,0.27828 -1.4147,6.739834 -1.9815,13.276519 -0.3464,3.994123 -0.3684,5.713337 -0.1301,10.149347 0.1578,2.937372 0.2172,5.658039 0.132,6.045927 l -0.1549,0.705252 -3.5721,0.04023 c -1.9646,0.02213 -3.906,0.113579 -4.3142,0.203228 -0.5142,0.112947 -0.9266,0.01359 -1.343,-0.323569 -0.5044,-0.40844 -0.643,-0.888217 -0.8632,-2.988035 -0.1443,-1.375808 -0.1907,-4.019447 -0.103,-5.874755 0.2012,-4.260636 -0.1896,-6.205202 -2.9378,-14.618379 -1.8168,-5.561895 -3.2956,-9.128125 -3.785,-9.128125 -0.3019,0 -0.5294,2.12141 -0.7946,7.408333 -0.369,7.358794 -0.3121,13.466546 0.1745,18.706033 0.5386,5.799893 0.5989,15.523847 0.1037,16.719345 -0.4268,1.03038 -0.9655,1.053779 -4.3081,0.187119 -1.3478,-0.349481 -3.11896,-0.718349 -3.93578,-0.819709 l -1.48511,-0.18429 -0.14372,-2.818312 c -0.45369,-8.897178 -5.55387,-34.144389 -7.77149,-38.470919 l -0.37294,-0.7276 h 4.31393 4.31392 l 0.31771,-2.33276 c 0.59784,-4.38967 1.65103,-6.07594 4.27048,-6.83743 2.3639,-0.6872 5.7965,0.0313 8.5302,1.7855 1.0797,0.69281 4.5191,4.41182 5.8892,6.36792 0.2265,0.32338 0.4539,0.53562 0.5053,0.47164 0.051,-0.064 0.3011,-0.90367 0.5548,-1.86598 0.2537,-0.96231 0.7447,-2.3613 1.0911,-3.10886 l 0.6297,-1.3592 3.121,0.003 c 4.914,0.005 6.9908,0.77099 9.466,3.49154 1.9016,2.09015 3.7086,4.59737 4.5087,6.256 1.0387,2.15312 3.799,10.231563 4.7491,13.898847 1.1828,4.565405 1.4418,6.386925 1.8293,12.862975 l 0.3246,5.423958 1.705,2.116667 c 0.9378,1.164166 2.1644,2.90786 2.7258,3.874873 1.1507,1.98179 3.3101,4.765174 8.0412,10.364457 1.9435,2.300206 3.2411,4.062956 3.2411,4.402957 0,1.030861 -2.5815,1.681649 -5.2916,1.334019 z m -24.474,-60.060683 c -0.09,-0.14552 -0.3648,-0.26276 -0.6109,-0.26053 -0.3856,0.003 -0.3926,0.0395 -0.051,0.26053 0.5182,0.33486 0.8685,0.33486 0.6615,0 z m -48.50971,40.872297 c -0.47205,-0.397206 -1.09998,-1.195959 -1.39539,-1.775007 l -0.5371,-1.052814 -0.57577,0.523866 c -0.97295,0.885238 -1.66828,1.11916 -3.32671,1.11916 -5.76574,0 -12.97119,-6.834984 -15.62577,-14.822377 -0.47537,-1.430341 -2.35491,-11.505534 -2.83704,-15.20783 -0.32848,-2.522425 1.29837,-6.915545 3.08494,-8.330535 1.47319,-1.16679 3.94783,-2.20187 5.5611,-2.32608 1.1729,-0.0903 1.76317,0.0269 3.04271,0.60397 3.56649,1.60858 3.28538,1.54577 3.56981,0.79765 0.29758,-0.7827 1.19385,-0.8851 2.37969,-0.27188 0.42012,0.21725 0.92062,0.33485 1.11223,0.26132 0.19162,-0.0735 0.92259,0.3408 1.62439,0.92073 0.70181,0.57995 1.93924,1.2635 2.74988,1.51903 1.76844,0.55745 2.00881,0.99405 2.73828,4.97371 0.26674,1.45521 0.85163,4.431772 1.29976,6.614584 0.44813,2.182813 1.34809,7.230942 1.9999,11.218066 1.24914,7.640917 1.69182,9.700679 2.38234,11.084853 0.38063,0.762996 0.54066,0.848122 1.59434,0.848122 1.35232,0 1.42718,0.212954 0.76156,2.166445 l -0.40969,1.202376 -2.43458,0.172176 c -1.33902,0.0947 -3.21444,0.242035 -4.16759,0.327418 -1.61353,0.144537 -1.79219,0.105449 -2.59129,-0.566953 z m -8.54428,-12.231149 c 0.15186,-0.982266 0.40331,-5.677828 0.55878,-10.434584 0.24923,-7.625824 0.23271,-8.890504 -0.13976,-10.693714 -0.43954,-2.12794 -1.11092,-4.07506 -1.40365,-4.07078 -0.60206,0.009 -3.04181,1.7514 -3.59796,2.56983 -1.69546,2.4951 -1.81162,4.752614 -0.52792,10.259978 0.37311,1.600729 0.91873,4.160572 1.21249,5.688541 0.29375,1.527969 0.6437,3.194844 0.77765,3.704167 0.29666,1.127957 2.29046,4.7625 2.61256,4.7625 0.12744,0 0.35595,-0.803672 0.50781,-1.785938 z m -51.55746,-40.857088 c -2.69214,-0.2431 -5.08716,-0.45146 -5.32227,-0.46303 -0.33277,-0.0164 -0.46219,-0.41667 -0.5842,-1.80696 -0.4538,-5.17085 -0.7806,-8.03858 -1.39449,-12.23698 -0.37236,-2.54662 -0.79342,-5.52318 -0.93568,-6.61459 -0.4959,-3.80442 -1.31565,-8.59978 -1.50194,-8.78607 -0.10321,-0.10321 -0.96058,-0.0774 -1.90527,0.0574 -1.29548,0.18479 -2.95309,0.11489 -6.7447,-0.28443 -6.2303,-0.65616 -6.2177,-0.65347 -6.2177,-1.32803 0,-1.16196 0.43942,-1.52645 1.64976,-1.36846 0.6206,0.081 1.18789,0.23381 1.26065,0.33955 0.14035,0.20397 2.21592,-0.0495 5.67539,-0.69316 1.15694,-0.21524 2.7828,-0.46235 3.61302,-0.54913 0.83023,-0.0868 1.64975,-0.24445 1.82116,-0.35039 0.23324,-0.14415 0.14288,-1.11729 -0.35913,-3.86752 -0.36893,-2.0212 -0.80816,-4.62741 -0.97605,-5.79158 -0.1679,-1.16417 -0.54019,-3.00963 -0.82731,-4.10104 -0.45184,-1.71759 -1.22815,-4.87335 -1.67597,-6.81302 -0.0922,-0.39938 -0.33172,-0.5946 -0.72771,-0.59315 -1.07131,0.004 -10.22338,-1.94391 -10.09669,-2.14889 0.17108,-0.27682 3.48872,-0.96812 6.19218,-1.29028 3.52157,-0.41964 19.40008,-0.33543 23.85733,0.12653 7.05382,0.73106 10.93585,1.24624 12.33073,1.63639 1.67666,0.46896 5.84788,3.14936 6.6466,4.27106 0.84055,1.18045 1.31318,2.7114 1.51101,4.89454 0.15241,1.68196 0.0995,2.07771 -0.41209,3.08044 -0.32283,0.6328 -0.74929,1.61064 -0.9477,2.17299 -0.51933,1.47193 -2.67382,4.38293 -3.93237,5.31316 -1.6329,1.20691 -6.13775,3.26033 -8.22261,3.74806 -2.81684,0.65897 -9.11843,1.74175 -10.13669,1.74175 h -0.9036 l 0.17709,1.25677 c 0.0974,0.69123 0.39653,2.4474 0.66473,3.90261 0.2682,1.4552 0.56584,3.47927 0.66142,4.49791 0.0956,1.01865 0.5925,4.41193 1.10426,7.54063 0.51175,3.1287 1.04818,6.9387 1.19206,8.46666 0.14388,1.52797 0.32664,3.44167 0.40614,4.25268 0.23777,2.42548 0.61447,2.28915 -4.93936,1.78763 z m 1.32291,-33.29239 c 0,-0.14552 -0.24515,-0.26458 -0.54478,-0.26458 -0.29963,0 -0.4712,0.11906 -0.38126,0.26458 0.0899,0.14552 0.33509,0.26459 0.54478,0.26459 0.2097,0 0.38126,-0.11907 0.38126,-0.26459 z m 1.29749,-2.78198 c 1.7309,-0.43785 5.84739,-2.36872 7.23713,-3.39464 1.06902,-0.78915 2.88667,-3.40757 3.79373,-5.46504 0.62206,-1.41102 0.75592,-2.0779 0.7456,-3.71434 -0.0163,-2.58753 -0.67923,-3.82925 -2.88089,-5.39634 -3.3487,-2.38353 -3.20444,-2.34864 -10.24507,-2.47784 -5.89402,-0.10815 -11.9845,0.19948 -13.83861,0.69901 -0.57431,0.15473 0.51832,0.31805 3.95212,0.59074 l 4.74587,0.37689 0.35466,2.10773 c 0.19506,1.15925 0.65022,3.19265 1.01147,4.51867 0.36125,1.32602 1.0154,4.54473 1.45368,7.15269 0.95491,5.68222 0.96717,5.72664 1.53427,5.56049 0.24292,-0.0712 1.20414,-0.32229 2.13604,-0.55802 z m 87.86705,32.90545 c -1.0914,-0.12747 -2.8178,-0.18149 -3.8364,-0.12005 -1.3595,0.082 -1.6058,0.0531 -0.9261,-0.10856 0.8053,-0.19155 0.7276,-0.21434 -0.5956,-0.17475 -0.837,0.025 -1.5216,-0.0364 -1.5214,-0.13648 2e-4,-0.10009 -0.208,-0.1715 -0.4626,-0.15869 -1.0378,0.0522 -11.2903,-4.03989 -15.4991,-6.18623 -0.55721,-0.28416 -4.30768,-2.90596 -8.33437,-5.82623 -6.31705,-4.5813 -8.09631,-5.93005 -10.6785,-8.09476 -0.40502,-0.33954 -0.54364,-0.18029 -1.48185,1.70229 -0.56926,1.14228 -1.66023,3.56515 -2.42436,5.38416 -1.27542,3.03615 -3.28918,7.58005 -4.51441,10.18646 -0.27363,0.58208 -0.56223,1.35599 -0.64134,1.71979 -0.29239,1.34468 -0.22316,1.3392 -5.84171,0.46232 -2.90785,-0.45382 -5.3189,-0.84485 -5.35788,-0.86894 -0.039,-0.0241 0.10911,-0.38896 0.3291,-0.81079 0.21998,-0.42183 0.40071,-0.94883 0.4016,-1.17112 9e-4,-0.22228 0.16211,-0.639 0.35825,-0.92604 0.37686,-0.55152 3.22992,-6.57132 5.32597,-11.23752 0.68637,-1.52796 2.26488,-4.94814 3.50782,-7.60039 l 2.25988,-4.82228 -1.04081,-1.39543 c -1.46565,-1.96503 -3.03378,-4.51879 -4.19244,-6.82754 -0.54548,-1.08693 -1.23934,-2.3265 -1.54191,-2.7546 -0.30257,-0.4281 -1.59461,-2.90015 -2.87121,-5.49344 -2.52771,-5.13479 -3.64103,-7.015 -5.12907,-8.66208 l -0.96976,-1.0734 h 5.31631 5.3163 l 1.03104,1.30437 c 1.23497,1.56235 3.8105,6.12862 5.45397,9.66959 1.11685,2.4063 3.01332,5.64725 3.32375,5.68007 0.0765,0.008 1.05486,-1.86052 2.17404,-4.15247 2.24544,-4.59841 5.17684,-9.87054 6.09237,-10.95714 l 0.59026,-0.70055 4.63021,0.74254 c 2.54661,0.4084 4.88611,0.78408 5.19887,0.83484 0.52553,0.0853 0.44947,0.27254 -1.0026,2.4684 -0.8642,1.30686 -3.76943,6.74574 -6.45607,12.0864 l -4.88479,9.71029 4.1726,4.10169 c 2.29493,2.25593 4.76388,4.55611 5.48655,5.11151 4.74203,3.64445 16.14249,11.64802 17.46148,12.25864 4.29001,1.98604 8.17701,3.61345 10.44381,4.37259 l 2.5064,0.83936 -1.448,0.17605 c -0.7964,0.0968 -2.341,0.058 -3.4324,-0.0863 -1.0914,-0.14428 -2.282,-0.25794 -2.6459,-0.25259 -1.5842,0.0233 0.5805,0.4945 4.7625,1.03665 2.4011,0.31127 4.7229,0.66501 5.1594,0.78608 0.723,0.2005 0.6875,0.21906 -0.3969,0.20808 -0.6548,-0.007 -2.0835,-0.11636 -3.175,-0.24383 z m -0.9871,-1.72202 c -0.1791,-0.0725 -0.5363,-0.0769 -0.7938,-0.01 -0.2574,0.0671 -0.1108,0.12638 0.3257,0.13177 0.4366,0.005 0.6472,-0.0495 0.4681,-0.12197 z m 3.848,0.78656 c 0.191,-0.0764 0.4192,-0.067 0.5071,0.0209 0.088,0.0879 -0.068,0.15045 -0.3473,0.13896 -0.3082,-0.0127 -0.3709,-0.0754 -0.1598,-0.15985 z m -2.5301,-0.26623 c 0.2546,-0.0666 0.6714,-0.0666 0.926,0 0.2547,0.0665 0.046,0.121 -0.463,0.121 -0.5093,0 -0.7177,-0.0545 -0.463,-0.121 z"
       id="path101" /></g></svg>
