<?xml version="1.0" encoding="UTF-8" standalone="no"?>
<!-- Created with Inkscape (http://www.inkscape.org/) -->

<svg
   width="140.3132mm"
   height="86.892647mm"
   viewBox="0 0 140.3132 86.892647"
   version="1.1"
   id="svg1"
   xml:space="preserve"
   xmlns="http://www.w3.org/2000/svg"
   xmlns:svg="http://www.w3.org/2000/svg"><defs
     id="defs1" /><g
     id="layer1"
     transform="translate(-596.75271,22.547124)"><path
       style="opacity:0.6;fill:#ffffff"
       d="m 628.21844,63.672419 c -1.54837,-0.87716 -2.97524,-1.511458 -4.96959,-2.209174 -1.44232,-0.504588 -1.62848,-0.602805 -1.90007,-1.002495 -0.16561,-0.243707 -0.52834,-0.559033 -0.80608,-0.700726 -0.27774,-0.141692 -1.2916,-0.783194 -2.25301,-1.425559 -3.17028,-2.118205 -9.13165,-5.844412 -9.21188,-5.757967 -0.0189,0.02042 -0.33853,1.739405 -0.71018,3.819975 -0.37165,2.080571 -0.6892,3.796327 -0.70566,3.812792 -0.0339,0.03389 -8.43163,-2.00748 -8.49746,-2.065611 -0.0234,-0.02067 0.1244,-0.542078 0.32846,-1.158689 0.64778,-1.957354 2.07089,-8.659892 1.8547,-8.735219 -0.53712,-0.187152 -4.41032,-2.412781 -4.50422,-2.588225 -0.49402,-0.923082 1.03336,-1.404096 4.48468,-1.412348 0.7969,-0.0019 0.7969,-0.0019 0.94044,-0.754275 0.32446,-1.700624 0.99822,-4.041601 1.61121,-5.598154 0.3584,-0.91008 0.71697,-1.925543 0.79682,-2.256586 0.33448,-1.386722 1.13312,-2.51737 1.87668,-2.656862 0.51065,-0.0958 0.90583,0.0355 3.13347,1.04112 0.99682,0.449991 2.47046,1.043791 3.27475,1.319558 1.46236,0.501393 1.46236,0.501393 1.8331,1.293655 0.43622,0.932172 2.45548,4.328324 3.52534,5.929187 0.74968,1.121772 0.74968,1.121772 4.86637,2.514619 4.54439,1.537554 4.75168,1.669862 2.46801,1.575263 -1.60793,-0.06661 -4.47823,-0.04181 -4.55943,0.03939 -0.0299,0.0299 1.02358,1.67151 2.34106,3.648029 6.76277,10.145659 7.47615,11.581053 6.63341,13.346985 -0.37368,0.783021 -0.43688,0.782383 -1.85092,-0.01868 z m -9.88777,-9.704536 c -0.0501,-0.08276 -0.90082,-1.423483 -1.89052,-2.979384 -0.9897,-1.5559 -1.96497,-3.090736 -2.16728,-3.410745 -0.36783,-0.581836 -0.36783,-0.581836 -0.9154,-0.495764 -0.30116,0.04734 -1.14344,0.119568 -1.87174,0.160509 -1.32417,0.07444 -1.32417,0.07444 -1.45572,0.616143 -0.33315,1.371824 -0.41968,1.194097 0.95204,1.955536 0.67428,0.374292 2.58022,1.493074 4.23544,2.486184 2.99849,1.799059 3.286,1.953061 3.11318,1.667521 z m 103.93192,10.257849 c -0.31562,-0.05309 -1.96782,-0.504238 -3.67156,-1.002541 -1.70374,-0.498304 -3.26022,-0.943069 -3.45885,-0.988368 -1.11604,-0.254526 -4.62032,-3.219779 -10.24663,-8.670512 -1.02096,-0.989103 -1.94624,-2.364725 -2.39946,-3.567309 -0.18125,-0.480909 -0.59105,-1.53511 -0.91067,-2.342669 -1.35658,-3.427496 -1.42681,-5.727347 -0.28641,-9.379908 0.68661,-2.199153 1.41131,-3.061095 3.22024,-3.830083 0.64161,-0.272751 0.75463,-0.366866 0.77086,-0.641897 0.087,-1.474073 2.01813,-1.700588 6.48146,-0.760254 9.82763,2.070487 14.11749,3.848338 17.55896,7.276989 8.28026,8.249404 8.91047,9.628795 6.55195,14.340883 -1.77199,3.540271 -10.3356,9.960065 -12.90767,9.676362 -0.0706,-0.0078 -0.3866,-0.0576 -0.70222,-0.110693 z M 720.817,58.909266 c 7.26257,-4.850283 9.40988,-9.523509 6.08549,-13.243987 -2.01005,-2.249536 -6.14114,-6.527854 -6.75778,-6.998621 -3.92397,-2.995706 -5.5626,-3.104244 -8.90741,-0.590003 -1.73158,1.301597 -2.73049,6.543869 -1.77497,9.315042 1.66577,4.831047 2.35924,5.814533 7.46986,10.593715 2.45517,2.295957 1.99437,2.186373 3.88481,0.923854 z m -60.09619,3.827441 c -3.28638,-0.54403 -5.77014,-1.12448 -8.0955,-1.891907 -1.61349,-0.53249 -1.71645,-0.646968 -1.33494,-1.484286 0.17078,-0.374821 -0.01,-0.387356 1.78636,0.124214 1.10827,0.315703 1.80606,0.440927 2.64834,0.475271 0.62898,0.02565 0.98109,0.0079 0.78247,-0.03947 -0.44176,-0.105315 -0.4147,0.150942 -0.77776,-7.367105 -0.37098,-7.681989 -0.68378,-11.108206 -1.28419,-14.066178 -0.16596,-0.817606 -0.28209,-1.506216 -0.25806,-1.530243 0.0616,-0.06165 8.44214,1.525819 8.53851,1.617398 0.11221,0.106636 0.42823,4.058795 0.64131,8.020256 0.73665,13.695613 0.48023,12.637708 2.97534,12.275057 4.89001,-0.710735 5.71928,-1.153312 7.89668,-4.214403 2.65315,-3.729921 3.23822,-11.702501 1.00336,-13.67253 -2.32594,-2.05032 -3.67882,-2.572273 -6.69394,-2.582577 -2.28657,-0.0078 -10.55813,-2.298323 -10.22811,-2.832306 0.0956,-0.154694 2.47177,-0.202863 4.50676,-0.09136 4.0475,0.221774 6.72408,0.728247 13.66304,2.58537 1.94518,0.520604 3.92249,1.402533 5.51799,2.461159 2.3068,1.530584 2.501,1.775313 2.84221,3.581676 0.80738,4.274358 -0.1768,9.961431 -2.22337,12.84771 -2.3107,3.258767 -3.46717,4.042125 -6.73873,4.564574 -10.36839,1.655771 -11.82557,1.772947 -15.16777,1.219675 z M 642.4803,60.696018 c -0.0345,-0.03453 -1.14492,-0.149669 -2.46754,-0.255859 -6.35744,-0.510428 -6.56759,-0.736414 -8.65805,-9.310398 -1.92614,-7.900037 -2.11588,-8.97398 -2.30347,-13.037663 -0.0767,-1.661425 3.22797,-1.679546 8.37119,-0.0459 0.15975,0.05074 0.18654,0.440266 0.19251,2.798967 0.008,3.189264 0.24146,4.844895 1.24838,8.855208 0.57391,2.285756 1.88083,6.851009 2.05324,7.172263 0.32714,0.609565 2.44688,-4.260543 3.159,-7.257794 0.56849,-2.392746 0.11294,-8.356624 -0.88515,-11.588055 -0.13331,-0.431625 -0.21043,-0.816728 -0.17138,-0.855783 0.0609,-0.0609 8.069,1.364417 8.44856,1.503708 0.39315,0.144282 1.38666,6.821153 1.39341,9.364501 0.008,2.89668 -0.40902,4.517275 -2.3061,8.968247 -1.56917,3.68165 -1.41516,3.5672 -4.46016,3.314532 -0.93583,-0.07765 -1.28576,-0.05607 -1.92607,0.11881 -0.88259,0.24105 -1.59487,0.34872 -1.68837,0.255219 z m 51.52534,-2.472488 c -4.47007,-0.925038 -4.00292,-0.250444 -3.80142,-5.489533 0.23608,-6.138255 -1.00872,-13.433657 -2.95145,-17.297557 -0.48371,-0.962051 -0.48371,-0.962051 -0.14575,-0.891595 0.18588,0.03875 2.12559,0.344478 4.31047,0.679394 2.18488,0.334915 4.00905,0.646764 4.0537,0.692997 0.63052,0.652843 2.45867,8.264241 2.80213,11.666494 0.38246,3.788543 0.32578,11.475514 -0.0845,11.459795 -0.14897,-0.0057 -2.0314,-0.374705 -4.18318,-0.819995 z M 627.44721,33.509048 c -5.03278,-0.660313 -4.48133,-0.517721 -4.34111,-1.122506 0.061,-0.262975 0.11215,-0.624652 0.11373,-0.803725 0.003,-0.377959 0.2032,-0.328668 -2.82604,-0.696956 -3.26725,-0.397224 -8.88892,-1.664643 -6.68104,-1.506258 0.43035,0.03087 2.1909,0.113067 3.91232,0.182655 1.72142,0.06959 3.31946,0.149597 3.55119,0.177797 1.06733,0.129885 -0.15762,-0.193198 -2.55108,-0.672856 -1.4362,-0.287819 -2.59447,-0.540104 -2.57394,-0.560635 0.0375,-0.03746 5.73699,0.509484 6.61831,0.635113 0.47007,0.06701 0.47007,0.06701 0.39667,-1.302731 -0.0597,-1.114264 -0.0395,-1.418195 0.10856,-1.62954 0.10009,-0.142891 0.31666,-0.94859 0.48128,-1.790443 1.33466,-6.82532 1.59619,-13.828123 1.00833,-26.9991826 -0.3873,-8.6774604 -0.49839,-10.9343704 -0.66662,-13.5426504 -0.10248,-1.58901 -0.20876,-2.95682 -0.23617,-3.03958 -0.0351,-0.10591 -0.37883,-0.15047 -1.16071,-0.15047 -0.99358,0 -9.18908,-2.50791 -8.95628,-2.74071 0.0207,-0.0207 3.70598,0.0565 8.1896,0.17155 6.90551,0.17714 8.9017,0.18772 13.05477,0.0692 4.90275,-0.13994 4.90275,-0.13994 8.74644,1.22258 2.11402,0.74939 3.91109,1.384 3.99349,1.41025 0.0824,0.0262 -3.31336,0.0466 -7.54611,0.0452 -7.69592,-0.002 -7.69592,-0.002 -7.78161,0.90284 -0.1006,1.06284 0.0171,7.17181 0.18331,9.5124404 0.39692,5.59046 0.57663,24.0040846 0.27373,28.0483436 -0.31345,4.185212 -0.63223,7.669211 -0.75789,8.283223 -0.61744,3.01692 -0.98625,2.74614 5.54378,4.070273 4.45261,0.902884 5.33415,1.112301 4.69849,1.116171 -1.68054,0.01023 -7.94235,-0.356946 -8.96825,-0.525876 -0.59588,-0.09812 -1.14902,-0.179571 -1.2292,-0.181001 -0.0999,-0.0018 -0.15674,0.311577 -0.18057,0.994941 -0.0348,0.997542 -0.0348,0.997542 -4.41738,0.422533 z m 33.21341,-1.121412 c -7.51843,-1.22804 -11.28082,-2.641103 -14.29014,-5.367029 -0.58201,-0.527205 -1.84247,-1.481067 -2.80103,-2.119692 -1.91472,-1.275663 -2.38597,-1.716634 -4.02512,-3.766443 -3.09682,-3.872697 -3.11371,-3.931466 -2.2492,-7.824645 0.25729,-1.158647 0.52952,-2.645597 0.60496,-3.304337 0.14853,-1.2968696 0.0976,-1.1779996 1.64639,-3.8414396 0.55908,-0.96144 0.96786,-1.52238 1.25158,-1.71744 2.31531,-1.59186 2.58463,-1.74669 3.35286,-1.92751 2.22848,-0.52452 6.14143,0.69362 7.70474,2.39856 0.15602,0.17016 0.35821,0.28077 0.44931,0.24581 0.26754,-0.10266 1.47237,0.84391 4.86465,3.82188 1.75453,1.5402496 3.89427,3.3959396 4.75498,4.1237596 4.25494,3.597994 4.63444,7.224246 0.82643,7.896902 -0.65316,0.115375 -1.26882,0.241132 -1.36814,0.27946 -0.63001,0.243135 -1.29785,0.186148 -3.81144,-0.325229 -6.75787,-1.374855 -6.05801,-1.18985 -6.56753,-1.736082 -0.4659,-0.499468 -0.68851,-1.617828 -0.38436,-1.930948 0.0263,-0.02712 1.06956,0.148931 2.31825,0.391232 2.86808,0.556534 2.75707,0.559692 3.30348,-0.09399 0.61066,-0.730554 0.46612,-1.271254 -0.831,-3.108516 -0.5975,-0.84631 -6.83476,-6.5132586 -7.0791,-6.4318086 -0.50868,0.16956 -1.66097,2.7536196 -1.94962,4.3721096 -1.06159,5.952417 -1.04808,5.673697 -0.33266,6.86178 1.17198,1.946265 3.67503,4.636636 5.40678,5.811408 0.92641,0.628451 1.93668,1.384246 4.19962,3.1418 2.39382,1.859192 2.39936,1.860054 6.99156,1.087074 1.12555,-0.189457 2.42564,-0.381131 2.8891,-0.425942 0.84317,-0.08152 1.69152,-0.318702 2.70853,-0.757232 4.03876,-1.741489 6.30739,-10.3033 4.86075,-18.3445076 -0.24321,-1.35191 -1.68329,-2.36739 -2.57104,-1.81297 -0.19536,0.122 -0.22518,0.10854 -0.20987,-0.0947 0.01,-0.13031 0.0876,-0.23692 0.1728,-0.23692 0.26673,0 0.1688,-0.3534 -0.11591,-0.41825 -0.14897,-0.0339 -0.78547,-0.17328 -1.41445,-0.30965 -0.62898,-0.13637 -1.77694,-0.40758 -2.55102,-0.60268 -1.66289,-0.41912 -1.79544,-0.42347 -3.57425,-0.11721 -1.55264,0.26732 -1.67115,0.31701 -1.0195,0.42743 2.70559,0.45845 5.75794,1.16961 4.13529,0.96347 -4.07279,-0.51742 -5.1983,-0.74508 -4.87007,-0.98509 0.12172,-0.089 0.17032,-0.16182 0.10801,-0.16184 -1.04158,-2.1e-4 -4.69707,-0.87335 -7.57039,-1.80822 -2.21628,-0.7211 -3.53148,-2.10929 -5.23355,-5.524 -3.21305,-6.44602 -3.02369,-8.80632 0.98255,-12.2471004 0.6131,-0.52657 1.84603,-1.5863 2.73985,-2.35496 0.89381,-0.76866 2.26699,-2.0506 3.05149,-2.84877 2.14161,-2.17888 2.37582,-2.23103 6.63903,-1.47837 1.12554,0.19871 2.64232,0.45242 3.37062,0.56379 3.03954,0.4648 5.25788,1.50178 7.33739,3.42993 0.78905,0.73162 0.94224,0.82224 1.52487,0.90203 0.56682,0.0776 0.7383,0.17337 1.37336,0.76682 0.39912,0.37297 1.11688,0.99996 1.59502,1.39332 0.7855,0.6462 0.86936,0.75699 0.86936,1.14862 0,0.23838 0.065,0.49843 0.14445,0.57788 0.11236,0.11236 0.10001,0.14446 -0.0555,0.14446 -0.27702,0 -0.49462,0.85424 -0.6746,2.6483404 -0.12089,1.2051 -1.26111,3.53041 -2.36359,4.82019 -3.46726,4.05634 -3.62206,4.18872 -2.77417,2.37246 1.87608,-4.01872 1.19702,-4.961 -2.38631,-3.31125 -0.82682,0.38066 -0.82682,0.38066 -0.76966,1.27141 0.0624,0.97248 0.10512,1.03264 0.87421,1.23143 0.59176,0.15295 1.07058,0.34977 1.00659,0.41375 -0.0263,0.0263 -1.17258,-0.18598 -2.54738,-0.47164 -2.49964,-0.51939 -2.49964,-0.51939 -3.41105,-0.16549 -1.2841,0.49861 -2.0052,0.56822 -2.45344,0.23681 -0.19219,-0.14208 -0.44932,-0.25833 -0.57142,-0.25833 -0.34852,0 -1.45515,-0.59582 -1.52402,-0.82055 -0.10028,-0.32721 -0.31523,-3.28715 -0.24676,-3.39795 0.0344,-0.0557 0.11959,-0.41584 0.18929,-0.80037 0.0697,-0.38453 0.22334,-0.8654 0.34143,-1.0686 0.11809,-0.2032 0.30523,-0.64201 0.41587,-0.97512 0.20117,-0.60566 0.20117,-0.60566 3.34816,0.28399 1.73084,0.48931 3.22398,0.87394 3.31808,0.85474 0.24301,-0.0496 0.87058,-1.2893 0.87081,-1.72022 10e-5,-0.19862 0.0811,-0.8208304 0.17996,-1.3826704 0.21254,-1.20773 0.51713,-0.79092 -2.58768,-3.54108 -2.10664,-1.86599 -2.10664,-1.86599 -2.76872,-1.22905 -0.36415,0.35032 -1.6487,1.48679 -2.85455,2.52548 -6.3626,5.4805804 -6.66308,6.1721504 -4.80306,11.0544004 1.88262,4.94157 4.32765,7.44179 7.27459,7.43881 1.13928,-0.001 4.5822,0.43393 5.31856,0.67211 0.47722,0.15436 0.49155,0.16823 0.12038,0.11652 -0.87885,-0.12245 -2.10421,-0.21661 -2.04644,-0.15726 0.0331,0.034 0.76226,0.23639 1.62035,0.44972 0.85809,0.21333 1.82666,0.49292 2.15238,0.62131 0.32572,0.12838 0.62106,0.20458 0.65631,0.16933 0.14851,-0.14851 -0.22333,-0.6674 -0.48405,-0.67546 -0.25482,-0.008 -0.25725,-0.0148 -0.0357,-0.10134 0.2156,-0.0843 0.20442,-0.10585 -0.12038,-0.23245 -1.09068,-0.42513 3.45733,0.28383 6.14241,0.9575 4.90458,1.23053 5.06005,1.35166 5.46766,4.2600996 1.00355,7.160674 0.31434,11.853974 -2.34652,15.978965 -2.18599,3.388821 -3.6025,4.383864 -6.55195,4.602491 -0.56277,0.04171 -1.88995,0.20771 -2.94929,0.368878 -5.28362,0.803853 -5.767,0.815982 -9.32938,0.234112 z m 31.7199,-1.344028 c -2.31729,-0.412085 -4.25389,-0.751737 -4.30355,-0.754783 -0.1658,-0.01017 -0.0932,-0.572815 0.25932,-2.010593 0.81984,-3.343476 1.86863,-12.005145 2.17949,-17.999782 0.16076,-3.1001096 -0.13805,-9.3314396 -0.60599,-12.6372296 -0.0624,-0.44098 -0.14455,-1.17228 -0.18251,-1.62512 -0.73991,-8.8266704 -1.66951,-14.7237704 -2.70435,-17.1556004 -0.45179,-1.0617 -0.58123,-0.9955 1.43138,-0.73208 0.93456,0.12232 1.6992,0.20765 1.6992,0.18962 0,-0.018 -0.19864,-0.1347 -0.44143,-0.25926 -1.53717,-0.78861 22.91305,-0.81646 26.70314,-0.0304 3.81292,0.79079 5.49989,2.16504 4.55667,3.71203 -0.30052,0.49289 -0.33052,0.49133 -1.82861,-0.0951 -2.3499,-0.91988 -14.40443,-1.16552 -20.79936,-0.42384 -1.32481,0.15366 -1.40016,0.15009 -1.89333,-0.0895 -0.6514,-0.31648 -0.65713,-0.30745 -0.44367,0.70008 0.33317,1.57252 1.10503,7.20866 1.49177,10.8929504 0.21198,2.01936 0.40206,3.73194 0.4224,3.80573 0.0426,0.15464 0.98373,0.23304 4.99261,0.41592 2.82891,0.12906 2.82891,0.12906 6.65403,1.47479 4.41369,1.55281 4.41029,1.51527 0.11189,1.23514 -3.25291,-0.21199 -11.30272,-0.50884 -11.39147,-0.42008 -0.0324,0.0324 0.0435,0.86929 0.16874,1.85974 0.68828,5.44395 0.66435,7.61354 -0.17458,15.8249716 -0.50247,4.91825 -1.0097,9.996467 -1.16031,11.616587 -0.32422,3.487778 -0.0461,3.340797 -4.74148,2.505819 z"
       id="path68" /></g></svg>
