<?xml version="1.0" encoding="UTF-8" standalone="no"?>
<!-- Created with Inkscape (http://www.inkscape.org/) -->

<svg
   width="409.82965mm"
   height="426.8454mm"
   viewBox="0 0 409.82965 426.8454"
   version="1.1"
   id="svg1"
   xml:space="preserve"
   xmlns="http://www.w3.org/2000/svg"
   xmlns:svg="http://www.w3.org/2000/svg"><defs
     id="defs1" /><g
     id="layer1"
     transform="translate(-0.3533466,-363.95305)"><path
       style="opacity:0.6;fill:#f9f9f9"
       d="m 246.14131,790.77152 c 0,-0.2245 6.9133,-14.73597 7.15067,-15.00973 0.2387,-0.27529 7.02984,-1.6458 10.24568,-2.06766 1.34607,-0.17658 2.44506,-0.38977 2.44221,-0.47376 -0.003,-0.084 -1.03589,-0.79971 -2.29565,-1.5905 -2.65325,-1.66551 -5.72607,-4.45762 -6.4349,-5.84704 -0.27024,-0.52972 -0.7423,-1.96483 -1.04902,-3.18914 -0.30672,-1.22431 -0.73787,-2.78363 -0.95811,-3.46515 l -0.40044,-1.23913 2.77881,-5.50774 c 1.52835,-3.02926 3.40641,-6.46025 4.17348,-7.62442 3.73295,-5.66542 10.96018,-11.32737 17.28789,-13.54366 2.03163,-0.71158 2.31864,-0.74142 7.14375,-0.7426 4.45576,-10e-4 5.23891,0.0654 6.89093,0.58517 2.59195,0.81549 3.46719,1.69915 5.83968,5.89588 3.77283,6.67379 4.11799,7.81471 4.08225,13.49375 -0.0151,2.4011 -0.12623,4.79332 -0.24694,5.31606 -0.12072,0.52273 -0.83157,1.72929 -1.57968,2.68124 -0.74811,0.95195 -1.3602,1.80418 -1.3602,1.89385 0,0.0897 1.37094,0.16302 3.04653,0.16302 3.40718,0 14.31831,1.29729 17.75556,2.11106 3.53082,0.83593 9.96558,3.28009 11.79346,4.47959 0.9174,0.60202 2.64972,1.59782 3.84961,2.2129 1.19989,0.61508 2.18215,1.22571 2.18281,1.35696 6.6e-4,0.13125 -1.04585,1.32187 -2.32557,2.64583 -4.47153,4.6261 -5.38452,6.16026 -6.66794,11.2046 -0.32411,1.27385 -0.50335,1.35706 -1.21689,0.56495 -0.67823,-0.75292 -1.24737,-0.94257 -4.27166,-1.42342 -1.4203,-0.22583 -4.01112,-0.70059 -5.75737,-1.05504 -1.74625,-0.35445 -4.30609,-0.67174 -5.68854,-0.70509 -4.58561,-0.11064 -16.49426,0.34044 -19.27117,0.72996 -1.5041,0.21098 -4.65925,0.49078 -7.01146,0.62178 -3.02317,0.16838 -5.12983,0.44244 -7.18716,0.93503 -6.16217,1.47539 -16.95955,3.55296 -21.29896,4.0982 -3.9589,0.49744 -9.62591,1.648 -10.64948,2.16215 -0.5457,0.27411 -0.99218,0.42355 -0.99218,0.3321 z m 46.53822,-29.71921 c 0.4796,-0.3037 0.22016,-2.39905 -0.55435,-4.47731 -0.90214,-2.4207 -4.71008,-9.25818 -5.54941,-9.96443 -2.42845,-2.04341 -10.01512,-2.24564 -15.06775,-0.40166 -1.6123,0.58841 -4.53674,2.08634 -5.48401,2.80896 -0.0513,0.0392 0.16984,0.86206 0.4915,1.82867 1.36949,4.11532 7.5484,8.62599 13.22788,9.65648 3.73115,0.67699 12.16869,1.03526 12.93614,0.54929 z m -34.49968,-4.78568 c 0.22575,-0.43656 0.35093,-0.79375 0.27817,-0.79375 -0.0728,0 -0.317,0.35719 -0.54275,0.79375 -0.22576,0.43656 -0.35094,0.79375 -0.27818,0.79375 0.0728,0 0.317,-0.35719 0.54276,-0.79375 z m -138.14501,-9.06261 c -5.09526,-5.37329 -14.97625,-17.36433 -22.510553,-27.3176 -5.94188,-7.8496 -6.99627,-9.10678 -12.99983,-15.50018 l -3.79289,-4.03918 2.60227,-1.22882 2.60226,-1.22882 -1.45521,-0.17785 c -0.80036,-0.0978 -2.05052,-0.18725 -2.77812,-0.19874 -2.81494,-0.0445 -2.69845,-0.13995 6.88252,-5.64169 l 9.14291,-5.25019 2.835203,0.42651 c 1.55936,0.23457 7.06192,0.96378 12.22791,1.62047 5.16599,0.65668 10.03795,1.31143 10.82657,1.455 0.78862,0.14357 1.49309,0.20182 1.56547,0.12943 0.21687,-0.21686 0.53151,-5.59765 0.82485,-14.10569 0.20633,-5.9845 0.19755,-8.82822 -0.0346,-11.20032 -0.35499,-3.6277 -0.45173,-3.42005 1.89894,-4.07598 5.52876,-1.54276 10.63838,-3.42347 13.07059,-4.81094 1.85098,-1.0559 2.93639,-1.5097 3.69941,-1.54671 l 1.07985,-0.0524 1.74393,3.34428 c 4.3265,8.29679 9.52392,15.86094 16.3713,23.82624 6.6615,7.74908 20.25163,22.18208 23.60947,25.07374 1.21311,1.0447 2.7339,2.44107 3.37953,3.10305 l 1.17387,1.20361 -1.70304,0.77593 c -0.93667,0.42676 -5.3134,2.50594 -9.72608,4.62041 l -8.02304,3.84448 -1.76654,-1.90199 c -0.9716,-1.0461 -2.83811,-3.03911 -4.14779,-4.42892 -1.30969,-1.38981 -3.0144,-3.26653 -3.78825,-4.17048 -0.77385,-0.90396 -4.16714,-4.59443 -7.54063,-8.20105 -3.37349,-3.60662 -7.20385,-7.72361 -8.51191,-9.14888 l -2.37828,-2.59139 -0.21821,1.0156 c -0.12001,0.55858 -0.1586,1.40256 -0.0858,1.8755 0.0729,0.47294 0.0447,0.8599 -0.0625,0.8599 -0.10725,0 -0.34,0.68461 -0.51721,1.52135 -1.35547,6.40009 -5.14853,9.32656 -12.08834,9.32656 -2.70478,0 -4.88636,-0.31105 -9.52346,-1.35786 -4.04564,-0.91329 -13.15712,-2.63883 -13.28082,-2.51514 -0.0472,0.0472 0.67773,1.0272 1.6109,2.17783 0.93318,1.15063 3.47608,4.62678 5.65091,7.72479 2.17483,3.098 5.05905,7.06109 6.40938,8.80685 5.43056,7.02086 13.59869,15.97843 17.14837,18.80571 l 1.92831,1.53589 -9.53366,4.76826 c -5.24351,2.62254 -9.63822,4.76826 -9.76603,4.76826 -0.1278,0 -1.05118,-0.86349 -2.05195,-1.91886 z m 218.18834,-4.02599 c -0.56952,-0.68622 -5.58334,-3.9686 -9.42822,-6.17233 -2.05304,-1.17672 -5.14866,-2.99515 -6.87916,-4.04096 -9.11362,-5.50769 -21.33117,-12.24799 -31.60773,-17.43767 -11.69629,-5.90663 -18.43599,-8.79356 -21.29754,-9.12271 -0.8826,-0.10152 -1.73729,-0.26651 -1.8993,-0.36664 -0.19159,-0.11841 0.6957,-1.98414 2.53838,-5.33751 1.55811,-2.8355 3.27375,-5.95913 3.81252,-6.9414 0.53877,-0.98226 0.93405,-1.78593 0.87841,-1.78593 -0.0557,0 -1.62063,2.47054 -3.47773,5.4901 -1.85711,3.01956 -3.48522,5.60917 -3.61802,5.75469 -0.13281,0.14552 1.2856,-2.73355 3.15201,-6.39793 l 3.39347,-6.66251 0.89344,0.52182 c 0.4914,0.287 1.75774,0.68719 2.8141,0.8893 2.50149,0.47862 4.01629,1.26356 14.92959,7.73626 10.8013,6.40626 18.65742,10.92452 18.99504,10.92452 0.13329,0 1.97226,-3.18492 4.08661,-7.07761 l 3.84427,-7.0776 2.08931,-0.18451 c 2.99818,-0.26478 4.924,-0.67627 7.46066,-1.59415 l 2.22798,-0.80617 -0.17372,-1.35342 c -0.26849,-2.09166 -2.03498,-7.00627 -3.33926,-9.29026 -2.43314,-4.2608 -6.81256,-8.04168 -12.55303,-10.8374 -2.56813,-1.25072 -3.94234,-1.75573 -5.42395,-1.99324 -5.28342,-0.84694 -11.19443,-2.52346 -13.04711,-3.7005 -1.07599,-0.68359 -1.24489,-0.90034 -1.09064,-1.3996 0.10038,-0.32491 1.27859,-1.90044 2.61825,-3.50117 4.1512,-4.96017 5.37248,-6.70724 5.71761,-8.17918 0.5223,-2.22751 0.57532,-2.27869 1.89107,-1.82538 0.62069,0.21384 1.24852,0.48198 1.39519,0.59587 0.14667,0.11389 2.52886,0.99219 5.29375,1.95179 3.87997,1.34659 5.9384,1.89792 9.02079,2.41613 7.96514,1.33908 15.22403,1.88732 20.28182,1.53182 1.56434,-0.10995 2.84253,-0.13933 2.8404,-0.0653 -0.002,0.0741 -1.55812,3.05167 -3.45775,6.61693 l -3.45389,6.48229 0.45177,1.19063 c 3.16578,8.34325 3.59883,11.47438 2.21566,16.02002 -0.30783,1.01164 -1.02238,2.70544 -1.58789,3.76399 -1.58476,2.96643 -7.83215,11.84161 -9.15545,13.00642 -1.36043,1.1975 -4.93258,3.09677 -7.64808,4.0664 -1.92897,0.68878 -5.17014,1.36903 -7.88385,1.65464 -0.85331,0.0898 -1.44862,0.25915 -1.32291,0.37629 0.36084,0.33629 14.39067,7.66368 24.8348,12.97052 5.23875,2.6619 9.66224,4.94646 9.82998,5.0768 0.21497,0.16703 -0.99551,2.33949 -4.10104,7.3602 -2.42331,3.91777 -4.48074,7.12749 -4.57207,7.13272 -0.0913,0.005 -0.31116,-0.16537 -0.48854,-0.3791 z M 37.510317,694.03432 c -0.4765,-1.58795 -1.80187,-3.14848 -3.5324,-4.15916 -0.96546,-0.56386 -1.98898,-1.28333 -2.2745,-1.59882 -0.28552,-0.3155 -2.18981,-1.68077 -4.23176,-3.03393 -2.04195,-1.35316 -4.84373,-3.34369 -6.22618,-4.42338 -6.70449,-5.23623 -12.9424004,-8.90992 -16.3339104,-9.61951 -0.9408,-0.19684 -1.74545,-0.39563 -1.78812,-0.44175 -0.0427,-0.0461 3.8037,-2.90134 8.5475004,-6.34494 l 8.6251,-6.26108 1.73148,0.65128 c 2.22348,0.83634 3.90541,1.78329 7.76875,4.37393 l 3.12685,2.09676 -0.1831,-1.26865 c -0.55038,-3.8133 -1.99864,-8.0219 -3.32056,-9.64946 -0.34878,-0.42942 -0.62382,-1.21637 -0.69916,-2.00044 l -0.1242,-1.29253 6.34882,-3.62206 6.34883,-3.62206 0.18776,-1.25209 c 0.27858,-1.8577 1.20859,-4.10993 2.94921,-7.14218 l 1.55329,-2.70592 5.02708,-3.46941 c 7.44065,-5.13512 10.51797,-6.82076 14.43227,-7.90547 2.44413,-0.6773 3.7655,-0.68067 6.53523,-0.0167 3.76061,0.90158 6.14979,2.41792 6.59317,4.1845 0.22123,0.88145 -0.47076,3.95938 -1.47108,6.54331 -0.87629,2.26355 -3.23221,6.09583 -5.42093,8.818 -2.15743,2.68328 -7.26568,6.46421 -11.3421,8.39499 -0.98649,0.46725 -0.99218,0.47919 -0.99218,2.08153 0,2.4545 0.49058,5.84035 1.07098,7.39161 0.63892,1.70766 2.0845,3.44311 3.44703,4.13822 1.17915,0.60156 3.95949,1.30305 5.18719,1.30876 0.73537,0.003 1.14763,-0.33859 3.26442,-2.70807 2.532,-2.83428 5.49181,-7.06161 7.44559,-10.63416 l 1.1492,-2.10133 9.64889,-4.31481 c 5.3069,-2.37315 9.678993,-4.31481 9.715763,-4.31481 0.11664,0 -3.631873,6.13595 -5.010733,8.20209 -5.45135,8.1685 -12.18829,14.14972 -22.6064,20.07054 -4.80063,2.72829 -14.17074,7.12522 -15.89806,7.46017 -0.91305,0.17706 -1.70272,0.39515 -1.75483,0.48467 -0.0521,0.0895 0.0489,1.14041 0.22453,2.33534 l 0.31926,2.17259 -3.45923,2.29642 c -5.10963,3.39205 -9.15804,6.49587 -11.93295,9.1487 -2.29148,2.19067 -2.47662,2.31308 -2.64581,1.74926 z m 17.33724,-14.23228 c 0,-0.14552 -0.12609,-0.26458 -0.2802,-0.26458 -0.15411,0 -0.20661,0.11906 -0.11667,0.26458 0.0899,0.14552 0.21602,0.26459 0.28019,0.26459 0.0642,0 0.11668,-0.11907 0.11668,-0.26459 z m 7.94582,-35.35023 c 1.74168,-1.39805 3.16668,-2.5957 3.16668,-2.66145 0,-0.0657 -0.0893,-0.0685 -0.19844,-0.006 -0.10914,0.0624 -1.59742,0.91284 -3.30729,1.88979 -2.85209,1.62957 -3.10885,1.84001 -3.10885,2.54794 0,0.42441 0.0633,0.77166 0.14061,0.77166 0.0773,0 1.56562,-1.14386 3.30729,-2.5419 z m 116.930633,44.72688 c -1.66392,-3.88177 -2.36758,-5.39526 -4.15275,-8.93216 -1.0885,-2.15663 -2.12709,-3.97793 -2.30796,-4.04733 -0.18088,-0.0694 -0.94279,0.11578 -1.69314,0.41154 -0.75035,0.29576 -1.36427,0.481 -1.36427,0.41165 0,-0.0694 0.37029,-0.95424 0.82286,-1.9664 l 0.82287,-1.84029 -2.56405,-4.52607 c -2.55761,-4.51472 -5.82712,-9.58333 -9.89889,-15.34592 -2.51174,-3.55475 -3.27988,-5.44984 -2.66315,-6.57034 0.53956,-0.98032 2.23225,-1.76503 5.23443,-2.42662 5.80549,-1.27936 10.11608,-2.3973 12.61156,-3.27079 2.57292,-0.9006 2.66041,-0.91281 3.175,-0.443 0.75101,0.68566 3.64372,2.09415 10.16933,4.95154 l 5.67143,2.48336 1.3397,-1.26468 c 0.73684,-0.69557 2.9472,-2.8181 4.91191,-4.71671 1.96472,-1.89862 4.74164,-4.53563 6.17095,-5.86002 l 2.59874,-2.40798 -1.6727,-1.19331 c -6.07316,-4.33263 -14.32745,-9.00075 -18.47374,-10.44763 -2.99018,-1.04344 -6.19766,-1.73776 -7.04517,-1.52504 l -0.6862,0.17222 0.60591,-1.00456 c 1.65266,-2.74002 4.17836,-5.42468 9.90359,-10.52689 6.19679,-5.52245 8.47931,-6.99442 15.61041,-10.06696 2.61938,-1.1286 6.78657,-3.00072 9.26042,-4.16027 7.99908,-3.74934 8.61604,-3.91046 17.04599,-4.45169 9.24174,-0.59334 16.4723,0.70012 25.0743,4.4855 6.44237,2.83501 10.44993,5.36678 13.86267,8.75772 4.47997,4.45134 5.93356,7.18587 7.03701,13.23823 0.66767,3.66208 0.66944,16.86162 0.003,21.10442 -1.11418,7.09156 -3.29569,12.05272 -8.22038,18.69465 -3.18404,4.29431 -9.3054,9.98235 -13.40016,12.45156 -0.94312,0.56872 -3.89649,2.50069 -6.56303,4.29327 -7.37139,4.95538 -10.80586,6.43885 -14.85264,6.41536 -1.9838,-0.0115 -4.52881,-0.65221 -4.68353,-1.17905 -0.0427,-0.14552 1.99753,-1.33192 4.53393,-2.63645 2.5364,-1.30452 4.56886,-2.41463 4.51659,-2.4669 -0.0523,-0.0523 -0.45738,0.0923 -0.90024,0.32134 -1.57658,0.81528 -1.18396,0.39731 0.76287,-0.81213 2.89776,-1.80019 4.71265,-3.26056 7.27455,-5.85352 5.18839,-5.25129 9.50877,-11.97509 11.38214,-17.714 1.4776,-4.5265 1.87359,-9.18493 1.46827,-17.27271 -0.54514,-10.87782 -1.95779,-14.50672 -7.79877,-20.03392 -2.76002,-2.61175 -5.90012,-4.72247 -9.72214,-6.53503 -8.91243,-4.22665 -18.23987,-5.91718 -27.0679,-4.90587 -2.14759,0.24603 -2.47439,0.36102 -3.56547,1.2546 -2.18761,1.79163 -7.55241,6.83055 -8.25995,7.75822 l -0.69597,0.91249 2.28347,1.04268 c 3.3711,1.53931 7.27198,3.79435 12.41671,7.17791 2.51734,1.65559 4.70897,3.01016 4.87028,3.01016 0.28067,0 12.76172,-3.82872 16.85923,-5.17179 1.08066,-0.35421 2.00739,-0.60146 2.05941,-0.54945 0.15249,0.1525 -1.51846,1.49783 -4.04984,3.26066 -2.92598,2.03762 -8.61867,6.69847 -8.51666,6.97296 0.0416,0.11187 1.50434,1.29265 3.25059,2.62394 4.5322,3.45522 9.18474,7.49177 13.73176,11.91369 3.65005,3.54962 7.83178,8.19624 7.83178,8.70245 0,0.36216 -19.31936,9.12836 -19.54422,8.86823 -0.11433,-0.13226 -0.79123,-1.07391 -1.50422,-2.09256 -2.96228,-4.23223 -9.49196,-10.98098 -15.19948,-15.70943 l -2.24896,-1.86318 -1.40849,1.37797 c -1.42008,1.38932 -8.79547,9.29327 -10.32399,11.06387 l -0.82412,0.95465 3.61442,1.92679 c 1.98793,1.05973 5.40848,2.96377 7.60122,4.2312 7.33802,4.24147 15.08329,8.64464 16.75294,9.52403 0.90951,0.47902 1.65299,0.94366 1.65218,1.03253 -8e-4,0.0889 -1.40151,0.87595 -3.11268,1.74907 -1.71117,0.87313 -5.86304,3.00888 -9.22638,4.74612 l -6.11516,3.15862 -4.06747,-2.66118 c -5.00911,-3.27727 -10.80353,-6.87074 -14.62953,-9.07266 -2.74854,-1.58183 -2.90683,-1.63857 -3.25263,-1.16578 -0.836,1.14297 -0.71139,1.4713 2.85689,7.52785 1.92274,3.26353 3.78444,6.39143 4.1371,6.95088 0.35266,0.55946 0.57975,1.07863 0.50465,1.15374 -0.20323,0.20323 -19.04965,8.80903 -19.29179,8.80917 -0.11431,6e-5 -0.4406,-0.54289 -0.72508,-1.20657 z m -2.63895,-47.85791 c 0,-0.27926 -0.50777,-0.39659 -0.65879,-0.15222 -0.0914,0.14789 0.0194,0.2689 0.2463,0.2689 0.22687,0 0.41249,-0.0525 0.41249,-0.11668 z m 44.18541,-44.86249 c 1.38245,-0.71282 2.43911,-1.30208 2.34814,-1.30948 -0.26292,-0.0214 -4.2107,1.81599 -4.82227,2.24434 -1.06491,0.7459 -0.0193,0.35081 2.47413,-0.93486 z m 106.09792,55.40948 c -0.3638,-0.0648 -1.37583,-0.24635 -2.24896,-0.40355 -2.41736,-0.43524 -6.37264,-1.76485 -8.73125,-2.93509 -9.15753,-4.54358 -15.3118,-12.10306 -16.13859,-19.82352 -0.43305,-4.04375 2.24992,-9.74306 9.20197,-19.54732 3.61652,-5.10028 6.21256,-6.97063 12.44715,-8.96775 7.53125,-2.41248 13.66243,-1.28998 17.3847,3.18279 1.58305,1.90223 3.7519,5.93667 5.54532,10.31528 l 1.36789,3.3397 -4.85005,6.77212 c -2.66753,3.72467 -4.91592,6.77594 -4.99641,6.78062 -0.0805,0.005 -0.42171,-0.84642 -0.75824,-1.89131 -0.90836,-2.82038 -4.82267,-10.46911 -6.10069,-11.92102 -1.6742,-1.90199 -4.35451,-3.12872 -7.22762,-3.30797 -3.37524,-0.21058 -7.26201,0.68099 -10.85081,2.489 l -1.27122,0.64043 0.17506,1.24499 c 1.26414,8.99022 10.06132,17.12877 21.11614,19.5352 1.99436,0.43413 7.01623,0.58856 8.06559,0.24802 0.39346,-0.12768 2.45087,-2.66123 5.62147,-6.92241 2.75048,-3.69656 5.07844,-6.72102 5.17325,-6.72102 0.35588,0 -0.16497,4.72562 -0.78923,7.16057 -0.80568,3.1426 -2.15414,5.84871 -5.45881,10.95481 -1.41577,2.18753 -3.00909,4.66477 -3.54072,5.50498 -1.73542,2.74274 -4.80631,4.10089 -9.68903,4.2851 -1.532,0.0578 -3.08311,0.0521 -3.44691,-0.0127 z m -15.08125,-42.18031 c 0.15576,-0.29104 0.22367,-0.52917 0.15091,-0.52917 -0.0728,0 -0.25973,0.23813 -0.41549,0.52917 -0.15576,0.29104 -0.22367,0.52916 -0.15091,0.52916 0.0728,0 0.25973,-0.23812 0.41549,-0.52916 z m -210.37492,31.12337 c -0.96303,-1.0378 -2.272723,-2.47223 -2.910423,-3.18761 -0.6377,-0.71538 -2.3677,-2.32273 -3.84445,-3.57188 -1.47676,-1.24914 -4.07189,-3.4423 -5.76697,-4.87367 -4.31443,-3.64323 -10.11041,-7.95477 -13.73593,-10.21795 l -3.07485,-1.91943 7.472,-4.83595 7.472,-4.83595 0.15703,-2.47849 c 0.27615,-4.35858 1.30949,-6.14211 4.8374,-8.34927 3.84275,-2.40413 8.566353,-5.58334 11.145153,-7.50123 1.30969,-0.97403 2.75955,-1.96401 3.22192,-2.19997 0.85736,-0.43753 5.4222,-1.22906 7.08813,-1.22906 0.70945,0 2.95995,-1.16101 9.80447,-5.05802 4.88602,-2.78192 8.91937,-5.01434 8.96302,-4.96094 0.0436,0.0534 0.67745,0.99006 1.40847,2.08146 1.79236,2.67597 5.06913,6.3773 6.76054,7.63647 1.62494,1.20968 2.5612,1.72419 2.7656,1.51979 0.47434,-0.47433 -2.03339,-7.82684 -4.03127,-11.81947 -1.51639,-3.03039 -5.1395,-9.0113 -6.03906,-9.9691 -0.44339,-0.47209 -0.83272,-1.03927 -0.86518,-1.26041 -0.0804,-0.54776 -1.48239,-2.20411 -1.88566,-2.22776 -0.52856,-0.031 -0.72349,-1.36118 -0.3103,-2.11743 0.37519,-0.68671 1.98157,-1.56131 9.67916,-5.26982 1.91746,-0.92378 4.65034,-2.32276 6.07307,-3.10885 1.42274,-0.78609 2.66115,-1.42925 2.75203,-1.42925 0.0909,0 0.45348,0.61992 0.80577,1.3776 0.70798,1.52263 3.61443,4.61904 20.61952,21.96717 9.99004,10.19158 10.7341,11.05162 16.57732,19.16151 1.04274,1.44723 2.16817,3.19177 2.50096,3.87675 0.57157,1.17646 0.58716,1.35154 0.28151,3.16192 -0.48253,2.85812 -0.67041,3.02388 -5.23215,4.61594 -2.28144,0.79623 -6.11909,2.46159 -9.10349,3.9505 -2.88646,1.44005 -5.6839,2.65828 -6.35,2.7653 -0.65485,0.10522 -3.34691,1.03224 -5.98237,2.06004 -6.46287,2.52045 -8.89145,3.11639 -14.60055,3.58275 -5.7612,0.47061 -9.70468,0.71544 -9.5578,0.59339 0.0608,-0.0505 3.87074,-2.83695 8.46657,-6.19211 l 8.35605,-6.10028 3.28561,-0.17486 c 2.92236,-0.15552 9.50578,-0.84947 9.67627,-1.01995 0.0359,-0.0359 -0.62102,-1.13282 -1.45977,-2.43764 -1.70726,-2.65592 -4.18567,-5.80786 -7.09686,-9.02549 l -1.94991,-2.15518 -2.0431,0.86249 c -2.79872,1.18148 -8.15715,3.9009 -12.75872,6.4751 -4.08811,2.28696 -5.35394,2.77336 -8.41387,3.23312 -1.45296,0.21831 -2.42671,0.21035 -3.92985,-0.0321 -4.15625,-0.67048 -6.31888,-1.77378 -9.55411,-4.87418 l -2.18636,-2.09526 -5.44521,3.62899 c -5.19658,3.46328 -5.48213,3.61611 -6.25364,3.34716 -0.44464,-0.155 -0.89542,-0.28182 -1.00174,-0.28182 -0.55636,0 1.43299,7.89923 2.95141,11.7193 2.21318,5.56799 4.49288,9.37132 8.67592,14.47445 1.61033,1.96454 2.9289,3.7675 2.93016,4.00659 0.001,0.2391 0.18088,0.50325 0.39916,0.58701 0.53379,0.20483 0.50165,1.04273 -0.0661,1.72491 -0.25467,0.30597 -2.72521,1.7594 -5.49011,3.22985 -2.76489,1.47045 -6.63443,3.63158 -8.59896,4.80252 -1.96453,1.17094 -3.6314,2.15739 -3.70416,2.19211 -0.0728,0.0347 -0.92023,-0.78598 -1.88326,-1.82378 z m 270.94106,-13.05851 c -12.72446,-14.08031 -32.69546,-32.1294 -50.84803,-45.95466 -4.99407,-3.80356 -7.33686,-5.90735 -7.33686,-6.58841 0,-0.13844 0.60215,-1.30394 1.3381,-2.59 0.73596,-1.28606 2.18033,-4.09816 3.20971,-6.24911 2.17793,-4.55088 2.6074,-5.21855 3.74128,-5.81637 0.88632,-0.46729 -0.19535,-0.42772 27.69424,-1.01321 4.87495,-0.10234 9.25595,-0.26167 9.73556,-0.35406 l 0.87202,-0.16799 -1.40118,-1.04847 c -0.77066,-0.57666 -3.1276,-2.29186 -5.23765,-3.81156 -8.7901,-6.3308 -14.81666,-12.1202 -14.81666,-14.23356 0,-0.3457 0.82401,-1.52602 2.03429,-2.91395 2.42048,-2.77576 4.65431,-5.75129 6.21862,-8.2834 0.86867,-1.4061 1.24993,-1.81042 1.60282,-1.69971 0.2723,0.0854 0.46302,0.008 0.46302,-0.18705 0,-0.19128 0.21832,-0.0979 0.51447,0.21992 0.93591,1.00459 9.31097,3.56632 21.00707,6.42557 15.29762,3.73968 26.79519,5.55664 35.16543,5.55719 1.85539,1.2e-4 3.37344,0.0609 3.37344,0.13506 0,0.20135 -7.44535,14.24537 -7.70293,14.52989 -0.29679,0.32783 -8.53155,-1.02788 -19.23516,-3.16673 -4.70226,-0.93963 -8.61679,-1.70842 -8.69896,-1.70842 -0.0822,0 1.52189,1.63711 3.56458,3.63802 2.04268,2.00091 3.93212,4.05474 4.19874,4.56406 0.3586,0.685 0.48538,1.51145 0.48707,3.175 0.002,2.07692 -0.0762,2.40965 -1.02392,4.34954 -1.28585,2.63204 -4.26257,5.71733 -6.61202,6.85314 -2.21074,1.06876 -4.03087,1.19124 -22.1274,1.48898 -8.65849,0.14246 -15.832,0.26215 -15.94114,0.26597 -0.51986,0.0182 0.0408,0.65285 3.04271,3.44424 1.78263,1.65761 7.76552,7.26071 13.29531,12.45132 9.49664,8.91414 21.77634,20.1763 28.39114,26.03854 1.63624,1.45009 2.92381,2.76986 2.86128,2.93283 -0.10289,0.26811 -8.27745,13.08346 -8.4656,13.27161 -0.0438,0.0437 -1.55727,-1.55566 -3.36339,-3.55422 z M 342.50697,542.1702 c -0.40416,-0.40415 -0.70238,-0.10594 -0.47822,0.47821 0.13235,0.34491 0.2471,0.37909 0.48248,0.14371 0.23538,-0.23538 0.23437,-0.38329 -0.004,-0.62192 z m -299.214703,59.622 c -0.45731,-0.8236 -1.91894,-2.80714 -3.24807,-4.40787 -1.32913,-1.60073 -3.32525,-4.16057 -4.43581,-5.68854 -4.50239,-6.1946 -5.29719,-7.2623 -6.74859,-9.06581 -0.8326,-1.03458 -1.82673,-2.5434 -2.20919,-3.35294 -0.38245,-0.80953 -1.6014,-2.60297 -2.70876,-3.98542 -2.51423,-3.13878 -7.79784,-9.47228 -9.41893,-11.29051 l -1.22025,-1.36864 8.91425,-5.47112 c 4.90283,-3.00912 9.05073,-5.52351 9.21756,-5.58752 0.16683,-0.064 1.38158,1.22794 2.69946,2.87101 1.31787,1.64307 3.37539,4.1185 4.57225,5.50095 4.56047,5.26762 6.11077,7.20779 6.72202,8.41251 0.34738,0.68463 1.20985,2.00906 1.91662,2.94319 2.8696,3.79272 3.50388,4.65529 5.89825,8.0212 1.37311,1.93026 3.73955,4.95963 5.25876,6.73194 2.60377,3.03754 4.76282,6.28161 4.34104,6.52259 -0.10456,0.0597 -4.11917,2.36677 -8.92136,5.12675 -4.80219,2.75997 -8.97122,5.14583 -9.26451,5.30191 -0.47657,0.25361 -0.62165,0.12459 -1.36474,-1.21368 z m 39.18047,-18.76557 c -0.1586,-0.10691 -0.63485,-0.6733 -1.05833,-1.25864 -0.42349,-0.58534 -0.98546,-1.29972 -1.24883,-1.5875 -0.26337,-0.28778 -1.88908,-2.42824 -3.6127,-4.75657 -5.50474,-7.43603 -11.91991,-14.37883 -18.56809,-20.09525 -6.00202,-5.16083 -9.93335,-7.5474 -15.44784,-9.3778 -4.81017,-1.59663 -6.56184,-1.89401 -12.03106,-2.0425 l -4.89479,-0.1329 -9.12173,5.4087 -9.1217304,5.40869 -0.99836,-1.13419 c -0.54909,-0.62381 -2.12955,-2.05339 -3.51212,-3.17684 -1.38257,-1.12346 -2.50928002,-2.11733 -2.50379002,-2.20861 0.0112,-0.18608 17.59859042,-10.97231 18.07823042,-11.08726 0.16839,-0.0403 1.01922,0.53377 1.89075,1.27583 0.87152,0.74206 1.77021,1.45171 1.99708,1.57699 0.30111,0.16629 1.40843,-0.42878 4.10104,-2.20385 2.0287,-1.33741 5.21933,-3.41951 7.09029,-4.62689 l 3.40173,-2.19525 -4.06832,-4.15277 c -5.26578,-5.37509 -16.85236,-18.47949 -19.0424,-21.53692 -0.51211,-0.71493 -0.51205,-0.71564 0.0922,-1.09958 2.073,-1.31721 17.71555,-10.48606 17.87376,-10.47669 0.10635,0.006 0.84822,1.08953 1.64858,2.40717 1.88703,3.10661 5.83122,8.36175 9.56784,12.74794 4.3564,5.11371 9.79542,11.02718 10.14244,11.02718 0.16601,0 2.61544,-2.02612 5.44317,-4.50248 l 5.14134,-4.50249 7.72303,-3.05404 c 7.26663,-2.87358 7.72787,-3.09575 7.8052,-3.75963 0.0592,-0.50778 0.46499,-0.96689 1.44769,-1.63774 0.75103,-0.51269 3.37041,-2.38099 5.82084,-4.15179 6.65284,-4.80765 11.21689,-7.39938 15.832413,-8.99055 3.43324,-1.18358 5.14027,-1.45225 10.18646,-1.60324 l 4.89479,-0.14646 -8.7807,6.38463 c -6.04018,4.39194 -8.992353,6.38463 -9.458853,6.38463 -0.53462,0 -0.67816,0.13104 -0.67816,0.61913 0,1.26843 1.08736,4.80487 2.198753,7.15105 1.27067,2.6824 2.2301,3.68885 3.96484,4.15916 2.07649,0.56296 6.66219,1.31064 8.17901,1.33357 l 1.51032,0.0228 2.59073,-2.64714 c 5.28136,-5.39638 9.50699,-7.09753 17.96464,-7.23217 3.37422,-0.0537 3.77226,-0.009 4.8473,0.5457 1.51149,0.77978 3.75009,2.9005 5.18442,4.91142 1.54249,2.16256 5.33652,8.19165 6.0891,9.67618 0.73241,1.44475 1.44589,4.07246 1.44589,5.32516 0,3.02208 -4.23894,7.33682 -11.79014,12.00098 -1.59183,0.98323 -4.62064,2.9376 -6.73069,4.34304 -9.7248,6.47741 -13.38413,8.10879 -19.69888,8.78204 -1.60765,0.1714 -6.73647,0.32113 -11.39739,0.33274 l -8.474393,0.0211 -1.549,-0.92604 c -1.44548,-0.86416 -2.82206,-2.11137 -5.26118,-4.76674 -0.94427,-1.02798 -1.00006,-1.18254 -0.92604,-2.56544 l 0.0787,-1.47155 9.49628,-4.19709 c 5.222953,-2.30841 9.538963,-4.1971 9.591143,-4.1971 0.0522,0 0.0949,0.13249 0.0949,0.29442 0,0.36301 1.11081,1.79098 2.49746,3.21055 1.97986,2.02686 2.33378,2.09361 11.08183,2.09009 8.87599,-0.004 11.29092,-0.22831 12.26896,-1.14181 2.41513,-2.25576 1.77511,-5.27531 -2.59133,-12.22567 -1.76156,-2.80399 -4.2184,-5.62281 -5.69751,-6.53695 l -0.9133,-0.56445 -3.22983,2.0545 c -6.22192,3.9578 -6.95409,4.36019 -9.57982,5.26497 -4.04813,1.39491 -6.9712,1.8398 -12.038543,1.83225 -3.46594,-0.005 -4.91089,-0.12448 -7.01146,-0.57899 -4.39786,-0.95157 -4.60785,-1.04139 -6.20427,-2.65385 -1.31157,-1.32475 -1.63682,-1.89005 -2.83975,-4.93569 -1.70012,-4.30443 -2.19578,-6.20383 -2.21937,-8.50485 -0.0309,-3.01756 0.0195,-3.02085 -3.68557,0.24025 -4.26202,3.75136 -7.17199,5.90967 -14.01478,10.39471 l -5.56459,3.64726 3.08896,3.19673 c 1.69893,1.75821 7.46314,7.54252 12.80936,12.85403 10.50509,10.4369 17.53725,18.09409 21.99026,23.94479 1.5506,2.03729 3.39341,4.25358 4.09513,4.92508 1.31072,1.25425 3.155833,2.35096 3.955263,2.35096 0.80585,0 0.14773,0.33382 -2.08179,1.05596 -1.201813,0.38927 -3.673383,1.29319 -5.492393,2.00871 l -3.30729,1.30096 -4.18419,4.16719 c -2.30131,2.29195 -4.20631,4.16536 -4.23334,4.16313 -0.027,-0.002 -0.1789,-0.0915 -0.3375,-0.19844 z m 42.929183,-71.90762 c 0.63125,-0.36994 1.14772,-0.73844 1.14772,-0.81889 0,-0.11984 -2.24454,1.07603 -2.62378,1.39793 -0.40484,0.34362 0.52223,-0.0201 1.47606,-0.57904 z m 8.82388,-4.34751 c 1.08963,-0.57826 1.8357,-1.05451 1.65795,-1.05833 -0.55535,-0.012 -3.09842,1.20862 -3.47953,1.67005 -0.50013,0.60553 -0.42386,0.57992 1.82158,-0.61172 z m 73.58126,72.29044 c -0.3066,-0.25467 -2.79469,-3.38006 -5.52909,-6.94532 l -4.97163,-6.48229 -3.69449,-2.45266 c -6.91342,-4.58959 -13.02166,-7.0031 -20.0624,-7.92709 l -1.55123,-0.20358 8.62233,-6.26191 8.62233,-6.26191 1.66015,0.38689 c 0.91308,0.21279 1.94121,0.45725 2.28473,0.54325 0.56002,0.1402 0.60378,0.0911 0.42337,-0.47498 -0.11066,-0.34724 -0.21313,-0.8004 -0.2277,-1.00702 -0.016,-0.2267 2.25553,-1.64138 5.72819,-3.56746 l 5.75469,-3.1918 3.2e-4,-1.5919 c 5e-4,-2.50678 0.76606,-8.47414 1.47121,-11.46771 2.47483,-10.50657 6.88729,-14.41516 22.07638,-19.55543 l 4.36563,-1.47741 3.57187,-0.0156 c 3.7347,-0.0163 5.31625,0.28099 7.86216,1.4777 1.1704,0.55016 2.21464,1.94614 2.55305,3.41302 0.38988,1.69 -1.67223,6.46586 -5.30014,12.27514 l -1.9828,3.175 -7.67099,3.27798 c -7.57417,3.2366 -7.66887,3.28669 -7.50315,3.96875 0.68104,2.80302 5.5641,7.01292 11.90958,10.26776 4.50984,2.31327 11.34152,4.31364 14.73201,4.31364 h 1.3121 l 1.27172,-2.71198 c 0.69944,-1.49159 1.72811,-4.108 2.28593,-5.81426 0.86018,-2.63111 1.11631,-3.14026 1.68644,-3.35238 0.36972,-0.13756 4.54175,-2.08876 9.27118,-4.33602 4.72942,-2.24725 8.64096,-4.05027 8.6923,-4.0067 0.12355,0.10484 -0.84243,3.02999 -2.11707,6.41086 -2.27965,6.04656 -4.88035,10.31494 -8.41469,13.81048 -3.67571,3.63538 -8.30519,6.3953 -15.22617,9.0773 -7.14747,2.76976 -6.81755,2.69666 -12.17083,2.69666 -6.52768,0 -10.42938,-0.8981 -16.7349,-3.85207 -1.49158,-0.69877 -2.71198,-1.24238 -2.71198,-1.20802 0,0.22219 2.14576,5.30947 3.70959,8.7949 1.02295,2.27994 1.80827,4.19698 1.74516,4.2601 -0.0631,0.0631 -0.19319,-0.13234 -0.28904,-0.43435 -0.19793,-0.6236 -0.72894,-0.71615 -1.15607,-0.20149 -0.2202,0.26532 -0.006,0.65683 0.90501,1.65365 1.18696,1.29887 1.2736,1.24732 0.69543,-0.41376 -0.20994,-0.60317 0.0927,-0.23212 0.55869,0.68489 l 0.41524,0.81719 -1.36508,1.0349 c -3.05052,2.31267 -7.14877,6.0604 -10.49369,9.59619 -1.94691,2.05801 -3.74601,3.74183 -3.99801,3.74183 -0.252,0 -0.70904,-0.20836 -1.01564,-0.46302 z m 18.07179,-58.67136 c 1.20303,-2.51233 1.8006,-4.3592 1.63018,-5.03823 -0.19308,-0.76928 -2.20995,-1.70443 -2.53649,-1.17607 -0.43084,0.6971 -1.30454,6.63176 -1.30439,8.86013 l 9e-5,1.32292 0.66187,-1.05833 c 0.36403,-0.58209 1.06096,-1.89177 1.54874,-2.91042 z m -94.39559,43.59011 c -0.071,-0.25467 -0.21554,-0.76068 -0.32114,-1.12448 -0.17775,-0.61231 -0.13858,-0.59797 0.52713,0.19302 0.39553,0.46996 0.64406,0.97598 0.55228,1.12448 -0.25545,0.41333 -0.61467,0.32189 -0.75827,-0.19302 z M 336.48082,537.6954 c -0.23325,-0.37742 0.53893,-1.1496 0.91635,-0.91634 0.15948,0.0986 0.28997,0.41031 0.28997,0.69276 0,0.56198 -0.89469,0.7278 -1.20632,0.22358 z m -45.88951,-12.20913 c 0.42222,-0.42917 15.21727,-11.84201 15.85474,-12.23028 0.20713,-0.12617 3.12417,-0.96143 6.48229,-1.85614 l 6.10567,-1.62674 -0.0893,-0.88951 c -0.12821,-1.27682 -2.24756,-7.73428 -3.5826,-10.9159 -1.57956,-3.76433 -4.47708,-9.49079 -4.68369,-9.25653 -0.0941,0.1067 -0.5049,1.05995 -0.91288,2.11833 l -0.74178,1.92435 -6.37194,3.79705 c -12.44491,7.41594 -13.4102,7.93962 -14.61148,7.9269 -1.86764,-0.0198 -5.39817,-2.28825 -9.17535,-5.89545 -2.21696,-2.11719 -6.40507,-6.84752 -6.22343,-7.02916 0.059,-0.059 3.8539,-2.32741 8.43318,-5.04099 4.57928,-2.71358 8.70322,-5.16422 9.16431,-5.44586 l 0.83835,-0.51208 1.37751,1.99264 c 0.75763,1.09595 1.4817,1.99264 1.60905,1.99264 0.59362,0 -0.008,-8.51623 -0.8259,-11.68667 -1.61187,-6.24981 -4.2593,-11.86095 -6.07862,-12.88347 -0.91976,-0.51693 -0.99828,-0.52189 -1.46743,-0.0927 -0.47008,0.43006 -0.47731,0.42914 -0.14016,-0.0178 0.30218,-0.4006 0.29159,-0.51965 -0.0706,-0.79375 -0.63354,-0.47945 -0.92046,-1.50931 -0.6968,-2.50102 0.70907,-3.14392 7.73537,-8.34457 13.12111,-9.71185 2.02324,-0.51364 4.86459,-0.53253 5.98958,-0.0398 2.72664,1.19416 13.1346,13.96373 21.49524,26.37258 4.0419,5.999 9.11589,16.68128 12.01246,25.28986 1.69628,5.04135 1.86456,6.26812 1.08166,7.88538 -1.33117,2.74984 -4.86738,5.60851 -9.6689,7.81632 -3.4683,1.59478 -8.54017,3.26834 -16.49457,5.4427 -7.40045,2.02294 -20.72547,5.77848 -21.63251,6.09694 -0.44024,0.15457 -0.45083,0.12951 -0.0972,-0.22993 z m 26.19375,-11.57798 c 0,-0.14552 -0.12609,-0.26458 -0.2802,-0.26458 -0.15411,0 -0.20662,0.11906 -0.11668,0.26458 0.0899,0.14552 0.21603,0.26458 0.2802,0.26458 0.0642,0 0.11668,-0.11906 0.11668,-0.26458 z m -11.22922,-22.10731 c 0.48427,-0.38798 0.47583,-0.39348 -0.14787,-0.0965 -0.80989,0.38571 -0.95999,0.50793 -0.62383,0.50793 0.14196,0 0.48923,-0.18517 0.7717,-0.41148 z m 66.81057,19.13094 c 0.16346,-16.09489 0.34058,-18.47771 1.9815,-26.65697 2.535,-12.63585 5.9561,-20.76497 15.27383,-36.29322 6.05959,-10.09846 9.12705,-16.14771 10.71328,-21.12737 1.54303,-4.84405 1.77604,-6.49347 1.77458,-12.5617 -10e-4,-5.93716 -0.2418,-7.80343 -1.63576,-12.7 -1.29401,-4.54547 -4.33725,-11.62645 -6.12759,-14.25761 l -0.51976,-0.76386 -1.57978,2.15669 c -0.86888,1.18618 -2.27859,3.22548 -3.1327,4.53178 l -1.55291,2.37508 -2.91042,1.23407 c -4.97654,2.11016 -4.69986,2.00946 -4.47453,1.62858 0.11204,-0.18937 0.4978,-0.73603 0.85724,-1.2148 0.63806,-0.84985 0.64978,-0.95016 0.4948,-4.23333 -0.25978,-5.50348 -1.724,-12.45561 -3.99644,-18.97518 -0.65761,-1.88666 -1.40146,-3.58079 -1.653,-3.76471 -0.25153,-0.18393 -0.32903,-0.33442 -0.17222,-0.33442 0.15681,0 0.36968,-0.56398 0.47305,-1.25328 0.47379,-3.15946 2.64997,-5.16075 5.11491,-4.70384 0.53622,0.0994 1.51072,0.46343 2.16557,0.80896 0.96258,0.50791 1.87474,0.68247 4.76249,0.91142 4.93905,0.39157 7.12561,0.66122 14.2875,1.76194 3.41974,0.52558 6.36654,1.07387 6.54844,1.21843 0.89193,0.70882 -0.0818,2.1507 -2.95575,4.37698 -0.59065,0.45754 -0.69984,0.67182 -0.46302,0.90865 0.17045,0.17045 0.30991,0.51409 0.30991,0.76365 0,0.54611 -2.11348,2.27302 -4.56883,3.73317 -0.98489,0.5857 -1.84577,1.15399 -1.91306,1.26287 -0.0673,0.10888 0.48076,1.19536 1.2179,2.4144 3.66752,6.06519 6.67206,13.78785 8.10272,20.82665 0.72135,3.54903 0.64562,12.21271 -0.13832,15.82472 -1.45864,6.72069 -5.01485,14.3983 -12.35974,26.68383 -7.13277,11.93073 -9.392,16.34853 -12.04226,23.54791 -5.40052,14.67048 -6.58396,27.07159 -4.60453,48.25056 0.22257,2.38135 0.36676,4.36763 0.32043,4.41396 -0.21963,0.21963 -7.35123,4.08863 -7.53674,4.0888 -0.11657,10e-5 -0.14392,-6.69716 -0.0608,-14.88281 z m -109.77415,13.53396 c -1.3264,-1.47808 -3.02088,-2.68236 -5.56807,-3.95727 -3.87313,-1.93856 -7.02434,-2.74277 -11.60681,-2.96213 l -1.38538,-0.0663 4.48825,-3.24627 4.48825,-3.24627 -1.04682,-1.7103 c -2.59493,-4.23961 -4.42756,-8.97299 -5.05109,-13.04616 -0.77949,-5.09198 1.546,-10.08147 7.26575,-15.5891 4.84622,-4.6665 10.25985,-8.37166 16.95276,-11.60271 4.03468,-1.94777 9.87413,-4.15782 9.14346,-3.46052 -0.21828,0.20832 -3.17722,2.53563 -6.57541,5.17182 -3.39819,2.63618 -6.09787,4.79305 -5.99928,4.79305 0.0986,0 1.03345,-0.49201 2.07748,-1.09336 1.04404,-0.60136 2.31497,-1.32597 2.82429,-1.61026 l 0.92604,-0.51689 -0.76469,0.60101 c -1.37048,1.07713 -4.98771,5.87906 -5.95938,7.91117 -0.91326,1.90996 -0.94762,2.08855 -0.91607,4.7625 0.0569,4.82519 1.43119,8.9029 4.99244,14.81357 3.25955,5.40994 7.24832,10.19253 9.94279,11.92157 1.9893,1.27653 1.81331,1.55102 -1.93728,3.02139 -7.01618,2.75062 -7.36673,2.96498 -11.06762,6.76771 -1.83483,1.88531 -3.54186,3.42785 -3.79342,3.42785 -0.25155,0 -0.89513,-0.48784 -1.43019,-1.08408 z M 53.009537,504.18485 c 0.0659,-2.63046 0.15562,-2.34926 -2.38292,-7.47158 -2.01692,-4.06978 -3.64479,-6.6745 -6.45071,-10.32165 -0.95163,-1.23693 -1.64716,-2.33362 -1.54564,-2.43709 0.30054,-0.3063 18.03328,-10.79246 18.24295,-10.78787 0.27641,0.006 6.74639,9.90671 7.60497,11.63746 0.39703,0.80037 1.44822,2.70236 2.33597,4.22667 l 1.61408,2.77145 0.0329,3.36488 0.0329,3.36487 -1.21645,0.51964 c -7.65114,3.26841 -17.75705,7.44833 -18.00806,7.44833 -0.22777,0 -0.30151,-0.65679 -0.25994,-2.31511 z m 118.254693,-9.28016 c -3.29125,-0.98382 -8.96976,-3.06443 -11.01741,-4.03679 -2.32694,-1.10498 -4.14079,-2.83921 -5.18023,-4.95284 -0.84347,-1.71513 -0.86767,-1.85851 -0.85656,-5.07598 0.0185,-5.35236 1.03637,-9.52832 3.63391,-14.90814 l 1.38174,-2.86175 7.44331,-3.37682 c 6.04114,-2.7407 7.86038,-3.69187 9.65729,-5.04925 3.4145,-2.5793 4.60271,-3.04916 7.63795,-3.02033 4.18059,0.0397 8.62836,1.39449 19.74916,6.0155 11.35997,4.7204 16.443,6.41337 20.66579,6.88299 l 2.75862,0.3068 -8.52279,6.15156 c -9.5012,6.85776 -8.72437,6.49772 -12.46866,5.77877 -1.06782,-0.20504 -2.76347,-0.68284 -3.76809,-1.06178 -1.00462,-0.37894 -1.84765,-0.65767 -1.87338,-0.61939 -0.0257,0.0383 -0.18463,1.14115 -0.3531,2.45084 -0.6418,4.98928 -1.56839,6.92487 -4.94276,10.32519 -4.7211,4.7574 -11.04404,7.45965 -17.99167,7.68915 -3.19278,0.10546 -3.61994,0.0597 -5.95312,-0.63773 z m 10.54351,-16.66377 c -0.0815,-2.05295 -0.20898,-2.56549 -1.07272,-4.31222 -0.68823,-1.39182 -1.47642,-2.45733 -2.64583,-3.57679 -1.63303,-1.56327 -4.06779,-3.20983 -4.34155,-2.93607 -0.0762,0.0762 -0.24217,1.24359 -0.36887,2.59423 -0.46715,4.98002 0.57597,7.09634 4.48647,9.10229 0.91299,0.46833 3.38681,1.40268 3.81021,1.4391 0.12362,0.0106 0.18315,-1.02911 0.13229,-2.31054 z"
       id="path158" /></g></svg>
