<?xml version="1.0" encoding="UTF-8" standalone="no"?>
<!-- Created with Inkscape (http://www.inkscape.org/) -->

<svg
   width="133.2159mm"
   height="99.060593mm"
   viewBox="0 0 133.2159 99.060593"
   version="1.1"
   id="svg1"
   xml:space="preserve"
   xmlns="http://www.w3.org/2000/svg"
   xmlns:svg="http://www.w3.org/2000/svg"><defs
     id="defs1" /><g
     id="layer1"
     transform="translate(931.21594,526.81935)"><path
       id="path285"
       style="opacity:0.6;fill:#f9f9f9"
       d="m -843.36192,-427.83897 c -0.0441,-0.0441 -0.0803,-0.17956 -0.0803,-0.30094 0,-0.15516 0.0894,-0.2207 0.30095,-0.2207 0.24076,0 0.30095,0.0602 0.30095,0.30095 0,0.21158 -0.0655,0.30095 -0.2207,0.30095 -0.12138,0 -0.2568,-0.0361 -0.30094,-0.0803 z m -85.3464,-10.53527 c 0.0833,-1.45608 0.11597,-1.40445 -0.58277,-0.92113 -0.38604,0.26702 -0.51141,0.28022 -0.42088,0.0443 0.0856,-0.22316 -0.0622,-0.32076 -0.28101,-0.18553 -0.22611,0.13974 -1.12631,-0.32007 -1.04442,-0.53347 0.0334,-0.0871 0.006,-0.21274 -0.0601,-0.27921 -0.0809,-0.0809 -0.0678,-0.20639 0.0395,-0.37948 0.10666,-0.17202 0.11895,-0.28763 0.0367,-0.34524 -0.22299,-0.15618 -0.11961,-0.74229 0.16625,-0.94252 0.36875,-0.25828 0.31687,-0.81258 -0.0814,-0.869 l -0.27952,-0.0396 0.25547,-0.26135 c 0.14051,-0.14374 0.44813,-0.5267 0.6836,-0.85102 0.50875,-0.7007 0.50032,-1.22038 -0.0271,-1.67408 l -0.32461,-0.27922 0.76833,-1.47942 c 0.67956,-1.3085 0.76577,-1.55101 0.74628,-2.09912 -0.0121,-0.34084 0.0799,-1.02599 0.20453,-1.52256 0.4839,-1.92834 0.51156,-3.46401 0.0773,-4.29196 -0.0988,-0.18845 -0.40005,-0.4768 -0.66935,-0.64078 -0.2693,-0.16398 -0.56874,-0.46148 -0.66542,-0.6611 -0.16056,-0.33152 -0.15496,-0.39429 0.0647,-0.72507 0.13227,-0.19917 0.38661,-0.62329 0.5652,-0.9425 0.17858,-0.3192 0.56135,-0.99633 0.85059,-1.50474 0.28924,-0.5084 0.60039,-1.05979 0.69144,-1.22532 0.21538,-0.39154 0.24762,-11.05093 0.0347,-11.47402 -0.0728,-0.14462 -0.37914,-0.483 -0.68081,-0.75196 -0.68065,-0.60685 -0.65256,-0.83014 0.22531,-1.79067 l 0.61637,-0.67441 -0.071,-12.84807 c -0.0391,-7.06643 -0.10599,-13.0547 -0.14873,-13.30725 l -0.0777,-0.45918 -0.28687,0.2695 c -0.28627,0.26894 -0.28687,0.26897 -0.28687,0.0165 0,-0.30987 -0.48121,-0.70636 -0.994,-0.81899 -0.20943,-0.046 -0.58608,-0.19064 -0.837,-0.32142 -0.41725,-0.21748 -0.45621,-0.28073 -0.45621,-0.74056 0,-0.27652 0.0813,-0.61876 0.18055,-0.76053 0.0993,-0.14177 0.15145,-0.33356 0.1159,-0.42621 -0.0468,-0.12201 0.94053,-0.66152 3.5813,-1.95688 2.00527,-0.98363 4.23027,-2.07493 4.94444,-2.42512 0.71416,-0.35018 1.26621,-0.58449 1.22678,-0.52068 -0.11397,0.18441 0.0907,0.13487 0.51721,-0.12518 0.21678,-0.13217 0.41992,-0.24031 0.45142,-0.24031 0.0315,0 0.0573,0.1809 0.0573,0.402 0,0.58902 0.32711,0.69593 1.84505,0.60306 1.02408,-0.0627 1.31172,-0.0406 1.66719,0.12813 0.39182,0.18593 1.0316,0.1997 7.27645,0.15662 5.83627,-0.0403 6.9397,-0.0756 7.47584,-0.23961 1.059,-0.3239 2.17783,-0.38169 2.80183,-0.14471 0.29793,0.11314 0.73453,0.23125 0.97021,0.26247 0.3964,0.0525 0.45422,0.0176 0.77178,-0.46532 0.52914,-0.80472 1.54536,-2.01302 3.63112,-4.31741 1.0504,-1.16051 2.27439,-2.5522 2.71998,-3.09265 0.44558,-0.54045 0.9602,-1.13087 1.1436,-1.31205 0.1834,-0.18117 0.23865,-0.25899 0.12278,-0.17293 -0.18643,0.13848 -0.21066,0.12124 -0.21066,-0.1499 0,-0.22256 -0.18115,-0.46114 -0.66208,-0.87202 -0.36415,-0.3111 -0.66209,-0.63823 -0.66209,-0.72694 0,-0.0887 0.23017,-0.22092 0.51161,-0.29381 1.99525,-0.51673 2.44153,-0.66929 3.10408,-1.06115 1.27886,-0.75637 3.64872,-2.60887 5.02688,-3.92948 1.50686,-1.44393 1.60873,-1.47897 2.66918,-0.91802 0.50746,0.26842 0.7227,0.32364 0.93982,0.24109 0.20233,-0.0769 0.25768,-0.0683 0.1966,0.0305 -0.0822,0.13305 0.24002,0.0945 0.70634,-0.0844 0.10807,-0.0415 0.19906,0.0209 0.23587,0.16169 0.072,0.27512 0.80461,0.42982 1.24415,0.26271 0.16086,-0.0612 0.29248,-0.092 0.29248,-0.0686 0,0.0234 -0.40628,0.34842 -0.90284,0.72216 -0.49656,0.37375 -0.90284,0.71176 -0.90284,0.75115 0,0.0394 0.17605,-0.0605 0.39123,-0.22188 0.21518,-0.16142 0.70415,-0.52755 1.0866,-0.81362 0.38246,-0.28608 0.72233,-0.49318 0.75528,-0.46023 0.033,0.0329 -0.0227,0.12843 -0.12357,0.21218 -0.10091,0.0838 -0.18348,0.2269 -0.18348,0.31811 0,0.38694 2.3112,-0.005 3.76308,-0.63755 0.58402,-0.2546 0.68031,-0.14427 0.28457,0.32605 -1.27364,1.51364 0.20091,2.42325 3.62032,2.23326 1.4705,-0.0817 1.49896,-0.0782 3.35715,0.40983 1.8231,0.47884 1.89496,0.50994 2.64171,1.14343 0.77602,0.65832 2.16403,1.39098 3.4872,1.84072 0.65404,0.2223 1.05778,0.248 4.27346,0.27198 l 3.55119,0.0265 2.58759,-0.80765 c 2.40179,-0.74965 2.61917,-0.79722 3.02748,-0.66247 0.6628,0.21875 2.14275,0.0417 3.29298,-0.39384 0.52967,-0.20058 2.00582,-0.86849 3.28034,-1.48425 1.27451,-0.61576 2.32202,-1.10998 2.32779,-1.09826 0.006,0.0117 0.0318,0.29957 0.0578,0.63966 0.0455,0.59434 0.033,0.6243 -0.32237,0.7715 -0.32107,0.13299 -0.36292,0.20214 -0.31788,0.52525 0.0285,0.20466 0.0741,0.44959 0.10122,0.54429 0.0322,0.11245 -0.44034,0.48594 -1.36203,1.07645 -0.77626,0.49734 -1.39349,0.92215 -1.37163,0.94402 0.11417,0.11416 2.07464,-0.76885 2.50464,-1.12811 l 0.49959,-0.41739 0.36637,0.36638 c 0.3571,0.3571 0.36268,0.38021 0.22044,0.91204 -0.0803,0.3001 -0.14594,0.62259 -0.14594,0.71663 0,0.094 0.34355,0.62142 0.76344,1.17197 0.41989,0.55054 0.83327,1.21291 0.91862,1.47193 0.10992,0.33356 0.54205,0.85557 1.48124,1.78931 l 1.32604,1.31836 0.0124,0.79884 c 0.0103,0.66292 0.0688,0.88041 0.34348,1.27822 0.1965,0.28453 0.33105,0.63991 0.33105,0.87438 0,0.21726 0.0677,0.50427 0.15047,0.63781 0.12403,0.20013 0.11874,0.26299 -0.0301,0.35766 -0.23982,0.15255 12.44879,0.15242 16.3768,-1.6e-4 1.625,-0.0631 3.69205,-0.19654 4.59346,-0.29648 0.90141,-0.0999 2.33457,-0.21556 3.1848,-0.25694 0.96255,-0.0469 1.83457,-0.16135 2.31093,-0.30345 0.84087,-0.25083 1.82974,-0.29756 2.19216,-0.1036 0.17808,0.0953 0.23284,0.25406 0.23284,0.67497 0,0.47762 0.0278,0.53865 0.21067,0.4618 0.52844,-0.22212 0.71999,-0.19691 0.97593,0.12847 0.35829,0.45549 0.32607,0.61058 -0.19524,0.93966 -0.51289,0.32378 -0.81999,0.65071 -0.71234,0.75836 0.0399,0.0399 -0.007,0.2619 -0.10322,0.49331 -0.36648,0.87709 -0.20157,1.51323 0.44229,1.70613 0.26293,0.0788 0.50745,0.21985 0.54339,0.3135 0.0359,0.0936 -0.22349,0.64126 -0.57651,1.21691 l -0.64185,1.04664 -0.0206,3.6818 c -0.0219,3.92466 0.0983,7.55589 0.37314,11.26569 0.18534,2.50232 0.25038,3.84253 0.43225,8.90805 0.22009,6.12979 1.48203,24.62014 1.86086,27.26588 0.0332,0.23173 0.19418,2.15904 0.35779,4.28291 0.29713,3.85729 0.398,4.46522 0.95161,5.73564 0.19013,0.43632 0.18808,0.45321 -0.0758,0.62611 -0.14917,0.0977 -0.93451,0.45034 -1.7452,0.78358 -0.8107,0.33324 -2.35456,1.02538 -3.43081,1.53809 l -1.95681,0.93221 -1.26399,-0.0304 c -0.69519,-0.0167 -2.27575,-0.11433 -3.51236,-0.21695 -1.83464,-0.15225 -2.29983,-0.15833 -2.52796,-0.0331 -0.15377,0.0844 -0.38688,0.17126 -0.51802,0.19296 -0.23756,0.0393 -0.23756,0.0388 -1.9e-4,-0.13474 0.13104,-0.0958 0.21125,-0.19732 0.17825,-0.22556 -0.0787,-0.0674 -6.04802,-0.57716 -6.71247,-0.57325 -0.28223,0.002 -0.9041,0.11136 -1.38194,0.24377 -1.19869,0.33218 -1.43224,0.31534 -1.68061,-0.12114 -0.2037,-0.35797 -0.21221,-0.36037 -1.27857,-0.36037 -0.59043,0 -1.85241,-0.0862 -2.80441,-0.19145 -1.64666,-0.18214 -2.05595,-0.1797 -2.97017,0.0177 -0.30527,0.0659 -0.38844,0.0473 -0.36114,-0.0806 0.0479,-0.22454 -4.08929,-0.4024 -13.50718,-0.58068 -3.93941,-0.0746 -8.84185,-0.18767 -10.89432,-0.25132 -6.15726,-0.19095 -31.94055,-0.3895 -40.3872,-0.311 -14.22278,0.13218 -20.66032,0.49508 -27.07526,1.52631 -2.97442,0.47816 -4.50044,0.88919 -6.23668,1.67987 l -0.50862,0.23162 z m 122.82444,-0.33897 c 0,-0.0662 -0.0574,-0.12038 -0.12748,-0.12038 -0.0701,0 -0.094,0.0542 -0.0531,0.12038 0.0409,0.0662 0.0983,0.12037 0.12748,0.12037 0.0292,0 0.0531,-0.0542 0.0531,-0.12037 z m -114.84171,-2.65827 0.30095,-0.24533 -0.39123,0.19091 c -0.21518,0.105 -0.39124,0.2166 -0.39124,0.248 0,0.11972 0.19177,0.0426 0.48152,-0.19358 z m 1.94596,-1.85704 c 5.95041,-1.00101 9.47816,-1.20339 24.11613,-1.38345 20.37104,-0.25059 19.81981,-0.23675 19.73769,-0.49549 -0.057,-0.1797 -0.011,-0.22661 0.22233,-0.22661 0.16184,0 0.82908,-0.16596 1.48275,-0.36879 1.59603,-0.49526 2.30073,-0.50975 3.26133,-0.0671 l 0.74865,0.34502 1.41733,-0.15268 c 0.88534,-0.0954 1.7989,-0.28164 2.43389,-0.49628 1.5163,-0.51255 1.80058,-0.47903 3.12165,0.36804 0.80361,0.51528 1.26631,0.7314 1.67673,0.78319 1.41316,0.17833 6.0591,0.3022 6.98408,0.18622 0.79687,-0.0999 1.05948,-0.0882 1.48844,0.0663 0.44575,0.1606 1.94429,0.20324 10.39195,0.29569 5.4291,0.0594 11.3337,0.15121 13.12133,0.20398 4.26659,0.12595 4.20961,0.12876 5.11611,-0.25269 0.43036,-0.18109 0.92959,-0.39007 1.1094,-0.46439 0.27946,-0.1155 0.36687,-0.0976 0.6019,0.12309 0.15123,0.14202 0.66544,0.42436 1.14269,0.62741 0.77417,0.32939 1.04024,0.37686 2.46777,0.4403 l 1.60004,0.0711 1.31238,-0.49936 c 1.5418,-0.58666 2.03746,-0.60779 2.09693,-0.0894 0.0467,0.40702 0.44585,0.59357 1.15808,0.54125 0.4545,-0.0334 0.50814,-0.0769 0.7699,-0.62525 0.67022,-1.40386 0.43678,-2.42437 -0.86537,-3.78304 -1.1376,-1.18698 -1.34913,-1.72929 -1.1635,-2.98285 0.0578,-0.39058 0.16471,-1.11643 0.23749,-1.61299 0.15341,-1.04672 0.51743,-1.87645 1.68829,-3.84828 1.67345,-2.8182 1.99757,-3.77253 2.3931,-7.04604 l 0.23273,-1.92606 -0.0652,1.86681 c -0.10097,2.8899 0.23578,4.19025 1.30833,5.05218 l 0.46701,0.37529 -5e-5,-0.69785 c -2e-5,-0.38382 -0.0819,-2.07921 -0.18184,-3.76752 -0.15855,-2.67737 -0.26617,-4.26865 -0.62048,-9.17505 -0.0417,-0.57719 -0.11371,-1.02601 -0.16006,-0.99736 -0.0463,0.0286 -0.12012,0.66341 -0.16394,1.41058 -0.1148,1.95775 -0.34585,4.44064 -0.40749,4.379 -0.029,-0.029 0.0663,-1.64143 0.21196,-3.58309 0.25159,-3.35459 0.26408,-5.5282 0.04,-6.97257 -0.15477,-0.99779 -1.63912,-1.18874 -3.44303,-0.44289 -0.57932,0.23952 -1.05331,0.39397 -1.05331,0.34321 0,-0.15407 0.4352,-0.49693 0.52138,-0.41075 0.0443,0.0443 0.0811,0.004 0.0818,-0.09 7.2e-4,-0.0938 0.35913,-0.7935 0.79647,-1.5549 0.43734,-0.7614 1.1701,-2.22401 1.62835,-3.25024 0.79708,-1.78501 0.82976,-1.89457 0.75407,-2.52796 -0.0435,-0.36415 -0.14902,-0.74334 -0.23445,-0.84265 -0.11909,-0.13843 -0.13103,-0.41878 -0.0512,-1.20119 0.0595,-0.58279 0.0563,-3.13906 -0.007,-5.95877 -0.0613,-2.71598 -0.11306,-5.14061 -0.115,-5.38806 -0.003,-0.39237 -0.0651,-0.48878 -0.48502,-0.75388 -0.26484,-0.16718 -0.48152,-0.39162 -0.48152,-0.49874 0,-0.10713 0.19332,-0.46387 0.4296,-0.79275 0.23628,-0.32888 0.41233,-0.61425 0.39123,-0.63414 -0.0211,-0.0199 -0.58007,0.17468 -1.24216,0.43239 -0.66208,0.25772 -1.32258,0.4689 -1.46776,0.46929 -0.14519,4e-4 -0.44376,0.10681 -0.66351,0.23646 -0.38046,0.22448 -2.2077,0.72467 -2.6538,0.72646 -0.11586,4.6e-4 -0.21066,-0.071 -0.21066,-0.15874 0,-0.0878 -0.13543,-0.28681 -0.30095,-0.44231 -0.16552,-0.1555 -0.30115,-0.23266 -0.3014,-0.17146 -2.4e-4,0.0612 -0.10516,-0.0605 -0.23314,-0.27035 -0.27875,-0.45716 -0.4336,-0.48114 -3.69205,-0.57179 -2.85325,-0.0794 -3.10827,-0.17297 -5.40195,-1.98275 -0.43995,-0.34714 -1.09242,-0.68636 -1.90078,-0.98825 -0.67698,-0.25281 -1.1767,-0.4613 -1.11049,-0.46329 0.0662,-0.002 0.79751,0.11952 1.62512,0.27003 1.38616,0.25209 1.69446,0.26641 3.91232,0.1817 1.32417,-0.0506 3.38265,-0.17923 4.57441,-0.28591 1.19175,-0.10667 3.21072,-0.23346 4.4866,-0.28174 1.5118,-0.0572 2.36923,-0.13724 2.46175,-0.22976 0.17002,-0.17002 1.05922,-0.169 -9.47631,-0.0108 -4.50218,0.0676 -9.37754,0.13617 -10.83413,0.15236 -2.20766,0.0246 -2.85366,0.0739 -3.88224,0.29657 -1.54204,0.33383 -3.05199,0.87505 -3.95014,1.41589 -0.5739,0.34559 -0.76353,0.40266 -1.1238,0.33823 -0.23836,-0.0426 -0.53669,-0.16545 -0.66295,-0.27293 -0.21677,-0.18452 -0.22579,-0.18032 -0.16175,0.0754 0.0784,0.31313 0.0762,0.3141 -0.31208,0.13718 -0.31926,-0.14547 -0.46405,-0.37744 -0.72322,-1.15866 l -0.16915,-0.50986 0.99186,-0.54066 0.99185,-0.54066 0.19299,-1.29687 c 0.10614,-0.71328 0.22233,-1.65115 0.2582,-2.08416 l 0.0652,-0.7873 -2.27841,-2.25472 c -2.27757,-2.25389 -2.77904,-2.90567 -2.77904,-3.61201 0,-0.25502 -0.0571,-0.32301 -0.27085,-0.32254 -0.26216,5.7e-4 -1.54025,0.60344 -2.21091,1.04287 l -0.32848,0.21522 0.19795,-0.3021 c 0.14229,-0.21717 0.17115,-0.40257 0.10263,-0.65944 l -0.0953,-0.35733 -2.63993,-0.0739 c -1.45196,-0.0406 -3.45248,-0.13344 -4.44561,-0.20626 -0.99313,-0.0728 -3.82107,-0.16004 -6.28432,-0.19382 -2.46325,-0.0338 -6.90524,-0.1688 -9.87109,-0.30005 -2.96585,-0.13125 -7.11382,-0.29468 -9.2177,-0.36318 l -3.82523,-0.12455 -0.80936,0.85765 c -0.44515,0.47171 -1.17781,1.32047 -1.62813,1.88613 -0.45032,0.56567 -1.14311,1.37521 -1.53953,1.79899 -0.44555,0.4763 -0.92317,1.16909 -1.25085,1.81439 -0.29155,0.57414 -0.78981,1.55852 -1.10725,2.1875 -0.51147,1.01344 -0.73363,1.29652 -1.95199,2.48726 l -1.37482,1.34366 0.1592,0.40184 c 0.0876,0.22101 0.23221,0.4881 0.32144,0.59354 0.14198,0.16776 0.10233,0.21872 -0.31749,0.40803 -0.26385,0.11899 -0.45585,0.25498 -0.42665,0.30222 0.0393,0.0637 -8.0176,3.49859 -9.47931,4.04132 -0.16471,0.0611 -0.21067,0.0137 -0.21067,-0.21765 0,-0.16272 0.0609,-0.47056 0.13534,-0.68408 0.0972,-0.27872 0.0986,-0.42501 0.005,-0.51863 -0.0762,-0.0762 -0.10187,-0.33856 -0.0617,-0.63146 0.0887,-0.64707 -0.21189,-1.24344 -1.02889,-2.04138 l -0.60868,-0.59447 -0.78537,0.15611 c -0.92618,0.1841 -1.2373,0.12682 -1.6719,-0.30778 l -0.32227,-0.32227 -3.93995,0.0745 c -2.16697,0.041 -4.12919,0.13072 -4.36048,0.19945 -0.2313,0.0687 -1.27408,0.12498 -2.3173,0.12498 h -1.89677 v 0.47167 c 0,0.25942 -0.0362,0.56607 -0.0805,0.68144 -0.0651,0.16964 -0.0306,0.1967 0.18057,0.14149 0.31899,-0.0834 0.31933,-0.0751 0.0203,0.51109 -0.19914,0.39036 -0.24076,0.70949 -0.24076,1.84634 0,0.95441 0.046,1.41159 0.15048,1.49606 0.0828,0.0669 0.44841,0.16102 0.81255,0.20917 0.9127,0.12066 1.08342,0.23171 1.08342,0.70477 0,0.41552 -0.69961,1.94323 -1.55053,3.38582 l -0.49592,0.84075 v 7.49551 c 0,7.30873 0.006,7.49551 0.23091,7.49551 0.74143,0 0.79595,0.42919 0.1705,1.34217 l -0.44125,0.64409 0.0287,7.34313 c 0.0211,5.39552 -0.0281,8.75652 -0.18531,12.67209 -0.19805,4.93246 -0.19935,5.35371 -0.0176,5.66145 0.18322,0.31018 0.18084,0.38861 -0.0355,1.1689 -0.30277,1.09186 -0.30091,1.38334 0.009,1.38334 0.13242,0 0.24076,0.0542 0.24076,0.12038 0,0.0662 0.14556,0.12037 0.32347,0.12037 h 0.32347 l -0.33354,0.34815 c -0.36733,0.38341 -0.39409,0.88654 -0.0506,0.95197 0.11141,0.0212 0.72746,-0.2921 1.369,-0.69627 0.64155,-0.40418 1.19377,-0.70755 1.22716,-0.67416 0.0334,0.0334 0.20281,-0.011 0.37649,-0.0985 0.17368,-0.0876 0.38531,-0.13448 0.4703,-0.1042 0.085,0.0303 0.23035,-0.008 0.32304,-0.0848 0.13481,-0.11188 0.28467,-0.0239 0.74916,0.44004 0.31936,0.31895 0.75358,0.8349 0.96494,1.14656 0.32741,0.4828 0.48216,0.59512 1.04559,0.75892 0.36372,0.10573 1.00297,0.23362 1.42056,0.28419 l 0.75925,0.0919 -0.96303,0.0875 c -2.21972,0.20157 -3.21913,0.37004 -4.81517,0.81172 -1.79621,0.49706 -3.29361,0.96493 -3.491,1.09078 -0.0662,0.0422 -0.10225,0.40252 -0.0801,0.80071 l 0.0403,0.72396 0.40094,-0.23656 c 0.24202,-0.14279 1.08492,-0.35162 2.12655,-0.52685 z m 29.473,-2.12678 c 0,-0.27128 -1.15068,-0.37944 -4.75498,-0.44697 l -3.85213,-0.0722 3.97251,-0.0676 c 3.10843,-0.0529 4.24642,-0.11632 5.23176,-0.29159 1.19511,-0.21258 1.3208,-0.21388 2.46777,-0.0255 0.66469,0.1092 2.07526,0.23903 3.13459,0.28852 l 1.92607,0.09 -2.40758,0.0938 c -1.32417,0.0516 -3.15243,0.18952 -4.0628,0.30656 -0.91037,0.11703 -1.65521,0.17326 -1.65521,0.12495 z m 11.34802,-0.18257 c 0.11713,-0.0305 0.27964,-0.0285 0.36114,0.004 0.0815,0.033 -0.0143,0.058 -0.21295,0.0555 -0.19863,-0.002 -0.26531,-0.0294 -0.14819,-0.06 z m -1.26627,-0.12191 c 0.14897,-0.0287 0.39274,-0.0287 0.54171,0 0.14897,0.0287 0.0271,0.0522 -0.27085,0.0522 -0.29794,0 -0.41983,-0.0235 -0.27086,-0.0522 z m -1.20239,-0.12056 c 0.14975,-0.0288 0.36643,-0.0277 0.48152,0.002 0.11509,0.0301 -0.007,0.0537 -0.27226,0.0524 -0.26483,-0.001 -0.359,-0.026 -0.20926,-0.0548 z m -26.79347,-0.12529 c 1.10476,-0.0199 2.94656,-0.0199 4.09289,-8e-5 1.14634,0.0198 0.24245,0.036 -2.00864,0.0361 -2.25109,4e-5 -3.189,-0.0162 -2.08425,-0.036 z m 33.86249,-9.89558 c 0.0831,-0.26179 0.0724,-0.26416 -0.85985,-0.19136 -1.79664,0.14031 -2.85013,0.1112 -3.54642,-0.098 -0.61653,-0.18522 -0.73839,-0.18704 -1.37757,-0.0206 -0.49573,0.12912 -0.72497,0.14419 -0.7823,0.0514 -0.0562,-0.0909 -0.19512,-0.0722 -0.45223,0.0607 -0.42174,0.21808 -0.74423,0.24909 -0.74423,0.0715 0,-0.0662 -0.19316,-0.12038 -0.42924,-0.12038 -0.46182,0 -0.87713,-0.17434 -1.08422,-0.45513 -0.11237,-0.15235 -0.17794,-0.1498 -0.50564,0.0197 -0.68192,0.35263 -1.3296,0.16835 -0.79142,-0.22518 0.2894,-0.21161 0.0941,-0.4272 -0.31323,-0.34574 -0.19013,0.038 -0.54368,0.004 -0.78566,-0.0761 -0.40707,-0.13435 -0.42587,-0.16077 -0.25153,-0.35341 0.25182,-0.27826 0.23758,-0.56143 -0.0423,-0.84131 -0.1269,-0.1269 -0.21297,-0.24879 -0.19127,-0.27086 0.0217,-0.0221 -0.22737,-0.39223 -0.55349,-0.82259 -0.32612,-0.43035 -0.70622,-1.08974 -0.84467,-1.46531 -0.28401,-0.77039 -0.41357,-0.85438 -1.68658,-1.09337 l -0.79821,-0.14985 0.64773,-1.07117 c 0.35626,-0.58914 0.64774,-1.14511 0.64774,-1.23548 0,-0.0904 -0.28391,-0.57269 -0.63091,-1.07183 -0.54064,-0.77767 -0.7284,-0.95127 -1.31229,-1.2133 -0.75384,-0.33831 -1.15685,-0.72219 -1.456,-1.38691 -0.19283,-0.42848 -0.19094,-0.44664 0.0655,-0.62725 l 0.26405,-0.18599 -0.25786,-0.21541 c -0.43851,-0.36633 -0.68958,-0.9848 -0.53632,-1.32117 0.19795,-0.43447 0.16965,-0.50534 -0.28923,-0.72417 -0.45523,-0.21708 -0.525,-0.40194 -0.24076,-0.63784 0.21576,-0.17906 0.23273,-0.59646 0.0413,-1.01653 -0.0984,-0.21603 -0.10277,-0.38526 -0.0148,-0.57746 0.10991,-0.24015 0.0735,-0.30343 -0.31219,-0.54212 -0.24532,-0.15184 -0.35078,-0.27051 -0.2407,-0.27085 0.29974,-9.5e-4 0.49255,-0.28721 0.31383,-0.46594 -0.11243,-0.11242 -0.11336,-0.16715 -0.004,-0.23473 0.0952,-0.0588 0.12568,-0.34734 0.0917,-0.86773 -0.028,-0.42879 -0.0544,-0.88795 -0.0588,-1.02037 -0.004,-0.13242 0.10289,-0.3307 0.2383,-0.44062 0.34738,-0.28199 0.35105,-1.24031 0.005,-1.42526 -0.30137,-0.16129 -0.30999,-0.43599 -0.0186,-0.59196 0.19067,-0.10204 0.2327,-0.32893 0.29626,-1.59926 0.0407,-0.81419 0.12942,-1.66635 0.19708,-1.8937 0.0676,-0.22734 0.10516,-0.43119 0.0833,-0.453 -0.0218,-0.0218 -0.23756,0.043 -0.47946,0.14412 -0.62788,0.26235 -0.54525,0.039 0.1019,-0.27543 0.29794,-0.14475 0.54171,-0.34007 0.54171,-0.43405 0,-0.28937 -0.49301,-0.0711 -0.9686,0.42886 -0.55951,0.58817 -0.71671,0.58526 -0.71671,-0.0133 0,-0.26093 -0.0542,-0.50789 -0.12038,-0.54881 -0.2544,-0.15723 -0.10511,-0.54341 0.32236,-0.83388 0.35896,-0.24392 0.40452,-0.31551 0.24076,-0.37835 -0.28707,-0.11016 -0.25945,-0.19676 0.26523,-0.83169 0.37133,-0.44935 0.47983,-0.69295 0.52863,-1.18681 0.0343,-0.34693 0.006,-0.68915 -0.063,-0.77479 -0.0684,-0.0844 -0.0919,-0.18598 -0.052,-0.22583 0.0399,-0.0399 0.18835,0.12397 0.33,0.36404 0.32222,0.54613 0.40428,0.55141 0.31812,0.0205 -0.0519,-0.31951 -6.4e-4,-0.50802 0.22071,-0.81256 0.15852,-0.21809 0.50537,-0.81223 0.77078,-1.32032 0.32151,-0.61547 0.57405,-0.95205 0.75667,-1.00848 0.32035,-0.099 1.89923,-1.01659 1.89923,-1.1038 0,-0.0326 -0.0813,-0.0282 -0.18057,0.01 -0.2695,0.10342 -0.21794,-0.0151 0.0747,-0.17169 0.17942,-0.096 0.23097,-0.0973 0.17346,-0.004 -0.045,0.0728 -0.046,0.13239 -0.002,0.13239 0.10195,0 3.32565,-1.92251 3.48578,-2.0788 0.14308,-0.13965 -0.31331,0.0874 -0.90284,0.44925 -0.23173,0.14222 -0.66509,0.39816 -0.96303,0.56877 l -0.54171,0.31018 -0.0327,-0.97897 c -0.04,-1.19912 0.02,-1.47319 0.36252,-1.65652 0.30307,-0.1622 2.28186,-0.72336 2.34127,-0.66396 0.0214,0.0214 -0.0698,0.13723 -0.20262,0.25744 -0.48799,0.44162 -0.16535,0.55433 0.7064,0.24676 0.27316,-0.0964 0.49665,-0.15672 0.49665,-0.1341 0,0.0226 -0.37919,0.26641 -0.84265,0.54175 -0.46346,0.27533 -0.84265,0.52268 -0.84265,0.54966 0,0.027 0.25731,-0.0311 0.5718,-0.12914 0.31449,-0.098 0.84265,-0.25237 1.17369,-0.34303 0.33105,-0.0906 0.8883,-0.27873 1.23835,-0.41794 0.76775,-0.30532 0.82451,-0.31022 0.61218,-0.0528 -0.15,0.18183 -0.13996,0.18682 0.10901,0.0541 0.15168,-0.0808 0.23751,-0.20553 0.19206,-0.27907 -0.05,-0.0809 -0.0269,-0.0988 0.059,-0.0457 0.14708,0.0909 0.85416,-0.29245 1.20061,-0.65091 0.29044,-0.30051 0.93383,-0.69672 0.81297,-0.50064 -0.0812,0.13174 -0.0519,0.13663 0.15513,0.0259 0.1404,-0.0752 0.25528,-0.18889 0.25528,-0.25277 0,-0.0639 0.0406,-0.10451 0.0903,-0.0903 0.32557,0.0932 2.46269,-1.88747 2.97826,-2.76027 0.11788,-0.19955 0.38303,-0.4615 0.58924,-0.58212 0.32933,-0.19265 0.35483,-0.19463 0.2097,-0.0163 -0.0909,0.11165 -0.13958,0.203 -0.10825,0.203 0.21492,0 0.97755,-0.34918 1.52264,-0.69716 0.356,-0.22727 0.99194,-0.5745 1.41319,-0.77163 0.64078,-0.29986 0.87921,-0.35046 1.45936,-0.30972 0.38139,0.0268 0.95025,0.12397 1.26413,0.21599 0.4863,0.14257 0.71773,0.14274 1.56493,10e-4 0.54683,-0.0914 1.80845,-0.18739 2.80359,-0.21333 1.61506,-0.0421 1.95303,-0.0141 3.14739,0.26098 1.23795,0.28509 1.37019,0.2947 1.76806,0.12847 0.53657,-0.2242 0.62581,-0.22571 0.44472,-0.008 -0.41532,0.50044 1.60778,0.59827 2.90481,0.14046 0.65423,-0.23092 0.8171,-0.25301 0.86897,-0.11784 0.0397,0.10348 0.24724,0.16635 0.54913,0.16635 0.54493,0 0.53857,-0.008 0.34166,0.42428 -0.17792,0.3905 -0.005,0.53419 0.64601,0.53691 0.29687,0.001 0.56254,0.10311 0.80841,0.31 0.58158,0.48937 1.00791,0.56048 2.37951,0.39693 1.09905,-0.13105 1.25387,-0.12524 1.53292,0.0576 0.17072,0.11186 0.34459,0.35166 0.38637,0.5329 0.0418,0.18123 0.19733,0.51911 0.34567,0.75084 0.14834,0.23173 0.41506,0.67834 0.59271,0.99246 0.39144,0.69213 0.81885,0.93285 1.66193,0.93599 0.39472,0.001 1.0259,0.13916 1.65541,0.36113 0.55959,0.19732 1.09751,0.35877 1.19538,0.35877 0.0979,0 0.44075,0.17605 0.76196,0.39123 0.50173,0.33611 0.57778,0.43888 0.53982,0.72942 -0.0354,0.27097 0.0225,0.37266 0.29116,0.51161 0.42787,0.22126 0.70846,0.22124 0.70846,-4e-5 0,-0.24007 0.19658,-0.3383 0.49039,-0.24505 0.35244,0.11186 0.47876,0.53038 0.27843,0.9225 -0.29794,0.5832 -0.0342,0.80499 1.398,1.17571 0.6804,0.17612 0.78282,0.23923 0.78516,0.48389 0.003,0.29954 0.16726,0.43063 0.67159,0.53558 0.18668,0.0388 0.45088,0.2639 0.65417,0.55725 0.18756,0.27065 0.49355,0.57097 0.67998,0.66737 0.35141,0.18172 0.42591,0.34192 0.21858,0.47005 -0.0662,0.0409 -0.12038,0.15246 -0.12038,0.24786 0,0.12288 0.14419,0.17347 0.4944,0.17347 0.42165,0 0.4824,0.031 0.41289,0.21066 -0.18276,0.47241 -0.19964,0.83091 -0.0449,0.95385 0.0885,0.0703 0.45879,0.22571 0.82294,0.34538 l 0.66209,0.21758 -0.39124,0.10274 c -0.21517,0.0565 -0.39123,0.164 -0.39123,0.23889 0,0.0749 -0.29794,0.4485 -0.66208,0.83027 -0.62203,0.65213 -0.66209,0.73061 -0.66209,1.29712 0,0.76392 0.15661,1.17764 0.48526,1.28195 0.36848,0.11695 0.58938,0.71087 0.4644,1.24854 -0.25376,1.09158 0.004,2.20562 0.57424,2.486 l 0.25992,0.1277 -0.41035,0.837 -0.41034,0.83701 0.0771,1.342 c 0.0728,1.26685 0.0618,1.36347 -0.19605,1.72557 -0.33478,0.47016 -1.08491,2.22359 -1.08491,2.53599 0,0.12519 0.15682,0.34356 0.34849,0.48527 l 0.3485,0.25765 -0.28831,0.42484 c -0.15856,0.23366 -0.2883,0.50069 -0.2883,0.5934 0,0.0927 -0.10834,0.38093 -0.24076,0.64049 -0.31585,0.61912 -0.3037,0.86193 0.0602,1.20379 0.16552,0.1555 0.30095,0.36187 0.30095,0.4586 0,0.0967 -0.13543,0.30139 -0.30095,0.45479 -0.34122,0.31624 -0.39104,0.82325 -0.11655,1.18616 0.0972,0.12852 0.17674,0.31493 0.17674,0.41424 0,0.14672 -0.0283,0.14186 -0.151,-0.0259 -0.1363,-0.1864 -0.47318,0.006 -3.4609,1.97406 -1.82044,1.19931 -3.36407,2.23269 -3.43028,2.29641 -0.0662,0.0637 0.0828,0.031 0.33104,-0.0726 0.24829,-0.10366 0.45143,-0.16477 0.45143,-0.13581 0,0.0436 -2.79336,1.82303 -3.85214,2.45394 -0.24993,0.14893 -0.23973,0.12447 0.0602,-0.14432 l 0.36114,-0.32366 -0.39079,0.18896 c -0.21493,0.10393 -0.66565,0.35103 -1.0016,0.54911 -0.33594,0.19808 -0.65712,0.33152 -0.71372,0.29654 -0.0566,-0.035 -0.7782,0.34337 -1.60356,0.84078 -0.82535,0.49742 -1.58212,0.90439 -1.6817,0.90439 -0.0996,0 -0.56295,0.16251 -1.02971,0.36114 -0.46676,0.19863 -1.01062,0.36114 -1.20856,0.36114 -0.19794,0 -0.5124,0.0582 -0.69878,0.12924 -0.18638,0.0711 -0.71807,0.17262 -1.18153,0.22564 -0.54225,0.062 -1.25034,0.26941 -1.98626,0.58174 -0.62898,0.26695 -1.3692,0.5215 -1.64494,0.56568 l -0.50135,0.0803 0.0655,-0.48817 c 0.0858,-0.63992 -0.055,-0.68563 -1.17939,-0.38262 -2.04196,0.55029 -3.29111,0.65511 -8.06886,0.67708 -2.49021,0.0114 -4.59512,0.0625 -4.67759,0.11349 -0.11021,0.0681 -0.12765,0.0224 -0.0658,-0.17239 z m 24.37258,-4.54057 c 2.11321,-1.06999 2.28159,-1.176 2.02464,-1.2746 -0.15082,-0.0579 -3.89431,1.86647 -4.55996,2.34406 -0.28482,0.20435 -0.28356,0.20501 0.13379,0.0697 0.23173,-0.0751 1.31242,-0.58774 2.40153,-1.1392 z m 2.83895,-0.34063 c 0.85089,-0.49656 1.50803,-0.90284 1.46029,-0.90284 -0.2546,0 -3.0894,1.61155 -3.0894,1.75629 0,0.0924 0.0819,0.0494 1.62911,-0.85345 z m -8.49072,-0.1188 c 2.20475,-0.93188 3.13028,-1.49627 4.28397,-2.61236 2.3871,-2.3093 3.66508,-4.79463 4.20857,-8.18456 0.25506,-1.59087 0.39252,-9.04575 0.18708,-10.14618 -0.25164,-1.34797 -1.30876,-3.15986 -3.25029,-5.57096 -1.28347,-1.59388 -1.87276,-2.12601 -4.59407,-4.14843 -3.38391,-2.51485 -3.79462,-2.77959 -4.07737,-2.62826 -0.39785,0.21292 -0.59585,0.14097 -0.90732,-0.3297 -0.37157,-0.56147 -0.84836,-0.85128 -1.7308,-1.05205 -0.37424,-0.0851 -0.97837,-0.24083 -1.34252,-0.34597 -0.91096,-0.263 -1.67269,-0.2456 -2.04644,0.0468 -0.32747,0.25615 -0.6019,0.31104 -0.6019,0.12038 0,-0.0737 -0.57239,-0.12038 -1.47642,-0.12038 -1.24644,0 -1.54641,0.0375 -1.92563,0.24076 -0.62796,0.33656 -0.69084,0.31051 -0.69084,-0.28621 0,-0.31527 -0.0706,-0.58559 -0.17585,-0.6729 -0.3299,-0.2738 -1.08085,-0.27716 -2.14871,-0.01 -0.83281,0.20864 -1.31617,0.2536 -2.40501,0.2237 -1.35585,-0.0372 -1.36284,-0.036 -1.38593,0.24596 -0.0128,0.15586 -0.17232,0.39624 -0.35457,0.53419 -0.56722,0.42934 -1.35457,1.2848 -1.35457,1.47175 0,0.0982 0.0948,0.18073 0.21066,0.1835 0.11587,0.003 -0.49127,0.36843 -1.34919,0.81256 -0.85792,0.44414 -1.58449,0.88877 -1.6146,0.98809 -0.0469,0.15478 -0.0262,0.15697 0.1454,0.0154 0.40415,-0.33361 0.19126,0.10699 -0.34156,0.70692 -0.29794,0.33546 -0.54171,0.66041 -0.54171,0.72211 0,0.0617 -0.16812,0.30365 -0.37361,0.53768 -0.27691,0.31539 -0.32364,0.42552 -0.18056,0.42552 0.29538,0 0.23184,0.41692 -0.12887,0.84561 -0.26404,0.31379 -0.31715,0.48676 -0.29546,0.96222 0.0244,0.53479 -0.003,0.59673 -0.35189,0.80037 -0.24597,0.14349 -0.51671,0.49446 -0.77385,1.00317 -0.21753,0.43036 -0.52261,1.00825 -0.67796,1.28421 -0.27738,0.49273 -0.27838,0.50624 -0.0556,0.75237 0.12475,0.13784 0.32846,0.25063 0.45269,0.25063 0.40029,0 0.39881,0.3721 -0.005,1.13551 -0.21222,0.4017 -0.38433,0.80326 -0.38246,0.89236 0.002,0.0891 -0.0914,0.32704 -0.20726,0.52876 -0.15861,0.27613 -0.17348,0.37988 -0.0602,0.41984 0.0828,0.0292 0.15047,0.12402 0.15047,0.21073 0,0.0867 0.0746,0.18627 0.16569,0.22124 0.10648,0.0409 0.14399,0.17709 0.10496,0.38125 -0.0464,0.24279 -0.006,0.33203 0.17209,0.37856 0.21276,0.0556 0.20004,0.0956 -0.1477,0.46435 -0.32083,0.34018 -0.3799,0.49471 -0.37658,0.98519 0.002,0.31995 -0.0399,0.70682 -0.0935,0.8597 -0.0793,0.22619 -0.0497,0.29047 0.15918,0.34508 0.35301,0.0923 0.32374,0.2763 -0.15776,0.99181 -0.40966,0.60875 -0.41228,0.62098 -0.22811,1.06541 0.24158,0.58294 0.21454,0.56668 0.64537,0.38823 0.2719,-0.11263 0.40749,-0.11816 0.50505,-0.0206 0.1866,0.1866 0.13893,0.88864 -0.0972,1.43084 -0.44344,1.01839 -0.66341,3.38382 -0.3752,4.03451 0.15733,0.35518 1.19098,1.17813 1.79294,1.42748 0.31646,0.13107 0.42445,0.12612 0.70014,-0.0321 l 0.32597,-0.18708 -0.0128,0.67667 c -0.0116,0.61161 0.0383,0.75192 0.5184,1.45914 1.07841,1.5884 1.20503,1.71383 1.64643,1.63103 0.46637,-0.0875 1.01239,0.0258 1.01239,0.21004 0,0.24099 0.52157,0.68689 0.80345,0.68689 0.15398,0 0.27996,-0.0574 0.27996,-0.12748 0,-0.0701 0.0589,-0.0911 0.13087,-0.0466 0.072,0.0445 0.10278,0.18827 0.0685,0.31952 -0.0563,0.21543 -0.011,0.23454 0.46652,0.19657 0.45548,-0.0362 0.55009,-0.003 0.68135,0.24274 0.28729,0.53681 1.10308,0.6561 1.67957,0.2456 0.27026,-0.19244 0.45456,-0.23447 0.76927,-0.17543 0.22762,0.0427 0.52296,0.0192 0.6563,-0.0521 0.22461,-0.12021 0.24245,-0.0936 0.24245,0.36175 0,0.58186 0.48329,1.14099 0.89351,1.03372 0.13231,-0.0346 0.45995,-0.008 0.72809,0.0599 0.7174,0.18064 3.08108,-0.0424 3.58628,-0.33838 0.26348,-0.15438 0.48724,-0.20083 0.6907,-0.14339 0.16552,0.0467 0.47036,0.0904 0.67744,0.097 0.20707,0.007 0.44865,0.0989 0.53684,0.20521 0.16228,0.19554 0.49653,0.19147 1.99925,-0.0243 0.35398,-0.0508 0.73474,0.004 1.27323,0.18313 0.42253,0.14061 1.36344,0.30788 2.09092,0.37172 0.72747,0.0638 1.53586,0.1901 1.79643,0.28057 0.52416,0.182 0.69623,0.15046 1.85811,-0.34063 z m -19.56161,-2.34897 c 0.0409,-0.0662 0.0983,-0.12038 0.12748,-0.12038 0.0292,0 0.0531,0.0542 0.0531,0.12038 0,0.0662 -0.0574,0.12038 -0.12748,0.12038 -0.0701,0 -0.094,-0.0542 -0.0531,-0.12038 z m -7.82464,-20.82559 c 0.0409,-0.0662 0.12857,-0.12038 0.19477,-0.12038 0.0662,0 0.0869,0.0542 0.046,0.12038 -0.0409,0.0662 -0.12856,0.12038 -0.19477,0.12038 -0.0662,0 -0.0869,-0.0542 -0.046,-0.12038 z m 31.88087,22.2702 c 0.23402,-0.21658 -0.13334,-0.20126 -0.40509,0.0169 l -0.29758,0.23889 0.30094,-0.0813 c 0.16553,-0.0447 0.3463,-0.12323 0.40173,-0.17452 z m 3.31086,-0.45056 c 0.044,-0.0712 0.30595,-0.21993 0.58203,-0.33039 0.55888,-0.22362 0.71415,-0.45303 0.45321,-0.6696 -0.31155,-0.25855 -0.18538,-0.56852 0.61448,-1.50972 0.43335,-0.50991 0.7713,-1.01337 0.75099,-1.1188 -0.0791,-0.41062 -0.4779,-0.27138 -1.22302,0.427 -0.41237,0.3865 -1.49884,1.24289 -2.41438,1.9031 l -1.66463,1.20039 0.5875,0.14076 c 0.70081,0.16792 2.20075,0.14021 2.31382,-0.0427 z m 3.33278,-0.008 c -0.0371,-0.0371 -0.1342,-7e-5 -0.21586,0.0822 -0.118,0.11888 -0.10417,0.13271 0.0674,0.0674 0.11872,-0.0452 0.18553,-0.11251 0.14847,-0.14958 z m -39.93976,-31.45057 c 1.34029,-0.7568 2.43724,-1.42104 2.43768,-1.47609 4.3e-4,-0.0551 -0.17527,0.006 -0.39044,0.13656 -0.21518,0.13017 -1.31214,0.76614 -2.43768,1.41328 -1.12555,0.64714 -2.10062,1.23014 -2.16683,1.29555 -0.17408,0.172 -0.14133,0.15447 2.55727,-1.3693 z m 3.76264,0.0686 c 0.16552,-0.0946 0.24678,-0.17204 0.18057,-0.17204 -0.0662,0 -0.25581,0.0774 -0.42133,0.17204 -0.16552,0.0946 -0.24678,0.17203 -0.18057,0.17203 0.0662,0 0.25581,-0.0774 0.42133,-0.17203 z m -4.09289,-0.97151 c 0,-0.0331 -0.10834,-0.002 -0.24076,0.0687 -0.13242,0.0709 -0.24076,0.15594 -0.24076,0.18904 0,0.0331 0.10834,0.002 0.24076,-0.0687 0.13242,-0.0709 0.24076,-0.15593 0.24076,-0.18904 z m 0.60189,-0.36113 c 0,-0.0331 -0.10834,-0.002 -0.24075,0.0687 -0.13242,0.0709 -0.24076,0.15593 -0.24076,0.18904 0,0.0331 0.10834,0.002 0.24076,-0.0687 0.13241,-0.0709 0.24075,-0.15594 0.24075,-0.18904 z m 6.35,-0.28876 c 0.48002,-0.28197 0.87275,-0.53825 0.87275,-0.56951 0,-0.0894 -1.60437,0.81647 -1.80568,1.01949 -0.21978,0.22165 -0.16744,0.19641 0.93293,-0.44998 z m -4.90545,0.12253 c 0.0993,-0.0674 0.11886,-0.12339 0.0434,-0.12441 -0.0754,-0.001 -0.26503,0.10956 -0.42133,0.24571 -0.22334,0.19455 -0.23264,0.22119 -0.0434,0.12441 0.13241,-0.0677 0.32201,-0.1783 0.42132,-0.24571 z m 32.98389,36.15847 c 0,-0.0244 0.16372,-0.12908 0.36382,-0.23256 0.26101,-0.13497 0.4226,-0.15388 0.5718,-0.0669 0.11439,0.0667 0.15381,0.12414 0.0876,0.12773 -0.0662,0.004 -0.32351,0.0537 -0.5718,0.11136 -0.24828,0.0577 -0.45142,0.0848 -0.45142,0.0604 z m 7.94503,-4.55283 c 0,-0.0377 2.33777,-1.54763 2.96199,-1.91305 0.0881,-0.0515 0.1133,0.0256 0.0746,0.22807 -0.0738,0.38597 -0.69823,0.80523 -1.98201,1.33073 -1.0364,0.42424 -1.05457,0.43034 -1.05457,0.35425 z m 32.17159,-2.90109 c 0.001,-0.26483 0.026,-0.359 0.0548,-0.20926 0.0288,0.14974 0.0277,0.36643 -0.002,0.48152 -0.0301,0.11509 -0.0537,-0.007 -0.0523,-0.27226 z m -74.90619,-30.10177 c 0,-0.0233 0.52816,-0.41905 1.17369,-0.87954 2.64389,-1.88599 6.10425,-3.83418 7.03106,-3.95849 0.51751,-0.0694 0.53617,-0.0404 0.28547,0.44442 -0.23293,0.45045 -1.658,1.32864 -4.21676,2.59857 -1.75487,0.87095 -4.27346,1.92887 -4.27346,1.79504 z m -21.00616,-4.50723 c 0.0409,-0.0662 0.0983,-0.12038 0.12748,-0.12038 0.0292,0 0.0531,0.0542 0.0531,0.12038 0,0.0662 -0.0574,0.12038 -0.12748,0.12038 -0.0701,0 -0.094,-0.0542 -0.0531,-0.12038 z m 75.26706,-3.93186 c 0.0828,-0.0334 0.21819,-0.0334 0.30095,0 0.0828,0.0334 0.015,0.0607 -0.15048,0.0607 -0.16552,0 -0.23323,-0.0273 -0.15047,-0.0607 z m 30.24177,62.20007 c 0.0974,-0.0616 0.14762,-0.14147 0.1116,-0.17749 -0.036,-0.036 -0.16988,0.0135 -0.29747,0.11001 -0.2538,0.19201 -0.0996,0.248 0.18587,0.0675 z m -7.43299,-5.84309 -0.0966,-1.32417 -0.14527,0.63553 c -0.0799,0.34954 -0.17945,1.0034 -0.22124,1.45302 -0.0679,0.73008 -0.0454,0.86437 0.21015,1.2558 l 0.28613,0.4383 0.0317,-0.56715 c 0.0174,-0.31194 -0.0118,-1.16304 -0.0649,-1.89133 z m -5.24487,-53.81467 c 0.11671,-0.30415 -0.0272,-0.32367 -0.4565,-0.0619 l -0.4048,0.2468 0.39501,4.5e-4 c 0.24529,2.8e-4 0.42202,-0.07 0.46629,-0.18531 z m 2.16904,-0.67421 c 0.21564,-0.17897 0.20282,-0.69597 -0.0194,-0.78124 -0.20298,-0.0779 -1.26547,0.50241 -1.26547,0.69116 0,0.0678 0.056,0.22795 0.12455,0.35594 0.117,0.21861 0.1511,0.22163 0.56257,0.0497 0.24091,-0.10066 0.50989,-0.24266 0.59773,-0.31556 z m -119.79812,-0.58458 c 0.0409,-0.0662 0.017,-0.12038 -0.0531,-0.12038 -0.0701,0 -0.12749,0.0542 -0.12749,0.12038 0,0.0662 0.0239,0.12038 0.0531,0.12038 0.0292,0 0.0866,-0.0542 0.12748,-0.12038 z m 119.56666,-2.77629 c 0.30769,-0.10726 0.60362,-0.54238 0.4639,-0.68209 -0.0542,-0.0542 -1.63767,0.666 -1.63767,0.74481 0,0.11303 0.79084,0.0708 1.17377,-0.0627 z m -85.02273,-1.76802 c 1.25595,-1.66688 2.05304,-3.43653 0.99801,-2.21572 -0.28667,0.33172 -0.77287,0.71739 -1.10585,0.8772 l -0.59425,0.2852 0.38035,0.0602 c 0.51853,0.0821 0.34155,0.3428 -0.33601,0.49504 -0.2844,0.0639 -0.67305,0.22724 -0.86368,0.36297 l -0.34658,0.24679 0.45493,0.46084 c 0.25021,0.25346 0.49195,0.46533 0.53719,0.47082 0.0452,0.005 0.43939,-0.46401 0.87589,-1.04333 z m 62.78261,-2.25711 c 0,-0.20261 -0.022,-0.21075 -0.2911,-0.1075 -0.26897,0.10321 -0.23667,0.28807 0.0503,0.28807 0.13375,0 0.24075,-0.0803 0.24075,-0.18057 z m -61.10667,-0.84891 c 0.0411,-0.10713 0.0209,-0.15545 -0.0473,-0.11327 -0.0654,0.0404 -0.119,0.12452 -0.119,0.18682 0,0.17316 0.0863,0.135 0.16631,-0.0736 z m 29.92585,-8.77409 c -0.45514,-0.16777 -3.59952,-0.5865 -5.95614,-0.79317 -0.79451,-0.0697 -2.0946,-0.24585 -2.8891,-0.3915 -1.01158,-0.18545 -1.87753,-0.26153 -2.8891,-0.25384 -1.29635,0.01 -1.56496,0.0514 -2.61825,0.40524 -1.20471,0.40467 -1.46586,0.60461 -0.78973,0.60461 0.21119,0 3.14994,0.10816 6.53057,0.24037 3.38063,0.1322 6.63414,0.25648 7.23001,0.27619 0.59588,0.0197 1.24593,0.0431 1.44455,0.0521 l 0.36114,0.0163 z m -17.81349,-2.07842 c 0,-0.0817 -0.41899,0.19126 -0.78247,0.50982 -0.27333,0.23956 -0.22212,0.22141 0.21067,-0.0746 0.31449,-0.21513 0.5718,-0.41096 0.5718,-0.43517 z m -4.09289,-0.42138 c 1.77516,-0.93542 5.05386,-3.14736 4.8973,-3.30391 -0.0291,-0.0291 -0.32411,0.10691 -0.65552,0.30231 -0.79116,0.46649 -5.84937,3.63917 -5.92709,3.71768 -0.17535,0.17712 0.67978,-0.18621 1.68531,-0.71608 z m -45.68884,19.63849 c -0.12956,-0.20964 0.018,-0.25403 0.18311,-0.0551 0.0949,0.1144 0.10408,0.18347 0.0242,0.18347 -0.0704,0 -0.16372,-0.0578 -0.20736,-0.12838 z m 94.4652,-19.30282 c 0.19405,-0.37381 0.21795,-0.37931 0.21795,-0.0502 0,0.18226 -0.0687,0.30094 -0.17406,0.30094 -0.1378,0 -0.14694,-0.0523 -0.0439,-0.25079 z m 0.15835,-0.79154 c -0.0406,-0.0657 -0.0183,-0.21465 0.0494,-0.33104 0.10571,-0.18153 0.12375,-0.16455 0.12689,0.11942 0.004,0.34618 -0.0519,0.41301 -0.17632,0.21162 z" /></g></svg>
