<?xml version="1.0" encoding="UTF-8" standalone="no"?>
<!-- Created with Inkscape (http://www.inkscape.org/) -->

<svg
   width="185.87099mm"
   height="162.78456mm"
   viewBox="0 0 185.87099 162.78456"
   version="1.1"
   id="svg1"
   xml:space="preserve"
   xmlns="http://www.w3.org/2000/svg"
   xmlns:svg="http://www.w3.org/2000/svg"><defs
     id="defs1" /><g
     id="layer1"
     transform="translate(-17.773973,217.99934)"><path
       style="opacity:0.6;fill:#f9f9f9"
       d="m 127.37468,-55.289156 c -0.36446,-0.151746 -0.77348,-0.638757 -1.95725,-2.330441 -1.03402,-1.477702 -2.63975,-3.504372 -4.39962,-5.552983 -0.45204,-0.526211 -1.26255,-1.656171 -1.80114,-2.511023 -1.14241,-1.813255 -1.24153,-1.893966 -2.44885,-1.993961 -0.91412,-0.07571 -0.91412,-0.07571 0.009,-0.599831 1.24654,-0.708013 1.08034,-0.743074 -0.38372,-0.08094 -0.66264,0.299682 -1.26612,0.544876 -1.34106,0.544876 -0.2244,0 -0.15396,-0.343201 0.0981,-0.478112 0.12891,-0.06899 0.47403,-0.332854 0.76693,-0.586353 0.75263,-0.651399 3.09318,-2.253391 3.4527,-2.363208 0.70167,-0.214326 2.98549,-1.474471 3.8934,-2.148261 5.51497,-4.092847 12.33645,-7.398131 14.7823,-7.16262 0.60758,0.0585 -4.23789,3.589242 -4.92769,3.590648 -0.59073,0.0012 -1.86433,0.205801 -2.61294,0.419756 -0.41139,0.117577 -1.25745,0.640208 -2.67314,1.651271 -2.50447,1.788643 -4.01882,2.7521 -4.39208,2.794304 -0.25085,0.02836 -0.98414,0.368512 -1.40359,0.651079 -0.11804,0.07952 -0.004,0.16376 0.41718,0.307139 0.3189,0.108662 0.75532,0.367667 0.96982,0.575566 0.39,0.377998 0.39,0.377998 0.82483,0.04633 0.80112,-0.61104 8.46483,-0.380834 15.52617,0.466383 2.87019,0.344363 8.09644,0.771799 14.32512,1.171599 9.21547,0.591513 16.51248,0.128487 20.58077,-1.305935 4.54527,-1.602594 4.56348,-13.26138 0.0324,-20.752741 -0.2969,-0.490868 -0.70827,-1.227812 -0.91417,-1.637655 -0.22317,-0.44422 -0.57284,-0.904675 -0.86582,-1.140118 -0.2703,-0.217222 -0.82257,-0.884053 -1.22725,-1.481846 -0.40469,-0.597793 -1.03757,-1.460381 -1.40642,-1.916863 -1.34811,-1.668443 -1.59846,-2.021879 -1.4967,-2.112996 0.9396,-0.841328 4.79634,-3.607918 4.89377,-3.510488 0.37137,0.37136 2.26496,2.783145 3.10019,3.948566 0.53105,0.740987 1.1791,1.516392 1.44012,1.723123 0.33358,0.264196 0.64976,0.722305 1.06418,1.541851 0.32428,0.641288 0.89536,1.761854 1.26907,2.490148 3.34342,6.515812 3.93837,15.784297 1.23842,19.293078 -1.6778,2.180428 -4.18919,3.837435 -9.31791,6.14793 -5.64299,2.54217 -11.28988,2.847517 -29.28498,1.583539 -5.40929,-0.37995 -6.81173,-0.499145 -9.322,-0.792292 -5.6251,-0.656895 -8.53978,-0.701361 -8.05437,-0.122877 2.64219,3.14879 5.63235,6.930583 6.21531,7.860796 0.0646,0.103078 -0.11588,0.269289 -0.5718,0.526595 -0.93271,0.52639 -0.8309,0.559345 0.17033,0.05513 0.99218,-0.499656 1.1837,-0.398979 0.39136,0.205734 -0.31119,0.237499 -1.07827,0.897927 -1.70464,1.467618 -1.4931,1.358011 -2.31936,1.78274 -2.95405,1.518484 z M 45.787643,-85.627469 c -0.16982,-0.133577 -0.36275,-0.242867 -0.42875,-0.242867 -0.066,0 -0.28185,-0.284396 -0.47967,-0.631991 -2.12305,-3.730449 -12.98936,-15.023513 -18.30203,-19.020823 -1.76768,-1.33002 -1.58918,-1.29835 -2.9358,-0.52087 -1.87156,1.08056 -2.06613,1.00551 -2.15817,-0.83248 -0.0422,-0.84265 -0.0422,-0.84265 2.42558,-2.32551 2.87089,-1.72509 2.72663,-1.55484 1.87521,-2.21313 -0.65925,-0.50971 -0.66532,-0.52008 -0.41552,-0.70889 0.48014,-0.36289 -3.31668,-6.11723 -6.74414,-10.22119 -0.47001,-0.56277 -0.85267,-1.05031 -0.85037,-1.08341 0.0249,-0.35807 5.25362,-3.1136 5.43734,-2.86549 1.73059,2.33711 8.27997,11.94448 8.28589,12.15467 0.0296,1.05225 0.79131,1.03823 2.1623,-0.0398 2.25797,-1.77548 4.33365,-3.49233 4.33365,-3.58448 0,-0.1624 -3.06976,-3.20908 -3.81873,-3.79002 -0.74906,-0.58102 -0.74906,-0.58102 1.86588,-2.24563 2.94358,-1.87382 2.51402,-1.97542 5.22838,1.23658 1.02949,1.21822 1.10145,1.27821 1.34378,1.12024 0.2011,-0.1311 2.91098,-1.22835 5.25178,-2.1265 0.38323,-0.14704 0.25676,-0.037 -0.78246,0.68069 -1.96759,1.35887 -3.68514,2.84874 -3.5236,3.05652 0.0835,0.10734 0.67042,0.81813 1.30437,1.57953 0.63395,0.7614 1.8969,2.3188 2.80656,3.4609 1.74682,2.19317 1.82103,2.26904 1.70723,1.7455 -0.10258,-0.47194 -0.11236,-1.50497 -0.0171,-1.80517 0.0478,-0.15065 0.48495,-0.49027 1.06854,-0.83019 0.5432,-0.31639 1.51536,-0.91483 2.16038,-1.32988 2.48823,-1.6011 3.11462,-1.71576 6.37309,-1.1666 0.44347,0.0747 0.44347,0.0747 0.20201,-0.41331 -0.98522,-1.9913 -0.72017,-8.83968 0.41674,-10.76791 1.04651,-1.77491 6.67464,-4.82703 10.15714,-5.50819 13.34822,-2.61083 11.77992,6.85723 -2.01036,12.13684 -0.0993,0.038 0.17154,-0.22304 0.6019,-0.58014 3.68755,-3.05985 6.05916,-6.70975 5.02911,-7.7398 -1.03117,-1.03116 -8.20463,-1.06136 -8.68301,-0.0366 -1.07652,2.30621 -1.25482,7.84938 -0.31242,9.713 1.0124,2.00206 3.94276,3.68259 8.38699,4.80984 5.02348,1.27418 6.75967,0.89144 8.73239,-1.925 0.1349,-0.1926 3.45812,-1.72933 5.234846,-2.42071 0.37284,-0.14508 0.35501,-0.10648 -0.34892,0.75515 -1.150966,1.40882 -1.601886,1.80399 -3.533296,3.09645 -6.66813,4.46217 -9.08988,5.16334 -13.65901,3.95467 -0.89161,-0.23585 -1.53849,-0.3668 -1.43752,-0.29099 3.24958,2.43976 6.00099,4.70921 5.86429,4.83705 -2.24236,2.09712 -4.8331,2.97286 -5.953,2.01228 -5.33732,-4.57798 -8.93216,-6.94361 -11.93986,-7.85717 -1.06625,-0.32387 -0.98644,-0.43674 -0.7943,1.12329 0.32069,2.60389 1.00929,5.61035 1.89378,8.26834 0.2754,0.82761 0.48653,1.61259 0.46917,1.7444 -0.0174,0.13181 0.0478,0.29767 0.14475,0.36857 0.67475,0.49339 0.34504,0.89835 -1.31248,1.61203 -0.66208,0.28507 -1.77053,0.84325 -2.46321,1.24041 -1.25943,0.7221 -1.25943,0.7221 -1.44455,0.438087 -0.10182,-0.156207 -1.18066,-1.530697 -2.39743,-3.054417 -1.21677,-1.52372 -3.11938,-4.04341 -4.22803,-5.59931 -2.69035,-3.77567 -5.62498,-7.51195 -6.40778,-8.15817 -0.13789,-0.11384 -1.68582,1.00468 -5.68754,4.10975 -0.3584,0.2781 -0.3584,0.2781 0.1303,0.86918 0.66341,0.80241 2.57837,3.36585 5.16271,6.91099 5.53787,7.596735 11.34421,15.047394 11.72652,15.047394 1.24497,0 0.43955,1.533763 -1.13574,2.162811 -0.57479,0.229522 -1.26958,0.611689 -1.544,0.84926 -1.17409,1.016466 -1.59217,1.189584 -2.03383,0.84217 z m 79.239647,-6.294542 c -3.56664,-4.907705 -12.18149,-14.942989 -16.17502,-18.841999 -0.76709,-0.74894 -1.32668,-1.38321 -1.24595,-1.41225 0.45436,-0.16338 5.68461,-1.98318 5.69985,-1.98318 0.0101,0 1.0346,1.19176 2.27679,2.64835 2.50837,2.94129 2.34486,2.80118 2.61296,2.23897 0.31061,-0.65135 0.86311,-0.97233 3.01779,-1.75318 4.03723,-1.46309 5.42392,-1.48608 7.567,-0.12548 0.75394,0.47867 0.94011,0.55852 0.79866,0.34259 -1.03558,-1.58091 -1.35256,-2.13554 -1.66165,-2.90745 -1.33865,-3.34313 -0.77158,-7.76255 1.25454,-9.77714 2.67616,-2.66093 9.49955,-3.52341 15.63344,-1.97607 4.93285,1.24437 5.08248,1.53031 2.28107,4.35898 -5.73079,5.78656 -7.34857,6.70968 -11.75882,6.70968 -0.0384,0 0.59415,-0.57561 1.40556,-1.27912 3.24347,-2.81217 6.49766,-6.30414 6.10433,-6.55036 -1.11727,-0.6994 -7.65942,-2.18292 -8.18741,-1.8566 -4.64274,2.86937 -0.26411,14.05533 6.26026,15.99286 0.36027,0.10698 0.68721,0.24657 0.72652,0.31019 0.51489,0.83311 6.39874,-3.3748 9.13985,-6.53647 0.84238,-0.97162 6.01576,-2.4224 6.59009,-1.84807 0.0995,0.0996 -3.27212,3.24879 -4.74763,4.43442 -3.87074,3.11029 -6.27571,4.20814 -13.02635,5.94643 -0.78891,0.20314 -2.76732,0.19496 -3.29372,-0.0136 -0.12323,-0.0488 0.28312,0.42041 0.903,1.04274 1.9275,1.93516 2.89259,4.44195 1.7101,4.44195 -0.26625,0 -1.06906,0.2915 -2.14377,0.778384 -2.81296,1.274383 -3.42909,1.294033 -3.43349,0.109503 -0.007,-1.993317 -6.11574,-7.990797 -9.43625,-9.264997 -1.12563,-0.43195 3.43311,8.874324 7.04544,14.382655 0.32081,0.489186 0.58328,0.931985 0.58328,0.984 0,0.169235 -3.17464,1.323047 -5.71801,2.078187 -0.19204,0.05702 -0.35037,-0.07935 -0.78246,-0.673906 z m 31.96066,-28.039599 c -0.13241,-0.0754 -0.75538,-0.62256 -1.38436,-1.21596 -0.62898,-0.59341 -2.11867,-1.89489 -3.31042,-2.89218 -1.19176,-0.99729 -2.84396,-2.41714 -3.67157,-3.15522 -2.02895,-1.80947 -3.82441,-3.3007 -5.03998,-4.186 -1.00728,-0.73359 -1.00728,-0.73359 -0.24076,-0.99721 0.42159,-0.14499 1.62043,-0.56229 2.6641,-0.92733 1.89758,-0.66371 1.89758,-0.66371 3.91177,1.18131 1.1078,1.01476 2.02553,1.83367 2.03939,1.8198 0.0139,-0.0139 -0.0801,-0.42942 -0.20877,-0.92346 -1.81566,-6.97017 -0.5721,-9.0813 6.62496,-11.24688 1.02624,-0.30879 2.36646,-0.77458 2.97828,-1.03508 0.62245,-0.26503 1.31171,-0.4747 1.56493,-0.47603 0.41395,-0.002 0.48285,-0.0535 0.80827,-0.6016 0.784,-1.32056 2.24188,-2.12761 5.00485,-2.77058 1.1566,-0.26915 2.62735,-0.62214 3.26833,-0.78441 6.14207,-1.55499 9.87946,2.67532 7.49769,8.48654 -1.39002,3.39146 -5.39097,9.02896 -6.41219,9.03502 -0.29401,0.002 -4.39179,0.59551 -4.43957,0.64329 -0.10952,0.10952 1.70096,1.04238 2.54979,1.31379 1.33323,0.42629 4.07392,0.3847 5.95877,-0.0904 1.13017,-0.28489 1.31805,-0.36196 1.02322,-0.41975 -0.48772,-0.0956 0.24709,-0.54408 1.77227,-1.08171 7.95479,-2.80411 17.72229,-12.33094 17.72791,-17.29112 0.001,-1.09557 0.001,-1.09557 1.90636,-1.56188 2.52732,-0.61859 2.23942,-0.65367 -0.55966,-0.0682 -1.23656,0.25866 -2.2483,0.4331 -2.2483,0.38764 0,-1.44365 3.57449,-3.17135 5.47161,-2.64465 0.71041,0.19723 1.625,1.19071 1.09616,1.19071 -0.0954,0 -0.20828,0.0563 -0.25084,0.1252 -0.0507,0.082 0.0364,0.0966 0.25259,0.0424 0.67784,-0.17012 0.14915,2.33964 -0.92832,4.40682 -2.91372,5.59016 -12.95674,13.56061 -20.20707,16.03697 -12.05438,4.11719 -14.91247,4.37311 -18.85401,1.6882 -3.23662,-2.20473 -3.64239,-4.4534 -1.87342,-10.38204 0.38507,-1.29053 0.54489,-1.99796 0.45629,-2.01969 -0.075,-0.0184 -0.83091,0.12399 -1.67979,0.3164 -1.53433,0.34778 -1.54301,0.34833 -1.4714,0.0936 0.36076,-1.28318 0.26451,-1.42222 -0.59131,-0.85417 -2.04968,1.3605 -2.40566,2.6745 -1.75457,6.47645 0.65904,3.84834 1.26017,5.36984 3.02817,7.66441 3.12292,4.05304 3.39163,4.77921 1.95668,5.28778 -0.45358,0.16075 -1.43847,0.58058 -2.18863,0.93293 -1.38128,0.6488 -1.8123,0.74398 -2.24745,0.4963 z m 12.73443,-11.93411 c 1.70164,-1.72887 3.89889,-5.35312 4.68271,-7.7239 1.08569,-3.28382 -0.61446,-6.23864 -3.7541,-6.52458 -1.18881,-0.10827 -2.16334,1.62126 -3.62339,6.43059 -1.52202,5.01346 -1.42951,6.84979 0.43976,8.72839 0.67426,0.67763 0.70352,0.66581 2.25502,-0.9105 z m -68.95149,-0.97348 c -7.377221,-1.39775 -12.720921,-8.31652 -12.695691,-16.43779 0.004,-1.38752 0.004,-1.38752 2.83251,-2.672 2.8282,-1.28448 2.8282,-1.28448 2.73432,-0.18057 -0.56568,6.65129 2.64035,12.35386 8.377881,14.90174 1.24085,0.55103 1.36637,0.28028 1.12292,-2.42199 -0.27478,-3.04993 -0.91332,-4.86097 -1.75858,-4.98773 -2.083361,-0.31242 -1.444981,-2.36434 1.06985,-3.43876 2.75192,-1.17573 3.75471,-1.18175 4.51632,-0.0271 0.16208,0.24573 7.88344,1.82871 8.93646,1.83209 0.69245,0.002 -1.90689,-4.91045 -3.91893,-7.40666 -2.59223,-3.21601 -7.54315,-6.66291 -9.37695,-6.52837 -0.23924,0.0175 -0.4128,0.0542 -0.3857,0.0815 0.0426,0.0429 -0.8575,0.49208 -0.98604,0.49208 -0.20107,0 -0.009,-0.8603 0.22381,-1.00128 1.28442,-0.77854 2.97845,-1.8773 3.65653,-2.37164 1.98608,-1.44793 5.33428,0.13001 9.84173,4.63822 3.7104,3.71102 8.00921,11.48433 6.86941,12.42159 -3.59059,2.9526 -5.06508,3.5943 -7.58703,3.30189 -0.82686,-0.0959 -5.88893,-0.93654 -5.88893,-0.97799 0,-2.2e-4 0.0198,1.09656 0.0441,2.4373 0.039,2.15596 -0.0223,3.17229 -0.29227,4.84528 -0.0496,0.30769 -0.32257,0.54349 -1.84439,1.59348 -2.78627,1.9224 -3.71197,2.24383 -5.4913,1.9067 z m -60.731277,-20.68663 c 0,-0.0275 0.92029,-0.77245 2.0451,-1.65536 2.15077,-1.68823 2.45568,-2.00337 1.18829,-1.22818 -1.06176,0.64942 -1.486,0.85368 -1.00721,0.48492 3.90597,-3.00826 4.78264,-3.82119 8.71459,-8.08098 1.0195,-1.1045 1.0742,-1.11205 -2.53081,0.34952 -14.01989,5.68406 -19.734,6.04925 -20.47228,1.30842 -0.83789,-5.38039 -0.0754,-8.88994 2.13104,-9.80878 0.66208,-0.27572 1.85384,-0.86159 2.64834,-1.30193 2.43036,-1.34699 7.6515,-0.805 9.91694,1.02944 0.65272,0.52855 -4.91483,3.47546 -5.64182,2.98623 -2.79801,-1.88293 -4.02422,-1.62146 -4.07512,0.86896 -0.14976,7.32827 2.34859,8.0873 13.52322,4.10853 3.09089,-1.10052 3.83974,-1.40246 7.04218,-2.83943 3.78611,-1.69887 4.03781,-1.79305 4.27213,-1.59858 0.5558,0.46127 0.29104,0.85293 -2.68626,3.97361 -4.52357,4.74143 -7.89845,7.46372 -12.23942,9.87274 -0.86071,0.47765 -1.84933,1.02876 -2.19692,1.2247 -0.3476,0.19594 -0.63199,0.33372 -0.63199,0.30617 z m 84.024647,-0.9747 c -3.8271,-1.15271 -7.10334,-3.88263 -8.00132,-6.66706 -0.2389,-0.74078 -0.17201,-0.71909 -0.92829,-0.30094 -0.95433,0.52765 -1.49416,-0.32218 -2.08233,-3.27817 -0.68146,-3.42484 -0.69849,-3.2851 0.50929,-4.17797 0.38046,-0.28127 0.99796,-0.7712 1.37222,-1.08875 0.46975,-0.39858 1.30849,-0.86994 2.70853,-1.52215 1.11543,-0.51963 2.46142,-1.15534 2.99109,-1.41269 3.08735,-1.50004 9.86701,0.41243 12.5221,3.53235 3.1802,3.73695 2.07107,10.44733 -2.1093,12.76157 -4.8454,2.68238 -5.03398,2.74055 -6.98199,2.15381 z m 4.77276,-4.00351 c 2.23247,-6.20635 -0.99085,-10.69406 -8.32395,-11.58916 -2.39879,-0.2928 -2.42726,-0.2706 -2.16922,1.6917 0.352,2.67683 0.25825,2.59192 2.02206,1.83125 1.52238,-0.65655 1.43178,-0.68483 1.2072,0.37683 -0.5862,2.77112 1.4109,6.11094 4.45912,7.45715 0.20868,0.0922 0.81278,0.36082 1.34245,0.59702 1.16695,0.52039 1.14166,0.5267 1.46234,-0.36479 z m 11.23766,-6.56451 c 0,-0.90605 -7.39591,-8.71733 -10.06874,-10.63421 -0.55327,-0.39679 -0.82163,-0.17616 2.68673,-2.20891 0.86396,-0.50059 0.86396,-0.50059 -0.0738,-2.45657 -2.75266,-5.7414 -2.75798,-5.77891 -1.04847,-7.399 2.08937,-1.98006 7.00685,-2.96816 9.51873,-1.91266 0.59835,0.25143 0.71391,0.15671 -2.21823,1.81824 -2.98453,1.69121 -2.7309,1.43502 -2.40273,2.42697 1.24865,3.77424 3.56364,8.17182 7.37243,14.00478 3.04076,4.65676 3.02545,4.51872 0.56774,5.11859 -1.68684,0.41172 -3.47709,1.00309 -3.87071,1.27861 -0.40762,0.28531 -0.46294,0.28103 -0.46294,-0.0358 z m -90.399007,-6.51522 c -0.83289,-1.31945 -5.53472,-8.53906 -5.61752,-8.62564 -0.0274,-0.0286 -1.07815,0.35888 -2.33509,0.86109 -1.25694,0.50221 -2.28535,0.89656 -2.28535,0.87634 0,-0.0202 -1.42226,-0.24347 -0.36292,-0.98267 1.05933,-0.7392 4.11553,-1.7722 4.11553,-1.80902 0,-0.20136 -2.54874,-3.74213 -3.78534,-5.1941 -0.52653,-0.61824 -0.91062,-1.1643 -0.85353,-1.21345 0.43406,-0.37377 5.15059,-3.13533 5.22263,-3.05788 0.0505,0.0543 0.73858,1.12796 1.52908,2.38592 2.42622,3.861 2.85727,4.51119 2.99176,4.51273 0.0713,8.2e-4 2.14673,-1.05895 2.56286,-1.22804 0.9439,-0.38354 0.74427,0.81195 -0.0316,1.30984 -1.00743,0.64647 -2.45083,0.21261 -0.46922,3.19207 0.98268,1.47751 2.5302,3.70421 3.43895,4.94821 0.90874,1.244 1.65226,2.30167 1.65226,2.35037 0,0.0972 -4.74535,2.91358 -4.89995,2.90812 -0.0527,-0.002 -0.44532,-0.55712 -0.87252,-1.23389 z m 18.8185,0.98559 c -3.41137,-0.57036 -9.15576,-4.16771 -10.93936,-6.85063 -2.49595,-3.75444 -1.24477,-6.74421 3.93018,-9.39143 1.40225,-0.71732 1.40225,-0.71732 1.66532,-1.59165 0.90113,-2.9949 2.48232,-4.48703 7.85802,-7.41538 4.55384,-2.48066 7.76858,-1.67505 9.35788,2.34507 0.37169,0.94018 0.36671,0.93705 0.95802,0.60118 0.51571,-0.29293 0.51571,-0.29293 -0.34133,-0.99309 -1.02105,-0.83414 -1.00915,-0.77511 -0.25037,-1.24199 0.60667,-0.37329 0.60667,-0.37329 -0.13545,-1.42478 -2.97694,-4.21795 -4.78125,-7.1966 -4.8838,-8.06245 -0.36536,-3.08495 6.96535,-7.19944 10.913056,-6.12514 8.28211,2.25381 9.24093,9.00051 2.07584,14.6066 -1.16916,0.91477 -1.30597,0.50496 1.17689,3.52523 1.7245,2.09776 7.2061,8.88923 9.48077,11.74627 0.742051,0.93204 1.484991,1.7673 1.650971,1.85613 0.16598,0.0888 0.30179,0.21749 0.30179,0.28591 0,0.0684 0.17362,0.30353 0.38582,0.52247 0.50216,0.5181 0.40268,0.61476 -1.15732,1.12446 -1.150781,0.37599 -1.233131,0.42729 -2.336611,1.45568 -1.26454,1.17849 -1.44351,1.244 -1.84771,0.67635 -0.15258,-0.21429 -0.34979,-0.4716 -0.43823,-0.5718 -0.0885,-0.10021 -1.25668,-1.69898 -2.59607,-3.55281 -8.676436,-12.009 -10.113056,-13.62439 -11.451126,-12.8761 -0.81021,0.4531 -0.81021,0.4531 -0.73087,1.00678 0.73435,5.12466 0.19917,9.07731 -1.90132,14.04245 -0.68901,1.62869 -0.66674,1.6026 -3.07083,3.5957 -3.00109,2.48804 -4.92488,3.16663 -7.67416,2.70697 z m 6.14981,-4.92462 c 3.98203,-7.87033 2.1117,-17.88301 -3.45032,-18.47101 -1.22055,-0.12903 -2.39673,1.63665 -2.91649,4.3782 -0.23459,1.23735 0.13762,0.932 -2.87631,2.35973 -6.43766,3.0496 -3.63965,9.60365 5.516,12.92071 2.21579,0.80277 2.81699,0.6112 3.72712,-1.18763 z m 12.528606,-22.41457 c 2.32826,-3.97257 0.556,-7.58919 -4.494876,-9.17262 -1.63505,-0.51257 -1.71763,-0.44147 -1.15021,0.99036 0.90101,2.27361 4.825906,9.15745 5.118216,8.97679 0.0528,-0.0326 0.28988,-0.39016 0.52687,-0.79453 z m 67.058081,24.90509 c -0.15981,-0.21113 -1.22308,-2.14443 -2.36282,-4.29621 -7.91987,-14.95234 -13.80009,-24.1244 -19.54521,-30.4869 -1.15767,-1.28207 -1.15767,-1.28207 -0.64523,-1.57854 2.93817,-1.69984 4.85878,-2.6879 4.98026,-2.56211 0.13661,0.14144 3.48539,5.41056 6.20884,9.76926 0.82739,1.32417 3.07437,5.00777 4.9933,8.18578 7.02631,11.63654 10.67525,17.31215 11.56232,17.98419 0.28016,0.21225 0.30519,0.27244 0.15398,0.37023 -3.20752,2.07437 -5.06611,2.98335 -5.34544,2.6143 z m 7.26939,-5.54131 c -4.8015,-1.30691 -6.5845,-10.39856 -3.72771,-19.00793 0.93434,-2.81578 1.59805,-3.65605 3.32321,-4.20722 0.92738,-0.2963 0.92738,-0.2963 -0.32914,-1.39181 -4.95673,-4.32157 -12.31707,-9.5799 -16.05714,-11.47144 -0.89428,-0.45229 -0.5617,-0.79502 1.63248,-1.68232 1.0599,-0.42861 1.6221,-0.73062 1.94255,-1.04352 0.43937,-0.42904 1.48263,-0.73852 1.74954,-0.51901 0.0509,0.0418 0.39043,0.1663 0.75458,0.27659 1.59964,0.48445 5.45407,2.56944 9.40585,5.08795 2.6838,1.71042 7.3974,4.5268 14.48941,8.65744 9.48088,5.522 14.56588,8.85664 14.56588,9.552 0,1.07465 -5.46126,2.89376 -6.2914,2.09562 -1.88007,-1.80759 -5.64651,-4.61758 -9.41808,-7.02646 -2.73392,-1.74613 -2.66416,-1.72503 -1.75244,-0.53011 2.94907,3.86512 2.83772,8.09802 -0.36686,13.94557 -1.93535,3.53151 -2.9171,4.65235 -4.76456,5.43954 -0.74916,0.31922 -1.93091,0.8629 -2.6261,1.20819 -1.48486,0.73749 -1.80253,0.81495 -2.53007,0.61692 z m 4.71911,-5.62353 c 2.89907,-5.34386 3.03491,-9.19666 0.45578,-12.9275 -2.53915,-3.67302 -3.47803,-3.43979 -4.39563,1.09193 -1.14725,5.6659 -0.14239,11.5129 2.28543,13.29834 0.6374,0.46874 0.57813,0.52114 1.65442,-1.46277 z"
       id="path45" /></g></svg>
