<?xml version="1.0" encoding="UTF-8" standalone="no"?>
<!-- Created with Inkscape (http://www.inkscape.org/) -->

<svg
   width="162.37178mm"
   height="157.39444mm"
   viewBox="0 0 162.37178 157.39444"
   version="1.1"
   id="svg1"
   xml:space="preserve"
   xmlns="http://www.w3.org/2000/svg"
   xmlns:svg="http://www.w3.org/2000/svg"><defs
     id="defs1" /><g
     id="layer1"
     transform="translate(719.81435,535.09952)"><path
       id="path232"
       style="opacity:0.6;fill:#f9f9f9"
       d="m -688.32327,-377.81925 c -0.0285,-0.0896 -0.15865,-0.48799 -0.28919,-0.88524 -0.22583,-0.68729 -0.23448,-0.98465 -0.17854,-6.13934 l 0.0588,-5.41706 -0.44163,0.66208 c -1.39926,2.09773 -5.09821,4.77457 -9.00255,6.51491 -1.70689,0.76084 -2.54338,0.99134 -4.95436,1.36517 -5.23905,0.81234 -8.14319,0.99112 -9.9408,0.61198 -2.05667,-0.43379 -5.80812,-2.68155 -6.40192,-3.83585 -0.28921,-0.5622 -0.42648,-1.97 -0.28444,-2.91717 0.1181,-0.78759 0.44851,-1.08219 1.33748,-1.19254 1.03289,-0.12822 2.69425,-0.58642 4.13556,-1.14057 0.68994,-0.26527 1.20456,-0.43849 1.1436,-0.38493 -0.061,0.0536 -1.35677,0.84445 -2.87957,1.75754 -1.52279,0.91309 -2.82289,1.71277 -2.8891,1.77707 -0.0662,0.0643 0.64343,-0.26402 1.57697,-0.72959 1.4165,-0.70643 4.75596,-2.18715 4.93268,-2.18715 0.0281,0 0.051,0.1545 0.051,0.34333 0,0.53216 0.44604,1.05148 1.62512,1.89212 1.46169,1.04213 3.03564,1.80234 4.09289,1.97684 1.35376,0.22345 3.74346,0.15669 6.38109,-0.17825 1.32362,-0.16809 2.67696,-0.37257 3.00741,-0.45442 0.58221,-0.14421 0.61816,-0.17907 1.16036,-1.12547 0.7208,-1.25815 0.76089,-1.39739 0.49644,-1.72397 -0.26034,-0.32151 -1.08612,-0.50867 -3.46142,-0.78452 -3.16187,-0.3672 -5.58713,-0.96531 -8.79225,-2.16834 -0.94658,-0.35529 -2.6058,-0.87168 -3.68715,-1.14752 -2.35801,-0.60151 -2.86066,-0.80829 -3.25833,-1.34038 -0.5122,-0.68534 -0.6144,-1.20947 -0.53528,-2.74511 0.12359,-2.3987 0.51176,-3.33411 1.93263,-4.65732 1.96587,-1.83075 4.73963,-3.41175 8.80294,-5.01753 1.25797,-0.49714 2.54692,-0.99036 2.86435,-1.09606 0.96287,-0.32062 3.48138,-0.78944 4.67638,-0.8705 l 1.12657,-0.0764 -0.30095,0.23606 c -0.16552,0.12983 -1.65521,1.1849 -3.31042,2.34461 l -3.00948,2.10855 -1.38436,0.14149 c -1.25732,0.1285 -2.91044,0.46977 -3.22887,0.66657 -0.42159,0.26055 -0.93907,2.82039 -0.79291,3.92224 0.12512,0.94316 0.31325,1.05769 2.81476,1.71361 1.20013,0.31469 2.51792,0.71266 2.92842,0.88438 3.89989,1.6314 6.10532,2.20927 9.6365,2.52494 3.34716,0.29923 3.94338,0.47743 4.33112,1.29453 0.31106,0.65551 0.25886,1.50264 -0.14149,2.29635 -0.18839,0.37348 -0.32471,0.67905 -0.30294,0.67905 0.0218,0 0.43893,-0.19761 0.92703,-0.43912 l 0.88745,-0.43913 -0.35208,-0.91514 c -1.01317,-2.63352 -4.32517,-7.72403 -7.92546,-12.18136 l -0.93241,-1.15436 3.55248,-2.03568 c 1.95387,-1.11963 3.59183,-2.05083 3.63992,-2.06934 0.0481,-0.0185 0.29516,0.27943 0.54904,0.66209 0.25389,0.38265 1.17461,1.67081 2.04606,2.86256 0.87145,1.19176 2.11466,2.94292 2.76268,3.89147 0.64803,0.94856 1.21829,1.67986 1.26726,1.62512 0.049,-0.0547 0.48695,-0.55998 0.9733,-1.12275 1.26465,-1.46338 6.02421,-6.25971 6.21171,-6.25971 0.0867,0 0.27997,0.18892 0.42955,0.41983 0.14958,0.23091 0.30176,0.42051 0.33818,0.42133 0.16279,0.004 6.49444,-3.69794 6.49444,-3.79678 0,-0.0563 -0.0147,-0.0506 -4.02482,1.55613 -1.58468,0.63493 -2.90199,1.13365 -2.92736,1.10828 -0.12823,-0.12823 1.75595,-1.28034 3.77614,-2.30896 1.25026,-0.6366 2.50768,-1.29184 2.79426,-1.45608 0.28659,-0.16425 0.55304,-0.26665 0.59212,-0.22757 0.0391,0.0391 0.15933,0.27114 0.26723,0.51568 l 0.19616,0.44462 -0.84847,0.72352 c -0.46666,0.39793 -2.09843,1.97183 -3.62616,3.49754 -4.71289,4.70669 -5.68053,6.34958 -7.03595,11.94599 -0.87311,3.60496 -1.47009,5.1878 -2.39246,6.3434 l -0.37353,0.46797 v 2.56714 c 0,2.30256 0.0254,2.63155 0.2463,3.19203 0.13547,0.34368 0.20319,0.66763 0.15048,0.71988 -0.10295,0.10206 -6.85766,3.94862 -7.1069,4.04712 -0.0822,0.0325 -0.1728,-0.0143 -0.20131,-0.10389 z m 9.31901,-16.57171 c 0,-0.0536 -0.0821,-0.20253 -0.18252,-0.33105 -0.16926,-0.21668 -0.17223,-0.2096 -0.0409,0.0974 0.14174,0.33122 0.22339,0.41663 0.22339,0.23367 z m 8.96648,15.58982 c 0.1355,-1.5838 0.31059,-9.64591 0.31583,-14.54251 l 0.005,-5.12921 3.73916,-1.82349 3.73917,-1.82348 -0.0738,0.75317 c -0.0406,0.41424 -0.1105,2.00972 -0.15541,3.5455 -0.0791,2.70437 -0.0744,2.7907 0.14733,2.74025 0.12595,-0.0286 0.87931,-0.21279 1.67415,-0.40919 0.79484,-0.1964 1.85116,-0.41728 2.34739,-0.49084 0.72902,-0.10808 2.8611,-0.49918 4.29143,-0.7872 0.50038,-0.10076 0.6697,-0.9358 0.73341,-3.61688 0.0532,-2.23993 0.0394,-2.46084 -0.18622,-2.97084 -0.15544,-0.3514 -0.37662,-0.6197 -0.61064,-0.74071 -1.02713,-0.53115 -4.03043,-0.8534 -6.25765,-0.67143 -1.59986,0.13072 -4.00217,0.59937 -4.56545,0.89065 -0.37776,0.19535 -1.98204,1.42342 -2.61449,2.00139 -0.23245,0.21243 -1.4764,0.76904 -3.49099,1.56208 -1.72143,0.67763 -3.39911,1.33825 -3.72819,1.46805 l -0.59834,0.23599 0.22799,-0.25193 c 1.17837,-1.30207 8.91627,-6.41718 12.16394,-8.04091 3.47245,-1.73612 6.77738,-2.55726 10.29242,-2.55726 2.57884,0 4.75697,0.38112 5.66132,0.99059 0.50902,0.34305 0.97836,1.24375 1.05303,2.02083 0.0316,0.32919 0.0912,0.59782 0.13248,0.59695 0.0412,-8.7e-4 1.5594,-0.73292 3.37371,-1.62677 1.8143,-0.89386 3.31738,-1.60656 3.34016,-1.58377 0.0228,0.0228 -0.0118,1.96013 -0.0769,4.30521 -0.065,2.34508 -0.11909,5.45554 -0.12007,6.91212 l -0.002,2.64834 4.12304,-0.0409 c 2.26767,-0.0225 4.14485,-0.0623 4.17152,-0.0886 0.0267,-0.0263 -0.0133,-1.06421 -0.0888,-2.30653 -0.0755,-1.24233 -0.17314,-3.03085 -0.21691,-3.97448 l -0.0796,-1.7157 3.68023,-1.80539 c 2.02413,-0.99297 3.69795,-1.80536 3.71961,-1.80533 0.0217,3e-5 0.0464,1.17824 0.0549,2.61825 0.009,1.49813 0.12476,3.90496 0.27086,5.62611 0.14042,1.65436 0.25532,3.13051 0.25532,3.28033 v 0.2724 l 2.79882,0.007 c 2.95037,0.008 3.84838,0.088 4.1302,0.36978 0.14903,0.14902 -0.26541,0.43075 -3.10768,2.11255 l -3.27963,1.94059 0.0375,0.9449 c 0.0206,0.5197 0.12106,1.5137 0.22324,2.20889 0.10218,0.69519 0.19366,1.3558 0.2033,1.46802 0.0122,0.14241 -0.98228,0.85295 -3.2929,2.35263 -1.82074,1.18173 -3.37576,2.1886 -3.45562,2.23748 -0.2399,0.14687 -0.52627,-0.44327 -0.64322,-1.32554 -0.0598,-0.45115 -0.16369,-1.79534 -0.23085,-2.98709 -0.13207,-2.34343 -0.34902,-4.4138 -0.48568,-4.63492 -0.0614,-0.0994 -1.31804,-0.14417 -4.46656,-0.15926 l -4.38111,-0.021 v 2.2007 c 0,2.45909 0.0357,2.35947 -0.89266,2.49033 -0.30354,0.0428 -1.06651,0.21181 -1.69549,0.37561 -1.23547,0.32174 -2.17763,0.86647 -3.95871,2.2888 -0.48897,0.39048 -0.92127,0.68288 -0.96066,0.64978 -0.0394,-0.0331 -0.0544,-0.39587 -0.0333,-0.80614 0.10977,-2.13451 0.21268,-6.96832 0.14975,-7.03429 -0.0399,-0.0418 -0.64126,-0.01 -1.33645,0.0709 -0.69519,0.0808 -1.28008,0.135 -1.29976,0.12044 -0.0197,-0.0145 0.5649,-0.46771 1.29907,-1.00702 0.73416,-0.53931 1.35514,-1.04686 1.37995,-1.12789 0.0248,-0.081 0.0738,-1.69118 0.10885,-3.57812 0.05,-2.68822 0.0326,-3.38164 -0.0802,-3.20365 -0.53922,0.85095 -1.00162,1.5066 -1.27303,1.80506 -0.52703,0.57954 -4.56321,3.20036 -5.97328,3.87864 -1.68213,0.80913 -2.67953,1.07988 -4.85724,1.31853 -0.96133,0.10535 -2.21187,0.2849 -2.77897,0.399 l -1.03109,0.20746 -0.0211,4.91459 -0.0211,4.9146 -3.74343,1.84477 -3.74342,1.84477 z m 104.22922,-1.20744 c -0.66549,-0.72815 -2.31588,-3.34551 -3.35252,-5.31677 -0.38299,-0.72829 -0.87264,-1.57469 -1.08812,-1.88089 -0.21547,-0.3062 -0.89284,-1.4167 -1.50527,-2.46777 -1.71372,-2.94117 -3.90407,-6.26192 -6.08591,-9.22676 l -0.51135,-0.69486 -0.0857,0.57152 c -0.12373,0.82512 0.0238,4.37039 0.31042,7.45936 0.15647,1.68621 0.23537,3.33468 0.21434,4.47784 l -0.0333,1.8092 -3.66654,1.81196 c -2.0166,0.99659 -3.69589,1.81201 -3.73176,1.81205 -0.0359,4e-5 -0.0471,-1.04274 -0.025,-2.3173 0.0221,-1.27456 -0.0456,-3.86947 -0.15047,-5.76648 -0.10487,-1.89701 -0.19356,-4.09092 -0.19708,-4.87535 l -0.006,-1.42626 -0.30069,1.02322 c -0.16538,0.56278 -0.51294,1.45659 -0.77236,1.98626 -0.46884,0.95726 -3.00607,4.4571 -4.31394,5.95064 -2.0541,2.34568 -6.39426,4.89086 -11.15508,6.54161 -2.68806,0.93204 -5.68553,1.2004 -7.71235,0.69046 -1.47578,-0.3713 -3.03471,-1.19369 -3.75341,-1.98006 -0.6509,-0.71219 -1.62657,-2.54906 -1.82623,-3.4382 -0.15193,-0.67657 -0.16139,-6.06484 -0.0132,-7.52369 0.10142,-0.99851 0.17297,-1.20696 0.91301,-2.65987 1.18961,-2.33555 3.18901,-5.03476 5.60912,-7.57236 0.75555,-0.79223 0.93366,-1.05429 1.00421,-1.47759 0.12912,-0.77473 0.72749,-1.86873 1.32167,-2.41643 0.78212,-0.72094 2.18211,-1.36925 4.97539,-2.30404 3.56191,-1.19201 4.48142,-1.36369 7.36938,-1.3759 1.9566,-0.008 2.4666,0.0269 3.06338,0.21102 1.01453,0.31307 1.9625,0.81769 2.61116,1.38995 0.94584,0.83443 2.3608,3.20076 2.99575,5.00996 0.12472,0.35535 0.23628,0.52793 0.27236,0.42132 0.0336,-0.0993 0.12458,-0.93895 0.20214,-1.86587 0.0776,-0.92692 0.16829,-1.79942 0.20162,-1.93888 0.0467,-0.1953 0.9181,-0.67175 3.79254,-2.07353 3.57139,-1.74167 3.72899,-1.80585 3.6633,-1.49193 -0.12938,0.61836 -0.29939,2.00419 -0.25171,2.05187 0.0262,0.0262 0.36941,-0.14778 0.76266,-0.38666 0.39324,-0.23888 0.7758,-0.43433 0.85013,-0.43433 0.1524,0 6.14048,7.97102 8.43628,11.22991 0.90745,1.28814 1.53171,2.07099 1.57939,1.98063 0.0434,-0.0822 0.11584,-0.71037 0.16105,-1.396 0.0452,-0.68563 0.26653,-2.33783 0.49181,-3.67156 0.36416,-2.15588 0.60427,-4.35247 0.6921,-6.33142 l 0.0291,-0.65621 3.61137,-1.83873 c 1.98626,-1.01129 3.65992,-1.84004 3.71925,-1.84165 0.12073,-0.003 0.0138,2.45459 -0.18062,4.15015 -0.0683,0.59587 -0.30458,2.08557 -0.52505,3.31042 -0.66901,3.71682 -0.72674,4.56791 -0.72267,10.65356 0.003,5.11728 0.0239,5.66531 0.2702,7.22275 0.14657,0.92691 0.26679,1.91669 0.26715,2.1995 5.5e-4,0.43574 0.0481,0.5358 0.31158,0.65586 0.29365,0.13379 0.25846,0.15555 -0.63304,0.39147 -1.06179,0.28097 -2.15398,0.96712 -3.71362,2.33301 -2.0474,1.79306 -2.24278,1.94386 -2.51861,1.94386 -0.18849,0 -0.47921,-0.21457 -0.86987,-0.64201 z m -33.27446,-4.42834 c 0.36993,-0.0657 0.76893,-0.14758 0.88666,-0.18205 0.23277,-0.0681 3.04944,-3.76963 3.74958,-4.92744 0.54637,-0.90354 1.19062,-2.5662 1.53626,-3.96472 0.22797,-0.92239 0.26855,-1.42334 0.27303,-3.37061 0.005,-2.187 -0.009,-2.33222 -0.3316,-3.31474 -0.63777,-1.94535 -1.97642,-4.04415 -3.02059,-4.73585 -0.97434,-0.64543 -1.62998,-0.81456 -3.68132,-0.94964 l -1.86248,-0.12264 -0.83607,0.88987 c -2.03894,2.17015 -3.67614,4.36999 -4.76538,6.40306 -0.95514,1.78278 -0.97307,1.87529 -1.10021,5.67864 -0.12687,3.79542 -0.0861,4.18978 0.57797,5.58578 0.7994,1.68057 2.01387,2.50617 4.55197,3.09444 0.77556,0.17976 2.77065,0.13804 4.02218,-0.0841 z m -113.26626,-5.94435 c 0,-0.28088 0.0401,-0.30095 0.60189,-0.30095 0.33105,0 0.6019,0.029 0.6019,0.0645 0,0.0577 -1.02981,0.53743 -1.15358,0.53743 -0.0276,0 -0.0502,-0.13543 -0.0502,-0.30095 z m 84.54659,-15.17586 c -0.10033,-0.26146 0.15438,-0.50734 0.33669,-0.32503 0.15409,0.15409 0.0586,0.51369 -0.13636,0.51369 -0.0704,0 -0.16051,-0.0849 -0.20033,-0.18866 z m -12.68417,-21.96845 c -0.064,-0.11967 -0.11645,-0.43783 -0.11645,-0.70702 0,-0.48537 -0.004,-0.48942 -0.45142,-0.48906 -0.24828,2e-4 -1.14224,-0.0872 -1.98657,-0.19421 -1.41256,-0.17904 -1.55881,-0.17907 -1.83154,-3.7e-4 -0.38903,0.25491 -0.54563,0.24529 -0.54563,-0.0335 0,-0.24423 -0.1604,-0.30564 -1.14361,-0.43784 -1.63989,-0.2205 -9.63489,-2.31162 -10.88314,-2.84653 -0.42021,-0.18007 -0.68045,-0.21039 -1.25134,-0.1458 l -0.72079,0.0816 0.0768,-0.30592 c 0.0901,-0.3589 -0.0679,-0.4514 -0.771,-0.4514 -0.45214,0 -0.46622,-0.0122 -0.39935,-0.34654 0.0449,-0.22439 0.012,-0.38259 -0.0933,-0.44881 -0.0894,-0.0562 -0.92099,-0.14864 -1.84791,-0.20533 -2.28634,-0.13982 -2.50034,-0.1436 -2.70854,-0.0479 -0.0993,0.0457 -0.26119,0.0318 -0.35974,-0.0309 -0.14885,-0.0946 -0.1105,-0.18472 0.22659,-0.53251 0.24605,-0.25387 0.37818,-0.49052 0.33568,-0.60126 -0.0385,-0.10044 -0.35719,-0.34727 -0.7081,-0.54851 -0.51533,-0.29553 -0.77708,-0.36611 -1.3611,-0.36702 -0.39769,-6.2e-4 -0.91231,-0.0563 -1.1436,-0.12362 -0.29211,-0.0851 -0.68166,-0.0809 -1.27565,0.0137 -1.04248,0.16599 -1.3719,0.0466 -1.3719,-0.49731 0,-0.32517 -0.0361,-0.35691 -0.40658,-0.35691 -0.44128,0 -0.7949,-0.27395 -0.54944,-0.42565 0.23268,-0.14381 -0.13213,-0.29274 -0.72204,-0.29478 -0.72839,-0.003 -1.97362,-0.26292 -2.08209,-0.43542 -0.15814,-0.25148 -0.89709,-0.31429 -1.29242,-0.10986 -0.33249,0.17194 -0.398,0.17115 -0.74626,-0.009 -0.35506,-0.1836 -0.36559,-0.20644 -0.15047,-0.32633 0.12721,-0.0709 0.29804,-0.1953 0.37962,-0.27644 0.0816,-0.0811 0.217,-0.17064 0.30095,-0.19889 0.31724,-0.10676 -0.17865,-0.45048 -1.00494,-0.69656 -0.45578,-0.13574 -0.8287,-0.29868 -0.8287,-0.36208 0,-0.0634 -0.0963,-0.11528 -0.21397,-0.11528 -0.11768,0 -0.33058,-0.0817 -0.47311,-0.18151 -0.23866,-0.16716 -0.26541,-0.16172 -0.3386,0.0689 -0.0546,0.17205 -0.14199,0.2262 -0.27927,0.17307 -0.10988,-0.0425 -0.34988,-0.10761 -0.53333,-0.14463 -0.37477,-0.0756 -0.42412,-0.1319 -0.57401,-0.65452 l -0.10603,-0.36971 0.41651,0.0781 c 0.44547,0.0836 0.51148,-0.0119 0.29189,-0.42221 -0.0685,-0.12806 -0.20827,-0.23284 -0.31051,-0.23284 -0.14308,0 -0.168,-0.0815 -0.10817,-0.35392 0.0735,-0.33471 0.0496,-0.36193 -0.44185,-0.5017 -0.28578,-0.0813 -0.65798,-0.27413 -0.82713,-0.42855 -0.38983,-0.35589 -0.78516,-0.36005 -0.97238,-0.0102 -0.24333,0.45467 -0.26568,0.0166 -0.0323,-0.63248 0.21281,-0.59179 0.21239,-0.59912 -0.0492,-0.87754 -0.15747,-0.16763 -0.26376,-0.43529 -0.26376,-0.66424 0,-0.36783 -0.0199,-0.38347 -0.48679,-0.38347 -0.39684,0 -0.48026,-0.0389 -0.45143,-0.21067 0.0254,-0.1514 -0.0577,-0.22137 -0.29567,-0.24875 -0.26001,-0.0299 -0.33104,-0.10095 -0.33104,-0.33104 0,-0.3004 -0.37642,-0.77447 -0.61495,-0.77447 -0.0799,0 -0.10497,-0.11338 -0.0625,-0.28267 0.0549,-0.21887 0.006,-0.31215 -0.21568,-0.41327 -0.15764,-0.0718 -0.27849,-0.22152 -0.26856,-0.33266 0.0203,-0.22687 -0.18245,-0.36768 -0.68095,-0.47298 -0.26216,-0.0554 -0.3219,-0.12172 -0.26658,-0.29602 0.049,-0.15438 -0.03,-0.30431 -0.25243,-0.4793 -0.28738,-0.22605 -0.30813,-0.28887 -0.18484,-0.55946 0.21179,-0.46483 0.17753,-0.52523 -0.3453,-0.60884 -0.485,-0.0776 -0.76622,-0.29108 -0.50016,-0.37977 0.21773,-0.0726 0.16878,-0.32649 -0.11187,-0.58031 -0.13947,-0.12612 -0.35464,-0.42734 -0.47816,-0.66936 -0.20642,-0.40443 -0.49433,-0.69258 -1.0037,-1.00451 -0.16909,-0.10355 -0.17572,-0.17486 -0.0474,-0.51011 0.16679,-0.43578 0.13487,-0.48091 -1.37764,-1.9479 -0.38098,-0.36952 -0.69246,-0.73831 -0.69218,-0.81954 2.8e-4,-0.0812 0.13594,-0.23644 0.30146,-0.34489 0.40972,-0.26846 0.39579,-0.7719 -0.0354,-1.27882 -0.18498,-0.21748 -0.42954,-0.54369 -0.54346,-0.72491 -0.11393,-0.18123 -0.40949,-0.43403 -0.6568,-0.56179 -0.24731,-0.12777 -0.51783,-0.34515 -0.60115,-0.48307 -0.0833,-0.13792 -0.22566,-0.25077 -0.31631,-0.25077 -0.0906,0 -0.23171,-0.0806 -0.31348,-0.17914 -0.12041,-0.14508 -0.11177,-0.19331 0.0455,-0.25364 0.13754,-0.0528 0.19412,-0.2276 0.19412,-0.59972 0,-0.44318 -0.056,-0.56664 -0.35862,-0.79037 -0.26893,-0.19882 -0.32656,-0.30379 -0.2304,-0.41965 0.14434,-0.17392 0.047,-0.40572 -0.17045,-0.40602 -0.25823,-3.5e-4 -1.0287,-0.91678 -0.91942,-1.09359 0.0562,-0.0909 0.0477,-0.22532 -0.0191,-0.30591 -0.0795,-0.0958 -0.0765,-0.17025 0.009,-0.22302 0.0705,-0.0436 0.0938,-0.1348 0.0519,-0.20273 -0.042,-0.0679 0.0449,-0.28746 0.19304,-0.48785 0.24828,-0.33581 0.25704,-0.40169 0.11194,-0.84136 -0.12684,-0.38433 -0.12803,-0.5241 -0.006,-0.71934 0.0832,-0.13329 0.13404,-0.25407 0.1129,-0.2684 -0.45465,-0.30835 -0.68431,-0.5482 -0.58418,-0.61008 0.0684,-0.0423 0.12442,-0.16553 0.12442,-0.27387 0,-0.10833 0.14896,-0.35243 0.33104,-0.54244 0.2965,-0.30942 0.33527,-0.44827 0.37162,-1.33076 0.0394,-0.95719 -0.01,-1.19987 -0.46879,-2.32178 -0.1397,-0.34131 -0.12526,-0.40964 0.16777,-0.79382 0.38251,-0.5015 0.39905,-0.75835 0.0799,-1.2403 -0.30486,-0.46032 -0.30335,-0.85889 0.005,-1.36494 0.28286,-0.46396 0.24123,-0.69009 -0.26243,-1.42547 -0.52367,-0.76459 -0.4689,-1.04004 0.28735,-1.44531 l 0.63199,-0.33869 0.0602,-2.10663 c 0.0331,-1.15865 0.10883,-2.18215 0.16829,-2.27444 0.0743,-0.11542 -0.006,-0.10039 -0.25751,0.0482 -0.35773,0.21132 -0.37518,0.21005 -0.81093,-0.0593 -0.3207,-0.1982 -0.40138,-0.3024 -0.28829,-0.3723 0.11199,-0.0692 0.0548,-0.13592 -0.19911,-0.23247 l -0.35617,-0.13542 0.33015,-0.20033 c 0.29182,-0.17706 0.33015,-0.27287 0.33015,-0.82519 0,-0.6002 0.0154,-0.62959 0.39124,-0.74444 0.21517,-0.0658 0.58641,-0.15219 0.82497,-0.19205 l 0.43374,-0.0725 0.071,-1.09599 c 0.0567,-0.87598 0.0335,-1.15319 -0.11574,-1.38099 -0.22061,-0.33669 -0.15016,-0.38179 0.67806,-0.43408 0.4658,-0.0294 0.5742,-0.0904 0.80993,-0.45528 0.14968,-0.23173 0.54467,-0.80736 0.87775,-1.27919 0.80453,-1.13966 0.91043,-1.45917 0.67241,-2.02883 -0.10237,-0.24499 -0.28947,-0.47246 -0.41579,-0.50549 -0.21045,-0.055 -0.21514,-0.0869 -0.056,-0.38039 0.13094,-0.24157 0.16481,-0.68491 0.13777,-1.80337 -0.0317,-1.30994 -0.0113,-1.49683 0.17482,-1.60101 0.11586,-0.0649 0.21066,-0.19144 0.21066,-0.28127 0,-0.0996 0.0868,-0.14061 0.22263,-0.1051 0.16354,0.0428 0.27537,-0.0529 0.42133,-0.3605 0.10928,-0.2303 0.1987,-0.52533 0.1987,-0.65562 0,-0.13029 0.0838,-0.71717 0.18611,-1.30417 0.16957,-0.97234 0.16894,-1.11228 -0.007,-1.57304 -0.23792,-0.62298 -0.97678,-1.30836 -1.76244,-1.63486 -0.32543,-0.13525 -0.57257,-0.30562 -0.5492,-0.37862 0.0234,-0.073 0.85133,-0.4161 1.8399,-0.76247 0.98857,-0.34637 2.09533,-0.77973 2.45948,-0.96303 0.58134,-0.29263 0.66209,-0.37732 0.66209,-0.69441 0,-0.23612 -0.0552,-0.34969 -0.15943,-0.32806 -0.0877,0.0182 -0.12364,-0.0248 -0.0799,-0.0956 0.0437,-0.0708 0.0175,-0.20336 -0.0583,-0.29469 -0.11016,-0.13274 -0.004,-0.26743 0.53134,-0.67128 0.43805,-0.33073 0.67048,-0.59377 0.67299,-0.76161 0.002,-0.14101 0.0796,-0.35645 0.1723,-0.47875 0.0927,-0.1223 0.13597,-0.30706 0.0962,-0.41058 -0.0558,-0.14553 -0.0129,-0.17271 0.18934,-0.11982 0.2043,0.0534 0.27748,0.005 0.33424,-0.22114 0.04,-0.15925 0.0461,-0.35887 0.0136,-0.4436 -0.0772,-0.20117 0.35843,-0.72673 0.81562,-0.98399 0.19862,-0.11176 0.57782,-0.32488 0.84265,-0.47359 0.26484,-0.14871 0.60646,-0.45646 0.75916,-0.6839 0.16425,-0.24463 0.533,-0.53645 0.90285,-0.71448 0.50695,-0.24402 0.61822,-0.35128 0.58834,-0.56707 -0.0494,-0.3567 0.17384,-0.74824 0.49615,-0.87015 0.22536,-0.0852 0.29795,-0.0323 0.50745,0.3704 0.22273,0.4281 0.26466,0.4551 0.47168,0.30373 0.22117,-0.16173 0.21995,-0.1779 -0.0456,-0.60753 -0.25337,-0.40997 -0.2594,-0.46182 -0.0847,-0.72843 0.10344,-0.15787 0.39314,-0.35338 0.64376,-0.43446 0.25063,-0.0811 0.67237,-0.25504 0.93721,-0.38659 0.67335,-0.33447 2.10663,-1.40744 2.10663,-1.57706 0,-0.17344 2.46551,-1.7051 2.91117,-1.80853 0.17766,-0.0412 0.35844,-0.18656 0.40173,-0.32296 0.0433,-0.1364 0.46673,-0.49425 0.94096,-0.79523 0.47424,-0.30098 1.02477,-0.69934 1.22339,-0.88524 0.19863,-0.1859 1.03827,-0.73148 1.86588,-1.21239 2.68354,-1.55936 9.58306,-5.89388 9.08862,-5.70979 -0.46916,0.17468 -1.04641,0.32122 -1.09074,0.27689 -0.0247,-0.0247 0.42726,-0.32284 1.00441,-0.6625 3.88153,-2.28427 8.28707,-3.69089 14.77259,-4.71663 1.73975,-0.27516 3.62039,-0.91838 4.21717,-1.44236 0.46014,-0.404 0.78192,-0.44781 1.91931,-0.26125 0.42301,0.0694 0.73699,0.0496 1.06845,-0.0674 0.71661,-0.25283 1.10795,-0.21138 1.39004,0.14724 0.49435,0.62847 1.41185,0.60885 3.26238,-0.0697 0.56277,-0.20637 1.29407,-0.39096 1.62512,-0.41019 0.33104,-0.0192 0.75086,-0.0766 0.93293,-0.12756 0.39585,-0.11072 0.43952,0.0968 0.1416,0.67294 -0.10419,0.20149 -0.16572,0.39007 -0.13673,0.41907 0.12899,0.12898 0.80769,0.26113 0.80769,0.15726 0,-0.17904 1.48571,-0.12925 2.04645,0.0686 0.73132,0.25803 1.54277,0.22987 2.03569,-0.0706 0.35033,-0.21357 0.45189,-0.22818 0.69218,-0.0996 0.31452,0.16832 0.35548,0.34811 0.13113,0.57557 -0.23726,0.24055 0.21889,0.49749 0.88324,0.49749 0.3115,0 1.14816,0.11366 1.85925,0.25258 1.20929,0.23625 1.32448,0.24018 1.78134,0.0607 0.54723,-0.21497 0.76212,-0.085 0.54136,0.32751 -0.1649,0.30813 -0.0223,0.38941 1.10424,0.62949 0.49657,0.10583 1.0599,0.24249 1.25185,0.30371 0.19196,0.0612 0.47056,0.1113 0.61912,0.1113 0.14855,0 0.30128,0.0812 0.33939,0.18057 0.0453,0.11797 0.23273,0.18056 0.54077,0.18056 0.54651,0 1.32055,0.28565 1.11623,0.41192 -0.0746,0.0461 -0.1356,0.20557 -0.1356,0.3544 0,0.21594 0.16411,0.34802 0.81256,0.65399 0.89654,0.42302 1.64478,0.70369 2.37749,0.8918 0.70771,0.1817 0.84669,0.27733 0.80612,0.55469 -0.03,0.20479 0.0459,0.2639 0.42132,0.32843 0.25183,0.0433 0.72501,0.15462 1.05151,0.24742 0.32651,0.0928 0.72634,0.16873 0.8885,0.16873 0.27023,0 0.28909,0.0355 0.22588,0.42503 -0.0652,0.40189 -0.0317,0.45494 0.61624,0.97407 1.0225,0.81929 2.31033,1.38144 2.31033,1.00848 0,-0.15257 0.60333,-0.15401 0.84266,-0.002 0.0993,0.0631 0.18056,0.2651 0.18056,0.44893 0,0.29846 0.0516,0.34146 0.48152,0.40168 0.6089,0.0853 1.18757,0.383 0.87275,0.44904 -0.27408,0.0575 -0.26573,0.20996 0.0384,0.70211 0.17632,0.28528 0.38735,0.43892 0.72228,0.52582 0.26025,0.0675 0.67911,0.17614 0.93081,0.24136 0.2517,0.0652 0.67153,0.30895 0.93294,0.54161 0.49065,0.43669 1.19926,0.60415 1.06391,0.25143 -0.0482,-0.12572 0.002,-0.1541 0.18622,-0.10585 0.36319,0.095 0.42191,0.26015 0.1854,0.52149 -0.26593,0.29386 -0.14852,0.5988 0.23055,0.5988 0.16252,0 0.45462,0.1339 0.64912,0.29756 0.1945,0.16366 0.49376,0.35084 0.66503,0.41595 0.38008,0.14451 0.81483,0.74799 0.59229,0.82217 -0.19922,0.0664 -0.18712,0.32838 0.0232,0.50295 0.0941,0.0781 0.20591,0.34772 0.24838,0.5991 0.0639,0.37852 0.19401,0.54278 0.75704,0.9561 0.3739,0.27448 0.80384,0.49906 0.95541,0.49906 0.17442,0 0.27559,0.072 0.27559,0.1961 0,0.10785 0.37349,0.55476 0.82998,0.99313 0.45649,0.43836 0.94218,0.98439 1.07933,1.21339 0.22219,0.37101 0.22979,0.43797 0.0698,0.61475 -0.16127,0.17819 -0.0902,0.38089 0.69844,1.99122 0.48289,0.98606 0.93117,1.80688 0.99618,1.82405 0.065,0.0172 0.45398,-0.21533 0.86438,-0.51666 0.6771,-0.49717 0.78295,-0.53788 1.1436,-0.43983 0.22557,0.0613 0.38194,0.17506 0.3616,0.26302 -0.0525,0.22689 1.5178,0.0467 1.8885,-0.2167 0.15826,-0.11245 0.3599,-0.25742 0.44811,-0.32214 0.31115,-0.22831 0.45299,0.11076 0.33542,0.80187 -0.0982,0.57722 -0.15394,0.66141 -0.60093,0.90755 -0.68769,0.37868 -0.97439,1.02213 -0.78701,1.76631 0.0749,0.29728 0.1361,0.76587 0.1361,1.04131 0,0.42175 0.083,0.59308 0.52549,1.08527 0.42193,0.46929 0.53829,0.6981 0.59048,1.16111 0.0529,0.46903 0.14442,0.6453 0.49058,0.94454 0.39675,0.34296 0.4312,0.42972 0.50825,1.28005 0.0809,0.89214 0.0717,0.93596 -0.41651,1.9958 -0.58321,1.26609 -0.55639,1.50978 0.22293,2.02552 0.27054,0.17903 0.48637,0.41854 0.48637,0.53974 0,0.11983 0.10234,0.39703 0.22743,0.61599 0.1251,0.21896 0.26158,0.59382 0.30331,0.83301 0.0841,0.48223 0.25104,0.6608 1.00409,1.07413 0.53651,0.29447 0.61717,0.5083 0.33319,0.8833 -0.0994,0.13124 -0.14363,0.36116 -0.10585,0.55006 0.071,0.35512 -0.10231,0.81447 -0.67286,1.78311 l -0.37262,0.63261 0.39402,0.42941 c 0.21672,0.23617 0.5507,0.58985 0.74219,0.78595 l 0.34817,0.35655 -0.25788,0.2745 c -0.17758,0.18903 -0.25789,0.42919 -0.25789,0.77126 0,0.27321 -0.0552,0.53086 -0.12267,0.57256 -0.0675,0.0417 -0.25983,0.3465 -0.42748,0.67733 -0.25271,0.4987 -0.29085,0.69787 -0.22313,1.16518 0.10202,0.70398 0.15162,0.79011 0.3569,0.61975 0.0912,-0.0757 0.28093,-0.0991 0.42724,-0.0526 0.25244,0.0801 0.24749,0.0935 -0.12146,0.32706 l -0.38464,0.24354 0.0915,0.97696 c 0.0503,0.53733 0.0899,2.22288 0.0881,3.74568 -0.003,2.38911 -0.0482,3.0647 -0.32994,4.9275 l -0.32657,2.15877 0.37299,0.51938 c 0.4338,0.60405 0.37881,0.8139 -0.18552,0.70803 l -0.39599,-0.0743 -0.2523,1.09579 c -0.3079,1.33725 -0.30809,1.25267 0.004,1.67441 0.32986,0.44616 0.2431,0.98457 -0.32706,2.02965 l -0.41494,0.76057 0.1828,0.61554 c 0.33698,1.13473 0.27232,1.40736 -0.53091,2.23849 l -0.7137,0.7385 0.0662,0.64114 c 0.0476,0.46145 0.0115,0.7469 -0.12895,1.01847 -0.26835,0.51894 -0.25044,1.17662 0.04,1.46702 0.23319,0.23319 0.22641,0.23972 -0.84377,0.81156 -0.59338,0.31706 -1.10693,0.6649 -1.14123,0.77297 -0.0343,0.10807 -0.39188,0.45538 -0.79462,0.77179 -0.80046,0.62887 -1.41691,1.50053 -1.65783,2.34414 -0.0851,0.29794 -0.35932,0.81256 -0.60942,1.1436 -0.5328,0.70526 -0.72565,1.05552 -0.72565,1.31795 0,0.1046 -0.16402,0.33839 -0.36448,0.51953 -0.24517,0.22154 -0.49831,0.69116 -0.77333,1.43467 -0.81139,2.19357 -1.63295,3.59478 -3.02663,5.16212 -2.88473,3.24417 -4.29401,4.41955 -9.31803,7.77149 -2.18239,1.45606 -3.7742,2.28132 -7.76445,4.02541 -3.50803,1.53333 -4.66847,1.90875 -9.42474,3.04907 -3.27276,0.78465 -3.64145,0.829 -8.09043,0.97322 -2.08557,0.0676 -4.46908,0.15784 -5.29668,0.20054 l -1.50474,0.0776 -1.47858,0.74996 c -1.35429,0.68693 -1.48836,0.73168 -1.59502,0.53239 z m 1.39797,-1.16671 c -0.0551,-0.0551 -0.79214,0.31036 -0.79214,0.39274 0,0.0303 0.18891,-0.0349 0.41981,-0.14505 0.2309,-0.11011 0.39845,-0.22157 0.37233,-0.24769 z m 8.83819,-3.75065 c 0.69891,-0.1183 0.43589,-0.21423 -0.81791,-0.29831 -0.95444,-0.064 -2.11406,0.0868 -2.36612,0.30764 -0.14144,0.12394 2.44141,0.11637 3.18403,-0.009 z m 4.95206,-0.13525 c 3.36773,-0.13724 3.71639,-0.18156 6.2432,-0.79363 0.96002,-0.23255 2.3083,-0.55925 2.99616,-0.726 2.1686,-0.5257 4.31802,-1.29337 7.17396,-2.5622 2.87531,-1.27744 3.13492,-1.43879 5.22964,-3.25027 0.95425,-0.82523 3.77301,-3.9736 4.18746,-4.67713 0.3561,-0.60448 0.29273,-0.78761 -0.11886,-0.3435 -0.21748,0.23467 -3.72454,2.33886 -4.48116,2.68863 -0.53947,0.2494 0.68323,-0.52337 2.07827,-1.31351 0.94443,-0.53491 1.69201,-0.99768 1.6613,-1.02839 -0.0951,-0.0952 -2.2977,1.13299 -4.57441,2.5507 -2.96386,1.84558 -3.89219,2.3751 -4.22875,2.41204 -0.15747,0.0173 -0.78896,0.27696 -1.4033,0.57705 -0.61435,0.30008 -1.44202,0.65582 -1.83927,0.79052 -0.39725,0.1347 -1.09039,0.38433 -1.54031,0.55473 -0.44992,0.17041 -0.9528,0.30983 -1.11751,0.30983 -0.16471,0 -0.55508,0.12952 -0.86749,0.28783 -0.53462,0.27092 -2.05706,0.91596 -2.16186,0.91596 -0.16366,0 0.43428,-0.40133 1.50343,-1.00907 0.67832,-0.38559 1.2056,-0.74591 1.17173,-0.80072 -0.0339,-0.0548 0.002,-0.13884 0.0794,-0.18675 0.088,-0.0544 0.10869,-0.0349 0.0551,0.0519 -0.0472,0.0764 -0.048,0.13898 -0.002,0.13898 0.12645,0 4.36977,-2.46148 4.32354,-2.50802 -0.022,-0.0221 -0.6365,0.28934 -1.36559,0.69218 -1.37235,0.75825 -1.74052,0.90365 -1.22217,0.48265 0.5434,-0.44135 -1.17019,0.46533 -3.31043,1.75158 -1.81378,1.09006 -4.591,2.86486 -4.75497,3.0387 -0.19439,0.20609 0.70206,-0.20866 1.68531,-0.77972 1.41891,-0.8241 1.42389,-0.82657 1.20379,-0.59636 -0.52601,0.55016 -3.45476,2.97123 -3.59633,2.97293 -0.12137,0.001 -0.14545,-0.0984 -0.0903,-0.3742 0.0414,-0.2069 0.0752,-0.50659 0.0752,-0.66596 0,-0.18801 0.0951,-0.32802 0.27086,-0.39865 0.23144,-0.093 0.23777,-0.10998 0.0435,-0.1165 -0.12504,-0.004 -0.87866,0.3535 -1.67471,0.79489 -0.79606,0.44139 -1.51918,0.80253 -1.60694,0.80253 -0.0878,0 -0.45683,-0.10104 -0.82016,-0.22455 -0.64389,-0.21886 -0.65535,-0.23062 -0.45293,-0.46482 0.16974,-0.19638 0.10871,-0.18214 -0.33403,0.078 -0.29793,0.17503 -0.52682,0.3792 -0.50862,0.45371 0.0182,0.0745 -0.0224,0.10116 -0.0903,0.0592 -0.0679,-0.0419 -0.12336,-0.0206 -0.12336,0.0475 0,0.068 -0.0687,0.0974 -0.15264,0.0651 -0.0839,-0.0322 -0.44961,0.0468 -0.81256,0.17555 -0.65254,0.23151 -0.65502,0.23423 -0.22207,0.24293 0.24081,0.005 1.81176,-0.0472 3.49099,-0.11562 z m 10.21571,-5.68758 c 0,-0.11022 1.21103,-0.84175 1.27975,-0.77303 0.0367,0.0367 -0.11429,0.16008 -0.33562,0.27409 -0.22133,0.11401 -0.52431,0.28675 -0.67328,0.38386 -0.14897,0.0971 -0.27085,0.14889 -0.27085,0.11508 z m 10.35261,-3.6293 c 0,-0.0331 0.10834,-0.11817 0.24076,-0.18904 0.13241,-0.0709 0.24075,-0.10176 0.24075,-0.0687 0,0.0331 -0.10834,0.11817 -0.24075,0.18904 -0.13242,0.0709 -0.24076,0.10176 -0.24076,0.0687 z m -27.14729,4.89855 c 1.80855,-0.57874 2.76469,-0.71605 4.46075,-0.64062 0.20134,0.009 0.77013,-0.13113 1.26398,-0.31129 0.81781,-0.29834 1.05447,-0.32829 2.65276,-0.33565 l 1.75484,-0.008 0.44627,-0.39123 c 0.26949,-0.23626 0.57605,-0.39123 0.77391,-0.39123 0.1802,0 0.50974,-0.0522 0.7323,-0.11606 0.29461,-0.0845 0.51178,-0.0713 0.79853,0.0485 0.36726,0.15345 0.46185,0.13606 1.40023,-0.2575 0.55351,-0.23214 1.3314,-0.54008 1.72865,-0.6843 0.39725,-0.14423 1.20027,-0.52286 1.78449,-0.8414 0.58423,-0.31854 1.08963,-0.55175 1.12313,-0.51826 0.0335,0.0335 0.43112,-0.065 0.8836,-0.21891 0.45248,-0.1539 1.19299,-0.31816 1.64559,-0.36503 0.67114,-0.0695 0.95611,-0.172 1.54518,-0.55574 0.39725,-0.25879 1.02021,-0.55547 1.38436,-0.65929 0.36414,-0.10382 0.87223,-0.3244 1.12907,-0.49018 0.40002,-0.25819 0.5062,-0.28043 0.7404,-0.15509 0.2453,0.13128 0.39221,0.0694 1.42892,-0.60222 1.05878,-0.68589 2.21337,-1.7557 2.25687,-2.09116 0.01,-0.0756 0.0234,-0.24351 0.0301,-0.37312 0.009,-0.17346 0.65364,-0.61886 2.4418,-1.6872 1.33625,-0.79834 2.47383,-1.49999 2.52796,-1.55923 0.0541,-0.0592 0.0443,-0.0791 -0.022,-0.0441 -0.14885,0.0787 -3.45461,1.95969 -4.0327,2.29467 -0.32181,0.18647 -0.18988,0.005 0.55852,-0.76692 0.53891,-0.55608 1.06805,-1.20326 1.17588,-1.43818 0.10782,-0.23491 0.62673,-0.91205 1.15314,-1.50474 0.52641,-0.59269 0.95879,-1.14802 0.96085,-1.23407 0.002,-0.086 0.0822,-0.30819 0.17812,-0.49366 0.15241,-0.29473 0.15226,-0.3688 -10e-4,-0.58795 -0.16934,-0.24177 -0.10557,-0.29262 1.78178,-1.42089 2.12014,-1.26744 2.29148,-1.38075 2.21039,-1.46184 -0.047,-0.047 -0.9563,0.44584 -2.21035,1.19801 l -0.39243,0.23538 0.48272,-0.73284 c 0.26549,-0.40306 0.6998,-1.06241 0.96513,-1.46523 l 0.48241,-0.73239 -0.35411,-0.13366 c -0.4983,-0.18809 -0.52426,-0.47507 -0.12021,-1.32913 0.1991,-0.42086 0.3543,-0.95312 0.35734,-1.2255 0.003,-0.26484 0.0885,-0.6982 0.19004,-0.96304 0.10156,-0.26483 0.256,-0.89301 0.3432,-1.39596 0.0872,-0.50294 0.24549,-1.08259 0.35176,-1.2881 0.35984,-0.69585 0.20776,-1.60664 -0.36927,-2.21159 l -0.30643,-0.32124 0.46456,-0.29513 c 0.88263,-0.56074 1.07651,-0.95204 1.48745,-3.00194 0.18245,-0.91011 0.23943,-1.66051 0.23429,-3.08554 -0.008,-2.3305 -0.0854,-2.59105 -0.92614,-3.13306 -0.61858,-0.3988 -0.632,-0.41976 -0.632,-0.98746 v -0.58001 l -0.63199,0.0711 c -0.34759,0.0391 -0.6997,0.12443 -0.78246,0.18964 -0.10754,0.0847 -0.15047,0.0617 -0.15047,-0.0808 0,-0.10966 -0.1896,-0.31124 -0.42133,-0.44796 -0.23173,-0.13672 -0.4281,-0.29741 -0.43638,-0.35708 -0.008,-0.0597 -0.023,-0.1762 -0.0327,-0.25896 -0.0282,-0.24095 -0.64535,-0.11107 -1.62672,0.34236 -0.49415,0.2283 -0.94582,0.39931 -1.00372,0.38001 -0.0579,-0.0193 0.0303,-0.23494 0.1961,-0.4792 l 0.30137,-0.4441 -0.36348,-0.30585 c -0.43705,-0.36775 -0.59342,-0.40654 -1.90986,-0.47371 -0.56277,-0.0287 -1.21515,-0.0886 -1.44972,-0.13297 -0.25221,-0.0478 -0.70073,-0.009 -1.09753,0.0945 -0.61092,0.15953 -0.66977,0.15776 -0.65691,-0.0198 0.0219,-0.30226 -2.27771,-0.3427 -3.08011,-0.0542 -0.43925,0.15796 -0.56482,0.25599 -0.50679,0.39568 0.0424,0.10213 0.10205,0.27148 0.13248,0.37633 0.0646,0.22254 -0.46627,1.23718 -0.87995,1.68183 -0.35072,0.37699 -0.36165,0.55511 -0.0403,0.6571 0.30266,0.0961 0.21943,0.49573 -0.16833,0.80828 -0.39142,0.31551 -0.43355,0.26645 -0.35326,-0.4114 l 0.074,-0.62475 -0.59128,0.34395 c -1.38596,0.80623 -1.49405,0.8957 -1.49576,1.2381 -9e-4,0.18124 -0.037,0.46186 -0.0803,0.62361 l -0.0787,0.29408 0.59191,-0.34409 c 0.32556,-0.18925 0.7138,-0.42262 0.86277,-0.51859 0.14897,-0.096 0.27085,-0.14616 0.27085,-0.11152 0,0.0346 -0.24367,0.21693 -0.54149,0.40508 -0.63833,0.40328 -0.69463,0.54965 -0.15148,0.39388 0.55254,-0.15846 0.5369,-0.16992 0.62775,0.45983 0.0454,0.31449 0.11468,0.70722 0.15402,0.87275 0.0629,0.26451 0.0483,0.28179 -0.12062,0.1427 -0.16211,-0.13351 -0.20914,-0.1241 -0.30087,0.0602 -0.18577,0.3732 -0.0989,1.56622 0.13274,1.82213 0.24741,0.27339 0.44699,0.12164 -2.44317,1.85772 -2.00909,1.20684 -2.8296,1.75954 -2.74207,1.84707 0.0262,0.0262 0.61212,-0.2556 1.30198,-0.62627 1.91179,-1.02725 3.13962,-1.63323 3.19566,-1.5772 0.11961,0.11962 -0.12994,0.46019 -0.50875,0.69431 -0.37614,0.23247 -0.40938,0.30127 -0.40938,0.8473 0,0.90965 -0.44629,1.65054 -1.42387,2.3638 -0.73243,0.5344 -0.82095,0.64585 -0.96765,1.21825 -0.18589,0.72531 -0.39427,0.89749 -1.31818,1.08919 -0.53352,0.1107 -0.80002,0.27378 -1.60139,0.97993 -1.58686,1.39833 -2.25208,1.82611 -5.43011,3.49192 -1.67322,0.87704 -3.17555,1.68132 -3.33851,1.78729 -0.16296,0.10596 -0.25657,0.12819 -0.20801,0.0494 0.10286,-0.16694 -1.19907,0.23802 -1.84309,0.57328 -0.60128,0.31301 -1.30856,0.65298 -1.86588,0.89686 -0.26483,0.1159 -0.41049,0.23603 -0.32368,0.26697 0.21389,0.0762 -0.17549,0.5128 -0.45738,0.5128 -0.33944,0 -0.38503,-0.15908 -0.0955,-0.33311 0.3098,-0.18618 0.3821,-0.20694 -1.23011,0.35318 -0.56277,0.19552 -1.41798,0.43297 -1.90046,0.52767 -0.48247,0.0947 -1.02418,0.20879 -1.20379,0.25352 -0.29957,0.0746 -0.31227,0.064 -0.15373,-0.12839 0.15019,-0.18223 0.15019,-0.22404 0,-0.31907 -0.0951,-0.0601 -0.3218,-0.11019 -0.50387,-0.1112 -0.32347,-0.002 -0.33104,0.0142 -0.33104,0.69944 0,0.59967 0.0453,0.74359 0.31238,0.99313 0.17181,0.16051 0.3881,0.43734 0.48063,0.61518 0.184,0.35364 0.0773,0.54779 -0.45902,0.83479 -0.24287,0.12998 -0.24709,0.18971 -0.168,2.3767 0.1194,3.30182 0.43259,12.67162 0.43437,12.99532 10e-4,0.23301 0.0462,0.26551 0.27239,0.19732 0.14897,-0.0449 0.86592,-0.27207 1.59323,-0.50481 z m 6.56245,-20.1867 c 0,-0.0331 0.10834,-0.11817 0.24076,-0.18904 0.13242,-0.0709 0.24076,-0.10177 0.24076,-0.0687 0,0.0331 -0.10834,0.11817 -0.24076,0.18904 -0.13242,0.0709 -0.24076,0.10176 -0.24076,0.0687 z m 16.38003,-13.40323 c 0.005,-0.0482 0.0465,-0.18395 0.093,-0.30158 0.0725,-0.18336 0.11568,-0.19109 0.30293,-0.0542 0.20552,0.15028 0.20003,0.16807 -0.093,0.30157 -0.17126,0.078 -0.30757,0.10241 -0.30292,0.0542 z m 1.66167,-0.57593 c 0.74382,-0.33779 2.11406,-0.77755 2.40534,-0.77195 0.14952,0.003 0.11839,0.0739 -0.12714,0.29008 -0.47425,0.41759 -1.56949,0.79064 -2.29763,0.78259 l -0.62748,-0.007 z m -37.62372,34.12519 c 0.33545,-0.0932 0.44206,-0.17766 0.39123,-0.31012 -0.0384,-0.10015 -0.0699,-0.22313 -0.0699,-0.27329 0,-0.0502 -0.13543,-0.15292 -0.30095,-0.22834 -0.38716,-0.1764 -0.38286,-0.50531 0.0114,-0.87367 0.53172,-0.49674 0.65421,-0.83646 0.46438,-1.28793 -0.13946,-0.33169 -0.13779,-0.46309 0.0113,-0.88552 0.22985,-0.65147 0.22123,-1.12599 -0.0274,-1.5054 -0.12697,-0.19379 -0.21671,-0.62132 -0.24085,-1.14746 -0.0403,-0.87863 -0.14452,-1.18349 -0.56061,-1.64005 -0.21011,-0.23055 -0.22744,-0.31446 -0.10534,-0.50998 0.0804,-0.12871 0.14615,-0.34055 0.14615,-0.47075 0,-0.1302 0.0621,-0.3731 0.13808,-0.53978 0.10639,-0.23349 0.10326,-0.345 -0.0136,-0.48585 -0.0834,-0.10055 -0.20192,-0.15178 -0.26328,-0.11386 -0.0639,0.0395 -0.0799,-0.057 -0.0376,-0.22577 0.0534,-0.21268 0.017,-0.31657 -0.13062,-0.37323 -0.16629,-0.0638 -0.18968,-0.17175 -0.12494,-0.57663 0.11504,-0.71942 0.1767,-0.75977 0.58142,-0.38049 0.20008,0.1875 0.38395,0.28675 0.4086,0.22054 0.18996,-0.51015 0.55099,-0.90285 0.83004,-0.90285 0.38945,0 0.84155,-0.44759 1.12868,-1.11742 0.18377,-0.42872 0.30962,-0.54838 0.71889,-0.68344 0.38961,-0.12859 0.49612,-0.22306 0.49612,-0.44008 0,-0.27219 -0.008,-0.27369 -0.5003,-0.0998 -0.27516,0.0971 -0.51836,0.15844 -0.54045,0.13635 -0.0221,-0.0221 -0.0723,-0.20089 -0.1116,-0.39735 -0.0669,-0.33463 -0.0323,-0.37551 0.54733,-0.64701 l 0.61876,-0.28981 -0.0235,-0.97631 c -0.0136,-0.5658 0.0362,-1.0878 0.11844,-1.24148 0.14156,-0.26451 0.13979,-0.26498 -0.69335,-0.18755 -0.97223,0.0904 -1.4618,-7.1e-4 -1.4618,-0.27193 0,-0.13947 -0.0744,-0.17349 -0.27085,-0.12384 -1.00164,0.25321 -0.94936,0.25923 -0.8151,-0.0939 0.0676,-0.17782 0.12292,-0.33958 0.12292,-0.35948 0,-0.0199 -0.36565,-0.0652 -0.81256,-0.10064 -1.91663,-0.15204 -7.30343,-2.23006 -8.37934,-3.23242 -0.16409,-0.15288 -0.4215,-0.22661 -0.79217,-0.22691 -0.35846,-3e-4 -0.69539,-0.0928 -0.97043,-0.26643 -0.23173,-0.14629 -0.52939,-0.3236 -0.66147,-0.39403 -0.13208,-0.0704 -0.2675,-0.27681 -0.30095,-0.45863 -0.0887,-0.4824 -0.65123,-0.80477 -1.40589,-0.80574 -0.78863,-10e-4 -1.84496,-0.24074 -1.84496,-0.41872 0,-0.0747 0.057,-0.19286 0.12676,-0.26257 0.0888,-0.0888 0.0485,-0.2593 -0.13411,-0.5689 -0.40433,-0.68528 -0.62566,-0.74857 -1.32996,-0.38031 -0.61896,0.32365 -0.70376,0.31674 -1.16056,-0.0945 -0.30803,-0.2773 -0.35969,-0.77723 -0.091,-0.88034 0.0989,-0.038 0.14828,-0.12015 0.10966,-0.18264 -0.0421,-0.0681 -0.13765,-0.0576 -0.23853,0.0261 -0.0926,0.0768 -0.24782,0.10919 -0.34498,0.0719 -0.29653,-0.11379 -0.66906,-0.99421 -0.66906,-1.58123 0,-0.48842 -0.0427,-0.57483 -0.39123,-0.79152 -0.37618,-0.23388 -0.52745,-0.23972 -1.16244,-0.0449 -0.27584,0.0846 -0.28584,0.0693 -0.20902,-0.32133 0.0444,-0.22561 0.18827,-0.55697 0.31979,-0.73637 0.30278,-0.41301 0.30234,-0.70458 -0.002,-1.09104 -0.30483,-0.38753 -0.30262,-0.54786 0.0122,-0.88294 l 0.25293,-0.26922 -0.25293,-0.67599 c -0.1391,-0.37179 -0.25292,-0.94481 -0.25292,-1.27337 0,-0.45075 -0.0443,-0.59738 -0.18056,-0.59738 -0.22537,0 -0.23302,-0.16776 -0.0159,-0.34798 0.13133,-0.10899 0.1535,-0.53279 0.10938,-2.09128 -0.0304,-1.07502 -0.10439,-2.14935 -0.16435,-2.38741 l -0.10901,-0.43284 -1.89634,-0.0795 c -1.04298,-0.0437 -2.16719,-0.13454 -2.49823,-0.20186 -0.33105,-0.0673 -1.38489,-0.17548 -2.34188,-0.24036 -0.95699,-0.0649 -2.4196,-0.2252 -3.25024,-0.35627 -2.34327,-0.36975 -4.30135,-0.49277 -6.67462,-0.41935 -3.13783,0.0971 -3.15827,0.10082 -3.32608,0.60929 -0.16809,0.50934 -0.0864,0.77122 0.2407,0.77122 0.31136,0 0.31252,0.24214 0.005,1.05118 -0.30381,0.79933 -0.41624,1.74929 -0.30879,2.60923 0.0761,0.60945 0.1118,0.67324 0.3764,0.67324 0.17955,0 0.29228,0.0696 0.29228,0.18056 0,0.0993 0.0546,0.18057 0.12141,0.18057 0.0668,0 -0.0467,0.29794 -0.25225,0.66209 -0.22007,0.38994 -0.31404,0.66208 -0.22862,0.66208 0.1477,0 0.11778,0.4866 -0.0652,1.06043 -0.0716,0.22453 -0.0374,0.29136 0.17772,0.34762 0.18709,0.0489 0.24892,0.13638 0.20774,0.29384 -0.0322,0.1233 -0.014,0.22418 0.0405,0.22418 0.14398,0 0.0555,0.83399 -0.10552,0.99505 -0.23884,0.23883 -0.14849,0.42688 0.27174,0.56556 0.47613,0.15714 0.6116,0.5504 0.35799,1.03922 -0.17715,0.34147 -0.12713,0.53003 0.14061,0.53003 0.0937,0 0.25441,0.16251 0.35713,0.36113 0.10271,0.19863 0.24272,0.36114 0.31114,0.36114 0.0684,0 0.0909,0.0542 0.05,0.12038 -0.0409,0.0662 0.004,0.12038 0.1004,0.12038 0.27558,0 0.34065,0.35019 0.19007,1.02302 -0.11491,0.51348 -0.10563,0.73404 0.0536,1.27365 0.10591,0.35894 0.30126,0.82867 0.43409,1.04385 0.1984,0.32137 0.31708,0.39123 0.66462,0.39123 0.36995,0 0.4231,0.0374 0.4231,0.29803 0,0.18858 0.15823,0.44202 0.43085,0.69009 0.41439,0.37709 0.42946,0.41973 0.39445,1.11643 -0.0417,0.82931 0.0401,1.02531 0.42753,1.02531 0.20973,0 0.32077,0.11505 0.46472,0.48152 0.12946,0.32956 0.2623,0.48151 0.42093,0.48151 0.12749,0 0.32984,0.10835 0.44967,0.24076 0.11984,0.13242 0.25949,0.24076 0.31035,0.24076 0.0508,0 0.24612,0.15366 0.43392,0.34146 0.1878,0.1878 0.42219,0.36859 0.52087,0.40175 0.13608,0.0457 0.14716,0.10137 0.0459,0.23034 -0.0734,0.0935 -0.16683,0.34579 -0.20752,0.56057 -0.0619,0.32665 -0.0253,0.42245 0.22382,0.58565 0.16379,0.10732 0.2978,0.26264 0.2978,0.34515 0,0.0951 0.11014,0.12898 0.30095,0.0925 0.25737,-0.0492 0.30095,-0.0131 0.30095,0.24945 0,0.24222 0.0673,0.31502 0.3189,0.34508 0.46812,0.0559 0.60354,0.34682 0.44243,0.95042 -0.1192,0.44658 -0.11014,0.50746 0.083,0.55797 0.11925,0.0312 0.24383,0.16003 0.27686,0.28633 0.0427,0.16349 0.1673,0.22962 0.43246,0.22962 0.29215,0 0.3724,0.0519 0.3724,0.24076 0,0.17656 0.0803,0.24076 0.30095,0.24076 0.23861,0 0.30095,0.0607 0.30095,0.29311 0,0.16121 -0.0549,0.43759 -0.12207,0.61418 -0.10411,0.27383 -0.0731,0.37998 0.21066,0.72156 0.18301,0.22027 0.41962,0.5241 0.52581,0.67517 0.18741,0.26661 0.20244,0.26855 0.51161,0.066 0.24481,-0.16041 0.32134,-0.31256 0.33063,-0.65736 l 0.0121,-0.44865 0.11499,0.48152 c 0.0633,0.26483 0.0836,0.64387 0.0452,0.8423 -0.0408,0.21062 0.003,0.51124 0.106,0.72227 0.0967,0.19882 0.20468,0.45629 0.23992,0.57216 0.0486,0.15976 0.19444,0.21066 0.60359,0.21066 0.38844,0 0.57266,0.059 0.65793,0.21066 0.0684,0.12173 0.25973,0.21067 0.45312,0.21067 0.30131,0 0.34378,0.0527 0.42582,0.52823 0.14049,0.81433 0.22734,0.74496 0.14607,-0.11666 l -0.0729,-0.77271 0.43374,0.62724 c 0.45317,0.65534 0.52814,0.82967 0.29476,0.68544 -0.0949,-0.0587 -0.10586,-0.0323 -0.0345,0.0831 0.0575,0.0929 0.0895,0.31187 0.0711,0.48648 -0.0249,0.23791 0.0591,0.38329 0.33548,0.58007 0.65559,0.46683 0.82384,0.3273 -3.12222,2.58929 -1.29106,0.74007 -2.90645,1.65844 -3.58974,2.04081 -0.68329,0.38237 -1.2169,0.72067 -1.1858,0.75177 0.0624,0.0624 0.88103,-0.28323 3.33099,-1.40611 3.67084,-1.68244 6.90833,-3.0061 6.99792,-2.86113 0.0648,0.10493 0.34057,0.0446 1.02945,-0.22512 1.41554,-0.55432 1.46108,-0.5658 0.94088,-0.23712 -0.26483,0.16734 -0.56277,0.35596 -0.66209,0.41918 -0.15561,0.0991 -0.14591,0.15069 0.0702,0.37368 0.18198,0.1878 0.44601,0.27515 0.96303,0.31857 1.57768,0.13253 1.85591,0.26444 1.85591,0.87991 0,0.18363 0.1,0.42436 0.22218,0.53495 0.20824,0.18844 0.24155,0.18584 0.5306,-0.0415 0.16963,-0.13343 0.34544,-0.2426 0.39068,-0.2426 0.0452,0 0.30376,0.1896 0.57448,0.42133 0.27072,0.23173 0.55019,0.42147 0.62103,0.42165 0.0708,1.8e-4 0.23715,0.19997 0.36957,0.44397 0.25282,0.46588 0.36128,0.51016 2.15363,0.87922 0.69517,0.14314 1.44479,-0.0136 1.58634,-0.33169 0.0726,-0.16322 0.10852,-0.11856 0.16285,0.20264 0.0594,0.35095 0.1661,0.46175 0.72026,0.74766 0.35782,0.18461 0.79415,0.4732 0.96962,0.64131 0.41274,0.39542 0.74802,0.38363 1.6167,-0.0569 l 0.70893,-0.3595 0.51334,0.47317 c 0.50999,0.4701 0.82527,0.5307 1.20973,0.23254 0.16407,-0.12724 0.26798,-0.0264 0.4699,0.45575 0.17962,0.42897 0.65228,0.59753 1.32277,0.47175 0.3415,-0.0641 0.43882,-0.0258 0.65997,0.25922 0.14267,0.1839 0.40509,0.39963 0.58315,0.47941 0.40568,0.18175 1.38271,0.19478 1.98865,0.0265 z m -23.35086,-7.78555 c 0.0312,-0.0497 0.35394,-0.2504 0.71727,-0.44611 0.56384,-0.3037 0.68904,-0.33222 0.85476,-0.19469 0.28483,0.2364 0.05,0.44902 -0.66526,0.60242 -0.70573,0.15135 -0.98512,0.16318 -0.90677,0.0384 z m 22.48946,-4.9767 c -0.11787,-0.18873 -0.23206,-0.23304 -0.45582,-0.17688 -0.36334,0.0912 -0.6288,-0.0355 -0.39062,-0.1864 0.0898,-0.0569 0.27857,-0.10431 0.41944,-0.10533 0.14086,-10e-4 0.32378,-0.0834 0.40648,-0.18303 0.0827,-0.0996 0.78002,-0.37758 1.54958,-0.61761 0.76956,-0.24003 1.46691,-0.46223 1.54967,-0.49378 0.0879,-0.0335 0.15047,0.0383 0.15047,0.17258 0,0.18153 -0.25696,0.32496 -1.22065,0.68135 -0.67135,0.24828 -1.37494,0.48227 -1.56351,0.51998 -0.29006,0.058 -0.3318,0.11266 -0.27104,0.35476 0.0886,0.35294 0.0319,0.36412 -0.174,0.0344 z m 46.042,3.15329 c 1.45057,-0.86241 1.96109,-1.26344 1.80593,-1.41861 -0.0904,-0.0904 -3.07787,1.88393 -3.34068,2.20777 -0.20262,0.24968 -0.27626,0.28755 1.53475,-0.78916 z m -31.05491,-14.35041 c 0.42758,-0.26426 0.61036,-0.26098 1.57065,0.0282 0.44161,0.13298 0.56554,0.12565 0.94646,-0.056 0.41712,-0.19891 0.44583,-0.19876 0.59351,0.003 0.11808,0.16149 0.37081,0.22312 1.05705,0.25777 0.77915,0.0394 1.00019,0.001 1.62459,-0.2788 0.691,-0.3101 0.73623,-0.3155 1.03016,-0.12291 0.17905,0.11732 0.40789,0.16956 0.54801,0.12509 0.13231,-0.042 1.13062,-1.02434 2.21845,-2.18299 l 1.97788,-2.10662 -0.0291,-0.65406 -0.0291,-0.65406 0.58036,-0.37242 c 0.4622,-0.29659 0.55863,-0.41338 0.47363,-0.57365 -0.0587,-0.11068 -0.13738,-0.29947 -0.17485,-0.41953 -0.0375,-0.12006 -0.12268,-0.18458 -0.18935,-0.14337 -0.19571,0.12095 -0.13914,-0.28111 0.0894,-0.6357 0.11587,-0.17974 0.36085,-0.45453 0.54442,-0.61064 0.18357,-0.15611 0.38361,-0.377 0.44455,-0.49085 0.0999,-0.18674 0.0437,-0.20238 -0.57452,-0.15968 l -0.6853,0.0473 0.30094,-0.24302 c 0.16553,-0.13366 0.50607,-0.33593 0.75678,-0.4495 0.27198,-0.12321 0.4009,-0.24044 0.31964,-0.29066 -0.0798,-0.0493 0.29601,-0.35239 0.90783,-0.7321 1.39075,-0.86312 1.54124,-0.98642 1.49012,-1.2209 -0.036,-0.16492 -0.22192,-0.0968 -1.06428,0.3897 -0.56139,0.32425 -1.04007,0.57018 -1.06374,0.54652 -0.0237,-0.0237 0.18249,-0.32831 0.45811,-0.67699 0.44361,-0.56121 0.49193,-0.68321 0.42101,-1.06296 -0.0993,-0.53171 -0.10505,-0.53724 -0.39683,-0.38108 -0.29934,0.1602 -0.61373,-0.13234 -0.40827,-0.3799 0.18185,-0.21912 0.50352,-1.19927 0.43171,-1.31546 -0.0335,-0.0543 -0.16853,-0.0412 -0.29996,0.0292 -0.22118,0.11837 -0.22735,0.10827 -0.083,-0.13578 0.12262,-0.20728 0.12417,-0.27521 0.007,-0.3176 -0.0982,-0.0356 -0.005,-0.2424 0.275,-0.60891 0.27836,-0.36456 0.39383,-0.61947 0.33652,-0.74291 -0.048,-0.10335 -0.0774,-0.37751 -0.0654,-0.60924 0.012,-0.23173 0.0298,-0.57602 0.0395,-0.76508 0.01,-0.18907 -0.046,-0.38316 -0.12396,-0.43132 -0.10333,-0.0639 -0.10784,-0.17657 -0.0166,-0.41645 0.19547,-0.51414 0.16014,-0.59109 -0.23511,-0.51204 -0.39017,0.078 -0.39053,0.12689 0.005,-0.65136 0.0693,-0.13656 0.0925,-0.35406 0.0515,-0.48334 -0.0446,-0.14048 0.0258,-0.39745 0.17485,-0.63867 0.29372,-0.47526 0.32151,-0.79653 0.0689,-0.79653 -0.11069,0 -0.18057,-0.11258 -0.18057,-0.29091 0,-0.16001 -0.0649,-0.31257 -0.14432,-0.33903 -0.0982,-0.0327 -0.0597,-0.16697 0.12038,-0.41985 0.28701,-0.40306 0.33704,-0.69698 0.13942,-0.81911 -0.0689,-0.0426 -0.0922,-0.18148 -0.0519,-0.30865 0.0439,-0.13818 0.01,-0.25573 -0.0854,-0.29214 -0.17546,-0.0673 -0.21148,-0.63145 -0.056,-0.87659 0.20155,-0.31774 -0.0204,-0.54095 -0.46607,-0.46863 -0.4135,0.0671 -0.41919,0.0622 -0.41919,-0.36439 0,-0.4248 0.004,-0.42858 0.24076,-0.21454 0.22189,0.20081 0.24076,0.20181 0.24076,0.0127 0,-0.20871 -0.29226,-0.85173 -0.51254,-1.12767 -0.0906,-0.11356 -0.16253,-0.11774 -0.28448,-0.0165 -0.12603,0.1046 -0.17922,0.0844 -0.23368,-0.0888 -0.19319,-0.61432 -0.47934,-0.92396 -1.11185,-1.2031 -0.0198,-0.009 -0.0542,-0.28519 -0.0766,-0.61438 -0.0543,-0.79877 -0.21885,-1.0677 -0.75928,-1.24123 -0.62776,-0.20156 -0.83287,-0.41315 -0.91829,-0.94735 -0.1058,-0.66164 -0.34787,-0.82335 -0.65259,-0.43596 -0.33638,0.42764 -0.48538,0.38402 -0.75271,-0.22032 -0.31681,-0.71619 -0.53924,-0.89206 -0.86832,-0.68655 -0.21699,0.13552 -0.27451,0.12708 -0.41155,-0.0603 -0.0876,-0.11983 -0.15932,-0.26749 -0.15932,-0.32812 0,-0.0606 -0.0812,-0.0791 -0.18057,-0.041 -0.14195,0.0545 -0.18056,-0.0337 -0.18056,-0.41223 0,-0.5084 -0.25348,-0.75016 -0.51369,-0.48995 -0.21179,0.2118 -0.295,0.16623 -0.43623,-0.23888 l -0.13081,-0.37524 -0.78381,0.0499 c -0.68718,0.0438 -0.78381,0.0238 -0.78381,-0.16222 0,-0.22106 -0.33592,-0.46136 -0.64493,-0.46136 -0.0986,0 -0.347,0.14115 -0.55204,0.31368 -0.43632,0.36714 -0.63416,0.27852 -0.85203,-0.38162 -0.0744,-0.2254 -0.27256,-0.51782 -0.44038,-0.64983 -0.26449,-0.20805 -0.42043,-0.23027 -1.17086,-0.16683 -0.67493,0.0571 -0.94983,0.0297 -1.24736,-0.12418 -0.20991,-0.10854 -0.70498,-0.24157 -1.10016,-0.29562 -0.46855,-0.0641 -0.89909,-0.21894 -1.2376,-0.44516 -0.60244,-0.4026 -1.28042,-0.46227 -1.63246,-0.14368 -0.33646,0.3045 -0.66196,0.25542 -1.05974,-0.15977 -0.19375,-0.20223 -0.64811,-0.52793 -1.00967,-0.72376 -0.581,-0.31468 -0.7531,-0.35123 -1.48094,-0.31453 -0.78139,0.0394 -0.84973,0.0672 -1.33471,0.54319 -0.66302,0.6507 -0.95928,0.6564 -1.14932,0.0221 -0.16064,-0.53615 -0.32728,-0.65623 -1.06758,-0.76926 -0.43404,-0.0663 -0.61211,-0.021 -1.18138,0.30027 -0.87966,0.49645 -1.07121,0.41302 -1.94342,-0.84638 -0.0188,-0.0272 -0.12936,0.0335 -0.24563,0.13476 -0.11627,0.1013 -0.36084,0.21091 -0.54349,0.24359 -0.27014,0.0483 -0.30669,0.0288 -0.19593,-0.10466 0.0984,-0.11853 0.0991,-0.16408 0.003,-0.16408 -0.0734,0 -0.21046,0.1842 -0.30453,0.40933 -0.12658,0.30294 -0.39265,0.54099 -1.02383,0.91596 -0.46904,0.27866 -0.82529,0.55117 -0.79166,0.60558 0.0336,0.0544 -0.002,0.13814 -0.0798,0.18605 -0.0945,0.0584 -0.10846,0.0345 -0.0424,-0.0723 0.0733,-0.1186 0.0422,-0.13783 -0.12131,-0.0751 -0.32142,0.12334 -2.22723,1.28605 -2.22723,1.35881 0,0.0341 0.17605,-0.0437 0.39123,-0.17281 0.95779,-0.57465 1.53484,-0.88648 1.53484,-0.82941 0,0.25113 -0.2342,0.49006 -0.79463,0.81071 -0.60212,0.3445 -0.82325,0.59494 -0.52531,0.59494 0.0853,0 0.0848,0.0743 -0.002,0.23588 -0.0694,0.12973 -0.11343,0.2787 -0.0978,0.33104 0.0156,0.0523 -0.17295,0.31185 -0.41912,0.57668 -0.24618,0.26483 -0.44785,0.58209 -0.44816,0.70501 -3.2e-4,0.12292 -0.37268,0.61046 -0.82748,1.08341 -0.96065,0.99902 -1.14826,1.31 -1.04309,1.72902 l 0.0765,0.30498 0.26473,-0.2363 c 0.43664,-0.38974 1.05682,-0.78772 1.12354,-0.72101 0.0987,0.0987 -1.235,1.05998 -1.41731,1.02155 -0.0901,-0.019 -0.14888,0.0372 -0.13069,0.12489 0.0182,0.0877 -0.0224,0.12512 -0.0903,0.0832 -0.0679,-0.0419 -0.12336,-0.0252 -0.12336,0.0372 0,0.0624 -0.0978,0.139 -0.21721,0.17024 -0.38364,0.10032 -4.9591,2.86563 -4.9591,2.99717 0,0.13445 0.20292,0.025 2.76872,-1.49395 0.89382,-0.52913 1.66974,-0.98759 1.72427,-1.01882 0.0545,-0.0312 -0.004,0.15203 -0.12904,0.40723 -0.12551,0.25521 -0.20627,0.56147 -0.17947,0.68059 0.0268,0.11912 -0.037,0.34744 -0.14181,0.50738 -0.23624,0.36055 -0.23765,0.41964 -0.01,0.41964 0.11436,0 0.18057,0.11514 0.18057,0.314 0,0.27164 0.0391,0.30418 0.28995,0.24123 0.27043,-0.0679 0.25486,-0.0205 -0.23123,0.70443 -0.62811,0.93668 -0.83873,1.78349 -0.69514,2.79481 0.0937,0.66014 0.11841,0.70023 0.42814,0.69576 0.18631,-0.003 0.32866,0.0609 0.32866,0.1467 0,0.09 0.0789,0.12115 0.19458,0.0768 0.16031,-0.0615 0.17244,-0.0344 0.0689,0.15426 -0.0691,0.1259 -0.2645,0.4148 -0.4342,0.64201 -0.26715,0.35766 -0.28606,0.43842 -0.14091,0.60189 0.14381,0.16196 0.13509,0.31718 -0.0613,1.09165 -0.12592,0.49656 -0.36437,1.15394 -0.52991,1.46084 -0.53009,0.98275 -0.34339,1.34652 0.55319,1.07789 0.63932,-0.19154 0.80502,-0.0643 0.43439,0.33348 -0.49778,0.5343 -0.61403,0.84635 -0.43789,1.17546 0.12291,0.22966 0.12348,0.39818 0.003,0.8577 -0.24539,0.93531 -0.23014,1.16829 0.0793,1.21224 0.33661,0.0478 0.33349,0.15719 -0.0281,0.98476 -0.26132,0.59809 -0.27078,0.67625 -0.0978,0.8087 0.26436,0.20242 0.37345,0.10065 0.31538,-0.29422 l -0.0491,-0.33391 0.20032,0.27085 c 0.11017,0.14897 0.29335,0.27085 0.40706,0.27085 0.20573,0 0.48616,0.45461 0.48616,0.78813 0,0.10631 -0.11803,0.1749 -0.30095,0.1749 -0.26256,0 -0.30095,0.0527 -0.30095,0.41322 0,0.30756 0.0616,0.43276 0.24089,0.48967 0.13248,0.042 0.2969,0.18113 0.36537,0.30906 0.16949,0.3167 0.31574,0.29209 0.40621,-0.0683 0.103,-0.41039 0.2393,-0.37776 0.37709,0.0903 0.0634,0.21518 0.23427,0.4435 0.37982,0.50739 0.17442,0.0765 0.2893,0.26208 0.33696,0.54417 0.0398,0.2354 0.12091,0.50664 0.1803,0.60274 0.0933,0.15094 0.11769,0.14947 0.1792,-0.0108 0.0547,-0.14257 0.20879,-0.048 0.66524,0.40849 0.52369,0.52369 0.63364,0.58302 0.9284,0.50096 0.7823,-0.21779 0.90288,-0.16175 1.17492,0.54608 0.23504,0.61152 0.31267,0.69163 1.03098,1.06385 0.59647,0.30909 0.87181,0.38719 1.18606,0.33645 0.28798,-0.0465 0.50231,1.6e-4 0.72322,0.15746 0.17267,0.12296 0.70298,0.39751 1.17847,0.61011 0.68296,0.30538 0.89001,0.4597 0.98592,0.73484 0.0668,0.19155 0.17629,0.34828 0.24336,0.34828 0.0671,0 0.23109,0.11714 0.36447,0.26031 0.21898,0.23504 0.39763,0.2658 1.84047,0.31685 1.546,0.0547 1.61459,0.0684 2.10957,0.42218 0.28139,0.2011 0.51161,0.41322 0.51161,0.47136 0,0.0581 0.14276,0.23803 0.31725,0.39974 0.25617,0.23741 0.40102,0.281 0.75237,0.22643 0.55629,-0.0864 1.88735,0.49147 2.09823,0.91093 0.23928,0.47596 0.41598,0.41249 0.64474,-0.23158 0.11904,-0.33517 0.25112,-0.60939 0.29351,-0.60939 0.0424,0 0.10802,0.15473 0.14585,0.34385 0.0838,0.41888 0.62361,0.67995 1.20941,0.58489 0.29799,-0.0484 0.631,0.0402 1.29209,0.34349 1.05279,0.48304 1.10233,0.48787 1.63382,0.15939 z m 4.07971,-34.25984 c -0.0653,-0.17157 -0.0515,-0.18539 0.0674,-0.0674 0.0823,0.0817 0.11926,0.17879 0.0822,0.21585 -0.0371,0.0371 -0.10437,-0.0297 -0.14958,-0.14846 z m 10.40506,32.15766 c 0,-0.0331 -0.10834,-0.002 -0.24076,0.0687 -0.13242,0.0709 -0.24076,0.15593 -0.24076,0.18904 0,0.0331 0.10834,0.002 0.24076,-0.0687 0.13242,-0.0709 0.24076,-0.15594 0.24076,-0.18904 z m 0.23717,-1.07343 c 0.78739,-0.33141 2.6326,-1.45141 2.2306,-1.35393 -1.19795,0.2905 -3.05321,0.88806 -3.2334,1.04144 -0.12316,0.10483 -0.38618,0.3952 -0.58449,0.64526 l -0.36056,0.45467 0.60598,-0.23886 c 0.33329,-0.13137 0.93713,-0.37823 1.34187,-0.54858 z m 1.16386,-1.84485 c 0.94996,-0.55163 2.85988,-1.49984 3.30767,-1.64214 0.25062,-0.0796 0.25869,-0.0987 0.0636,-0.14995 -0.12458,-0.0327 -0.77707,0.21045 -1.47465,0.54961 -0.68816,0.33458 -1.25119,0.5874 -1.25119,0.56183 0,-0.0256 0.29793,-0.21696 0.66208,-0.4253 0.36415,-0.20835 0.66209,-0.40505 0.66209,-0.43713 0,-0.0321 -0.33857,0.13427 -0.75237,0.36967 -0.41381,0.2354 -0.73749,0.48633 -0.7193,0.55763 0.0182,0.0713 -0.0213,0.096 -0.0878,0.0549 -0.16293,-0.1007 -0.63226,0.1599 -0.5443,0.30222 0.0384,0.0621 -7.1e-4,0.088 -0.0869,0.0575 -0.17941,-0.0634 -0.36877,0.0782 -0.879,0.65748 -0.33598,0.38145 -0.34017,0.39722 -0.0602,0.22632 0.16552,-0.10104 0.68764,-0.40825 1.16027,-0.6827 z m 8.63524,-14.86489 c 0.13201,-0.17681 0.20772,-0.35378 0.16825,-0.39326 -0.13169,-0.13169 -0.69457,0.33286 -0.69457,0.57323 0,0.30431 0.22124,0.22866 0.52632,-0.17997 z m -77.83299,-2.4363 c 0.34229,-0.10165 0.96266,-0.41781 1.3786,-0.70257 0.75512,-0.51697 0.75656,-0.51738 0.95482,-0.26661 l 0.19855,0.25115 0.68233,-0.36114 c 0.83437,-0.44161 0.88255,-0.50923 0.47358,-0.66472 -0.22983,-0.0874 -0.72291,-0.07 -1.71765,0.0604 -0.76739,0.10064 -1.68255,0.18299 -2.03368,0.18299 h -0.63841 l 0.0741,0.46335 c 0.0506,0.31633 0.0119,0.58372 -0.12205,0.84266 -0.23318,0.45093 -0.16943,0.46747 0.74982,0.19448 z m 17.71516,-0.14623 c -0.002,-0.0497 -0.0786,-0.18893 -0.17,-0.3095 -0.15846,-0.20905 -0.18478,-0.2096 -0.56717,-0.0119 -0.36438,0.18843 -0.37909,0.21593 -0.16104,0.30105 0.31361,0.12243 0.90311,0.13576 0.89821,0.0203 z m 74.72919,-2.43059 c 0.21518,-0.39178 0.39123,-0.79335 0.39123,-0.89239 0,-0.099 -0.23022,-0.30875 -0.51161,-0.46603 -0.47579,-0.26594 -0.50961,-0.3184 -0.48304,-0.74923 0.0199,-0.32334 -0.0339,-0.50895 -0.17821,-0.61448 -0.19523,-0.14275 -0.19484,-0.17627 0.007,-0.59927 0.1856,-0.38921 0.19536,-0.53698 0.0742,-1.12493 -0.0767,-0.37228 -0.28827,-1.00636 -0.47018,-1.40907 l -0.33075,-0.73221 0.35068,-0.77252 c 0.43025,-0.94782 0.6135,-1.72563 0.51366,-2.1802 -0.10544,-0.48011 -0.59892,-1.02824 -1.00624,-1.11771 -0.51042,-0.1121 -0.83692,-0.53835 -0.97499,-1.27285 -0.0678,-0.3607 -0.20556,-0.90514 -0.30613,-1.20988 -0.17972,-0.54454 -0.16801,-2.48278 0.0238,-3.93783 0.0736,-0.55839 -0.19128,-1.4514 -0.50861,-1.71476 -0.14157,-0.11749 -0.22523,-0.10237 -0.42276,0.0764 -0.21078,0.19075 -0.23467,0.31021 -0.16577,0.82917 l 0.0805,0.60631 -0.40951,-0.39124 c -0.48119,-0.45972 -0.81042,-0.48971 -1.61063,-0.1467 -0.31376,0.13449 -0.62457,0.2265 -0.6907,0.20446 -0.0661,-0.0221 0.49758,-0.49086 1.25267,-1.04182 0.75509,-0.55096 1.41767,-1.04256 1.47241,-1.09245 0.0767,-0.07 -0.50864,-1.44692 -0.70965,-1.66927 -0.0219,-0.0243 -0.32425,0.13083 -0.67178,0.34467 -0.62574,0.38502 -0.63371,0.38645 -0.81859,0.14643 -0.10269,-0.13331 -0.34165,-0.44199 -0.53104,-0.68595 l -0.34435,-0.44358 -1.15058,0.0863 c -1.49504,0.11209 -1.74019,0.18503 -1.92915,0.57398 -0.0864,0.1778 -0.20439,0.32326 -0.26225,0.32326 -0.14148,0 -0.48355,-0.34945 -0.48355,-0.49398 0,-0.20699 0.36699,-1.00017 0.50112,-1.08306 0.17053,-0.10539 -0.24716,-0.83054 -0.4784,-0.83054 -0.0914,0 -0.32531,-0.11335 -0.51988,-0.2519 -0.32508,-0.23148 -0.37655,-0.23695 -0.6351,-0.0675 -0.26476,0.17348 -0.30088,0.16396 -0.61263,-0.16144 -0.30713,-0.32057 -0.32525,-0.39416 -0.24841,-1.00915 0.0925,-0.74046 -0.0526,-1.1583 -0.40228,-1.1583 -0.12116,0 -0.36354,-0.11268 -0.53863,-0.2504 -0.17508,-0.13773 -0.37902,-0.23018 -0.45319,-0.20546 -0.0742,0.0247 -0.28428,-0.0928 -0.46692,-0.26121 -0.31048,-0.28624 -0.68957,-0.59305 -1.26179,-1.0212 -0.23588,-0.17649 -0.23479,-0.18022 0.0542,-0.18397 0.22939,-0.003 0.26283,-0.0359 0.15047,-0.14828 -0.0795,-0.0795 -0.14445,-0.26242 -0.14445,-0.40659 0,-0.4307 -0.2986,-0.59196 -0.80713,-0.43589 -0.24001,0.0737 -0.48015,0.10689 -0.53363,0.0738 -0.0535,-0.0331 -0.15739,-0.28804 -0.23089,-0.56663 -0.0735,-0.27859 -0.24328,-0.61487 -0.37728,-0.74729 -0.13401,-0.13242 -0.38682,-0.5387 -0.56181,-0.90284 -0.31455,-0.65455 -0.32378,-0.66175 -0.81106,-0.63192 -0.36623,0.0224 -0.54889,-0.0317 -0.71083,-0.21066 -0.11988,-0.13246 -0.31397,-0.24084 -0.43132,-0.24084 -0.11735,0 -0.32476,-0.14162 -0.46092,-0.31471 -0.2208,-0.2807 -0.29653,-0.30414 -0.70091,-0.21693 -0.24935,0.0538 -0.50725,0.1006 -0.57311,0.10405 -0.0659,0.003 -0.2046,-0.31876 -0.30831,-0.71601 -0.15263,-0.58466 -0.25596,-0.75672 -0.54234,-0.90309 -0.19458,-0.0995 -0.52465,-0.30259 -0.7335,-0.45142 -0.20885,-0.14883 -0.52519,-0.27061 -0.70298,-0.27061 -0.18144,0 -0.41159,-0.10908 -0.52461,-0.24865 -0.1714,-0.21167 -0.25154,-0.22958 -0.53874,-0.12038 -0.52367,0.1991 -0.68286,0.15983 -0.68286,-0.16844 0,-0.37743 -0.21219,-0.48635 -1.37543,-0.70599 -0.93381,-0.17632 -1.14711,-0.30765 -1.15069,-0.70846 -10e-4,-0.11354 -0.12373,-0.27152 -0.2727,-0.35107 -0.14896,-0.0796 -0.41447,-0.29813 -0.59,-0.48575 -0.17553,-0.18761 -0.43999,-0.34111 -0.58769,-0.34111 -0.14769,0 -0.44493,-0.10902 -0.66052,-0.24226 -0.33665,-0.20807 -0.40185,-0.21656 -0.46185,-0.0602 -0.10077,0.2626 -0.37514,0.22512 -0.93384,-0.12757 -0.26978,-0.1703 -0.51918,-0.28096 -0.55424,-0.2459 -0.0351,0.0351 0.0535,0.26248 0.19683,0.50538 0.32369,0.54861 0.21011,0.70826 -0.18077,0.25411 -0.33833,-0.39308 -0.37555,-0.74753 -0.09,-0.85711 0.14135,-0.0542 0.16297,-0.11474 0.0731,-0.2046 -0.0899,-0.0899 -0.20025,-0.0887 -0.37335,0.004 -0.42139,0.22552 -0.70292,0.14676 -1.0359,-0.2898 -0.2033,-0.26653 -0.42322,-0.42132 -0.59861,-0.42132 -0.15248,0 -0.42288,-0.13497 -0.60088,-0.29994 -0.178,-0.16497 -0.44997,-0.33164 -0.60437,-0.3704 -0.1544,-0.0387 -0.34054,-0.20172 -0.41363,-0.36214 -0.2077,-0.45584 -0.44367,-0.34675 -0.73608,0.3403 l -0.26898,0.63199 -0.21987,-0.50271 c -0.30579,-0.69915 -0.56395,-0.80601 -1.73194,-0.71688 -0.96055,0.0733 -0.98164,0.0688 -1.62965,-0.3462 -0.36108,-0.23126 -0.72484,-0.42047 -0.80837,-0.42047 -0.0835,0 -0.33896,0.16428 -0.56764,0.36506 l -0.41578,0.36506 -0.34078,-0.63591 c -0.29836,-0.55676 -0.40071,-0.64811 -0.82229,-0.73392 -0.26484,-0.0539 -0.85359,-0.20806 -1.30833,-0.34258 -0.59725,-0.17666 -0.9789,-0.22175 -1.3746,-0.16242 -0.30993,0.0465 -0.4857,0.12052 -0.4048,0.17052 0.16686,0.10312 0.0482,0.48269 -0.63064,2.01692 -0.33402,0.75494 -0.43472,1.14187 -0.43472,1.67039 0,0.37833 -0.0853,1.1883 -0.18956,1.79994 -0.18468,1.08347 -0.18313,1.12407 0.0603,1.57826 0.17775,0.33164 0.22834,0.58087 0.1753,0.86361 -0.0606,0.32302 0.007,0.52954 0.36103,1.10314 0.23957,0.38814 0.43559,0.79414 0.43559,0.90223 0,0.10809 -0.13543,0.46377 -0.30095,0.79041 -0.16552,0.32664 -0.30095,0.77585 -0.30095,0.99824 0,0.22239 0.13543,0.79196 0.30095,1.26572 0.1806,0.51692 0.30095,1.12704 0.30095,1.52572 0,0.72658 0.0549,0.76662 0.63797,0.46518 0.3628,-0.18756 0.37529,-0.18716 0.21436,0.007 -0.094,0.11331 -0.40685,0.67223 -0.69525,1.24205 l -0.52435,1.03604 0.33411,0.22381 c 0.18376,0.12309 0.42891,0.20058 0.54477,0.17218 0.14366,-0.0352 0.21066,0.0196 0.21066,0.17239 0,0.12321 0.14017,0.36418 0.31149,0.5355 0.40937,0.40938 0.27757,0.56023 -0.76403,0.87451 -0.44629,0.13466 -1.29897,0.39091 -1.89485,0.56944 -2.78703,0.83504 -4.09357,1.42914 -6.58831,2.9958 -0.90902,0.57085 -1.69721,1.03791 -1.75152,1.03791 -0.0543,0 -0.0987,-0.18624 -0.0987,-0.41387 0,-0.29395 0.0715,-0.45221 0.24678,-0.54619 0.13573,-0.0728 0.36602,-0.35038 0.51177,-0.61691 0.31395,-0.57412 0.2305,-0.9411 -0.28972,-1.27418 -0.60265,-0.38586 -0.66995,-0.4933 -0.36688,-0.58567 0.56662,-0.17268 0.69255,-0.40252 0.69255,-1.26394 0,-0.48763 0.10197,-1.14057 0.25559,-1.63656 0.14057,-0.45388 0.26245,-1.10425 0.27085,-1.44525 0.0131,-0.53246 -0.0316,-0.66351 -0.31661,-0.92797 l -0.33188,-0.30795 0.3178,-0.81753 c 0.44376,-1.14155 0.65381,-1.94957 0.635,-2.44265 -0.009,-0.23173 0.0695,-0.65277 0.1741,-0.93564 0.17665,-0.47775 0.17362,-0.59326 -0.0426,-1.62512 -0.13852,-0.66109 -0.20315,-1.29652 -0.15963,-1.56952 0.0638,-0.40001 0.0256,-0.50784 -0.29846,-0.84265 -0.40875,-0.42234 -1.04088,-1.52755 -0.8737,-1.52755 0.17461,0 0.35293,-0.66148 0.23508,-0.87205 -0.14667,-0.26209 0.29849,-0.77186 1.29495,-1.48292 0.79974,-0.57068 1.1267,-1.05393 1.1267,-1.66526 0,-0.16292 -0.0787,-0.3749 -0.17484,-0.47106 -0.0962,-0.0962 -0.1413,-0.20837 -0.10031,-0.24935 0.041,-0.041 0.014,-0.0745 -0.0599,-0.0745 -0.074,0 -0.17881,0.0792 -0.23301,0.17609 -0.12353,0.22073 -0.79698,0.46274 -2.56176,0.9206 -0.86588,0.22464 -1.71339,0.53973 -2.26288,0.8413 -0.59117,0.32444 -0.95829,0.45683 -1.12238,0.40475 -0.31214,-0.0991 -0.73596,0.0713 -2.16954,0.87195 -0.87527,0.48885 -1.23473,0.62991 -1.46072,0.57319 -0.19301,-0.0485 -0.47748,0.0154 -0.79887,0.1794 -0.27452,0.14005 -0.7277,0.30121 -1.00706,0.35814 -1.32429,0.26985 -2.43862,0.62102 -2.86407,0.90257 -0.25719,0.1702 -0.51538,0.30945 -0.57377,0.30945 -0.0584,0 -0.31686,0.14414 -0.57439,0.32032 -0.445,0.30444 -0.72685,0.38517 -1.55163,0.44446 -0.33529,0.0241 -0.61465,0.16025 -1.38436,0.67465 -0.60246,0.40264 -0.68046,0.43511 -0.49446,0.20588 0.32161,-0.39635 0.0608,-0.30164 -0.95266,0.34598 -1.06283,0.67915 -1.19195,0.83931 -0.32368,0.40149 0.7988,-0.40278 0.50523,-0.19321 -1.61053,1.1497 -2.48695,1.57852 -2.73293,1.77136 -4.27217,3.34922 -0.73795,0.75647 -1.3583,1.29408 -1.49325,1.29408 -0.12697,0 -0.27418,0.0727 -0.32712,0.16162 -0.0529,0.0889 -0.24524,0.25763 -0.42731,0.37498 -0.19839,0.12786 -0.33105,0.32094 -0.33105,0.48181 0,0.14764 -0.10834,0.36649 -0.24075,0.48633 -0.13242,0.11983 -0.24076,0.27158 -0.24076,0.33721 0,0.0656 -0.24656,0.38293 -0.54791,0.70509 -0.30134,0.32216 -0.51552,0.63814 -0.47595,0.70218 0.10423,0.16863 -0.11777,0.52952 -0.72408,1.17711 -0.33396,0.35669 -0.5102,0.64354 -0.47177,0.76785 0.0372,0.12046 -0.12955,0.41902 -0.4244,0.75969 -0.26716,0.30869 -0.48575,0.60466 -0.48575,0.65773 0,0.0531 0.52153,-0.0586 1.15895,-0.24808 0.63742,-0.18951 1.2941,-0.34456 1.45929,-0.34456 0.26043,0 0.2793,0.0253 0.14205,0.19072 -0.23148,0.27891 -0.9641,0.76185 -2.45934,1.62118 -1.41174,0.81134 -6.29898,3.9122 -6.50048,4.12443 -0.0662,0.0697 0.0151,0.0446 0.18057,-0.0559 0.16552,-0.1005 0.54472,-0.31975 0.84266,-0.48722 0.29793,-0.16746 1.30988,-0.74522 2.24877,-1.28389 0.93888,-0.53868 1.73395,-0.97942 1.76681,-0.97942 0.0329,0 -0.12355,0.30439 -0.34758,0.67642 -0.39338,0.65328 -0.60977,1.46165 -0.51603,1.9277 0.035,0.17387 0.13304,0.21623 0.43288,0.187 0.33041,-0.0322 0.38766,10e-4 0.38766,0.22654 0,0.14717 -0.19056,0.44406 -0.4299,0.66979 -0.23644,0.22299 -0.39635,0.40544 -0.35535,0.40544 0.041,0 -0.0832,0.23023 -0.27591,0.51162 -0.62915,0.91849 -0.87668,1.53556 -0.97786,2.43774 -0.1051,0.93716 -0.24244,1.20863 -1.12668,2.22695 -0.83202,0.95818 -1.10321,1.73337 -0.80279,2.29472 0.0684,0.12785 0.34988,0.34748 0.62547,0.48808 0.46042,0.23489 0.48343,0.26851 0.28369,0.41457 -0.11956,0.0874 -0.33976,0.41948 -0.48933,0.7379 -0.14958,0.31842 -0.44156,0.78953 -0.64885,1.04692 -0.42518,0.52792 -0.45662,0.6116 -0.19157,0.50989 0.10193,-0.0391 0.27851,-0.0129 0.3924,0.0582 0.15773,0.0985 0.41978,0.055 1.09964,-0.18252 1.03748,-0.36247 1.04329,-0.36346 0.86385,-0.14724 -0.10391,0.12519 -0.093,0.20076 0.0454,0.31569 0.10013,0.0831 0.18205,0.25414 0.18205,0.38008 0,0.59332 1.28807,0.60755 2.99423,0.0331 1.38134,-0.4651 1.59674,-0.47474 5.01098,-0.22419 0.77519,0.0569 1.11483,0.0229 1.74123,-0.17433 0.47108,-0.14831 0.80651,-0.19919 0.84994,-0.12892 0.0446,0.0722 0.29651,0.0522 0.66635,-0.0529 0.93345,-0.26532 1.49746,-0.33996 1.49746,-0.19815 0,0.0692 0.0813,0.12583 0.18057,0.12583 0.0993,0 0.18057,0.0504 0.18057,0.11198 0,0.069 0.14968,0.069 0.39044,0 0.21474,-0.0616 0.56684,-0.11198 0.78246,-0.11198 0.34648,0 0.39247,0.0385 0.39586,0.33104 0.006,0.4912 0.21951,0.69506 1.20815,1.15183 0.49206,0.22733 0.99204,0.53205 1.11108,0.67713 0.43193,0.52647 0.50827,0.26925 0.46589,-1.56971 -0.0234,-1.01618 0.0119,-1.86886 0.0854,-2.05994 0.069,-0.17933 0.47967,-0.7323 0.91271,-1.22883 0.43304,-0.49653 0.78734,-0.95349 0.78734,-1.01546 0,-0.062 0.27281,-0.72784 0.60624,-1.4797 0.35608,-0.80294 0.59722,-1.51604 0.5844,-1.72816 -0.0386,-0.6376 0.007,-0.75052 0.35805,-0.89611 0.24051,-0.0996 0.55928,-0.49178 1.05331,-1.29582 1.74409,-2.83849 3.6794,-3.9642 5.4409,-3.16479 0.44566,0.20225 0.59124,0.21636 1.02789,0.0996 0.53477,-0.14303 1.3395,-0.0578 1.47155,0.15586 0.0428,0.0692 -0.10428,0.28345 -0.32682,0.47604 -0.32209,0.27875 -0.11374,0.20323 1.02156,-0.37029 0.78439,-0.39626 1.89489,-1.00409 2.46777,-1.35074 0.57288,-0.34665 1.69165,-0.86848 2.48615,-1.15963 1.1859,-0.43457 1.66009,-0.54496 2.64834,-0.6165 0.82819,-0.0599 1.66691,-0.22428 2.68806,-0.52668 0.81635,-0.24174 1.54766,-0.43808 1.62512,-0.4363 0.0775,0.002 -0.0438,0.15633 -0.26937,0.34344 l -0.41022,0.3402 0.71117,0.0792 c 0.56123,0.0625 0.84468,0.0282 1.34445,-0.16288 0.88905,-0.33982 1.10286,-0.31891 1.18992,0.11638 0.12703,0.63517 0.0523,0.61542 4.07537,1.0774 1.11411,0.12794 1.51783,0.22127 3.47615,0.80361 0.66623,0.19811 0.7515,0.19861 1.46431,0.009 0.93912,-0.25024 0.93049,-0.25055 0.75699,0.0273 -0.11452,0.18338 -0.10411,0.28828 0.0523,0.52704 0.25023,0.3819 0.71394,0.45318 2.01467,0.3097 1.51504,-0.16712 2.41555,0.052 1.86579,0.454 -0.25475,0.18627 -0.32091,0.15454 1.19643,0.5738 1.01868,0.28147 1.10201,0.28729 1.56493,0.10937 0.26893,-0.10337 0.74627,-0.21316 1.06076,-0.24398 0.56879,-0.0558 0.5718,-0.0541 0.5718,0.30908 0,0.32346 0.0447,0.3697 0.39124,0.40522 0.24944,0.0256 0.48215,-0.0379 0.6421,-0.17515 0.23215,-0.19919 0.28414,-0.20134 0.69703,-0.0288 0.41703,0.17425 0.50078,0.4199 0.14315,0.4199 -0.23891,0 -0.42978,0.28542 -0.31504,0.47108 0.0652,0.10553 0.24105,0.14137 0.50408,0.10277 0.52224,-0.0767 1.02722,0.10252 1.10272,0.39125 0.0485,0.18532 0.13606,0.21526 0.47091,0.16092 0.39461,-0.064 0.41728,-0.047 0.55659,0.41796 0.15903,0.53081 0.69968,1.06125 1.20347,1.18075 0.50044,0.1187 0.7081,0.35941 0.65023,0.75371 -0.0414,0.28207 0.0209,0.40229 0.32504,0.62714 0.225,0.16635 0.34975,0.34723 0.31032,0.44997 -0.039,0.10163 0.13385,0.36185 0.42313,0.63704 0.41525,0.39501 0.56875,0.46523 1.0171,0.46523 0.53408,0 0.90637,0.22224 0.90637,0.54106 0,0.0895 -0.13543,0.32368 -0.30095,0.52039 -0.49861,0.59257 -0.41333,0.76689 0.35769,0.73118 0.78685,-0.0365 1.18946,0.22349 1.07187,0.69203 -0.0563,0.22416 -0.0229,0.28406 0.15844,0.28406 0.28519,0 0.51864,0.22274 0.51864,0.49485 0,0.21737 0.87028,0.70894 1.25513,0.70894 0.1844,0 0.17442,0.0341 -0.0681,0.23292 -0.23713,0.19435 -0.2611,0.27088 -0.14476,0.46219 0.0812,0.1336 0.0971,0.29773 0.038,0.39332 -0.0558,0.0902 -0.0732,0.20964 -0.0388,0.26536 0.0344,0.0557 0.004,0.17225 -0.0683,0.25897 -0.072,0.0867 -0.12315,0.28749 -0.11374,0.44615 0.009,0.15866 -0.0224,0.433 -0.0707,0.60963 -0.0706,0.25818 -0.0365,0.34858 0.17356,0.461 0.24655,0.13195 0.24985,0.15253 0.0584,0.36407 -0.1116,0.12331 -0.17703,0.29506 -0.1454,0.38165 0.0316,0.0866 -0.0457,0.32896 -0.1718,0.53859 l -0.22932,0.38116 0.29217,0.31525 c 0.16069,0.17339 0.26994,0.40815 0.24278,0.52169 -0.11217,0.46893 0.0411,0.4931 2.42284,0.38229 1.25724,-0.0585 3.04577,-0.10845 3.97451,-0.11101 1.37065,-0.004 1.74214,-0.0421 1.97286,-0.20375 0.24416,-0.17101 0.32009,-0.17602 0.5384,-0.0355 0.15476,0.0996 0.72489,0.18208 1.45794,0.21089 1.00829,0.0396 1.31131,0.006 1.86587,-0.20518 0.36415,-0.13887 0.69449,-0.25252 0.73409,-0.25255 0.0396,-3e-5 0.1725,0.2228 0.29533,0.49519 0.20111,0.44599 0.87847,1.04618 1.1976,1.06117 0.0662,0.003 0.29643,-0.3149 0.51161,-0.70668 z m -59.25363,-17.70588 c 0.37825,-0.38402 0.76454,-0.65037 1.05774,-0.72932 0.76953,-0.20721 0.73626,-0.0708 -0.10003,0.41019 -0.43702,0.25135 -0.89968,0.5621 -1.02812,0.69055 -0.12845,0.12844 -0.29922,0.23354 -0.37949,0.23354 -0.0803,0 0.12218,-0.27223 0.4499,-0.60496 z m -25.34282,-8.11406 c 0,-0.0331 0.10834,-0.11817 0.24076,-0.18904 0.13242,-0.0709 0.24076,-0.10177 0.24076,-0.0687 0,0.0331 -0.10834,0.11817 -0.24076,0.18904 -0.13242,0.0709 -0.24076,0.10176 -0.24076,0.0687 z m 18.66608,17.49237 c 0.26731,-0.52397 0.19814,-0.76517 -0.19758,-0.68896 -0.36791,0.0709 -0.53441,1.1848 -0.17709,1.1848 0.0669,0 0.23554,-0.22313 0.37467,-0.49584 z m 2.10708,-2.41422 c 0.13669,-0.12089 0.30504,-0.2198 0.37413,-0.2198 0.13555,0 1.31046,-0.59743 2.56667,-1.30511 0.42995,-0.24221 0.8904,-0.49616 1.02322,-0.56432 0.13282,-0.0682 0.2415,-0.18553 0.2415,-0.26082 0,-0.0753 0.0493,-0.18203 0.10958,-0.23721 0.0637,-0.0583 0.0733,-0.0373 0.023,0.0502 -0.1057,0.18368 -0.0122,0.19117 0.30004,0.0241 0.12992,-0.0695 0.20673,-0.17413 0.17069,-0.23244 -0.036,-0.0583 -0.002,-0.14522 0.0754,-0.19313 0.088,-0.0544 0.10869,-0.0349 0.0551,0.0519 -0.13141,0.21263 0.11386,0.16526 0.37118,-0.0717 0.12584,-0.11587 0.20491,-0.19797 0.17572,-0.18244 -0.0292,0.0155 -0.11705,-0.0593 -0.19524,-0.16621 -0.16486,-0.22544 -1.38638,-0.3912 -1.38638,-0.18813 0,0.0692 -0.0329,0.21154 -0.0731,0.31627 -0.0504,0.13123 -0.004,0.19098 0.15047,0.19225 0.1259,10e-4 0.17028,0.0405 0.1016,0.0903 -0.0671,0.0486 -0.17541,0.24593 -0.24075,0.43843 -0.0653,0.19249 -0.21503,0.36396 -0.33262,0.38104 -0.11759,0.0171 -0.69993,0.33318 -1.29408,0.70246 -0.59415,0.36927 -1.08027,0.64932 -1.08027,0.62234 0,-0.027 0.2734,-0.24976 0.60755,-0.49505 0.61315,-0.45009 0.73449,-0.68132 0.21532,-0.41028 -0.35704,0.18639 -3.02923,2.05133 -3.11128,2.17138 -0.0338,0.0494 -0.21171,0.12756 -0.39544,0.17368 -0.19415,0.0487 -0.409,0.22881 -0.51306,0.43002 -0.17143,0.33152 -0.13681,0.31983 0.81677,-0.27582 0.54768,-0.34211 1.10761,-0.72093 1.24429,-0.84181 z m 2.67174,-0.003 c 0.67921,-0.38866 1.33005,-0.74536 1.4463,-0.79267 0.35799,-0.14568 2.07373,-1.12277 2.07373,-1.18095 0,-0.0302 -0.15982,0.0278 -0.35516,0.12881 -0.44802,0.23169 -0.62076,0.23128 -0.31401,-7.4e-4 0.12852,-0.0972 0.18128,-0.17674 0.11725,-0.17674 -0.1811,0 -2.73996,1.50768 -4.14286,2.44096 -2.10852,1.4027 -1.84277,1.30799 1.17475,-0.41867 z m 2.34347,-1.49006 c 0.11429,-0.11932 0.23371,-0.19104 0.26538,-0.15937 0.0317,0.0317 -0.0618,0.1293 -0.2078,0.21695 -0.25355,0.15227 -0.25612,0.14971 -0.0576,-0.0576 z m -3.39785,2.64935 c 0,-0.0331 -0.10834,-0.002 -0.24075,0.0687 -0.13242,0.0709 -0.24076,0.15594 -0.24076,0.18904 0,0.0331 0.10834,0.002 0.24076,-0.0687 0.13241,-0.0709 0.24075,-0.15594 0.24075,-0.18904 z m 0.84266,-0.47923 c 0,-0.0331 -0.16251,0.0239 -0.36114,0.12656 -0.19862,0.10272 -0.36114,0.21384 -0.36114,0.24694 0,0.0331 0.16252,-0.0238 0.36114,-0.12656 0.19863,-0.10271 0.36114,-0.21383 0.36114,-0.24694 z m 1.28289,-0.73731 c -0.0519,-0.0519 -1.16251,0.56038 -1.16251,0.64092 0,0.0316 0.27112,-0.0901 0.6025,-0.27051 0.33137,-0.18036 0.58338,-0.34704 0.56001,-0.37041 z m -0.57868,-2.20655 c 0.27477,-0.19904 0.49958,-0.41572 0.49958,-0.48152 0,-0.1887 -0.0704,-0.15024 -0.66208,0.3619 -0.65368,0.56575 -0.55432,0.63888 0.1625,0.11962 z m 4.64406,-0.54955 c 0.23727,-0.23727 0.23755,-0.29235 0.002,-0.29235 -0.11264,0 -0.15287,0.0563 -0.10063,0.14084 0.0566,0.0915 0.024,0.11663 -0.0932,0.0717 -0.10736,-0.0412 -0.18025,-7.9e-4 -0.18025,0.0999 0,0.22172 0.13825,0.21427 0.3726,-0.0201 z m -36.10514,-6.78931 c 1.75795,-0.61537 1.85413,-0.66734 3.63844,-1.966 1.00802,-0.73366 1.81229,-1.3544 1.78726,-1.37942 -0.025,-0.025 -0.26476,0.0663 -0.53273,0.20306 -0.65605,0.33469 -1.38183,0.62152 -3.86975,1.52932 -2.15842,0.78756 -2.22477,0.8287 -2.83492,1.75761 -0.33136,0.50447 -0.36353,0.62558 -0.14446,0.54374 0.0828,-0.0309 0.96303,-0.34066 1.95616,-0.68831 z m 13.52374,-13.41681 c 0.22133,-0.11401 0.3762,-0.23352 0.34415,-0.26556 -0.0642,-0.0642 -1.28827,0.66007 -1.28827,0.76227 0,0.035 0.12188,-0.0157 0.27085,-0.11285 0.14897,-0.0971 0.45194,-0.26985 0.67327,-0.38386 z m 2.84434,-2.2608 c 0.59397,-0.3836 1.02733,-0.69782 0.96304,-0.69826 -0.0643,-4.3e-4 0.0422,-0.10569 0.23672,-0.2339 0.1945,-0.12821 0.40601,-0.20074 0.47002,-0.16118 0.0694,0.0429 0.0766,0.008 0.0179,-0.0875 -0.0694,-0.11238 -0.0451,-0.13892 0.0826,-0.0899 0.23176,0.0889 0.49519,-0.0731 0.53253,-0.32751 0.0256,-0.17446 -0.002,-0.17814 -0.23229,-0.0311 -0.14372,0.0916 -0.59875,0.37293 -1.01117,0.62505 -0.41242,0.25213 -0.72397,0.50031 -0.69232,0.55151 0.0316,0.0512 -0.10959,0.15135 -0.31384,0.22255 -0.20426,0.0712 -0.48859,0.23723 -0.63185,0.36894 -0.14326,0.13171 -0.3959,0.35371 -0.56142,0.49333 -0.40587,0.34236 -0.14201,0.19611 1.14012,-0.63195 z m 1.95764,-1.43468 c 0.0816,-0.0823 0.17879,-0.11925 0.21585,-0.0822 0.0371,0.0371 -0.0298,0.10437 -0.14847,0.14958 -0.17156,0.0653 -0.18539,0.0515 -0.0674,-0.0674 z m -1.6872,1.84253 c 1.08595,-0.44194 1.41507,-0.66867 1.21031,-0.83383 -0.11152,-0.09 -0.42916,0.0526 -1.16953,0.52479 -0.55903,0.35655 -0.98446,0.64827 -0.94541,0.64827 0.0391,0 0.44614,-0.15265 0.90463,-0.33923 z m 5.03662,-2.35945 c 0.12842,-0.0939 0.20567,-0.19854 0.17168,-0.23253 -0.034,-0.034 -0.19641,0.0416 -0.36094,0.16805 -0.34267,0.26328 -0.16527,0.32372 0.18926,0.0645 z m -0.66898,-1.06294 c 0,-0.0583 -0.21668,0.0159 -0.48152,0.16472 -0.26483,0.14884 -0.48152,0.31828 -0.48152,0.37654 0,0.0582 0.21669,-0.0159 0.48152,-0.16472 0.26484,-0.14884 0.48152,-0.31828 0.48152,-0.37654 z m 4.87723,-1.47679 c 1.72039,-1.04335 3.31397,-2.0232 3.54129,-2.17744 l 0.41331,-0.28044 -0.4735,0.0746 c -0.26042,0.041 -0.69018,0.1534 -0.95501,0.24971 -0.26484,0.0963 -1.01272,0.20376 -1.66197,0.23877 -1.42298,0.0768 -1.88617,0.27933 -2.44912,1.07113 -0.22121,0.31113 -0.38029,0.5876 -0.35352,0.61437 0.0268,0.0268 0.27033,-0.098 0.54124,-0.27728 0.52158,-0.34517 0.66293,-0.514 0.24149,-0.28845 -0.13809,0.0739 -0.28344,0.10199 -0.32302,0.0624 -0.17046,-0.17046 0.24456,-0.32555 1.30514,-0.48771 0.62415,-0.0954 1.43269,-0.25227 1.79675,-0.34852 0.36406,-0.0962 0.67804,-0.15888 0.69774,-0.13918 0.0197,0.0197 -1.25159,0.7958 -2.82509,1.72467 -1.57351,0.92887 -2.8835,1.75659 -2.91109,1.83937 -0.0779,0.23376 0.0756,0.14943 3.41536,-1.87602 z m -2.22889,0.002 c 0.19207,-0.23143 -0.004,-0.23387 -0.30804,-0.004 -0.1963,0.14848 -0.20234,0.17736 -0.0377,0.18057 0.10775,0.002 0.26336,-0.0774 0.34578,-0.17674 z m 11.70761,-3.76545 c 0.11627,-0.10204 0.18638,-0.21054 0.15579,-0.24113 -0.0624,-0.0624 -4.15914,2.2423 -4.15914,2.33982 0,0.0894 3.75026,-1.87658 4.00335,-2.09869 z m -2.85974,0.63171 c 0.33104,-0.16595 0.49355,-0.26985 0.36113,-0.23088 -0.13241,0.039 -0.48452,0.11977 -0.78246,0.17957 -0.29794,0.0598 -0.70422,0.15975 -0.90284,0.22209 -0.34567,0.1085 -0.33794,0.11374 0.18056,0.12216 0.35219,0.006 0.75229,-0.0968 1.14361,-0.29294 z m 13.13677,-3.195 c 0.72535,-0.415 0.84637,-0.56127 0.25541,-0.3087 -0.81077,0.34651 -1.05332,0.47952 -1.05332,0.57762 0,0.16131 0.11181,0.12363 0.79791,-0.26892 z m 52.71438,73.69765 c 0.23433,-0.21685 2.37706,-1.11153 2.56814,-1.0723 0.23722,0.0487 -0.65628,0.6037 -1.37205,0.85226 -0.65629,0.22791 -1.34062,0.3538 -1.19609,0.22004 z m -6.84531,-54.50859 c -0.0441,-0.0441 -0.0802,-0.13623 -0.0802,-0.20465 0,-0.0754 0.0561,-0.0683 0.14245,0.0181 0.0784,0.0784 0.11446,0.17044 0.0802,0.20464 -0.0342,0.0342 -0.0983,0.0261 -0.14245,-0.018 z m -21.64539,-16.66771 c -0.22077,-0.0809 -0.33383,-0.22293 -0.36917,-0.46369 -0.0505,-0.34416 -0.0481,-0.34561 0.28457,-0.17357 0.18452,0.0954 0.39127,0.27771 0.45944,0.40509 0.21657,0.40466 0.17166,0.43247 -0.37484,0.23217 z" /></g></svg>
