<?xml version="1.0" encoding="UTF-8" standalone="no"?>
<svg
   width="200"
   height="200"
   viewBox="0 0 200 200"
   version="1.1"
   id="svg28"
   sodipodi:docname="PX,_color_wheel_cut.svg"
   inkscape:version="1.4.2 (ebf0e940, 2025-05-08)"
   xml:space="preserve"
   xmlns:inkscape="http://www.inkscape.org/namespaces/inkscape"
   xmlns:sodipodi="http://sodipodi.sourceforge.net/DTD/sodipodi-0.dtd"
   xmlns:xlink="http://www.w3.org/1999/xlink"
   xmlns="http://www.w3.org/2000/svg"
   xmlns:svg="http://www.w3.org/2000/svg"><sodipodi:namedview
     id="namedview28"
     pagecolor="#ffffff"
     bordercolor="#666666"
     borderopacity="1.0"
     inkscape:showpageshadow="2"
     inkscape:pageopacity="0.0"
     inkscape:pagecheckerboard="0"
     inkscape:deskcolor="#d1d1d1"
     inkscape:zoom="2.1507169"
     inkscape:cx="112.28814"
     inkscape:cy="117.40271"
     inkscape:current-layer="svg28"
     showgrid="false" /><defs
     id="defs15"><linearGradient
       id="linearGradient34"
       inkscape:collect="always"><stop
         style="stop-color:#28fffc;stop-opacity:1;"
         offset="0"
         id="stop33" /><stop
         style="stop-color:#2997fe;stop-opacity:1;"
         offset="1"
         id="stop34" /></linearGradient><linearGradient
       id="linearGradient32"
       inkscape:collect="always"><stop
         style="stop-color:#26ff8e;stop-opacity:1;"
         offset="0"
         id="stop31" /><stop
         style="stop-color:#29fefc;stop-opacity:1;"
         offset="1"
         id="stop32" /></linearGradient><linearGradient
       id="linearGradient30"
       inkscape:collect="always"><stop
         style="stop-color:#2aff25;stop-opacity:1;"
         offset="0"
         id="stop29" /><stop
         style="stop-color:#26ff8e;stop-opacity:1;"
         offset="1"
         id="stop30" /></linearGradient><linearGradient
       id="linearGradient28"
       inkscape:collect="always"><stop
         style="stop-color:#91ff23;stop-opacity:1;"
         offset="0"
         id="stop27" /><stop
         style="stop-color:#2cff25;stop-opacity:1;"
         offset="1"
         id="stop28" /></linearGradient><linearGradient
       id="linearGradient26"
       inkscape:collect="always"><stop
         style="stop-color:#feff56;stop-opacity:1;"
         offset="0"
         id="stop25" /><stop
         style="stop-color:#95ff22;stop-opacity:1;"
         offset="1"
         id="stop26" /></linearGradient><linearGradient
       id="linearGradient24"
       inkscape:collect="always"><stop
         style="stop-color:#ff9021;stop-opacity:1;"
         offset="0"
         id="stop23" /><stop
         style="stop-color:#fffc32;stop-opacity:1;"
         offset="1"
         id="stop24" /></linearGradient><linearGradient
       id="linearGradient20"
       inkscape:collect="always"><stop
         style="stop-color:#ff8f21;stop-opacity:1;"
         offset="0"
         id="stop21" /><stop
         style="stop-color:#fe241e;stop-opacity:1;"
         offset="1"
         id="stop22" /></linearGradient><linearGradient
       id="linearGradient19"
       inkscape:collect="always"><stop
         style="stop-color:#ff2722;stop-opacity:1;"
         offset="0"
         id="stop19" /><stop
         style="stop-color:#fe207b;stop-opacity:1;"
         offset="1"
         id="stop20" /></linearGradient><linearGradient
       id="linearGradient12"
       inkscape:collect="always"><stop
         style="stop-color:#ff238a;stop-opacity:1;"
         offset="0"
         id="stop15" /><stop
         style="stop-color:#ff24f9;stop-opacity:1;"
         offset="1"
         id="stop16" /></linearGradient><linearGradient
       id="linearGradient10"
       inkscape:collect="always"><stop
         style="stop-color:#fe27fd;stop-opacity:1;"
         offset="0"
         id="stop10" /><stop
         style="stop-color:#9827ff;stop-opacity:1;"
         offset="1"
         id="stop11" /></linearGradient><linearGradient
       id="linearGradient5"
       inkscape:collect="always"><stop
         style="stop-color:#2992ff;stop-opacity:1;"
         offset="0"
         id="stop5" /><stop
         style="stop-color:#2831ff;stop-opacity:1;"
         offset="1"
         id="stop6" /></linearGradient><linearGradient
       id="linearGradient1"
       inkscape:collect="always"><stop
         style="stop-color:#9128fc;stop-opacity:1;"
         offset="0"
         id="stop1" /><stop
         style="stop-color:#2d27ff;stop-opacity:1;"
         offset="1"
         id="stop2" /></linearGradient><!-- Define 12 color segments --><g
       id="colorSegments"><!-- Red (0°) --><path
         d="M 100,100 L 100,20 A 80,80 0 0,1 123.09,23.21 Z"
         fill="#FF0000"
         id="path1" /><!-- Red-Orange (30°) --><path
         d="M 100,100 L 123.09,23.21 A 80,80 0 0,1 169.28,40 Z"
         fill="#FF8000"
         id="path2" /><!-- Orange (60°) --><path
         d="M 100,100 L 169.28,40 A 80,80 0 0,1 189.28,69.28 Z"
         fill="#FFFF00"
         id="path3" /><!-- Yellow-Green (90°) --><path
         d="M 100,100 L 189.28,69.28 A 80,80 0 0,1 180,100 Z"
         fill="#80FF00"
         id="path4" /><!-- Green (120°) --><path
         d="M 100,100 L 180,100 A 80,80 0 0,1 169.28,160 Z"
         fill="#00FF00"
         id="path5" /><!-- Blue-Green (150°) --><path
         d="M 100,100 L 169.28,160 A 80,80 0 0,1 123.09,176.79 Z"
         fill="#00FF80"
         id="path6" /><!-- Cyan (180°) --><path
         d="M 100,100 L 123.09,176.79 A 80,80 0 0,1 100,180 Z"
         fill="#00FFFF"
         id="path7" /><!-- Blue-Cyan (210°) --><path
         d="M 100,100 L 100,180 A 80,80 0 0,1 76.91,176.79 Z"
         fill="#0080FF"
         id="path8" /><!-- Blue (240°) --><path
         d="M 100,100 L 76.91,176.79 A 80,80 0 0,1 30.72,160 Z"
         fill="#0000FF"
         id="path9" /><!-- Blue-Magenta (270°) --><path
         d="M 100,100 L 30.72,160 A 80,80 0 0,1 20,100 Z"
         fill="#8000FF"
         id="path10" /><!-- Magenta (300°) --><path
         d="M 100,100 L 20,100 A 80,80 0 0,1 30.72,40 Z"
         fill="#FF00FF"
         id="path11" /><!-- Red-Magenta (330°) --><path
         d="M 100,100 L 30.72,40 A 80,80 0 0,1 100,20 Z"
         fill="#FF0080"
         id="path12" /></g><!-- Radial gradient for saturation falloff --><radialGradient
       id="saturationGradient"
       cx="100"
       cy="100"
       r="60.000001"
       fx="100"
       fy="100"
       gradientUnits="userSpaceOnUse"
       gradientTransform="translate(-73.149628,-355.9646)"><stop
         offset="0%"
         stop-color="white"
         stop-opacity="1"
         id="stop12" /><stop
         offset="70%"
         stop-color="white"
         stop-opacity="0.3"
         id="stop13" /><stop
         offset="100%"
         stop-color="white"
         stop-opacity="0"
         id="stop14" /></radialGradient><!-- Shadow for depth --><filter
       id="wheelShadow"
       x="-2.5698159e-06"
       y="-2.7009357e-06"
       width="1.0125813"
       height="1.0132232"><feGaussianBlur
         in="SourceAlpha"
         stdDeviation="0.00017028346"
         id="feGaussianBlur14" /><feOffset
         dx="2"
         dy="2"
         result="offset"
         id="feOffset14" /><feFlood
         flood-color="#000000"
         flood-opacity="0.3"
         id="feFlood14" /><feComposite
         in2="offset"
         operator="in"
         id="feComposite14" /><feMerge
         id="feMerge15"><feMergeNode
           id="feMergeNode14" /><feMergeNode
           in="SourceGraphic"
           id="feMergeNode15" /></feMerge></filter><linearGradient
       inkscape:collect="always"
       xlink:href="#linearGradient1"
       id="linearGradient2"
       x1="176.74512"
       y1="55.664062"
       x2="188.62012"
       y2="100.13086"
       gradientUnits="userSpaceOnUse"
       gradientTransform="rotate(15,100,100)" /><linearGradient
       inkscape:collect="always"
       xlink:href="#linearGradient5"
       id="linearGradient4"
       x1="176.67188"
       y1="144.46191"
       x2="188.62012"
       y2="100.13086"
       gradientUnits="userSpaceOnUse"
       gradientTransform="rotate(15,100,100)" /><linearGradient
       inkscape:collect="always"
       xlink:href="#linearGradient10"
       id="linearGradient11"
       x1="144.24707"
       y1="23.179688"
       x2="176.74512"
       y2="55.664062"
       gradientUnits="userSpaceOnUse"
       gradientTransform="rotate(15,100,100)" /><linearGradient
       inkscape:collect="always"
       xlink:href="#linearGradient12"
       id="linearGradient16"
       x1="100.02539"
       y1="11.335938"
       x2="144.24707"
       y2="23.179688"
       gradientUnits="userSpaceOnUse"
       gradientTransform="rotate(15,100,100)" /><linearGradient
       inkscape:collect="always"
       xlink:href="#linearGradient19"
       id="linearGradient18"
       x1="55.806641"
       y1="23.147461"
       x2="100.06641"
       y2="11.335938"
       gradientUnits="userSpaceOnUse"
       gradientTransform="rotate(15,100,100)" /><linearGradient
       inkscape:collect="always"
       xlink:href="#linearGradient20"
       id="linearGradient22"
       x1="23.325195"
       y1="55.542969"
       x2="55.806641"
       y2="23.147461"
       gradientUnits="userSpaceOnUse"
       gradientTransform="rotate(15,100,100)" /><linearGradient
       inkscape:collect="always"
       xlink:href="#linearGradient24"
       id="linearGradient23"
       x1="23.295898"
       y1="55.59375"
       x2="11.383789"
       y2="99.150391"
       gradientUnits="userSpaceOnUse"
       gradientTransform="rotate(15,100,100)" /><linearGradient
       inkscape:collect="always"
       xlink:href="#linearGradient26"
       id="linearGradient25"
       x1="11.379883"
       y1="99.921875"
       x2="22.998047"
       y2="143.8877"
       gradientUnits="userSpaceOnUse"
       gradientTransform="rotate(15,100,100)" /><linearGradient
       inkscape:collect="always"
       xlink:href="#linearGradient28"
       id="linearGradient27"
       x1="23.017578"
       y1="143.92188"
       x2="55.482422"
       y2="176.66504"
       gradientUnits="userSpaceOnUse"
       gradientTransform="rotate(15,100,100)" /><linearGradient
       inkscape:collect="always"
       xlink:href="#linearGradient30"
       id="linearGradient29"
       x1="55.449219"
       y1="176.64453"
       x2="99.807617"
       y2="188.66406"
       gradientUnits="userSpaceOnUse"
       gradientTransform="rotate(15,100,100)" /><linearGradient
       inkscape:collect="always"
       xlink:href="#linearGradient32"
       id="linearGradient31"
       x1="99.807617"
       y1="188.66406"
       x2="144.17871"
       y2="176.86133"
       gradientUnits="userSpaceOnUse"
       gradientTransform="rotate(15,100,100)" /><linearGradient
       inkscape:collect="always"
       xlink:href="#linearGradient34"
       id="linearGradient33"
       x1="144.14258"
       y1="176.88184"
       x2="176.65137"
       y2="144.49707"
       gradientUnits="userSpaceOnUse"
       gradientTransform="rotate(15,100,100)" /></defs><!-- Outer ring background --><!-- Color wheel segments --><!-- Saturation gradient overlay --><!-- Center neutral zone --><!-- Crosshair in center --><path
     id="path30"
     style="fill:url(#linearGradient18);fill-opacity:1;stroke-width:2;stroke-linecap:round"
     inkscape:transform-center-x="9.5559516"
     inkscape:transform-center-y="-55.428154"
     d="M 124.58781,8.2370465 A 95,95 0 0 0 75.544724,8.2027495 L 78.862063,20.45338 a 82.240234,82.328125 15 0 1 42.446027,0.02376 82.240234,82.328125 15 0 1 0.10565,0.02831 l 3.19671,-12.2623338 a 95,95 0 0 0 -0.0226,-0.00607 z" /><path
     id="path31"
     style="fill:url(#linearGradient16);fill-opacity:1;stroke-width:2;stroke-linecap:round"
     inkscape:transform-center-x="-36.819662"
     inkscape:transform-center-y="-42.504647"
     d="m 124.59347,8.2385632 -3.24199,12.2502008 a 82.240234,82.328125 15 0 1 36.84569,21.30934 l 8.90925,-9.04125 A 95,95 0 0 0 124.59347,8.2385632 Z" /><path
     id="path32"
     style="fill:url(#linearGradient11);fill-opacity:1;stroke-width:2;stroke-linecap:round"
     inkscape:transform-center-x="-52.353156"
     inkscape:transform-center-y="-30.988354"
     d="m 167.09335,32.745262 -8.9428,9.007998 c 10.23035,10.232113 17.58197,22.985506 21.31307,36.973331 l 12.29304,-3.332263 C 187.42462,59.27375 178.91134,44.534016 167.09335,32.745262 Z"
     sodipodi:nodetypes="ccccc" /><path
     id="path33"
     style="fill:url(#linearGradient2);fill-opacity:1;stroke-width:2;stroke-linecap:round"
     inkscape:transform-center-x="-55.259637"
     inkscape:transform-center-y="-9.5510543"
     d="m 191.75666,75.394328 -12.29304,3.332263 c 3.68458,13.904358 3.69855,28.661009 -0.0257,42.558749 -0.0173,0.0648 -0.0346,0.12956 -0.0521,0.19431 l 12.34015,3.24588 0.0369,-0.13772 c 4.306,-16.07094 4.15967,-33.57317 -0.12765,-49.649104 z"
     sodipodi:nodetypes="cccccscc" /><path
     id="path34"
     style="fill:url(#linearGradient4);fill-opacity:1;stroke-width:2;stroke-linecap:round"
     inkscape:transform-center-x="-42.301363"
     inkscape:transform-center-y="37.031441"
     d="m 191.7306,124.70855 -12.32802,-3.29115 a 82.240234,82.328125 15 0 1 -21.39522,36.90962 l 9.03097,8.98536 a 95,95 0 0 0 24.69227,-42.60383 z" /><path
     id="path35"
     style="fill:url(#linearGradient33);fill-opacity:1;stroke-width:2;stroke-linecap:round"
     inkscape:transform-center-x="-30.755911"
     inkscape:transform-center-y="52.470662"
     d="m 158.05359,158.28279 a 82.240234,82.328125 15 0 1 -36.96751,21.27622 l 3.30778,12.25616 a 95,95 0 0 0 42.65606,-24.51587 z" /><path
     id="path36"
     style="fill:url(#linearGradient31);fill-opacity:1;stroke-width:2;stroke-linecap:round"
     inkscape:transform-center-x="-9.3378952"
     inkscape:transform-center-y="55.384681"
     d="m 121.14888,179.54349 a 82.240234,82.328125 15 0 1 -42.456965,-0.0206 82.240234,82.328125 15 0 1 -0.199977,-0.0536 l -3.251425,12.24768 a 95,95 0 0 0 0.171678,0.046 95,95 0 0 0 48.999289,0.0468 z" /><path
     id="path37"
     style="fill:url(#linearGradient29);fill-opacity:1;stroke-width:2;stroke-linecap:round"
     inkscape:transform-center-x="37.135206"
     inkscape:transform-center-y="42.416908"
     d="m 41.605797,158.00149 -8.951222,9.0017 a 95,95 0 0 0 42.60103,24.71781 l 3.296703,-12.23555 A 82.240234,82.328125 15 0 1 41.605797,158.00149 Z" /><path
     id="path38"
     style="fill:url(#linearGradient27);fill-opacity:1;stroke-width:2;stroke-linecap:round"
     inkscape:transform-center-x="52.427825"
     inkscape:transform-center-y="30.847842"
     d="m 20.412137,120.80134 -12.2985681,3.32269 a 95,95 0 0 0 24.5521901,42.89024 l 8.98238,-8.96705 A 82.240234,82.328125 15 0 1 20.412137,120.80134 Z" /><path
     id="path39"
     style="fill:url(#linearGradient25);fill-opacity:1;stroke-width:2;stroke-linecap:round"
     inkscape:transform-center-x="55.17542"
     inkscape:transform-center-y="9.3316237"
     d="M 8.4607146,74.592542 A 95,95 0 0 0 8.2370465,75.412191 95,95 0 0 0 8.117575,124.13926 l 12.310595,-3.27701 a 82.240234,82.328125 15 0 1 0.133864,-42.147589 82.240234,82.328125 15 0 1 0.223668,-0.819648 z" /><path
     id="path40"
     style="fill:url(#linearGradient23);fill-opacity:1;stroke-width:2;stroke-linecap:round"
     inkscape:transform-center-x="42.238112"
     inkscape:transform-center-y="-37.251214"
     d="M 32.908636,32.74216 A 95,95 0 0 0 8.2633327,75.314089 L 20.576188,78.661837 A 82.240234,82.328125 15 0 1 41.896785,41.766588 Z" /><path
     id="path41"
     style="fill:url(#linearGradient22);fill-opacity:1;stroke-width:2;stroke-linecap:round"
     inkscape:transform-center-x="30.838906"
     inkscape:transform-center-y="-52.426169"
     d="M 75.5519,8.1986065 A 95,95 0 0 0 32.933704,32.716525 l 9.020897,8.992762 A 82.240234,82.328125 15 0 1 78.892013,20.447251 Z" /></svg>
