<?xml version="1.0" encoding="UTF-8" standalone="no"?>
<!-- Created with Inkscape (http://www.inkscape.org/) -->

<svg
   width="100.00003mm"
   height="100mm"
   viewBox="0 0 100.00003 100"
   version="1.1"
   id="svg1"
   xml:space="preserve"
   xmlns="http://www.w3.org/2000/svg"
   xmlns:svg="http://www.w3.org/2000/svg"><defs
     id="defs1" /><g
     id="layer1"
     transform="translate(692.04647,-281.97879)"><rect
       style="opacity:0.8;fill:none;stroke-width:0.529167;stroke-linecap:round;-inkscape-stroke:none"
       id="rect112"
       width="100"
       height="100"
       x="-692.04645"
       y="281.97879" /><path
       id="path1-23"
       style="opacity:0.8;fill:#f9f9f9;stroke-width:0.264584"
       d="m -675.2207,300.60156 c -2.98037,0.47115 -5.54934,2.87327 -6.11839,5.85017 -0.34538,2.05635 -0.10817,4.16413 -0.17849,6.24241 0.0105,14.48917 -0.021,28.97999 0.0157,43.46813 0.0352,3.32772 2.56442,6.4291 5.83311,7.08623 2.01714,0.38109 4.09445,0.12617 6.1375,0.20072 19.88917,-0.0105 39.77999,0.0209 59.66813,-0.0157 3.32798,-0.0324 6.42902,-2.56221 7.08512,-5.83096 0.38327,-2.01749 0.12681,-4.09592 0.20183,-6.13965 0,-16.98503 0,-33.97005 0,-50.95508 -4.87175,0 -9.74349,0 -14.61524,0 2.66667,5.33334 5.33334,10.66667 8,16 -4.39388,0 -8.78776,0 -13.18164,0 -2.66666,-5.33333 -5.33333,-10.66666 -8,-16 -2.27278,0 -4.54557,0 -6.81836,0 2.66667,5.33334 5.33334,10.66667 8,16 -4.39388,0 -8.78776,0 -13.18164,0 -2.66666,-5.33333 -5.33333,-10.66666 -8,-16 -2.27278,0 -4.54557,0 -6.81836,0 2.66667,5.33334 5.33334,10.66667 8,16 -4.39388,0 -8.78776,0 -13.18164,0 -2.66666,-5.33333 -5.33333,-10.66666 -8,-16 -1.61599,0.0272 -3.23727,-0.0736 -4.84765,0.0937 z m 1.64648,9.02149 c 2.29818,4.60872 4.59636,9.21744 6.89453,13.82617 19.05404,0 38.10808,0 57.16211,0 0,11.01953 0,22.03906 0,33.05859 -21.6862,0 -43.37239,0 -65.05859,0 0.0112,-15.68257 -0.0224,-31.36609 0.0168,-47.04808 0.0951,-0.30529 -0.10108,-1.8465 0.20839,-1.24209 0.25892,0.46847 0.51784,0.93694 0.77676,1.40541 z" /></g></svg>
