<?xml version="1.0" encoding="UTF-8" standalone="no"?>
<svg
   width="200"
   height="200"
   viewBox="0 0 200 200"
   version="1.1"
   id="svg28"
   sodipodi:docname="PX,_color_wheel_cut.svg"
   inkscape:version="1.4.2 (ebf0e940, 2025-05-08)"
   xml:space="preserve"
   xmlns:inkscape="http://www.inkscape.org/namespaces/inkscape"
   xmlns:sodipodi="http://sodipodi.sourceforge.net/DTD/sodipodi-0.dtd"
   xmlns="http://www.w3.org/2000/svg"
   xmlns:svg="http://www.w3.org/2000/svg"><sodipodi:namedview
     id="namedview28"
     pagecolor="#ffffff"
     bordercolor="#666666"
     borderopacity="1.0"
     inkscape:showpageshadow="2"
     inkscape:pageopacity="0.0"
     inkscape:pagecheckerboard="0"
     inkscape:deskcolor="#d1d1d1"
     inkscape:zoom="1.6769179"
     inkscape:cx="180.0923"
     inkscape:cy="106.44528"
     inkscape:current-layer="svg28" /><defs
     id="defs15"><!-- Define 12 color segments --><g
       id="colorSegments"><!-- Red (0°) --><path
         d="M 100,100 L 100,20 A 80,80 0 0,1 123.09,23.21 Z"
         fill="#FF0000"
         id="path1" /><!-- Red-Orange (30°) --><path
         d="M 100,100 L 123.09,23.21 A 80,80 0 0,1 169.28,40 Z"
         fill="#FF8000"
         id="path2" /><!-- Orange (60°) --><path
         d="M 100,100 L 169.28,40 A 80,80 0 0,1 189.28,69.28 Z"
         fill="#FFFF00"
         id="path3" /><!-- Yellow-Green (90°) --><path
         d="M 100,100 L 189.28,69.28 A 80,80 0 0,1 180,100 Z"
         fill="#80FF00"
         id="path4" /><!-- Green (120°) --><path
         d="M 100,100 L 180,100 A 80,80 0 0,1 169.28,160 Z"
         fill="#00FF00"
         id="path5" /><!-- Blue-Green (150°) --><path
         d="M 100,100 L 169.28,160 A 80,80 0 0,1 123.09,176.79 Z"
         fill="#00FF80"
         id="path6" /><!-- Cyan (180°) --><path
         d="M 100,100 L 123.09,176.79 A 80,80 0 0,1 100,180 Z"
         fill="#00FFFF"
         id="path7" /><!-- Blue-Cyan (210°) --><path
         d="M 100,100 L 100,180 A 80,80 0 0,1 76.91,176.79 Z"
         fill="#0080FF"
         id="path8" /><!-- Blue (240°) --><path
         d="M 100,100 L 76.91,176.79 A 80,80 0 0,1 30.72,160 Z"
         fill="#0000FF"
         id="path9" /><!-- Blue-Magenta (270°) --><path
         d="M 100,100 L 30.72,160 A 80,80 0 0,1 20,100 Z"
         fill="#8000FF"
         id="path10" /><!-- Magenta (300°) --><path
         d="M 100,100 L 20,100 A 80,80 0 0,1 30.72,40 Z"
         fill="#FF00FF"
         id="path11" /><!-- Red-Magenta (330°) --><path
         d="M 100,100 L 30.72,40 A 80,80 0 0,1 100,20 Z"
         fill="#FF0080"
         id="path12" /></g><!-- Radial gradient for saturation falloff --><radialGradient
       id="saturationGradient"
       cx="100"
       cy="100"
       r="60.000001"
       fx="100"
       fy="100"
       gradientUnits="userSpaceOnUse"
       gradientTransform="translate(-73.149628,-355.9646)"><stop
         offset="0%"
         stop-color="white"
         stop-opacity="1"
         id="stop12" /><stop
         offset="70%"
         stop-color="white"
         stop-opacity="0.3"
         id="stop13" /><stop
         offset="100%"
         stop-color="white"
         stop-opacity="0"
         id="stop14" /></radialGradient><!-- Shadow for depth --><filter
       id="wheelShadow"
       x="-2.5698159e-06"
       y="-2.7009357e-06"
       width="1.0125813"
       height="1.0132232"><feGaussianBlur
         in="SourceAlpha"
         stdDeviation="0.00017028346"
         id="feGaussianBlur14" /><feOffset
         dx="2"
         dy="2"
         result="offset"
         id="feOffset14" /><feFlood
         flood-color="#000000"
         flood-opacity="0.3"
         id="feFlood14" /><feComposite
         in2="offset"
         operator="in"
         id="feComposite14" /><feMerge
         id="feMerge15"><feMergeNode
           id="feMergeNode14" /><feMergeNode
           in="SourceGraphic"
           id="feMergeNode15" /></feMerge></filter></defs><!-- Outer ring background --><!-- Color wheel segments --><!-- Saturation gradient overlay --><!-- Center neutral zone --><!-- Crosshair in center --><path
     id="path30"
     style="fill:#f6014a;fill-opacity:1;stroke-width:2;stroke-linecap:round"
     inkscape:transform-center-x="24.705701"
     inkscape:transform-center-y="-49.954633"
     d="M 100 5 A 95 95 0 0 0 52.619141 17.660156 L 58.994141 28.634766 A 82.240234 82.328125 0 0 1 100 17.671875 A 82.240234 82.328125 0 0 1 100.10938 17.671875 L 100.02344 5 A 95 95 0 0 0 100 5 z " /><path
     id="path31"
     style="fill:#fd00c4;fill-opacity:1;stroke-width:2;stroke-linecap:round"
     inkscape:transform-center-x="-24.959789"
     inkscape:transform-center-y="-49.852568"
     d="M 100.00586 5 L 100.04492 17.671875 A 82.240234 82.328125 0 0 1 141.15039 28.71875 L 147.41602 17.679688 A 95 95 0 0 0 100.00586 5 z " /><path
     id="path32"
     style="fill:#e406f6;fill-opacity:1;stroke-width:2;stroke-linecap:round"
     inkscape:transform-center-x="-43.277534"
     inkscape:transform-center-y="-43.050203"
     d="M 147.40039 17.671875 L 141.09375 28.6875 A 82.240234 82.328125 0 0 1 171.25 58.884766 L 182.24023 52.443359 A 95 95 0 0 0 147.40039 17.671875 z " /><path
     id="path33"
     style="fill:#6728f0;stroke-width:2;stroke-linecap:round;fill-opacity:1"
     inkscape:transform-center-x="-49.809304"
     inkscape:transform-center-y="-24.680332"
     d="M 182.32812 52.597656 L 171.31641 58.998047 A 82.240234 82.328125 0 0 1 182.24023 100 A 82.240234 82.328125 0 0 1 182.24023 100.20117 L 195 100.14258 A 95 95 0 0 0 195 100 A 95 95 0 0 0 182.32812 52.597656 z " /><path
     id="path34"
     style="fill:#0a56fd;fill-opacity:1;stroke-width:2;stroke-linecap:round"
     inkscape:transform-center-x="-49.707536"
     inkscape:transform-center-y="25.242037"
     d="M 195 100.125 L 182.24023 100.13672 A 82.240234 82.328125 0 0 1 171.12695 141.32617 L 182.17578 147.66797 A 95 95 0 0 0 195 100.125 z " /><path
     id="path35"
     style="fill:#16cbf4;fill-opacity:1;stroke-width:2;stroke-linecap:round"
     inkscape:transform-center-x="-42.869096"
     inkscape:transform-center-y="43.458707"
     d="M 171.16016 141.27148 A 82.240234 82.328125 0 0 1 140.95898 171.39062 L 147.32617 182.37305 A 95 95 0 0 0 182.18359 147.65234 L 171.16016 141.27148 z " /><path
     id="path36"
     style="fill:#10f5bf;fill-opacity:1;stroke-width:2;stroke-linecap:round"
     inkscape:transform-center-x="-24.511811"
     inkscape:transform-center-y="49.953204"
     d="M 141.01562 171.35938 A 82.240234 82.328125 0 0 1 100 182.32812 A 82.240234 82.328125 0 0 1 99.792969 182.32812 L 99.822266 195 A 95 95 0 0 0 100 195 A 95 95 0 0 0 147.3418 182.36328 L 141.01562 171.35938 z " /><path
     id="path37"
     style="fill:#04f824;fill-opacity:1;stroke-width:2;stroke-linecap:round"
     inkscape:transform-center-x="25.310042"
     inkscape:transform-center-y="49.851136"
     d="M 58.607422 171.13867 L 52.291016 182.15039 A 95 95 0 0 0 99.837891 195 L 99.855469 182.32812 A 82.240234 82.328125 0 0 1 58.607422 171.13867 z " /><path
     id="path38"
     style="fill:#0bfc02;stroke-width:2;stroke-linecap:round;fill-opacity:1"
     inkscape:transform-center-x="43.387816"
     inkscape:transform-center-y="42.936903"
     d="M 28.507812 140.69141 L 17.488281 147.08398 A 95 95 0 0 0 52.304688 182.1582 L 58.660156 171.17188 A 82.240234 82.328125 0 0 1 28.507812 140.69141 z " /><path
     id="path39"
     style="fill:#bcfe12;fill-opacity:1;stroke-width:2;stroke-linecap:round"
     inkscape:transform-center-x="49.807357"
     inkscape:transform-center-y="24.485605"
     d="M 5.0039062 99.150391 A 95 95 0 0 0 5 100 A 95 95 0 0 0 17.496094 147.09766 L 28.539062 140.74609 A 82.240234 82.328125 0 0 1 17.759766 100 A 82.240234 82.328125 0 0 1 17.763672 99.150391 L 5.0039062 99.150391 z " /><path
     id="path40"
     style="fill:#f2d807;stroke-width:2;stroke-linecap:round;fill-opacity:1"
     inkscape:transform-center-x="49.70559"
     inkscape:transform-center-y="-25.480131"
     d="M 17.787109 52.398438 A 95 95 0 0 0 5 99.898438 L 17.759766 99.945312 A 82.240234 82.328125 0 0 1 28.804688 58.789062 L 17.787109 52.398438 z " /><path
     id="path41"
     style="fill:#f53e07;fill-opacity:1;stroke-width:2;stroke-linecap:round"
     inkscape:transform-center-x="42.935644"
     inkscape:transform-center-y="-43.393242"
     d="M 52.625 17.654297 A 95 95 0 0 0 17.804688 52.367188 L 28.845703 58.71875 A 82.240234 82.328125 0 0 1 59.021484 28.621094 L 52.625 17.654297 z " /></svg>
