<?xml version="1.0" encoding="UTF-8" standalone="no"?>
<!-- Created with Inkscape (http://www.inkscape.org/) -->

<svg
   width="99.999969mm"
   height="100mm"
   viewBox="0 0 99.999969 100"
   version="1.1"
   id="svg1"
   xml:space="preserve"
   xmlns="http://www.w3.org/2000/svg"
   xmlns:svg="http://www.w3.org/2000/svg"><defs
     id="defs1" /><g
     id="layer1"
     transform="translate(992.04638,-281.97879)"><rect
       style="opacity:0.8;fill:none;stroke-width:0.529167;stroke-linecap:round;-inkscape-stroke:none"
       id="rect109"
       width="100"
       height="100"
       x="-992.04645"
       y="281.97879" /><path
       id="path20"
       style="opacity:0.8;fill:#f9f9f9;stroke-width:0.264584"
       d="m -946.04646,294.97874 v 17.39997 c -7.89338,1.60224 -14.09853,7.85359 -15.63367,15.77113 l -17.4501,0.39274 0.18035,7.99797 17.339,-0.39016 c 1.64552,7.75485 7.78524,13.84945 15.56442,15.42851 v 17.39998 h 8.00003 V 351.5789 c 7.89334,-1.60231 14.09856,-7.8536 15.63367,-15.77113 l 17.4501,-0.39274 -0.17984,-7.99796 -17.33951,0.39016 c -1.64539,-7.75496 -7.7852,-13.84936 -15.56442,-15.42852 v -17.39997 z m 4.00027,25.00003 c 6.60015,0 11.95377,5.32885 11.99772,11.91865 l 0.002,0.0811 c 0,6.62741 -5.37238,12.0003 -11.99979,12.0003 -6.44185,0 -11.69809,-5.07591 -11.98738,-11.44633 -0.008,-0.18343 -0.0129,-0.36848 -0.0129,-0.55397 v -0.004 c 0.002,-6.62573 5.37411,-11.99616 12.0003,-11.99616 z" /></g></svg>
