<?xml version="1.0" encoding="UTF-8" standalone="no"?>
<!-- Created with Inkscape (http://www.inkscape.org/) -->

<svg
   width="100.00003mm"
   height="100mm"
   viewBox="0 0 100.00003 100"
   version="1.1"
   id="svg1"
   xml:space="preserve"
   xmlns="http://www.w3.org/2000/svg"
   xmlns:svg="http://www.w3.org/2000/svg"><defs
     id="defs1" /><g
     id="layer1"
     transform="translate(892.04648,-281.97879)"><rect
       style="opacity:0.8;fill:none;stroke-width:0.529167;stroke-linecap:round;-inkscape-stroke:none"
       id="rect110"
       width="100"
       height="100"
       x="-892.04645"
       y="281.97879" /><path
       id="path1-2"
       style="opacity:0.8;fill:#f9f9f9;stroke-width:0.264584"
       d="m -860.97656,304.33594 c -0.42137,0.38139 -1.14588,0.0717 -1.69063,0.17187 -3.95367,0.0258 -7.91141,-0.0518 -11.86251,0.0393 -3.33298,0.14073 -6.30227,2.82016 -6.85608,6.0991 -0.26907,2.36778 -0.0709,4.76696 -0.1318,7.14794 0.0105,14.12251 -0.021,28.24666 0.0157,42.36813 0.0343,3.29316 2.50971,6.36851 5.73395,7.06278 2.01247,0.41854 4.09405,0.14528 6.13666,0.22417 19.9225,-0.0105 39.84666,0.0209 59.76813,-0.0157 3.32798,-0.0324 6.42902,-2.56221 7.08512,-5.83096 0.38327,-2.01749 0.12681,-4.09592 0.20183,-6.13965 -0.0105,-14.55584 0.021,-29.11332 -0.0157,-43.66813 -0.0319,-3.32719 -2.56205,-6.4292 -5.83069,-7.08428 -2.01722,-0.38512 -4.09615,-0.12717 -6.13992,-0.20267 -2.79883,0 -5.59766,0 -8.39648,0 -2.44114,-2.66571 -4.88004,-5.33349 -7.32032,-8 -7.84505,0 -15.6901,0 -23.53515,0 -2.38737,2.60938 -4.77474,5.21875 -7.16211,7.82813 z m 10.44922,-0.88672 c 5.73112,0 11.46224,0 17.19336,0 2.44113,2.66572 4.88003,5.33349 7.32031,8 5.4987,0 10.99739,0 16.49609,0 0,16.35286 0,32.70573 0,49.05859 -21.6862,0 -43.37239,0 -65.05859,0 0,-16.35286 0,-32.70573 0,-49.05859 5.49935,0 10.9987,0 16.49805,0 2.43963,-2.6665 4.87782,-5.33433 7.31835,-8 0.0775,0 0.15495,0 0.23243,0 z m 6.44531,13.16601 c -3.25948,0.38219 -6.43212,1.52813 -9.11897,3.42413 -3.37327,2.35105 -5.95129,5.80121 -7.27466,9.69362 -1.29375,3.83422 -1.36493,8.06611 -0.17474,11.93658 1.18854,3.90366 3.64269,7.4031 6.90569,9.85468 3.25178,2.45363 7.28679,3.83871 11.3604,3.90554 4.07308,0.0741 8.15668,-1.16865 11.49156,-3.51211 3.34272,-2.33386 5.91911,-5.74118 7.23933,-9.60081 1.33205,-3.8561 1.40794,-8.12807 0.21007,-12.02939 -1.18461,-3.90597 -3.6426,-7.40297 -6.90569,-9.85468 -3.25127,-2.45325 -7.28534,-3.83887 -11.35845,-3.90545 -0.7909,-0.0352 -1.58349,0.0661 -2.37454,0.0879 z m 2.07031,6.83594 c 3.0977,0.0345 6.18355,1.20409 8.44655,3.33422 2.47861,2.24843 3.96177,5.54361 4.02819,8.88884 0.10106,3.31542 -1.20922,6.62841 -3.5125,9.01165 -2.28404,2.35645 -5.5081,3.7633 -8.7929,3.809 -3.28224,0.0611 -6.55332,-1.23677 -8.91197,-3.5208 -2.36015,-2.28111 -3.7597,-5.50749 -3.80867,-8.79095 -0.0579,-3.28153 1.23348,-6.55504 3.52156,-8.91122 2.27976,-2.36145 5.50683,-3.76078 8.78998,-3.80954 0.0797,0.002 0.16045,-0.0208 0.23976,-0.0112 z" /></g></svg>
