<?xml version="1.0" encoding="UTF-8" standalone="no"?>
<!-- Created with Inkscape (http://www.inkscape.org/) -->

<svg
   width="100.00003mm"
   height="100mm"
   viewBox="0 0 100.00003 100"
   version="1.1"
   id="svg1"
   xml:space="preserve"
   xmlns="http://www.w3.org/2000/svg"
   xmlns:svg="http://www.w3.org/2000/svg"><defs
     id="defs1" /><g
     id="layer1"
     transform="translate(892.04648,-281.97879)"><rect
       style="opacity:0.8;fill:none;stroke-width:0.529167;stroke-linecap:round;-inkscape-stroke:none"
       id="rect110"
       width="100"
       height="100"
       x="-892.04645"
       y="281.97879" /><path
       d="m -810.04649,303.97885 h -12.68 l -7.31989,-8.00004 h -23.99999 l -7.32002,8.00004 h -12.68002 a 7.9999948,7.9999948 0 0 0 -8.00004,7.9999 v 47.99998 a 7.9999948,7.9999948 0 0 0 8.00004,8.00004 h 63.99992 a 7.9999948,7.9999948 0 0 0 8.00004,-8.00004 v -47.99998 a 7.9999948,7.9999948 0 0 0 -8.00004,-7.9999 m 0,55.99988 h -63.99992 v -47.99998 h 16.19997 l 7.32003,-7.9999 h 16.95993 l 7.32003,7.9999 h 16.19996 v 47.99998 m -31.99988,-43.99988 a 19.999986,19.999986 0 0 0 -20.00003,19.9999 19.999986,19.999986 0 0 0 20.00003,20.00004 19.999986,19.999986 0 0 0 19.99988,-20.00004 19.999986,19.999986 0 0 0 -19.99988,-19.9999 m 0,31.9999 a 11.999992,11.999992 0 0 1 -12,-12 11.999992,11.999992 0 0 1 12,-11.99999 11.999992,11.999992 0 0 1 11.99999,11.99999 11.999992,11.999992 0 0 1 -11.99999,12 z"
       id="path1-2"
       style="opacity:0.8;fill:#f9f9f9;stroke-width:0.264584" /></g></svg>
