<?xml version="1.0" encoding="UTF-8" standalone="no"?>
<!-- Created with Inkscape (http://www.inkscape.org/) -->

<svg
   width="99.999969mm"
   height="100mm"
   viewBox="0 0 99.999969 100"
   version="1.1"
   id="svg1"
   xml:space="preserve"
   xmlns="http://www.w3.org/2000/svg"
   xmlns:svg="http://www.w3.org/2000/svg"><defs
     id="defs1" /><g
     id="layer1"
     transform="translate(792.04638,-281.97879)"><rect
       style="opacity:0.8;fill:none;stroke-width:0.529167;stroke-linecap:round;-inkscape-stroke:none"
       id="rect111"
       width="100"
       height="100"
       x="-792.04645"
       y="281.97879" /><path
       id="path1-9"
       style="opacity:0.8;fill:#f9f9f9;stroke-width:0.264584"
       d="m -742.54492,301.5332 c -2.77784,0.21125 -4.98961,2.98482 -4.58162,5.73963 0.12938,1.22205 0.74655,2.34837 1.61092,3.20764 0,4.35742 -10e-6,8.71484 0,13.07226 -3.08876,-3.08571 -6.1762,-6.17278 -9.26172,-9.26171 0.1255,-2.56101 -1.87642,-5.01285 -4.43717,-5.31303 -2.45966,-0.38904 -5.06533,1.25345 -5.67336,3.68773 -0.87213,2.66895 0.92778,5.80169 3.66875,6.40665 0.60345,0.27964 1.43917,-0.10814 1.84141,0.53039 2.9681,2.96925 5.93856,5.93615 8.90505,8.90701 -4.35742,0 -8.71484,0 -13.07226,0 -1.75426,-1.90807 -4.95134,-2.22185 -6.97773,-0.56863 -2.21709,1.61259 -2.65457,5.0766 -0.89901,7.18467 1.64107,2.2069 5.09614,2.621 7.22595,0.88938 0.38328,-0.38563 0.77116,-0.71469 1.35196,-0.56597 4.1224,0 8.24479,0 12.36719,0 -3.08524,3.099 -6.17335,6.19516 -9.25782,9.29492 -2.55215,-0.13103 -5.02003,1.84743 -5.31354,4.40974 -0.47891,2.7394 1.666,5.56434 4.43338,5.84133 2.72056,0.42012 5.50196,-1.70332 5.77967,-4.44903 -3.5e-4,-0.54876 0.0274,-1.06972 0.55366,-1.37825 2.92211,-2.92096 5.84187,-5.84427 8.76559,-8.76363 0,4.35742 -10e-6,8.71484 0,13.07226 -1.91145,1.75747 -2.21828,4.95656 -0.56619,6.98663 1.62217,2.20614 5.07462,2.64896 7.18223,0.89011 2.2284,-1.65452 2.6211,-5.14898 0.85129,-7.27645 -0.39432,-0.3553 -0.65722,-0.74991 -0.52788,-1.30146 0,-4.1224 0,-8.24479 0,-12.36719 3.09802,3.08557 6.1958,6.17139 9.29297,9.25782 -0.12147,2.51161 1.78257,4.94565 4.29534,5.29793 2.52788,0.45945 5.23093,-1.25426 5.81368,-3.77261 0.78057,-2.58514 -0.90914,-5.55514 -3.5204,-6.23157 -0.55027,-0.22703 -1.21267,-0.10721 -1.73503,-0.28681 -3.06174,-3.07536 -6.12564,-6.14858 -9.18758,-9.22374 4.35612,0 8.71224,0 13.06836,0 1.7526,1.90191 4.93986,2.21969 6.96738,0.57634 2.22445,-1.61177 2.67256,-5.0818 0.90936,-7.19434 -1.64237,-2.20619 -5.09286,-2.61985 -7.22453,-0.8901 -0.38392,0.38588 -0.77097,0.71852 -1.35338,0.56865 -4.1237,0 -8.2474,0 -12.37109,0 3.08571,-3.08876 6.17278,-6.1762 9.26171,-9.26172 2.52141,0.11854 4.94153,-1.81176 5.29783,-4.32466 0.54305,-2.73888 -1.55606,-5.62802 -4.33251,-5.94627 -2.70823,-0.47292 -5.513,1.61562 -5.81927,4.35097 -0.0282,0.5699 -0.003,1.14043 -0.56863,1.46034 -2.93146,2.92007 -5.86235,5.84073 -8.79421,8.7604 0,-4.35612 0,-8.71224 0,-13.06836 1.90211,-1.75149 2.21936,-4.93891 0.57671,-6.9657 -1.04534,-1.38997 -2.81575,-2.15634 -4.54546,-1.98157 z" /></g></svg>
