<?xml version="1.0" encoding="UTF-8" standalone="no"?>
<!-- Created with Inkscape (http://www.inkscape.org/) -->

<svg
   width="61.999962mm"
   height="62.000126mm"
   viewBox="0 0 61.999962 62.000126"
   version="1.1"
   id="svg1"
   xml:space="preserve"
   xmlns="http://www.w3.org/2000/svg"
   xmlns:svg="http://www.w3.org/2000/svg"><defs
     id="defs1" /><g
     id="layer1"
     transform="translate(773.04639,-300.97874)"><path
       d="m -763.34344,327.97981 h 11.59398 l -8.21504,-8.21507 c -3.13091,0 -5.67294,-2.54202 -5.67294,-5.70397 a 5.6730082,5.6730082 0 0 1 5.67294,-5.67303 c 3.16206,0 5.70407,2.54202 5.70407,5.67303 l 8.21494,8.21495 v -11.594 c -2.20094,-2.232 -2.20094,-5.82793 0,-8.029 2.20108,-2.232 5.79701,-2.232 7.99808,0 2.20095,2.20107 2.20095,5.797 0,8.029 v 11.594 l 8.24599,-8.21495 c 0,-3.13101 2.51097,-5.67303 5.67304,-5.67303 3.13102,0 5.67303,2.54202 5.67303,5.67303 0,3.16195 -2.54201,5.70397 -5.67303,5.70397 l -8.21506,8.21507 h 11.594 c 2.232,-2.20108 5.82805,-2.20108 8.029,0 2.23199,2.20094 2.23199,5.79699 0,7.99795 -2.20095,2.20108 -5.797,2.20108 -8.029,0 h -11.594 l 8.21506,8.24599 c 3.13102,0 5.67303,2.5111 5.67303,5.67304 a 5.6730082,5.6730082 0 0 1 -5.67303,5.67303 c -3.16207,0 -5.67304,-2.54201 -5.67304,-5.67303 l -8.24599,-8.21494 v 11.594 c 2.20095,2.232 2.20095,5.82793 0,8.029 -2.20107,2.23201 -5.797,2.23201 -7.99808,0 -2.20094,-2.20107 -2.20094,-5.797 0,-8.029 v -11.594 l -8.21494,8.21494 c 0,3.13102 -2.54201,5.67303 -5.70407,5.67303 -3.13091,0 -5.67294,-2.54201 -5.67294,-5.67303 0,-3.16194 2.54203,-5.67304 5.67294,-5.67304 l 8.21504,-8.24599 h -11.59398 c -2.23201,2.20108 -5.82807,2.20108 -8.029,0 -2.23201,-2.20096 -2.23201,-5.79701 0,-7.99795 2.20093,-2.20108 5.79699,-2.20108 8.029,0 z"
       id="path1-9"
       style="opacity:0.8;fill:#f9f9f9;stroke-width:0.264584" /></g></svg>
