<?xml version="1.0" encoding="UTF-8" standalone="no"?>
<!-- Created with Inkscape (http://www.inkscape.org/) -->

<svg
   width="100.00003mm"
   height="100mm"
   viewBox="0 0 100.00003 100"
   version="1.1"
   id="svg1"
   xml:space="preserve"
   xmlns="http://www.w3.org/2000/svg"
   xmlns:svg="http://www.w3.org/2000/svg"><defs
     id="defs1" /><g
     id="layer1"
     transform="translate(580.2541,-281.97879)"><rect
       style="opacity:0.8;fill:none;stroke-width:0.529167;stroke-linecap:round;-inkscape-stroke:none"
       id="rect113"
       width="100"
       height="100"
       x="-580.25409"
       y="281.97879" /><path
       id="path1-0"
       style="opacity:0.8;fill:#ffffff;stroke-width:0.264584"
       d="m -557.85742,297.51758 c -3.53523,0.12328 -6.65884,3.17787 -6.84612,6.71303 -0.0492,11.94514 -0.007,23.89281 -0.0211,35.83892 0.0174,6.57166 -0.0347,13.14539 0.0258,19.71576 0.21775,3.5462 3.38739,6.59054 6.94135,6.65673 18.37009,0.0103 36.74092,0.0154 55.11097,-0.003 3.50125,-0.12321 6.59603,-3.11933 6.83419,-6.61335 0.068,-6.77772 0.01,-13.55937 0.0291,-20.3386 -0.0119,-11.73854 0.0238,-23.47829 -0.0178,-35.21608 -0.16893,-3.55026 -3.29886,-6.63097 -6.8494,-6.75384 -18.40202,-0.0163 -36.80504,-0.0163 -55.20703,0 z m 0.38086,6.70898 c 18.32487,0 36.64974,0 54.97461,0 0,18.5013 0,37.00261 0,55.50391 -18.50131,0 -37.00261,0 -55.50391,0 0,-18.5013 0,-37.00261 0,-55.50391 0.17643,0 0.35287,0 0.5293,0 z m 13.02344,9.26563 c -2.3416,0.47215 -4.25154,2.57991 -4.35564,4.9857 -0.24947,2.5905 1.6532,5.14671 4.19524,5.68819 2.45697,0.60878 5.20316,-0.74038 6.20612,-3.07094 1.07478,-2.28716 0.28158,-5.24121 -1.80029,-6.67944 -1.2213,-0.87789 -2.7698,-1.18125 -4.24543,-0.92351 z m 11.54492,33.70508 c -0.36463,0.92654 -0.7565,0.058 -1.1437,-0.37095 -2.29455,-2.76242 -4.5891,-5.52484 -6.88365,-8.28726 -3.20833,4.11849 -6.41666,8.23698 -9.625,12.35547 13.54493,0 27.08985,0 40.63477,0 -4.23763,-5.63867 -8.47526,-11.27734 -12.71289,-16.91601 -3.42318,4.40625 -6.84636,8.8125 -10.26953,13.21875 z" /></g></svg>
