<?xml version="1.0" encoding="UTF-8" standalone="no"?>
<!-- Created with Inkscape (http://www.inkscape.org/) -->

<svg
   width="99.999969mm"
   height="100mm"
   viewBox="0 0 99.999969 100"
   version="1.1"
   id="svg1"
   xml:space="preserve"
   xmlns="http://www.w3.org/2000/svg"
   xmlns:svg="http://www.w3.org/2000/svg"><defs
     id="defs1" /><g
     id="layer1"
     transform="translate(992.04638,-281.97879)"><rect
       style="opacity:0.8;fill:none;stroke-width:0.529167;stroke-linecap:round;-inkscape-stroke:none"
       id="rect109"
       width="100"
       height="100"
       x="-992.04645"
       y="281.97879" /><path
       id="path20"
       style="opacity:0.8;fill:#f9f9f9;stroke-width:0.264584"
       d="m -945.51758,312.37891 c 0.20354,0.69637 -0.74192,0.47203 -1.14844,0.67968 -5.31279,1.2703 -9.99492,4.91012 -12.57031,9.76953 -0.97816,1.82451 -1.63626,3.80841 -2.01172,5.8418 -5.78058,0.13084 -11.5612,0.26031 -17.34179,0.39063 0.0527,2.31315 0.10546,4.6263 0.1582,6.93945 5.74609,-0.12958 11.49219,-0.25896 17.23828,-0.38867 0.72701,3.72823 2.57414,7.32906 5.30623,10.05903 2.78595,2.8371 6.46236,4.76019 10.36955,5.48198 0,5.76563 0,11.53125 0,17.29688 2.3138,0 4.62761,0 6.94141,0 0,-5.76563 0,-11.53125 0,-17.29688 4.12551,-0.76866 7.90808,-2.81934 10.77614,-5.90226 2.57685,-2.74702 4.29621,-6.25792 4.95823,-9.96102 5.77929,-0.13147 11.5586,-0.26161 17.33789,-0.39258 -0.0521,-2.3125 -0.10416,-4.625 -0.15625,-6.9375 -5.74674,0.12895 -11.49349,0.25756 -17.24023,0.38672 -0.39306,-1.88067 -0.94339,-3.56446 -1.84699,-5.30592 -2.70273,-5.30809 -7.9688,-9.18726 -13.82879,-10.23509 0,-5.76563 0,-11.53125 0,-17.29688 -2.3138,0 -4.62761,0 -6.94141,0 0,5.6237 0,11.2474 0,16.8711 z m 3.4707,7.07031 c 4.83638,-0.0591 9.51838,2.98313 11.43792,7.42037 2.06852,4.48025 1.12398,10.13488 -2.30798,13.68567 -3.26619,3.57197 -8.69274,4.89609 -13.24346,3.25886 -4.70815,-1.57561 -8.19426,-6.18432 -8.3937,-11.15081 -0.33436,-4.87334 2.51254,-9.75874 6.90466,-11.8898 1.72872,-0.87616 3.6661,-1.32114 5.60256,-1.32429 z" /></g></svg>
