<?xml version="1.0" encoding="UTF-8" standalone="no"?>
<!-- Created with Inkscape (http://www.inkscape.org/) -->

<svg
   width="99.999969mm"
   height="100mm"
   viewBox="0 0 99.999969 100"
   version="1.1"
   id="svg1"
   xml:space="preserve"
   sodipodi:docname="PX._spout.svg"
   inkscape:version="1.4.2 (ebf0e940, 2025-05-08)"
   xmlns:inkscape="http://www.inkscape.org/namespaces/inkscape"
   xmlns:sodipodi="http://sodipodi.sourceforge.net/DTD/sodipodi-0.dtd"
   xmlns="http://www.w3.org/2000/svg"
   xmlns:svg="http://www.w3.org/2000/svg"><sodipodi:namedview
     id="namedview1"
     pagecolor="#ffffff"
     bordercolor="#666666"
     borderopacity="1.0"
     inkscape:showpageshadow="2"
     inkscape:pageopacity="0.0"
     inkscape:pagecheckerboard="0"
     inkscape:deskcolor="#d1d1d1"
     inkscape:document-units="mm"
     inkscape:zoom="1.1590771"
     inkscape:cx="200.15925"
     inkscape:cy="221.29676"
     inkscape:current-layer="svg1" /><defs
     id="defs1" /><g
     id="g25"
     transform="translate(60.280514,-20.597401)"><rect
       style="opacity:0.8;fill:none;stroke-width:0.529167;stroke-linecap:round;-inkscape-stroke:none"
       id="rect109"
       width="100"
       height="100"
       x="-60.280529"
       y="20.597401" /><path
       id="path24"
       style="opacity:0.8;fill:#ffffff;stroke-width:0.529167;stroke-linecap:round"
       d="M -10.280414,34.126806 A 36.542965,36.470703 0 0 0 -46.823403,70.597448 36.542965,36.470703 0 0 0 -10.280414,107.06809 36.542965,36.470703 0 0 0 26.262575,70.597448 36.542965,36.470703 0 0 0 -10.280414,34.126806 Z m 0,6.305558 A 30.224581,30.164814 0 0 1 19.944098,70.597448 30.224581,30.164814 0 0 1 -10.280414,100.76202 30.224581,30.164814 0 0 1 -40.504926,70.597448 30.224581,30.164814 0 0 1 -10.280414,40.432364 Z" /><path
       id="path25"
       style="opacity:0.8;fill:#ffffff;stroke-width:0.529167;stroke-linecap:round"
       d="m -20.213522,62.766585 c 0,3.391193 -2.744866,6.140297 -6.13083,6.140297 -2.760913,0 -5.311708,-1.879276 -6.079583,-4.392607 -1.132363,-3.706339 0.371315,-6.935755 2.253155,-9.29946 1.9291,-2.423069 4.934117,-4.779175 8.009061,-5.914587 1.787221,-0.659924 3.910741,-1.052004 6.579488,-0.970437 -9.275355,1.032897 -4.631291,11.045601 -4.631291,14.436794 z"
       sodipodi:nodetypes="ssssscs" /></g></svg>
