<?xml version="1.0" encoding="UTF-8" standalone="no"?>
<!-- Created with Inkscape (http://www.inkscape.org/) -->

<svg
   width="185.87099mm"
   height="162.78456mm"
   viewBox="0 0 185.87099 162.78456"
   version="1.1"
   id="svg1"
   xml:space="preserve"
   sodipodi:docname="L.1.svg"
   inkscape:version="1.4.2 (ebf0e940, 2025-05-08)"
   xmlns:inkscape="http://www.inkscape.org/namespaces/inkscape"
   xmlns:sodipodi="http://sodipodi.sourceforge.net/DTD/sodipodi-0.dtd"
   xmlns="http://www.w3.org/2000/svg"
   xmlns:svg="http://www.w3.org/2000/svg"><sodipodi:namedview
     id="namedview1"
     pagecolor="#ffffff"
     bordercolor="#666666"
     borderopacity="1.0"
     inkscape:showpageshadow="2"
     inkscape:pageopacity="0.0"
     inkscape:pagecheckerboard="0"
     inkscape:deskcolor="#d1d1d1"
     inkscape:document-units="mm"
     showgrid="false"
     inkscape:zoom="0.94803661"
     inkscape:cx="351.25226"
     inkscape:cy="307.47758"
     inkscape:window-width="1512"
     inkscape:window-height="922"
     inkscape:window-x="0"
     inkscape:window-y="32"
     inkscape:window-maximized="1"
     inkscape:current-layer="svg1" /><defs
     id="defs1" /><path
     style="opacity:0.6;fill:#ff0000;stroke-width:0.529167;stroke-linecap:round"
     id="path1"
     d="m 11.63004,30.005207 c 6.449648,-5.320077 13.473888,-9.886428 20.51752,-14.368036 3.300936,-1.952145 6.565617,-4.077804 10.067213,-5.6795197 0.447,-0.2044692 2.710114,-1.3753071 3.660045,-0.81598 0.252484,0.1486638 0.183954,0.5563772 0.275928,0.8345657 -0.147502,0.586804 -0.218807,1.198226 -0.442513,1.760411 -0.933468,2.345871 -3.034392,5.756865 -4.206658,7.669744 -1.381479,2.254267 -2.795923,4.488408 -4.227988,6.710882 -3.503449,5.437127 -7.636407,11.578614 -11.213019,16.936718 -5.165619,7.705439 -10.397444,15.366042 -15.678737,22.992566 -2.5831469,3.730228 -5.2676443,7.397094 -7.7144432,11.218622 0.2126488,0.178636 0.3927335,0.666295 0.6379467,0.535908 5.2478164,-2.790412 8.2821425,-5.82703 12.7513705,-9.667682 8.820818,-7.580209 17.642046,-15.158738 26.495383,-22.700987 7.231115,-6.137516 14.530596,-12.195276 21.926534,-18.13338 2.396034,-1.923747 5.720524,-4.569638 8.28078,-6.471728 0.760151,-0.56474 1.544953,-1.095525 2.317428,-1.643287 -0.459695,1.469316 -2.336491,1.112219 -3.220998,2.019791 -0.638204,0.654844 -1.12803,1.439899 -1.715873,2.140301 -0.907132,1.080826 -1.834399,2.144745 -2.76832,3.202508 -1.640816,1.858399 -5.255262,5.826922 -6.899582,7.638259 -1.839568,2.017906 -4.198294,4.598379 -6.051433,6.655856 -0.700368,0.777594 -1.439484,1.522841 -2.091457,2.341438 -0.34235,0.429842 -0.976165,0.851022 -0.882436,1.392484 0.07203,0.416131 0.776094,0.464383 1.195901,0.418348 0.863605,-0.0947 1.649166,-0.547161 2.473748,-0.82074 4.891164,-1.923193 9.676103,-4.105794 14.597838,-5.953527 1.126908,-0.423066 2.254043,-0.849141 3.402565,-1.209426 0.881589,-0.276548 1.788112,-0.466215 2.682169,-0.699321 0.496551,0.08754 1.151789,-0.111654 1.489649,0.26261 0.317354,0.351549 0.154916,0.963737 0.02975,1.4205 -0.290957,1.061747 -0.747348,2.078194 -1.256059,3.054501 -0.833933,1.600454 -1.787266,3.137728 -2.761885,4.656616 -2.578209,4.017995 -5.575168,8.051684 -8.363088,11.914185 -3.712945,5.159468 -7.655049,10.147469 -11.469002,15.230954 -0.705241,0.93999 -2.844514,3.73272 -3.517624,5.107387 -0.162232,0.331322 -0.174403,0.716909 -0.261605,1.075367 0.300943,0.131744 0.574564,0.408178 0.902828,0.395232 0.922369,-0.03637 3.607916,-1.34801 4.124195,-1.58351 2.782811,-1.269376 5.546992,-2.553978 8.362021,-3.751911 0.425125,-0.161986 3.180839,-1.364088 4.042876,-1.247484 0.831641,0.112496 -0.620197,1.922333 -1.04652,2.498799 -2.653416,3.587906 -4.897001,6.028984 -7.905573,9.524757 -9.924568,11.242897 -19.840233,22.498252 -29.250467,34.178382 2.758424,-5.07579 -3.271761,3.92099 -2.017599,3.46175 4.863155,-1.78074 7.617082,-4.27169 11.635142,-7.40677 6.029701,-4.70467 13.748872,-10.93078 19.523765,-15.558806 19.409169,-15.692631 38.80731,-31.402869 58.533714,-46.696992 10.85089,-8.412824 13.24755,-10.147689 23.72506,-17.999297 5.84723,-4.219819 9.86492,-7.203694 15.68596,-11.127833 1.30231,-0.877924 2.64593,-1.692963 3.96708,-2.54226 0.71742,-0.461189 -1.40167,0.979731 -2.15587,1.377935 -5.04444,2.663373 3.73031,-3.545847 -5.53564,3.631205 -8.13125,6.112277 -16.4334,11.991851 -24.63216,18.012034 -5.31294,3.901189 -5.96549,4.427882 -11.08045,8.3121 -3.68786,2.818736 -7.34169,5.683316 -10.92678,8.632018 -0.66867,0.549971 -1.33941,1.097841 -1.99192,1.666877 -0.36598,0.319159 -0.88644,0.544145 -1.06244,0.996723 -0.084,0.215947 0.31929,0.335846 0.47894,0.503769 0.66528,-0.30348 1.34574,-0.575664 1.99583,-0.910444 0.96167,-0.495226 1.89262,-1.047967 2.83573,-1.577668 1.99997,-1.123286 4.34398,-2.487155 6.37658,-3.558638 2.69291,-1.419561 1.79222,-1.089044 3.93576,-1.629548 -0.34329,0.431205 -0.69995,0.852101 -1.02988,1.293612 -0.89961,1.203854 -1.73193,2.458095 -2.6581,3.641637 -2.74582,3.508851 -6.49479,7.833508 -9.36505,11.165192 -6.562735,7.573547 -3.34335,3.843583 -9.659601,11.188647 -1.860031,2.197261 -5.532228,6.499492 -7.432333,8.869759 -0.857142,1.069232 -1.735916,2.125504 -2.506178,3.258923 -0.515671,0.758793 -1.113894,1.514422 -1.341703,2.403123 -0.119874,0.467635 -0.07591,1.207987 0.366525,1.40112 0.813012,0.354892 1.773391,-0.0533 2.660086,-0.07995 1.518608,-0.587672 3.069231,-1.098505 4.555824,-1.763012 3.697512,-1.652783 8.41369,-4.250142 11.91773,-6.200838 5.86694,-3.26612 11.63438,-6.708788 17.43519,-10.089891 1.21925,-0.695206 2.39113,-1.481021 3.65776,-2.085615 0.271,-0.129355 -0.44743,0.405035 -0.63245,0.641559 -0.12977,0.165907 -0.17765,0.385265 -0.30311,0.554458 -0.67575,0.911297 -1.36547,1.813558 -2.09629,2.681314 -3.44063,4.085294 -6.39889,7.175312 -10.09931,11.181451 -6.18799,6.566236 -12.532525,12.981616 -18.822433,19.449416 -1.468009,1.50953 -7.040324,7.21503 -8.744098,9.16124 -0.739995,0.84529 -1.384925,1.76929 -2.077387,2.65394 0.128416,0.36847 -0.0046,1.12185 0.385247,1.10539 2.298814,-0.0971 8.796557,-3.9927 9.750594,-4.52465 2.429806,-1.35481 4.832792,-2.75724 7.240998,-4.15008 1.171849,-0.67777 13.926879,-8.11894 15.790139,-9.20576 2.47623,-1.43081 6.35781,-3.77959 9.26093,-5.20654 0.92754,-0.45591 1.84979,-0.9352 2.82434,-1.27935 0.36237,-0.12796 0.84413,-0.36022 1.14633,-0.12282 0.21099,0.16575 -0.33968,0.41546 -0.51183,0.62127 -0.50373,0.60229 -1.01052,1.20201 -1.51579,1.80301 -1.06762,1.10391 -2.10766,2.23517 -3.20287,3.31172 -2.74536,2.6986 -6.4399,6.03844 -9.28806,8.56684 -4.54699,4.03651 -9.18486,7.97137 -13.78009,11.95262 0.91624,1.94424 -4.432293,2.30564 -4.298152,4.33643 0.03286,0.49748 0.968944,0.503 1.449311,0.36955 1.589167,-0.44149 3.041021,-1.28448 4.514141,-2.02629 4.40312,-2.21723 13.00639,-7.11593 16.91257,-9.30569 10.26278,-5.85577 20.52147,-11.71983 30.85114,-17.45727 2.80265,-1.55668 10.07109,-5.570223 13.3612,-7.249541 1.19313,-0.608987 2.41971,-1.150073 3.62956,-1.72511 0.57001,-0.167582 1.11634,-0.479811 1.71003,-0.502743 0.1834,-0.0071 -0.19338,0.314902 -0.31869,0.449003 -0.59345,0.635077 -1.20413,1.254633 -1.83348,1.854153 -4.94604,4.711618 -10.20805,9.070998 -15.41907,13.481898 -5.68998,4.77882 -11.40765,9.52425 -17.13304,14.2605 -1.26003,1.04235 -5.56418,4.5804 -7.04286,5.89919 -0.67007,0.59762 -1.29758,1.24132 -1.94637,1.86198 -0.22648,0.41509 -0.66739,0.77257 -0.67943,1.24527 -0.0263,1.03295 1.70126,0.94654 2.09122,0.93309 0.63407,-0.0219 1.26159,-0.14598 1.88487,-0.26444 1.62907,-0.30962 2.87449,-0.70682 4.47303,-1.16403 3.186,-0.96336 6.28948,-2.1623 9.38859,-3.3685 0.13874,-0.0245 0.47486,-0.20168 0.41622,-0.0736 -0.087,0.19003 -0.40015,0.16853 -0.53338,0.32955 -0.45754,0.55298 -0.78744,1.20098 -1.21187,1.77977 -2.4452,3.33448 -5.1753,6.43119 -7.8907,9.54391 -0.96244,1.06356 -1.92487,2.12712 -2.8873,3.19069 -0.82076,0.89482 -1.6455,1.786 -2.46226,2.68448 -0.56434,0.6208 -1.16005,1.21563 -1.68098,1.87328 -0.20194,0.25493 -0.73837,0.65751 -0.47704,0.85108 0.38646,0.28626 1.00403,0.0708 1.4359,-0.14082 1.86634,-0.91452 3.57215,-2.12556 5.35823,-3.18834 1.02276,-0.64704 2.04017,-1.30264 3.0683,-1.94114 0.39047,-0.24249 6.17314,-3.76749 6.65721,-4.05828 0.82672,-0.49661 4.17488,-2.48401 5.19572,-3.02628 0.42186,-0.22409 -0.81637,0.49624 -1.22455,0.74437 0.4694,-0.24121 1.35849,-0.73824 1.93378,-0.91885 0.0869,-0.0273 0.2248,-0.0862 0.27312,-0.009 0.0423,0.0676 -0.16619,0.0355 -0.21952,0.0947 -0.15782,0.17528 -0.25628,0.3963 -0.3946,0.58735 -0.21128,0.29182 -0.43585,0.57379 -0.65377,0.86068 -0.25763,0.30602 -0.51837,0.60945 -0.77287,0.91807 -0.22281,0.27019 -0.46422,0.5272 -0.659,0.81825 -0.10729,0.16031 -0.35938,0.37407 -0.24081,0.52624 0.59966,0.76956 2.20987,-0.50267 2.38235,-0.60057 1.69952,-0.96461 3.37794,-1.96592 5.06692,-2.94888 2.53036,-1.41377 4.97579,-2.99655 8.33726,-4.55046 0.0525,0.007 0.20474,-0.002 0.15737,0.0211 -0.15417,0.0768 -0.35873,0.0423 -0.49531,0.14726 -0.27279,0.20963 -0.45854,0.51305 -0.69236,0.7654 -0.30806,0.33247 -0.61569,0.66552 -0.93321,0.98896 -0.66298,0.67536 -1.43223,1.39485 -2.11844,2.04674 -0.79083,0.78089 -1.66189,1.49033 -2.42346,2.30164 -0.0994,0.10584 -0.32972,0.214 -0.26632,0.3446 0.37864,0.77984 1.24201,0.0216 1.57605,-0.14248 1.36085,-0.73565 2.71128,-1.49026 4.06611,-2.23682 0.31838,-0.17543 1.60681,-0.91217 2.06559,-1.05018 0.11742,-0.0353 0.24439,0.0204 0.36659,0.0306 -0.0982,1.15006 -0.83562,2.14206 -1.36738,3.1336 -0.21778,0.4404 -0.28899,0.91524 0.02,1.32001 0.13044,0.15477 0.28966,0.26848 0.47812,0.34005 0.11012,0.0351 0.22488,0.047 0.33893,0.061 0,0 3.40298,-2.43962 3.40298,-2.43962 v 0 c -0.0982,-2.6e-4 -0.19629,-0.004 -0.29444,-7.9e-4 -0.14627,-0.0114 -0.27613,-0.0157 -0.35187,-0.16293 -0.23609,-0.11544 0.047,-0.63999 0.0916,-0.77926 0.38639,-0.78064 1.31965,-2.33044 1.24455,-3.17149 -0.0204,-0.2281 -0.17056,-0.42507 -0.25584,-0.6376 -0.21383,-0.0339 -0.42988,-0.14752 -0.64149,-0.10172 -0.40234,0.0871 -1.97285,0.9969 -2.21717,1.13316 -1.296,0.72277 -2.59105,1.44706 -3.90944,2.12874 -0.49981,0.26763 -0.98852,0.26615 -0.84884,0.94616 0.018,0.0875 0.0872,-0.15741 0.14575,-0.22484 0.17016,-0.19589 0.35611,-0.37753 0.53812,-0.56244 0.68446,-0.69537 0.96003,-0.948 1.69209,-1.64931 1.06121,-1.0209 2.13229,-2.03475 3.14557,-3.10396 0.37904,-0.39995 1.24476,-1.06414 0.98245,-1.82137 -0.0539,-0.15548 -0.32892,-0.0106 -0.49339,-0.0159 -1.55488,0.75356 -3.05017,1.60213 -4.55349,2.45429 -2.516,1.42621 -5.02323,2.86783 -7.53264,4.3056 -0.82077,0.47026 -1.64021,0.94283 -2.46031,1.41424 0.33775,-0.19739 1.38472,-0.71491 1.01327,-0.59216 -0.44941,0.14852 -0.87647,0.38208 -1.25147,0.67088 -0.16492,0.12701 -0.166,0.3951 -0.31773,0.5376 -0.0901,0.0846 0.0527,-0.24694 0.11922,-0.35116 0.17697,-0.27751 0.39641,-0.52567 0.60324,-0.7817 0.25767,-0.31898 0.52667,-0.62865 0.79,-0.94297 0.31857,-0.40858 1.66628,-1.76239 1.05177,-2.42641 -0.34269,-0.37031 -2.55458,0.99957 -2.75108,1.08979 -2.30607,1.33019 -4.55069,2.60403 -6.81957,3.96276 -4.26218,2.55243 -8.46634,5.20106 -12.73174,7.74833 0.23931,-0.12224 0.77627,-0.62905 0.71794,-0.36673 -0.41458,1.86458 -1.08439,0.8047 -0.78221,0.30747 0.3731,-0.61396 0.85715,-1.15405 1.31517,-1.70756 0.91707,-1.10828 4.2275,-4.84323 5.01551,-5.737 2.87661,-3.2649 5.77454,-6.51486 8.56324,-9.85588 0.18844,-0.22576 2.27861,-2.10697 1.84262,-3.19206 -0.0742,-0.18476 -0.39286,0.0652 -0.58928,0.0979 -3.19691,1.35003 -6.40887,2.66656 -9.73113,3.68558 -1.96713,0.55837 -3.95118,1.17928 -6.00586,1.32177 -0.38887,0.027 -0.78589,0.0434 -1.16909,-0.0281 -0.19596,-0.0366 -0.49467,-0.0906 -0.52422,-0.28777 -0.0503,-0.33527 0.22483,-0.63968 0.33724,-0.95952 0.52064,-0.56015 1.0141,-1.14685 1.5619,-1.68047 1.39611,-1.35998 5.00213,-4.49087 6.25105,-5.57218 5.46155,-4.72855 10.97902,-9.39291 16.52976,-14.01625 4.13581,-3.42765 8.28461,-6.83968 12.41003,-10.27984 0.38201,-0.318552 6.17736,-4.94163 7.05233,-6.385043 0.48636,-0.802341 -4.30466,-2.649538 -2.80662,0.213431 -1.42123,0.741162 -2.85517,1.458444 -4.26369,2.223482 -2.87934,1.56391 -12.16949,6.82848 -14.43076,8.11042 -10.23516,5.80244 -20.43933,11.66007 -30.73148,17.36145 -5.03345,2.728 -10.13103,5.60465 -15.32296,8.05686 -1.17753,0.55615 -2.39814,1.01661 -3.60778,1.49898 -0.387386,0.15448 -0.989485,0.78104 -1.181753,0.41094 -0.774792,-1.4914 5.383623,-3.03517 3.280723,-3.82859 8.97743,-8.10228 18.24231,-15.88495 27.03714,-24.18956 0.65673,-0.73027 1.48311,-1.33797 1.97017,-2.19083 0.19686,-0.3447 0.32728,-1.03783 -0.0393,-1.19021 -0.54707,-0.22744 -1.17106,0.22952 -1.71679,0.46015 -1.15233,0.48698 -2.25707,1.08243 -3.35449,1.683 -3.76578,2.06087 -8.76674,5.04443 -12.49913,7.24345 -2.74109,1.6066 -10.26694,6.03166 -13.24176,7.72447 -2.254983,1.2832 -4.508711,2.56969 -6.794309,3.79753 -1.728655,0.92865 -3.475284,1.82552 -5.246227,2.67074 -0.907733,0.43323 -1.801884,0.94816 -2.784668,1.16217 -0.288142,0.0628 -0.531969,-0.25467 -0.797955,-0.38201 0.468294,-0.77631 0.856203,-1.60719 1.404882,-2.32893 1.601047,-2.10603 6.32528,-7.16348 7.827069,-8.77014 6.106338,-6.53272 12.366738,-12.91877 18.580178,-19.348898 0.0204,-0.02069 10.78643,-10.919978 11.65966,-11.854031 1.02641,-1.097902 2.20418,-2.104351 2.95249,-3.407781 0.16409,-0.28581 -0.1959,-0.948078 -0.50964,-0.847209 -1.71138,0.550207 -3.18671,1.665558 -4.75709,2.540461 -1.11935,0.623625 -2.20687,1.302752 -3.3103,1.954128 -4.51724,2.695556 -9.00304,5.431554 -13.60376,7.985333 -3.49819,1.941788 -7.571923,4.164624 -11.286163,5.740853 -1.280694,0.543494 -2.621409,0.932984 -3.932113,1.399476 -0.700722,0.08451 -1.417426,0.424662 -2.102167,0.25354 -0.360593,-0.09011 -0.65141,-0.562285 -0.612283,-0.931902 0.08291,-0.783233 0.541718,-1.488379 0.940403,-2.167628 0.635019,-1.0819 1.400112,-2.083028 2.146379,-3.09141 1.958139,-2.645905 4.818949,-6.115254 6.838456,-8.610399 4.830108,-5.74806 9.697618,-11.453553 14.681908,-17.069213 1.65217,-1.86146 3.33191,-3.698364 4.98093,-5.562613 1.20515,-1.362432 2.55036,-2.618653 3.58138,-4.117186 0.40926,-0.594842 0.44589,-1.373503 0.66884,-2.060255 -0.58533,0.191415 -1.19244,0.3259 -1.75598,0.574246 -0.94144,0.414891 -1.83753,0.926264 -2.74571,1.409634 -3.42524,1.823032 -6.77,3.794998 -10.21578,5.580446 -0.10417,0.132289 -0.42795,0.519467 -0.31253,0.396864 1.67416,-1.778373 -0.52966,0.225976 2.39773,-2.357045 1.69886,-1.499016 4.07474,-3.497903 5.771,-4.878086 1.39176,-1.132428 2.80325,-2.240397 4.20488,-3.360595 1.68789,-1.305647 3.36488,-2.625524 5.06369,-3.916942 10.16889,-7.730283 20.5897,-15.125887 30.9909,-22.537607 1.63396,-1.136314 3.36215,-2.147888 4.90189,-3.408941 0.60222,-0.493228 2.24212,-1.932103 1.473,-1.812135 -1.37145,0.213919 -2.41572,1.372272 -3.57238,2.139595 -0.96965,0.643267 -1.86313,1.394592 -2.79847,2.08681 -18.60941,13.772334 9.88894,-7.37133 -14.28211,10.573564 C 129.7625,42.729325 127.36621,44.463947 116.51515,52.87698 96.788781,68.171139 77.390685,83.881438 57.981431,99.573976 49.780099,106.03453 45.206766,109.80139 37.0167,115.70226 c -2.2841,1.64567 -4.708456,3.09351 -6.964436,4.77753 -0.105114,0.0785 0.384918,0.27895 0.364013,0.14946 -0.02991,-0.18527 -0.268869,-0.26188 -0.403301,-0.39282 0.472249,-0.75659 0.944501,-1.51317 1.416751,-2.26975 0.820076,-1.14228 1.618144,-2.30069 2.460225,-3.42684 7.949901,-10.63181 16.798592,-20.557664 25.791612,-30.307832 1.833356,-1.960525 3.680008,-3.908703 5.500071,-5.881574 0.503037,-0.545269 5.039609,-5.043659 5.536227,-6.932403 0.08885,-0.337913 -0.370769,-0.723212 -0.717797,-0.76386 -0.801753,-0.09391 -4.011411,1.293387 -4.40037,1.445805 -3.298277,1.407118 -2.300983,0.961493 -5.599371,2.450576 -2.02511,0.914255 -4.042214,1.935033 -6.169411,2.602312 -0.208527,0.06541 -0.42631,0.09649 -0.639467,0.144735 -0.01675,-0.25699 -0.124155,-0.524277 -0.0502,-0.770967 0.41547,-1.385958 1.985682,-3.716025 2.626802,-4.671179 3.406843,-5.075581 7.160132,-9.914466 10.696519,-14.897621 0.722468,-0.981196 8.160287,-11.072068 8.947764,-12.182604 1.160981,-1.637266 2.34575,-3.262397 3.388939,-4.977119 0.107138,-0.17611 2.906906,-4.048731 1.464932,-5.336419 -0.47117,-0.420753 -1.260322,-0.0879 -1.890485,-0.131855 -0.968288,0.280379 -1.948209,0.52332 -2.904863,0.841132 -1.188181,0.394729 -2.356223,0.848138 -3.525719,1.295196 -4.731729,1.808779 -9.372047,3.849344 -14.123876,5.606174 -0.679709,0.222261 -1.359262,0.444998 -2.039128,0.666782 -0.30634,0.09993 -0.754401,0.575101 -0.919488,0.298373 -0.20393,-0.341839 0.213395,-0.781095 0.433758,-1.112581 0.520425,-0.782857 1.163908,-1.476869 1.767007,-2.197965 1.825675,-2.182865 3.79784,-4.371808 5.681263,-6.495981 3.414971,-3.74551 6.875346,-7.442473 10.348692,-11.133661 0.758246,-0.8058 1.630286,-1.519469 2.268244,-2.423493 0.28914,-0.409729 0.943854,-1.542168 0.454123,-1.434257 -1.442625,0.317876 -2.570818,1.455931 -3.856225,2.183897 -3.065986,2.449786 -6.066303,4.974128 -9.059611,7.51245 -6.88063,5.834764 -13.717908,11.720444 -20.571312,17.587076 -6.404901,5.489901 -11.952427,10.283164 -18.44793,15.692403 -2.987242,2.487676 -6.010561,4.931709 -9.015841,7.397562 -2.482511,1.930374 -5.0283891,3.78191 -7.447534,5.791124 -0.3567758,0.29632 -0.5073864,0.789167 -0.8507145,1.100971 -0.1970387,0.178943 -0.4843241,0.220932 -0.7264861,0.331401 0.2279653,-0.597429 0.3837244,-1.227675 0.6838961,-1.792288 0.5749867,-1.081532 5.1393705,-8.336269 5.3342215,-8.643601 4.822996,-7.607186 9.763277,-15.1404 14.800086,-22.607601 6.601799,-9.650867 5.34425,-7.883337 11.942318,-17.255899 1.657593,-2.354612 3.342259,-4.690144 4.991901,-7.050333 1.263751,-1.808083 4.213847,-5.871948 5.315395,-8.276013 C 49.215621,9.5390971 49.309676,8.7888796 49.510568,8.0779677 49.303021,7.703853 49.276764,7.1340754 48.88793,6.9556235 47.777876,6.4461757 45.074511,7.8414188 44.515807,8.1092113 43.329238,8.6779438 42.182327,9.3268468 41.034901,9.9709085 35.49913,13.078172 35.093907,13.382264 30.114713,16.42768 22.540888,21.256839 15.045191,26.216381 7.8151457,31.551186 Z" /><rect
     style="opacity:0.6;fill:none;stroke:none;stroke-width:0.529165;stroke-linecap:round"
     id="rect1"
     width="185.871"
     height="162.78499"
     x="-7.6293945e-06"
     y="-0.00021362305" /></svg>
