<?xml version="1.0" encoding="UTF-8" standalone="no"?>
<!-- Created with Inkscape (http://www.inkscape.org/) -->

<svg
   width="185.87099mm"
   height="162.78456mm"
   viewBox="0 0 185.87099 162.78456"
   version="1.1"
   id="svg1"
   xml:space="preserve"
   sodipodi:docname="L.2.svg"
   inkscape:version="1.4.2 (ebf0e940, 2025-05-08)"
   xmlns:inkscape="http://www.inkscape.org/namespaces/inkscape"
   xmlns:sodipodi="http://sodipodi.sourceforge.net/DTD/sodipodi-0.dtd"
   xmlns="http://www.w3.org/2000/svg"
   xmlns:svg="http://www.w3.org/2000/svg"><sodipodi:namedview
     id="namedview1"
     pagecolor="#ffffff"
     bordercolor="#666666"
     borderopacity="1.0"
     inkscape:showpageshadow="2"
     inkscape:pageopacity="0.0"
     inkscape:pagecheckerboard="0"
     inkscape:deskcolor="#d1d1d1"
     inkscape:document-units="mm"
     showgrid="false"
     inkscape:zoom="0.94803661"
     inkscape:cx="343.86858"
     inkscape:cy="309.5872"
     inkscape:window-width="1512"
     inkscape:window-height="922"
     inkscape:window-x="0"
     inkscape:window-y="32"
     inkscape:window-maximized="1"
     inkscape:current-layer="svg1" /><defs
     id="defs1" /><rect
     style="opacity:0.6;fill:none;stroke:none;stroke-width:0.529165;stroke-linecap:round"
     id="rect1"
     width="185.871"
     height="162.78499"
     x="-7.6293945e-06"
     y="-0.00021362305" /><path
     id="path2"
     style="opacity:0.6;fill:#ff0000;stroke-width:0.529167;stroke-linecap:round"
     d="m 72.778064,13.797432 c -9.03197,-0.333551 -18.069029,-0.388124 -27.100155,0.160713 -1.80222,0.130298 -3.606629,0.229924 -5.406388,0.390674 -5.632733,0.503103 -11.200993,1.48299 -16.782438,2.36213 -1.533345,0.229422 -3.068201,0.464834 -4.613672,0.593245 l -3.36827,2.446879 c 1.6891,-0.161325 3.358191,-0.490397 5.022432,-0.811836 5.833426,-1.220882 11.693626,-2.323367 17.61753,-3.007569 1.873245,-0.216358 3.752376,-0.377552 5.628597,-0.566373 14.793542,-1.315378 29.661902,-1.119363 44.481005,-0.410828 3.736279,0.17864 7.468908,0.423776 11.203451,0.63562 16.273244,1.066831 32.540704,2.313966 48.722614,4.366142 2.00489,0.387423 4.08546,0.526384 6.11539,0.873332 -5.73047,1.044713 -11.52796,1.651287 -17.31368,2.29495 -16.62593,1.908749 -33.24158,3.90722 -49.862072,5.863208 -16.043312,1.893795 -32.113251,3.618059 -48.077686,6.119006 -8.976592,1.40625 -10.366519,1.764374 -18.941479,3.460771 C 13.337794,40.01935 6.556756,41.576461 7.6969238e-5,43.80852 v 0.934826 C 6.258778,42.498677 12.723569,40.820676 19.183402,39.265128 c 8.672022,-1.900383 10.521897,-2.407589 19.572449,-3.941879 15.916473,-2.698226 31.978866,-4.435062 48.03066,-6.085416 15.972079,-1.573649 31.945639,-3.139214 47.942809,-4.439522 5.68724,-0.53898 11.40073,-0.891742 17.04186,-1.824179 1.67599,-0.243012 3.375,-0.418729 4.99297,-0.943094 1.64792,-0.322614 2.19527,-0.980892 4.15944,-2.31097 0.10409,-0.07048 -0.15387,-0.451705 -0.1819,-0.473357 -0.0577,-0.04459 -0.14127,-0.03694 -0.21187,-0.05529 -3.36967,-0.551015 -6.81579,-0.452251 -10.20713,-0.760677 -9.66348,-0.547851 -19.3278,-1.074693 -28.98686,-1.698605 -3.52215,-0.227507 -7.04243,-0.47913 -10.56422,-0.712101 -3.64034,-0.240815 -7.28169,-0.472587 -10.922331,-0.709001 -9.012421,-0.567439 -18.039246,-1.180052 -27.071215,-1.513602 z m 66.856906,27.41073 c -13.74369,0.295582 -27.48179,0.907101 -41.205759,1.687752 -7.319759,0.424757 -14.640345,0.839853 -21.9599,1.26814 -11.909324,0.696843 -23.818616,1.456856 -35.73787,1.969905 -3.894294,0.167624 -7.790656,0.276351 -11.686108,0.414445 C 19.36866,46.759743 9.680256,47.023724 7.6969238e-5,46.853295 v 1.621606 C 9.499401,47.886974 19.007284,47.435803 28.511515,46.939078 c 4.00622,-0.219128 8.012341,-0.445042 12.018905,-0.657841 21.818941,-1.158867 2.01873,-0.04854 23.926188,-1.292944 8.603294,-0.488693 14.578116,-0.859084 23.151558,-1.246953 3.404817,-0.154035 6.811282,-0.268031 10.216948,-0.402042 13.193186,-0.447892 26.394056,-0.729185 39.594486,-0.520899 2.15632,0.06663 4.31988,0.106913 6.47506,0.243396 -5.78992,1.09281 -11.58366,2.164992 -17.37827,3.232878 -18.77428,3.448425 -37.45318,7.390823 -56.133012,11.312488 -9.988635,2.082856 -19.932723,4.367026 -29.886031,6.609415 -1.462241,0.33964 -2.924016,0.680321 -4.385262,1.024227 -0.200134,0.0471 -0.399304,0.09781 -0.599964,0.142627 -0.07573,0.01691 -0.166402,-0.0036 -0.228926,0.04238 -0.923619,0.678922 -1.81892,1.396127 -2.721281,2.103231 -0.181188,0.13798 -0.361245,0.276566 -0.540536,0.417028 -0.0083,0.0065 -0.01379,0.01201 -0.01602,0.01499 -1.68e-4,2.65e-4 -9.21e-4,7.99e-4 -10e-4,10e-4 v 5.17e-4 5.17e-4 5.16e-4 l 5.17e-4,5.17e-4 5.17e-4,5.17e-4 h 5.16e-4 5.17e-4 5.17e-4 c 0.01295,-5.6e-5 0.07192,-0.02641 0.139526,-0.05736 8.21588,-1.906305 16.644211,-2.669836 25.015011,-3.552238 13.636468,-1.109343 27.32362,-1.356994 41.004732,-1.555977 -13.226422,0.0027 -26.459286,-0.310316 -39.661145,0.562239 -2.448875,0.153268 -4.900405,0.271662 -7.346838,0.459921 -2.201154,0.169384 -4.398493,0.385228 -6.59443,0.617533 8.252,-2.15343 16.528526,-4.211529 24.847579,-6.093168 8.115744,-1.842135 10.401969,-2.397082 18.74821,-4.134632 12.262413,-2.552835 24.589383,-4.789211 36.942963,-6.852294 7.44667,-1.159749 14.89315,-2.327905 22.3821,-3.184819 0.51093,-0.0433 1.00714,-0.162619 1.51773,-0.141593 1.21638,-0.728077 2.4629,-1.407736 3.64888,-2.184363 0.0528,-0.0346 -0.008,-0.126876 -0.0274,-0.187069 -0.14035,-0.441764 -0.59963,-0.435798 -0.99219,-0.449585 -3.99662,-0.202375 -7.99812,-0.06643 -11.99668,-0.0031 z m -41.468792,21.59093 c 7.231802,-0.0015 14.455832,-0.411369 21.685502,-0.306958 -2.96323,-0.07015 -5.92602,-0.152978 -8.8899,-0.178284 -4.26969,-0.03646 -8.52639,0.423149 -12.795602,0.485242 z m 21.685502,-0.306958 c 1.04143,0.02465 2.08287,0.04167 3.12436,0.06253 14.04775,0.534358 28.13097,1.149668 42.08787,2.928504 1.36,0.173334 2.71358,0.391393 4.07055,0.587044 0.20689,0.03856 0.51044,0.08859 0.86506,0.149345 -5.78832,0.450478 -11.59709,0.57407 -17.39583,0.843359 -10.70034,0.501034 -21.3926,1.218505 -32.05851,2.217436 -3.83496,0.35917 -7.66473,0.77416 -11.49698,1.161169 -4.17319,0.472522 -8.34984,0.91601 -12.519648,1.417485 -4.244867,0.5105 -8.48888,1.030967 -12.723771,1.618506 -7.510751,1.04202 -14.971016,2.433138 -22.443075,3.746024 15.668261,-2.893007 31.461788,-5.142872 47.335094,-6.521565 3.67553,-0.271913 7.34818,-0.58836 11.02672,-0.815971 10.14624,-0.627808 20.31275,-0.634966 30.46688,-1.055233 6.44202,-0.197345 12.8831,-0.413172 19.31975,-0.747241 0.72882,-0.05216 1.45785,-0.10115 2.18643,-0.15658 0.49304,-0.03751 1.04014,0.106371 1.47846,-0.122473 1.36423,-0.712234 2.66285,-1.587477 3.7946,-2.63033 0.17441,-0.16071 -0.43207,-0.209035 -0.66508,-0.253215 -1.02829,-0.194975 -4.27798,-0.412815 -4.90151,-0.462504 -16.06928,-1.114018 -32.17316,-1.68178 -48.27612,-2.012797 -1.09179,-0.01676 -2.18332,0.06228 -3.27525,0.04651 z m -58.489974,14.7314 c -0.606563,0.111997 -1.226303,0.138517 -1.832446,0.252698 -0.517862,0.09755 -0.690717,0.15751 -1.167887,0.248564 0.998091,-0.179837 2.001395,-0.325742 3.000333,-0.501262 z m -3.000333,0.501262 c -2.957062,0.532805 -5.940382,0.915076 -8.88938,1.48363 -2.9542,0.569556 -5.896963,1.196839 -8.845455,1.795239 -8.605735,1.756592 -17.13468,3.850415 -25.675436,5.89008 -2.353534,0.556506 -1.839009,0.126782 -3.851961,1.993677 -0.316442,0.25422 -0.693097,0.549625 -1.152901,0.895036 -0.0071,0.0053 -0.01219,0.0096 -0.01395,0.01189 v 5.17e-4 l -5.17e-4,5.17e-4 v 5.17e-4 h 5.17e-4 v 5.16e-4 h 5.17e-4 5.16e-4 c 0.01821,7.45e-4 0.202515,-0.09277 0.276986,-0.117305 0.0153,-0.005 0.03068,-0.01001 0.04599,-0.01499 -0.01742,0.01592 -0.03502,0.03191 -0.05271,0.04806 -0.01431,0.01306 -0.02048,0.02206 -0.02067,0.02739 v 5.17e-4 5.17e-4 5.16e-4 5.17e-4 l 5.17e-4,5.17e-4 5.17e-4,5.17e-4 v 5.17e-4 h 5.16e-4 c 0.02814,0.02215 0.363417,-0.123614 0.498161,-0.159681 0.302886,-0.08107 0.606063,-0.161958 0.908989,-0.242879 0.611534,-0.12615 1.219731,-0.269043 1.834513,-0.378271 5.384052,-0.956595 10.854029,-1.486365 16.29978,-1.919263 8.024304,-0.637873 14.564613,-0.914155 22.746932,-1.343071 5.209291,-0.106606 10.41796,-0.258891 15.627987,-0.319877 13.990902,-0.163775 24.06143,-0.113972 38.188369,0.282154 19.50909,0.547045 38.98495,1.704101 58.46206,2.898531 3.62672,0.253987 13.85301,0.947148 21.11965,1.503784 v -0.03462 c -2.04134,-0.160664 -4.08245,-0.324673 -6.1247,-0.47284 -4.9746,-0.360913 -9.95074,-0.696953 -14.92622,-1.045414 C 145.3428,87.317237 125.86658,86.160389 106.35741,85.61321 92.230082,85.216978 82.160313,85.16684 68.169044,85.33054 c -5.210043,0.06096 -10.418678,0.213295 -15.627987,0.319877 -14.241196,0.139915 -8.912278,0.01284 -21.441069,0.381372 -3.245657,0.09547 -6.497395,0.173166 -9.741524,0.358635 6.08491,-1.710284 12.202895,-3.301007 18.368388,-4.703072 7.9484,-1.791283 11.021193,-2.509774 18.634522,-3.962549 z M 185.87091,94.214231 c -0.0869,0.005 -0.17358,0.0106 -0.26045,0.016 -18.69248,1.17016 -12.41762,0.55249 -32.49259,2.0686 -19.47735,1.47098 -38.91176,3.36458 -58.346834,5.301489 -6.426674,0.62449 -12.832212,1.43831 -19.24637,2.17506 4.533613,-0.50449 8.635753,-0.99446 19.178674,-2.12442 19.43503,-1.936969 38.86954,-3.830399 58.34683,-5.301479 8.79414,-0.66421 23.11668,-1.66809 32.2585,-1.89808 0.18751,-0.005 0.37471,-0.009 0.56224,-0.0124 z M 75.524666,103.7754 c -3.356138,0.37347 -6.752863,0.70455 -14.197583,1.57251 -1.084831,0.12649 -1.662387,0.21599 -2.633431,0.32918 5.607176,-0.66189 11.221827,-1.2574 16.831014,-1.90169 z m -16.831014,1.90169 c -3.498605,0.41299 -7.001632,0.7873 -10.501685,1.18701 -8.157313,0.93157 -16.327039,1.72876 -24.498763,2.51923 -2.233833,0.19887 -4.464472,0.44173 -6.696232,0.66817 -1.341541,0.0907 -2.681953,0.19119 -4.022493,0.28784 -0.417191,0.0764 -0.715943,0.1239 -0.943612,0.16433 -0.0714,0.005 -0.142532,0.0107 -0.21394,0.016 -1.508578,-5.3e-4 -0.343275,-0.0296 -3.428215,2.47634 -0.0051,0.004 -0.0081,0.008 -0.0093,0.0114 -8e-5,2.6e-4 -4.65e-4,0.001 -5.16e-4,0.002 -2.3e-5,2.4e-4 -6e-6,10e-4 0,0.002 -0.0083,0.006 -0.01645,0.0125 -0.02481,0.0186 -0.0054,0.004 -0.0089,0.007 -0.01033,0.009 l -5.17e-4,5.2e-4 v 5.2e-4 5.1e-4 5.2e-4 5.2e-4 h 5.17e-4 5.16e-4 5.17e-4 c 0.0066,5.2e-4 0.03064,-0.008 0.06098,-0.0196 0.04954,0.004 0.155242,-0.0101 0.203605,-0.015 0.368308,-0.0375 0.755041,-0.15217 1.119312,-0.21808 5.584769,-0.93638 11.257934,-1.27368 16.900261,-1.67018 2.248548,-0.098 4.496589,-0.21374 6.745841,-0.29404 4.805074,-0.17152 10.362561,-0.27576 15.15153,-0.37052 6.811698,-0.13478 11.769876,-0.24622 18.653125,-0.25218 3.456575,-0.003 6.912892,0.0454 10.369393,0.0682 12.033139,0.16525 24.067364,0.56155 36.073764,1.39992 2.24447,0.15672 3.85847,0.2859 5.45652,0.42529 -3.9375,0.0916 -7.87522,0.16733 -11.80962,0.3142 -3.47428,0.12969 -6.94637,0.31454 -10.419517,0.4718 -12.514839,0.86954 -25.051696,1.67532 -37.502103,3.25975 -5.555303,0.70696 -8.016644,1.14934 -13.406934,2.02262 -6.643574,1.12691 -13.240029,2.50781 -19.873722,3.68814 -2.097116,0.37276 -2.201897,0.10887 -4.001823,2.29857 -0.17806,0.12785 -0.356434,0.25448 -0.536402,0.37931 0.0955,-0.0385 0.203838,-0.0761 0.318844,-0.11266 -0.04039,0.0497 -0.082,0.10045 -0.124023,0.15245 -0.194426,0.24056 0.614167,-0.0742 0.92139,-0.11007 0.46794,-0.0546 0.936005,-0.10753 1.404049,-0.16123 14.060519,-1.45774 28.210793,-1.76319 42.329715,-2.21279 28.260294,-0.28408 56.520466,-0.652 84.781906,-0.7984 7.23442,0.12309 14.47693,0.15963 21.71082,0.40101 -2.33588,0.41645 -4.67143,0.83494 -7.01094,1.2237 -3.9213,0.65161 -7.84955,1.25883 -11.77448,1.88825 -4.66808,0.62895 -9.33325,1.28026 -14.00431,1.88671 -5.24521,0.681 -10.49652,1.31437 -15.74426,1.97559 -4.49288,0.56611 -25.615568,3.23946 -30.49943,3.87057 -12.983379,1.67777 -12.921758,1.69482 -25.507487,3.42666 -3.597098,0.48524 -7.1981,0.94441 -10.791589,1.45572 -3.458699,0.49212 -6.913567,1.00877 -10.364226,1.55443 -5.729729,0.90606 -16.946187,2.85908 -22.536092,3.74138 -8.875489,1.4009 -11.695607,1.73139 -20.279898,2.88044 -1.452359,0.18259 -2.905376,0.36471 -4.358909030762,0.54095 v 0.63458 C 1.187267,146.57375 2.374333,146.38 3.561619,146.18728 c 10.769897,-1.7189 21.548114,-3.38347 32.321024,-5.08289 10.787179,-1.70166 21.560401,-3.49313 32.36495,-5.08393 28.467179,-3.93956 56.992207,-7.44344 85.512097,-10.97711 6.02292,-0.64765 12.047,-1.28538 18.06918,-1.93993 2.59276,-0.2818 4.50737,-0.52056 7.00836,-0.75448 1.29301,-0.12095 1.33869,-0.11342 2.41432,-0.16278 0.98815,-0.0457 1.07537,0.0446 1.34979,-0.1819 0.30866,-0.20424 0.70962,-0.64471 1.74459,-1.5198 0.28181,-0.22385 0.611,-0.47722 0.99684,-0.76481 0.004,-0.003 0.007,-0.006 0.008,-0.008 l 5.2e-4,-5.2e-4 v -5.1e-4 -5.2e-4 -5.2e-4 -5.1e-4 h -5.2e-4 v -5.2e-4 h -5.2e-4 v -5.2e-4 h -5.1e-4 -5.2e-4 c -0.008,-0.002 -0.0385,0.005 -0.0734,0.0145 0.005,-0.004 0.009,-0.007 0.0134,-0.0109 0.007,-0.005 0.0104,-0.01 0.0114,-0.0129 v -5.2e-4 -5.1e-4 c -1e-5,-2.1e-4 5e-5,-10e-4 0,-0.002 l -5.1e-4,-5.2e-4 v -5.2e-4 l -5.2e-4,-5.1e-4 h -5.2e-4 l -5.1e-4,-5.2e-4 c -0.0221,-0.0134 -0.18954,0.0294 -0.25735,0.0351 -0.17479,0.0149 -0.34934,0.0324 -0.524,0.0486 -0.15126,0.0207 -0.30253,0.0419 -0.45372,0.0631 -0.14362,0.0103 -0.28738,0.02 -0.43098,0.0305 -10.74294,0.67456 -21.50883,0.92838 -32.26573,1.26504 -28.29605,0.38343 -56.594123,0.56026 -84.890945,0.87798 l -11.94139,-0.0527 c -3.212235,-0.0189 -6.424363,-0.0427 -9.636621,-0.0568 -3.720259,-0.0164 -8.505412,-0.0368 -12.346017,0.015 -0.03096,4.2e-4 -0.0795,0.001 -0.14366,0.003 3.952564,-0.88346 7.914466,-1.72471 11.885579,-2.51923 2.15778,-0.39837 4.310465,-0.82604 6.473507,-1.19476 15.030392,-2.56217 30.239175,-4.06825 45.459241,-4.87154 3.3904,-0.0977 6.779506,-0.24353 10.170956,-0.293 8.73238,-0.12737 17.47962,0.0939 26.18755,0.75809 0.0459,-0.0319 0.0924,-0.0635 0.13849,-0.0951 0.0248,0.004 0.0487,5.2e-4 0.0713,-0.0145 0.27807,-0.18459 0.54898,-0.37867 0.81597,-0.57878 0.85884,-0.56505 1.72254,-1.12392 2.52026,-1.77043 0.12783,-0.1036 -0.32904,-0.0106 -0.49351,-0.015 -0.35744,-0.01 -0.71486,-0.0176 -1.07229,-0.0274 -2.74068,-0.075 -5.48088,-0.16655 -8.2212,-0.25373 -16.05218,-0.53496 -32.108536,-0.94465 -48.167091,-1.23351 -7.058991,-0.1271 -12.749428,-0.24943 -19.780188,-0.29973 -9.951719,-0.0712 -19.902305,0.082 -29.852958,0.20102 -0.156282,0.001 -0.312419,0.002 -0.468705,0.003 3.273496,-0.49844 6.688767,-1.01146 9.114172,-1.34979 8.547691,-1.19236 13.574641,-1.76591 21.504114,-2.69028 z m -37.164657,18.85157 c -0.02997,0.0121 -0.05903,0.0245 -0.0863,0.0367 -0.04861,0.0217 -0.153686,0.1155 -0.162264,0.13022 v 5.2e-4 l -5.17e-4,5.1e-4 v 5.2e-4 h 5.17e-4 v 5.2e-4 h 5.17e-4 l 5.16e-4,-5.2e-4 c 0.0018,-6.4e-4 0.0053,-0.002 0.01034,-0.006 0.07922,-0.0537 0.158521,-0.10821 0.237194,-0.16278 z m 149.820835,19.80551 c -5.0982,0.45711 -10.19147,0.96112 -15.27969,1.51928 -2.92998,0.3297 -5.86267,0.6965 -8.80515,0.88729 -0.49156,0.19803 -1.10254,-0.0591 -1.61023,0.062 -5.8312,0.0878 -11.66201,0.19091 -17.49248,0.31833 -16.7493,0.25775 -33.500515,0.27295 -50.25068,0.45682 -19.653813,0.0687 -39.309245,-0.15023 -58.960742,0.26355 -6.316556,0.0647 -12.633694,0.13539 -18.950781030762,0.1323 v 0.99994 C 6.002518,148.7864 12.006481,148.65414 18.010347,148.52719 c 19.793121,-0.22527 39.585136,-0.54868 59.379838,-0.56999 16.357232,0.12445 32.715135,0.13287 49.070905,0.39946 5.34287,0.12305 10.69999,0.20861 16.0228,0.73225 0.49043,0.0244 0.96756,0.15393 1.45831,0.14987 3.15375,-0.52058 6.31796,-0.9745 9.48417,-1.41335 4.97825,-0.64352 9.978,-1.09657 14.99185,-1.33016 z" /></svg>
