<?xml version="1.0" encoding="UTF-8" standalone="no"?>
<!-- Created with Inkscape (http://www.inkscape.org/) -->

<svg
   width="185.87099mm"
   height="162.78456mm"
   viewBox="0 0 185.87099 162.78456"
   version="1.1"
   id="svg1"
   xml:space="preserve"
   sodipodi:docname="N.2.svg"
   inkscape:version="1.4.2 (ebf0e940, 2025-05-08)"
   xmlns:inkscape="http://www.inkscape.org/namespaces/inkscape"
   xmlns:sodipodi="http://sodipodi.sourceforge.net/DTD/sodipodi-0.dtd"
   xmlns="http://www.w3.org/2000/svg"
   xmlns:svg="http://www.w3.org/2000/svg"><sodipodi:namedview
     id="namedview1"
     pagecolor="#ffffff"
     bordercolor="#666666"
     borderopacity="1.0"
     inkscape:showpageshadow="2"
     inkscape:pageopacity="0.0"
     inkscape:pagecheckerboard="0"
     inkscape:deskcolor="#d1d1d1"
     inkscape:document-units="mm"
     showgrid="false"
     inkscape:zoom="0.94803661"
     inkscape:cx="345.9782"
     inkscape:cy="303.25833"
     inkscape:window-width="1512"
     inkscape:window-height="922"
     inkscape:window-x="0"
     inkscape:window-y="32"
     inkscape:window-maximized="1"
     inkscape:current-layer="svg1" /><defs
     id="defs1" /><path
     style="opacity:0.6;fill:#ff0000;stroke-width:0.529167;stroke-linecap:round"
     id="path6"
     d="m 79.462584,50.482049 c -0.116977,-0.136943 -0.255937,-0.257818 -0.350938,-0.410829 -0.963438,-1.551757 -0.89703,-3.684508 -0.683456,-5.418889 0.079,-0.641503 0.234845,-1.271188 0.352267,-1.906783 0.724413,-2.956734 1.822116,-5.830811 3.179664,-8.554013 0.820288,-1.51197 1.865186,-2.814033 3.283995,-3.800363 0.390134,-0.271213 1.621788,-0.99065 1.210948,-0.751965 -6.359483,3.694661 -12.704916,7.413452 -19.057374,11.12018 2.957206,-1.755772 6.27353,-2.83116 9.646722,-3.453344 1.664165,-0.306954 2.572959,-0.329568 4.220278,-0.447053 2.923178,-0.214167 5.908413,-0.324837 8.806236,0.218294 0.551749,0.103415 1.094086,0.251915 1.641128,0.37787 2.725849,0.774592 5.273056,2.084015 7.388429,3.98176 0.355346,0.318791 0.679336,0.67089 1.019007,1.006335 1.37205,1.532239 2.07993,2.839749 2.26796,4.87346 -0.0747,1.244532 0.0422,2.475191 0.24211,3.70254 0.26257,2.239446 0.13714,4.534929 -0.1908,6.762816 -0.10572,0.718206 -0.26087,1.428266 -0.39131,2.142397 -0.16292,0.803603 -0.27961,1.617978 -0.48875,2.410807 -0.44946,1.703885 -1.25817,3.826224 -1.936599,5.437047 -0.923523,2.192737 -1.577829,3.550581 -2.781366,5.610622 -0.505127,0.8646 -1.067541,1.694434 -1.601311,2.541651 -2.688728,4.629983 -5.934417,8.895019 -9.297551,13.04808 -3.861356,4.702352 -8.313023,8.872445 -12.803333,12.961671 -0.719407,0.64906 -1.435301,1.30203 -2.15822,1.94718 -1.504981,1.34307 -2.865321,2.54338 -4.423589,3.82308 -1.893925,1.55535 -3.868309,3.00676 -5.783855,4.53486 -2.677163,2.20864 -5.268963,4.51655 -7.887687,6.79396 -3.058626,2.6475 -6.334758,5.02836 -9.540618,7.49176 -0.476949,0.36882 -0.961777,0.72768 -1.430847,1.10647 -1.110575,0.89683 -2.192988,1.83042 -3.303855,2.72709 -1.383634,1.11686 -0.209048,0.0704 -1.342945,1.11189 -0.158976,0.26107 -0.843116,0.66922 -0.960657,0.96788 -0.122288,0.31074 -0.0036,0.75485 0.07945,1.05229 -0.0258,-0.003 -0.07452,-0.0361 -0.0774,-0.0102 -0.0092,0.0825 0.05751,0.16097 0.05142,0.24381 -0.0034,0.0461 -0.06253,0.0711 -0.07778,0.11473 -0.09894,0.28289 -0.09975,0.62544 -0.126796,0.92 -0.05335,0.56875 -0.122428,1.13553 -0.124369,1.70796 0.03566,0.12394 -0.09282,0.61041 -0.0629,0.70652 0.147755,0.47455 0.409498,0.79336 0.683251,1.21069 0.870308,0.76816 1.773211,0.60379 2.868322,0.58221 0.981877,-0.0193 1.963315,-0.0575 2.945165,-0.0782 2.941133,-0.0734 5.880667,-0.18814 8.818584,-0.34146 0.768051,-0.0401 1.537388,-0.0599 2.304238,-0.11857 0.810411,-0.062 1.617429,-0.16238 2.426147,-0.24357 3.458109,-0.47213 6.946066,-0.62288 10.423911,-0.8736 3.487147,-0.33276 6.933073,-1.0034 10.384213,-1.58939 5.597422,-0.90783 11.207422,-1.73282 16.796591,-2.6908 4.693243,-0.67453 9.376636,-1.47273 14.110416,-1.80665 1.33009,0.0263 2.7396,-0.0985 4.05834,0.14904 0,0 21.56947,-16.34557 21.56947,-16.34557 v 0 c -2.20584,0.84587 -4.49146,1.44968 -6.78245,2.01602 -5.25174,1.27248 -10.54886,2.34524 -15.88837,3.18139 -5.09012,0.6997 -10.18518,1.41956 -15.319473,1.70269 -3.013861,0.12235 -6.058844,-0.0299 -9.037293,0.52735 -4.026453,0.7257 -7.989083,1.83553 -12.075631,2.20389 -1.14445,0.10878 -3.345392,0.3338 -4.496861,0.38023 -2.357432,0.0951 -4.706443,-0.12141 -7.011268,-0.62084 -1.118261,-0.2755 -0.918604,-0.19016 -1.895041,-0.55073 -0.168767,-0.0623 -0.338079,-0.12448 -0.500875,-0.20106 -0.102838,-0.0484 -0.184322,-0.14267 -0.293902,-0.1728 -0.08246,-0.0227 0.107461,0.40251 0.07842,0.24428 0.154876,0.29362 0.284729,0.60094 0.455467,0.88564 0.01828,0.0305 -0.01969,-0.0685 -0.02601,-0.10348 -0.02679,-0.14851 0.0038,-0.29242 -0.02609,-0.44054 0.02761,-0.39235 0.03078,-0.79521 0.167728,-1.16953 0.09925,-0.24355 0.239625,-0.49016 0.31215,-0.74275 0.03438,-0.11973 0.02582,-0.25122 0.07295,-0.36653 0.206399,-0.50495 0.138287,0.29098 0.14255,-0.44323 0.421669,0.4134 0.268832,0.45312 0.636775,-0.058 0.377179,-0.42896 0.176805,-0.19002 0.594265,-0.7225 0.930873,-1.0918 2.020078,-2.02751 3.101102,-2.96488 3.034871,-2.52704 6.164635,-4.93527 9.235223,-7.4184 2.707044,-2.15539 5.369739,-4.36994 7.839784,-6.79718 1.417873,-1.28173 2.772031,-2.62021 4.160371,-3.933474 2.034233,-1.924233 4.122336,-3.79018 6.187088,-5.681287 4.374846,-4.272034 8.676081,-8.624273 12.727111,-13.207428 1.39329,-1.621946 2.52108,-2.885646 3.81474,-4.581642 2.13606,-2.800381 3.92144,-5.83349 5.52963,-8.961977 0.10867,-0.24597 2.2178,-5.02036 2.24236,-5.073954 0.45699,-0.997564 0.95022,-1.978266 1.40664,-2.976094 1.3259,-2.898727 2.49262,-5.863685 3.77242,-8.782359 1.28342,-3.581017 2.77327,-7.147243 3.26797,-10.945622 0.22793,-1.585685 0.43339,-3.06736 -0.287,-4.563867 -0.342,-0.720929 -0.39233,-0.90274 -0.8687,-1.576891 -1.00343,-1.420023 -2.33558,-2.585293 -3.6935,-3.651761 -2.94673,-2.144432 -5.9938,-4.203493 -9.39307,-5.568054 -1.61218,-0.535858 -1.89537,-0.705568 -3.58276,-0.963845 -2.72008,-0.416343 -5.47319,-0.105238 -8.188995,0.173541 -4.594841,0.728347 -9.217657,1.365969 -13.714666,2.588554 -7.386034,4.298649 -14.81805,8.519245 -22.158105,12.895946 -0.527286,0.314407 -0.976593,0.747395 -1.425358,1.166312 -1.436376,1.340842 -2.446621,3.03779 -3.159006,4.853829 -0.478555,1.288283 -0.935673,2.581878 -1.215554,3.931679 -0.315839,1.523201 -0.36431,3.079909 -0.514361,4.623279 -0.0765,0.632322 -0.127717,1.268222 -0.229515,1.896967 -0.240686,1.486591 -0.536319,2.624455 -0.941983,4.072104 -0.245838,0.877295 -0.624208,2.135347 -0.967859,3.018256 -0.10214,0.262419 -0.233958,0.512302 -0.350938,0.768453 z" /><rect
     style="opacity:0.6;fill:none;stroke:none;stroke-width:0.529165;stroke-linecap:round"
     id="rect1"
     width="185.871"
     height="162.78499"
     x="-7.6293945e-06"
     y="-0.00021362305" /></svg>
